<?xml version="1.0" encoding="UTF-8"?>
<svg width="100px" height="100px" viewBox="0 0 100 100" version="1.1" xmlns="http://www.w3.org/2000/svg" xmlns:xlink="http://www.w3.org/1999/xlink">
    <!-- Generator: Sketch 42 (36781) - http://www.bohemiancoding.com/sketch -->
    <title>Artboard 15</title>
    <desc>Created with Sketch.</desc>
    <defs></defs>
    <g id="Home" stroke="none" stroke-width="1" fill="none" fill-rule="evenodd">
        <g id="Artboard-15">
            <g id="caf-logo" transform="translate(5.000000, 5.000000)">
                <g id="Calque_1">
                    <g id="Group">
                        <rect id="Rectangle-path" x="0.267428571" y="0.275142857" width="89.2767857" height="89.2767857"></rect>
                        <g id="Group-34" opacity="0.599999964" transform="translate(7.714286, 34.714286)" fill="#FFFFFF">
                            <path d="M60.0042857,0.0996428571 C60.2325,1.59235714 59.4707143,3.19242857 58.0480714,3.98314286 C58.0480714,3.98442857 56.1008571,5.06828571 55.0838571,5.63271429 L74.2577143,5.63271429 L74.2577143,0.0996428571 L60.0042857,0.0996428571" id="Shape"></path>
                            <path d="M19.2863571,5.50285714 L16.9065,3.942 C16.2102857,3.48235714 15.741,2.75785714 15.5815714,1.90028571 C15.4729286,1.30757143 15.5198571,0.687214286 15.7120714,0.0996428571 L0.226285714,0.0996428571 L0.226285714,5.63271429 L19.2683571,5.63271429 C19.2741429,5.589 19.2805714,5.54657143 19.2863571,5.50285714" id="Shape"></path>
                        </g>
                        <path d="M48.1956429,7.69307143 C49.932,7.69307143 51.543,6.31221429 51.7930714,4.60607143 C52.0444286,2.90314286 50.8377857,1.51971429 49.1007857,1.51971429 C47.367,1.51971429 45.7534286,2.9025 45.5033571,4.60607143 C45.2526429,6.31221429 46.458,7.69307143 48.1956429,7.69307143" id="Shape" fill="#FFFFFF"></path>
                        <path d="M59.0297143,6.48192857 C58.4093571,5.07728571 56.6517857,4.59771429 55.1050714,5.40835714 L47.997,9.1305 L41.9862857,5.40835714 C40.6755,4.59771429 38.7758571,5.07728571 37.7434286,6.48192857 C36.7116429,7.88592857 36.9398571,9.68078571 38.2487143,10.4914286 L42.4144286,13.0557857 L41.3363571,20.3972143 C41.3093571,20.5862143 41.328,20.7777857 41.4051429,20.952 C41.6397857,21.4842857 42.309,21.6662143 42.8952857,21.3589286 L46.4779286,19.4843571 L49.5077143,21.3589286 C50.0046429,21.6668571 50.7259286,21.4842857 51.1174286,20.952 C51.2453571,20.7777857 51.3218571,20.5862143 51.3520714,20.3972143 L52.4282143,13.0557857 L57.3447857,10.4914286 C58.8953571,9.68014286 59.6487857,7.88528571 59.0297143,6.48192857" id="Shape" fill="#FFFFFF"></path>
                        <path d="M45.1870714,28.1905714 C46.9215,28.1905714 48.5325,26.8071429 48.7845,25.1035714 C49.0332857,23.3993571 47.8292143,22.0165714 46.0922143,22.0165714 C44.3552143,22.0165714 42.7448571,23.3987143 42.4947857,25.1035714 C42.2447143,26.8071429 43.4481429,28.1905714 45.1870714,28.1905714" id="Shape" fill="#FFFFFF"></path>
                        <path d="M56.0217857,26.9781429 C55.4014286,25.5741429 53.6438571,25.0932857 52.0945714,25.9032857 L44.9890714,29.6267143 L38.9770714,25.9032857 C37.6662857,25.0932857 35.7666429,25.5741429 34.7348571,26.9781429 C33.7030714,28.3821429 33.93,30.1776429 35.2401429,30.9850714 L39.4052143,33.5513571 L38.3258571,40.8927857 C38.2995,41.0837143 38.3207143,41.2733571 38.3972143,41.4475714 C38.6318571,41.9798571 39.2991429,42.1617857 39.8873571,41.8557857 L43.4687143,39.9786429 L46.4978571,41.8557857 C46.9960714,42.1624286 47.7167143,41.9798571 48.1062857,41.4475714 C48.2342143,41.2733571 48.3132857,41.0837143 48.3396429,40.8927857 L49.4183571,33.5513571 L54.3362143,30.9850714 C55.8874286,30.1776429 56.6402143,28.3821429 56.0217857,26.9781429" id="Shape" fill="#FFFFFF"></path>
                        <path d="M28.6894286,17.946 C30.4257857,17.946 32.0367857,16.5651429 32.2868571,14.859 C32.5382143,13.1560714 31.3315714,11.772 29.5952143,11.772 C27.8582143,11.772 26.2478571,13.1554286 25.9971429,14.859 C25.7470714,16.5645 26.9524286,17.946 28.6894286,17.946" id="Shape" fill="#FFFFFF"></path>
                        <path d="M39.5241429,16.7335714 C38.9044286,15.3295714 37.1462143,14.85 35.5975714,15.66 L28.4914286,19.3840714 L22.4807143,15.66 C21.1699286,14.85 19.2696429,15.3295714 18.2378571,16.7335714 C17.2073571,18.1375714 17.433,19.9337143 18.7431429,20.7437143 L22.9082143,23.3087143 L21.8307857,30.6501429 C21.8037857,30.8378571 21.825,31.0294286 21.9015,31.2042857 C22.1355,31.7365714 22.8040714,31.9178571 23.3903571,31.6105714 L26.9723571,29.736 L30.0034286,31.6105714 C30.5016429,31.9185 31.221,31.7365714 31.6118571,31.2042857 C31.7391429,31.0294286 31.8156429,30.8378571 31.8445714,30.6501429 L32.9226429,23.3087143 L37.8411429,20.7437143 C39.3897857,19.9330714 40.1432143,18.1369286 39.5241429,16.7335714" id="Shape" fill="#FFFFFF"></path>
                        <path d="M25.6789286,38.4428571 C27.4172143,38.4428571 29.0269286,37.0607143 29.2776429,35.3552143 C29.5283571,33.651 28.3236429,32.2695 26.5872857,32.2695 C24.8502857,32.2695 23.2392857,33.651 22.9885714,35.3552143 C22.7385,37.0600714 23.9425714,38.4428571 25.6789286,38.4428571" id="Shape" fill="#FFFFFF"></path>
                        <path d="M36.5149286,37.2297857 C35.8952143,35.8270714 34.1376429,35.3462143 32.5896429,36.1575 L25.4828571,39.879 L19.4702143,36.1575 C18.1594286,35.3462143 16.2604286,35.8270714 15.2286429,37.2297857 C14.1968571,38.6337857 14.4231429,40.4292857 15.7339286,41.2373571 L19.899,43.8049286 L18.8209286,51.1476429 C18.7939286,51.3347143 18.8151429,51.5256429 18.8922857,51.7011429 C19.1269286,52.2321429 19.7935714,52.4153571 20.3817857,52.1080714 L23.9618571,50.2322143 L26.9929286,52.1080714 C27.4905,52.416 28.2124286,52.2321429 28.602,51.7011429 C28.7312143,51.5256429 28.8077143,51.3347143 28.8366429,51.1476429 L29.9147143,43.8049286 L34.8319286,41.2373571 C36.3812143,40.4292857 37.1346429,38.6337857 36.5149286,37.2297857" id="Shape" fill="#FFFFFF"></path>
                        <path d="M64.7003571,17.946 C62.9652857,17.946 61.7573571,16.5651429 62.0080714,14.859 C62.2581429,13.1560714 63.8691429,11.772 65.6067857,11.772 C67.3431429,11.772 68.5485,13.1554286 68.2990714,14.859 C68.0464286,16.5645 66.4367143,17.946 64.7003571,17.946" id="Shape" fill="#FFFFFF"></path>
                        <path d="M54.2211429,16.7335714 C55.2529286,15.3295714 57.1532143,14.85 58.4627143,15.66 L64.476,19.3840714 L71.5827857,15.66 C73.1307857,14.85 74.889,15.3295714 75.5074286,16.7335714 C76.1258571,18.1375714 75.3730714,19.9337143 73.8250714,20.7437143 L68.9059286,23.3087143 L67.8285,30.6501429 C67.8008571,30.8378571 67.7256429,31.0294286 67.5964286,31.2042857 C67.2036429,31.7365714 66.483,31.9178571 65.9854286,31.6105714 L62.9543571,29.736 L59.3736429,31.6105714 C58.7886429,31.9185 58.1194286,31.7365714 57.8847857,31.2042857 C57.8082857,31.0294286 57.7870714,30.8378571 57.8147143,30.6501429 L58.8934286,23.3087143 L54.7283571,20.7437143 C53.415,19.9330714 53.19,18.1369286 54.2211429,16.7335714" id="Shape" fill="#FFFFFF"></path>
                        <path d="M61.6917857,38.4428571 C59.9541429,38.4428571 58.7487857,37.0607143 58.9995,35.3552143 C59.2495714,33.651 60.8612143,32.2695 62.5982143,32.2695 C64.3352143,32.2695 65.5386429,33.651 65.2905,35.3552143 C65.0378571,37.0600714 63.4281429,38.4428571 61.6917857,38.4428571" id="Shape" fill="#FFFFFF"></path>
                        <path d="M51.2125714,37.2297857 C52.2437143,35.8270714 54.1420714,35.3462143 55.4541429,36.1575 L61.4648571,39.879 L68.5716429,36.1575 C70.1209286,35.3462143 71.8791429,35.8270714 72.4975714,37.2297857 C73.1179286,38.6337857 72.3645,40.4292857 70.8152143,41.2373571 L65.8973571,43.8049286 L64.8186429,51.1476429 C64.7922857,51.3347143 64.7170714,51.5256429 64.5878571,51.7011429 C64.1950714,52.2321429 63.4757143,52.4153571 62.9768571,52.1080714 L59.9457857,50.2322143 L56.3650714,52.1080714 C55.7775,52.416 55.1121429,52.2321429 54.8762143,51.7011429 C54.7984286,51.5256429 54.7785,51.3347143 54.8061429,51.1476429 L55.8835714,43.8049286 L51.7178571,41.2373571 C50.4064286,40.4292857 50.1795,38.6337857 51.2125714,37.2297857" id="Shape" fill="#FFFFFF"></path>
                        <path d="M42.1765714,48.6867857 C43.9135714,48.6867857 45.5239286,47.3046429 45.7759286,45.5991429 C46.0247143,43.8942857 44.8187143,42.5127857 43.0823571,42.5127857 C41.346,42.5127857 39.735,43.8936429 39.4842857,45.5991429 C39.2335714,47.3046429 40.4402143,48.6867857 42.1765714,48.6867857" id="Shape" fill="#FFFFFF"></path>
                        <path d="M53.0106429,47.4756429 C52.3915714,46.0716429 50.634,45.5907857 49.086,46.4007857 L41.9805,50.1261429 L35.9685,46.4007857 C34.6577143,45.5907857 32.7567857,46.0716429 31.725,47.4756429 C30.6938571,48.8783571 30.9195,50.6738571 32.2315714,51.4832143 L36.3966429,54.0469286 L35.3185714,61.3909286 C35.2915714,61.5805714 35.3108571,61.7702143 35.3886429,61.9444286 C35.6239286,62.4767143 36.2892857,62.6586429 36.8781429,62.3513571 L40.4588571,60.4767857 L43.4899286,62.3513571 C43.9855714,62.6592857 44.7081429,62.4767143 45.0996429,61.9444286 C45.2262857,61.7702143 45.3047143,61.5805714 45.333,61.3909286 L46.4104286,54.0469286 L51.327,51.4832143 C52.8775714,50.6732143 53.6322857,48.8777143 53.0106429,47.4756429" id="Shape" fill="#FFFFFF"></path>
                        <path d="M7.38064286,69.0737143 L6.85414286,66.1898571 L5.17692857,69.0737143 L7.38064286,69.0737143 L7.38064286,69.0737143 Z M4.70957143,69.8322857 C4.21971429,70.7702143 3.77357143,71.5397143 3.384,72.3947143 C3.19371429,72.3812143 3.01757143,72.3548571 2.82471429,72.3548571 C2.6325,72.3548571 2.43514286,72.3812143 2.23907143,72.3947143 L7.3035,63.8125714 C7.45521429,63.8376429 7.59792857,63.8505 7.75414286,63.8505 C7.91035714,63.8505 8.05628571,63.8376429 8.21892857,63.8125714 L9.95078571,72.4185 C9.60557143,72.3947143 9.27578571,72.3542143 8.92607143,72.3542143 C8.57635714,72.3542143 8.23307143,72.3940714 7.8795,72.4185 C7.77535714,71.5030714 7.68342857,70.6609286 7.51371429,69.8322857 L4.70957143,69.8322857 L4.70957143,69.8322857 Z" id="Shape" fill="#FFFFFF" fill-rule="nonzero"></path>
                        <path d="M13.2955714,71.4645 C14.3440714,71.4645 15.2517857,71.3764286 16.0849286,71.2922143 C16.0283571,71.4645 15.9576429,71.6502857 15.9242143,71.8245 C15.8914286,71.9980714 15.8927143,72.1825714 15.8843571,72.3542143 L11.322,72.3542143 L12.9162857,63.9231429 C13.2126429,63.9482143 13.5057857,63.9861429 13.8066429,63.9861429 C14.1068571,63.9861429 14.4160714,63.9482143 14.7220714,63.9231429 L13.2955714,71.4645" id="Shape" fill="#FFFFFF" fill-rule="nonzero"></path>
                        <path d="M19.5563571,71.4645 C20.6029286,71.4645 21.51,71.3764286 22.3444286,71.2922143 C22.2885,71.4645 22.2171429,71.6502857 22.185,71.8245 C22.1522143,71.9980714 22.1522143,72.1825714 22.1425714,72.3542143 L17.5821429,72.3542143 L19.1751429,63.9231429 C19.4727857,63.9482143 19.7659286,63.9861429 20.0667857,63.9861429 C20.3676429,63.9861429 20.6749286,63.9482143 20.9815714,63.9231429 L19.5563571,71.4645" id="Shape" fill="#FFFFFF" fill-rule="nonzero"></path>
                        <path d="M25.9630714,68.5189286 C25.6583571,70.1260714 26.0447143,71.8360714 27.8511429,71.8360714 C29.7045,71.8360714 30.8950714,69.93 31.284,67.8735 C31.5855,66.2779286 31.2087857,64.4432143 29.4055714,64.4432143 C27.7309286,64.4432143 26.4863571,65.7443571 25.9630714,68.5189286 L25.9630714,68.5189286 Z M27.6505714,72.5779286 C24.9910714,72.5779286 23.5022143,70.9695 24.0332143,68.1582857 C24.4986429,65.6935714 26.6207143,63.702 29.6164286,63.702 C33.048,63.702 33.588,66.1892143 33.2363571,68.1087857 C32.7927857,70.524 30.5987143,72.5779286 27.6505714,72.5779286 Z" id="Shape" fill="#FFFFFF" fill-rule="nonzero"></path>
                        <path d="M40.8285,70.9810714 L40.3611429,72.0456429 C39.5665714,72.4313571 38.6852143,72.5779286 37.8784286,72.5779286 C35.3025,72.5779286 33.6606429,70.9457143 34.1421429,68.4070714 C34.7509286,65.1741429 37.197,63.7026429 39.8198571,63.7026429 C40.6144286,63.7026429 41.5388571,63.9122143 42.1617857,64.3088571 C41.9740714,64.7292857 41.823,65.1503571 41.6436429,65.5842857 L41.4745714,65.5842857 C41.1563571,64.9150714 40.4736429,64.4432143 39.6932143,64.4432143 C37.6939286,64.4432143 36.5162143,66.4129286 36.171,68.2328571 C35.7717857,70.3497857 36.5027143,71.8360714 38.3541429,71.8360714 C39.1011429,71.8360714 40.0429286,71.442 40.6851429,70.9071429 L40.8285,70.9810714" id="Shape" fill="#FFFFFF" fill-rule="nonzero"></path>
                        <path d="M46.6412143,69.0737143 L46.1153571,66.1898571 L44.4387857,69.0737143 L46.6412143,69.0737143 L46.6412143,69.0737143 Z M43.9720714,69.8322857 C43.4796429,70.7702143 43.0347857,71.5397143 42.6432857,72.3947143 C42.4542857,72.3812143 42.2781429,72.3548571 42.0859286,72.3548571 C41.8937143,72.3548571 41.6957143,72.3812143 41.5009286,72.3947143 L46.566,63.8125714 C46.7164286,63.8376429 46.8597857,63.8505 47.0153571,63.8505 C47.1696429,63.8505 47.3181429,63.8376429 47.4775714,63.8125714 L49.2113571,72.4185 C48.8661429,72.3947143 48.5382857,72.3542143 48.1879286,72.3542143 C47.8375714,72.3542143 47.4949286,72.3940714 47.1407143,72.4185 C47.0378571,71.5030714 46.9420714,70.6609286 46.7742857,69.8322857 L43.9720714,69.8322857 L43.9720714,69.8322857 Z" id="Shape" fill="#FFFFFF" fill-rule="nonzero"></path>
                        <path d="M53.9659286,72.4185 C53.6695714,72.3947143 53.3757857,72.3542143 53.073,72.3542143 C52.7727857,72.3542143 52.4655,72.3940714 52.1614286,72.4185 L53.5988571,64.8032143 C52.7451429,64.8032143 51.9705,64.8887143 51.3276429,64.9767857 C51.3842143,64.8032143 51.4517143,64.6302857 51.4883571,64.4432143 C51.5224286,64.2696429 51.516,64.098 51.525,63.9231429 L57.7240714,63.9231429 C57.6687857,64.0973571 57.6012857,64.2696429 57.5659286,64.4432143 C57.5305714,64.6302857 57.537,64.8038571 57.528,64.9767857 C56.8337143,64.8887143 56.1381429,64.8032143 55.4033571,64.8032143 L53.9659286,72.4185" id="Shape" fill="#FFFFFF" fill-rule="nonzero"></path>
                        <path d="M59.3138571,63.9237857 C59.6102143,63.9488571 59.904,63.9867857 60.2042143,63.9867857 C60.5057143,63.9867857 60.813,63.9488571 61.1196429,63.9237857 L59.5137857,72.4191429 C59.2187143,72.3953571 58.9223571,72.3548571 58.6234286,72.3548571 C58.3219286,72.3548571 58.0133571,72.3947143 57.7092857,72.4191429 L59.3138571,63.9237857" id="Shape" fill="#FFFFFF" fill-rule="nonzero"></path>
                        <path d="M63.8337857,68.5189286 C63.5297143,70.1260714 63.9167143,71.8360714 65.7231429,71.8360714 C67.5765,71.8360714 68.7664286,69.93 69.156,67.8735 C69.4587857,66.2779286 69.0833571,64.4432143 67.2762857,64.4432143 C65.6042143,64.4432143 64.3583571,65.7443571 63.8337857,68.5189286 L63.8337857,68.5189286 Z M65.5212857,72.5779286 C62.8630714,72.5779286 61.3742143,70.9695 61.9039286,68.1582857 C62.37,65.6935714 64.4914286,63.702 67.4897143,63.702 C70.92,63.702 71.4587143,66.1892143 71.1070714,68.1087857 C70.6654286,70.524 68.472,72.5779286 65.5212857,72.5779286 Z" id="Shape" fill="#FFFFFF" fill-rule="nonzero"></path>
                        <path d="M73.5595714,63.9237857 L74.7501429,63.9237857 C76.0962857,65.8433571 77.535,67.7256429 78.8560714,69.7197857 L79.9508571,63.9237857 C80.1038571,63.9488571 80.2671429,63.9617143 80.424,63.9617143 C80.5808571,63.9617143 80.7531429,63.9488571 80.9125714,63.9237857 L79.308,72.4191429 L78.2871429,72.4062857 C77.1936429,70.8094286 76.1817857,69.2852143 75.1005,67.8124286 L74.0545714,66.4000714 L72.9205714,72.3953571 C72.7688571,72.3818571 72.6017143,72.3555 72.4487143,72.3555 C72.2918571,72.3555 72.117,72.3818571 71.9601429,72.3953571 L73.5595714,63.9237857" id="Shape" fill="#FFFFFF" fill-rule="nonzero"></path>
                        <path d="M86.5067143,65.5219286 C86.3922857,64.8642857 86.0117143,64.4432143 85.3251429,64.4432143 C84.3743571,64.4432143 83.9050714,64.953 83.7732857,65.6575714 C83.457,67.3302857 87.1759286,67.0210714 86.6385,69.8547857 C86.3395714,71.442 84.8005714,72.5792143 82.9343571,72.5792143 C82.2728571,72.5792143 81.5933571,72.4185 81.0964286,72.0456429 C81.3387857,71.5268571 81.5708571,71.0074286 81.7444286,70.4725714 L81.972,70.4725714 C81.9906429,71.3301429 82.5460714,71.8360714 83.3772857,71.8360714 C84.123,71.8360714 84.8661429,71.4015 85.0268571,70.5490714 C85.4022857,68.5677857 81.6807857,69.2845714 82.2445714,66.3036429 C82.5132857,64.8758571 83.6858571,63.702 85.5167143,63.702 C86.382,63.702 87.0897857,64.0362857 87.3045,64.2947143 C87.0872143,64.6913571 86.8879286,65.0995714 86.6867143,65.5212857 L86.5067143,65.5212857" id="Shape" fill="#FFFFFF" fill-rule="nonzero"></path>
                        <path d="M8.42914286,85.0802143 C8.08521429,85.0538571 7.74514286,85.0146429 7.39607143,85.0146429 C7.047,85.0146429 6.69021429,85.0538571 6.33407143,85.0802143 L8.19707143,76.3161429 L13.518,76.3161429 C13.4511429,76.4942143 13.3695,76.6851429 13.3302857,76.8638571 C13.293,77.0419286 13.2942857,77.2341429 13.284,77.4128571 C12.4515,77.3235 11.5624286,77.2347857 10.0967143,77.2347857 L9.513,79.9817143 L10.9915714,79.9817143 C11.5367143,79.9817143 12.1062857,79.9302857 12.7060714,79.866 C12.6398571,80.0466429 12.5582143,80.2375714 12.5202857,80.4169286 C12.483,80.595 12.483,80.7872143 12.474,80.9659286 C11.898,80.9145 11.3522143,80.8515 10.7942143,80.8515 L9.32721429,80.8515 L8.42914286,85.0802143" id="Shape" fill="#FFFFFF" fill-rule="nonzero"></path>
                        <path d="M18.4217143,81.6293571 L17.8116429,78.6522857 L15.8676429,81.6293571 L18.4217143,81.6293571 L18.4217143,81.6293571 Z M15.3250714,82.4091429 C14.7555,83.3811429 14.238,84.1718571 13.7847857,85.0532143 C13.5642857,85.0403571 13.3598571,85.014 13.1367857,85.014 C12.9137143,85.014 12.6842143,85.0403571 12.4585714,85.0532143 L18.333,76.2010714 C18.5085,76.2235714 18.6737143,76.239 18.855,76.239 C19.0369286,76.239 19.2072857,76.2242143 19.395,76.2010714 L21.4039286,85.0795714 C21.0047143,85.0532143 20.6228571,85.014 20.2178571,85.014 C19.8128571,85.014 19.4136429,85.0532143 19.0028571,85.0795714 C18.8826429,84.1326429 18.7733571,83.2667143 18.5779286,82.4091429 L15.3250714,82.4091429 Z" id="Shape" fill="#FFFFFF" fill-rule="nonzero"></path>
                        <path d="M33.5314286,76.3161429 C33.7197857,76.3425 33.9075,76.3804286 34.1042143,76.3804286 C34.299,76.3804286 34.5162857,76.3425 34.7175,76.3161429 C34.4205,79.7515714 34.1505,82.5377143 34.0842857,85.0802143 C33.6985714,85.0538571 33.3295714,85.0146429 32.9393571,85.0146429 C32.5478571,85.0146429 32.1910714,85.0538571 31.7944286,85.0802143 C32.1139286,83.0500714 32.2508571,81.0938571 32.4585,79.1247857 C30.9818571,81.081 29.5193571,83.0346429 28.1063571,85.0146429 C27.9315,84.9882857 27.7656429,84.9767143 27.5772857,85.0146429 C27.0585,83.2519286 26.3757857,81.2732143 25.74,79.2668571 C24.9409286,81.5168571 24.3411429,83.2898571 23.9181429,85.0802143 C23.7008571,85.0538571 23.5002857,85.0146429 23.2765714,85.0146429 C23.0522143,85.0146429 22.8490714,85.0538571 22.6208571,85.0802143 C23.6687143,82.5113571 24.7448571,79.5471429 25.9065,76.3161429 C26.0967857,76.3425 26.2690714,76.3804286 26.4645,76.3804286 C26.6605714,76.3804286 26.8643571,76.3425 27.0655714,76.3161429 C27.6441429,78.3225 28.3236429,80.3140714 29.0018571,82.3204286 C30.3910714,80.5043571 32.0046429,78.5005714 33.5314286,76.3161429" id="Shape" fill="#FFFFFF" fill-rule="nonzero"></path>
                        <path d="M37.9697143,76.3161429 C38.3136429,76.3425 38.6537143,76.3804286 39.0047143,76.3804286 C39.3525,76.3804286 39.7099286,76.3425 40.0647857,76.3161429 L38.2017857,85.0802143 C37.8591429,85.0538571 37.5184286,85.0146429 37.1687143,85.0146429 C36.8196429,85.0146429 36.4628571,85.0538571 36.1073571,85.0802143 L37.9697143,76.3161429" id="Shape" fill="#FFFFFF" fill-rule="nonzero"></path>
                        <path d="M43.0437857,84.0953571 C44.2607143,84.0953571 45.3117857,84.0047143 46.2799286,83.9147143 C46.2156429,84.0953571 46.1320714,84.2875714 46.0954286,84.4656429 C46.0562143,84.6437143 46.0575,84.8359286 46.0452857,85.0146429 L40.7552143,85.0146429 L42.6034286,76.3161429 C42.948,76.3425 43.2887143,76.3804286 43.6377857,76.3804286 C43.9855714,76.3804286 44.3436429,76.3425 44.6978571,76.3161429 L43.0437857,84.0953571" id="Shape" fill="#FFFFFF" fill-rule="nonzero"></path>
                        <path d="M49.878,76.3161429 C50.2219286,76.3425 50.5632857,76.3804286 50.9097857,76.3804286 C51.2601429,76.3804286 51.6195,76.3425 51.9730714,76.3161429 L50.1113571,85.0802143 C49.7661429,85.0538571 49.4260714,85.0146429 49.077,85.0146429 C48.7279286,85.0146429 48.3711429,85.0538571 48.015,85.0802143 L49.878,76.3161429" id="Shape" fill="#FFFFFF" fill-rule="nonzero"></path>
                        <path d="M57.6829286,81.6293571 L57.0728571,78.6522857 L55.1295,81.6293571 L57.6829286,81.6293571 L57.6829286,81.6293571 Z M54.5837143,82.4091429 C54.0147857,83.3811429 53.4985714,84.1718571 53.0453571,85.0532143 C52.8242143,85.0403571 52.6210714,85.014 52.3947857,85.014 C52.1723571,85.014 51.9441429,85.0403571 51.7178571,85.0532143 L57.5916429,76.2010714 C57.7684286,76.2235714 57.9342857,76.239 58.1162143,76.239 C58.2968571,76.239 58.4678571,76.2242143 58.6549286,76.2010714 L60.6638571,85.0795714 C60.2646429,85.0532143 59.8802143,85.014 59.4745714,85.014 C59.0702143,85.014 58.6722857,85.0532143 58.2615,85.0795714 C58.1419286,84.1326429 58.0332857,83.2667143 57.8372143,82.4091429 L54.5837143,82.4091429 Z" id="Shape" fill="#FFFFFF" fill-rule="nonzero"></path>
                        <path d="M64.4052857,84.0953571 C65.6222143,84.0953571 66.6739286,84.0047143 67.6420714,83.9147143 C67.5765,84.0953571 67.4948571,84.2875714 67.455,84.4656429 C67.4170714,84.6437143 67.4196429,84.8359286 67.4087143,85.0146429 L62.1167143,85.0146429 L63.9636429,76.3161429 C64.3088571,76.3425 64.6489286,76.3804286 64.9992857,76.3804286 C65.3496429,76.3804286 65.7051429,76.3425 66.0612857,76.3161429 L64.4052857,84.0953571" id="Shape" fill="#FFFFFF" fill-rule="nonzero"></path>
                        <path d="M76.5212143,76.3161429 C76.4537143,76.4942143 76.3695,76.6851429 76.3328571,76.8638571 C76.2949286,77.0419286 76.2949286,77.2341429 76.2865714,77.4128571 C75.4579286,77.3125714 74.529,77.2097143 73.0960714,77.2347857 L72.5149286,79.9817143 L73.9665,79.9817143 C74.5965,79.9817143 75.1795714,79.9302857 75.7092857,79.866 C75.6424286,80.0466429 75.5601429,80.2375714 75.5222143,80.4169286 C75.4855714,80.595 75.4855714,80.7872143 75.4759286,80.9659286 C74.9751429,80.9029286 74.4126429,80.8515 73.782,80.8515 L72.3291429,80.8515 L71.64,84.096 C73.0677857,84.0844286 74.0320714,84.0195 74.9044286,83.9153571 C74.8388571,84.096 74.7565714,84.2882143 74.7199286,84.4662857 C74.6800714,84.6443571 74.6807143,84.8365714 74.6697857,85.0152857 L69.3501429,85.0152857 L71.1996429,76.3167857 L76.5212143,76.3167857" id="Shape" fill="#FFFFFF" fill-rule="nonzero"></path>
                        <path d="M82.4265,77.9631429 C82.2882857,77.2849286 81.8524286,76.851 81.0565714,76.851 C79.9527857,76.851 79.4095714,77.3755714 79.2533571,78.1039286 C78.8856429,79.8293571 83.1998571,79.5079286 82.5782143,82.4342143 C82.2291429,84.069 80.4452143,85.2467143 78.2813571,85.2467143 C77.5118571,85.2467143 76.7230714,85.0795714 76.1483571,84.6957857 C76.4305714,84.1596429 76.698,83.6235 76.8979286,83.0738571 L77.1653571,83.0738571 C77.1865714,83.9552143 77.8294286,84.4778571 78.7937143,84.4778571 C79.6577143,84.4778571 80.5217143,84.0323571 80.7094286,83.1522857 C81.1427143,81.1067143 76.8233571,81.8479286 77.4777857,78.7692857 C77.7915,77.2990714 79.1517857,76.086 81.2745,76.086 C82.2786429,76.086 83.0989286,76.4312143 83.349,76.6999286 C83.0944286,77.1068571 82.8668571,77.5285714 82.6335,77.9644286 L82.4265,77.9644286" id="Shape" fill="#FFFFFF" fill-rule="nonzero"></path>
                    </g>
                </g>
            </g>
        </g>
    </g>
</svg>