<?xml version="1.0" encoding="UTF-8"?>
<svg width="184px" height="170px" viewBox="0 0 184 170" version="1.1" xmlns="http://www.w3.org/2000/svg" xmlns:xlink="http://www.w3.org/1999/xlink">
    <!-- Generator: Sketch 42 (36781) - http://www.bohemiancoding.com/sketch -->
    <title>creche-la-maison-pilou</title>
    <desc>Created with Sketch.</desc>
    <defs></defs>
    <g id="Home" stroke="none" stroke-width="1" fill="none" fill-rule="evenodd">
        <g id="home" transform="translate(-884.000000, -255.000000)">
            <g id="creche-la-maison-pilou" transform="translate(884.000000, 255.000000)">
                <g id="source-icone-logo">
                    <g id="Calque_1">
                        <g id="Group">
                            <path d="M94.5477277,149.254034 L94.5477277,147.661778" id="Shape" fill="#9AB6E0"></path>
                            <path d="M22.8910174,72.9324193 L22.8910174,127.966614 L22.8910174,127.966614 C23.1111233,128.161857 23.3556855,128.357101 23.5757914,128.552344 C23.6736163,128.62556 23.7469849,128.698776 23.8448098,128.771993 C23.8937222,128.820803 23.9670908,128.869614 24.0160033,128.918425 C24.0893719,128.991641 24.1871968,129.064857 24.2850216,129.138074 C24.4562151,129.260101 24.6029524,129.406533 24.7741459,129.52856 C24.8719708,129.626182 24.9942519,129.699398 25.0920767,129.79702 C25.2632702,129.943452 25.4344637,130.065479 25.6056573,130.211912 C25.8257632,130.382749 26.0214129,130.553587 26.2415188,130.724425 L26.2659751,130.748831 C26.4127124,130.870858 26.5594496,130.968479 26.7061869,131.090506 C26.8040118,131.163722 26.9018367,131.236939 26.9996615,131.310155 C27.0730302,131.383371 27.1463988,131.432182 27.2442237,131.505398 C27.5376983,131.725047 27.8067166,131.944696 28.1001912,132.139939 C28.1735598,132.213155 28.2713847,132.261966 28.3447534,132.335182 C28.6871404,132.579236 29.0050712,132.82329 29.3474582,133.042939 C29.6409328,133.262588 29.9344073,133.457831 30.2523381,133.677479 C30.3746192,133.775101 30.5213565,133.872723 30.6436376,133.945939 C30.8392873,134.067966 31.0104808,134.189993 31.2061305,134.31202 C31.4017802,134.434047 31.59743,134.58048 31.7930797,134.702507 C31.8419921,134.726912 31.8909045,134.775723 31.939817,134.800128 C32.2088353,134.970966 32.4778537,135.166209 32.7468721,135.337047 C32.7713283,135.361453 32.7957845,135.361453 32.8202407,135.385858 C33.1870839,135.605507 33.5539272,135.849561 33.9207704,136.069209 C34.0430515,136.142426 34.1408763,136.215642 34.2631574,136.288858 C34.5321758,136.459696 34.8011941,136.630534 35.0946687,136.801372 C35.3881433,136.97221 35.6816179,137.143047 35.9750925,137.313885 C36.1707422,137.435912 36.3419357,137.533534 36.5375854,137.631156 C36.8066038,137.801993 37.1000784,137.948426 37.3690967,138.094858 C37.4424654,138.143669 37.515834,138.168075 37.5892027,138.216885 C37.6870275,138.265696 37.7603962,138.314507 37.858221,138.363318 C38.6408199,138.802615 39.4234188,139.217507 40.2304739,139.607994 C40.3038426,139.656804 40.3772112,139.68121 40.4505798,139.730021 C40.6706858,139.852048 40.8907917,139.949669 41.1108977,140.047291 C41.3310036,140.144913 41.5511095,140.26694 41.7712155,140.364561 C41.9913214,140.462183 42.2114273,140.58421 42.4315333,140.681832 C42.6027268,140.755048 42.7739203,140.852669 42.96957,140.925886 C43.0184824,140.950291 43.0673949,140.974696 43.1163073,140.999102 C43.5076067,141.16994 43.87445,141.340778 44.2657494,141.511615 C44.3391181,141.536021 44.3880305,141.560426 44.4613991,141.609237 C44.6081364,141.682453 44.7548737,141.731264 44.901611,141.80448 C45.1217169,141.902102 45.3173667,141.999724 45.5374726,142.07294 C45.7331223,142.170561 45.9532283,142.243778 46.148878,142.341399 C46.2711591,142.39021 46.3934401,142.439021 46.491265,142.487832 C46.7113709,142.585453 46.9559331,142.683075 47.176039,142.756291 C47.2738639,142.780697 47.3716887,142.829507 47.4450574,142.853913 C47.5917947,142.902724 47.7140757,142.951534 47.860813,143.024751 C47.9586379,143.049156 48.0320065,143.097967 48.1298314,143.122372 C48.3254811,143.195589 48.5455871,143.29321 48.7412368,143.366426 C48.9613427,143.439643 49.1814487,143.537264 49.4015546,143.61048 C50.2819783,143.927751 51.1624021,144.245021 52.0428258,144.537886 C52.4830377,144.684318 52.9232496,144.830751 53.3634614,144.977183 C56.2492948,145.880183 59.2084969,146.661156 62.2410675,147.246886 L62.2410675,119.864019 C62.2410675,115.397829 64.0508275,111.370937 66.9855733,108.442288 C69.9203191,105.513639 73.9555946,103.707639 78.431082,103.707639 L78.431082,103.707639 C87.3576005,103.707639 94.6210964,110.931639 94.6210964,119.864019 L94.5477277,147.661778 C95.5748888,147.49094 96.5775936,147.295697 97.5802984,147.076048 C101.811224,146.173048 105.944324,144.977183 109.930687,143.488453 C118.930574,140.120507 127.221231,135.312642 134.509183,129.333317 L134.509183,72.9324193 L22.8910174,72.9324193 L22.8910174,72.9324193 Z M50.5265405,108.954801 L33.871858,108.954801 L33.871858,84.5005826 L50.5265405,84.5005826 L50.5265405,108.954801 L50.5265405,108.954801 Z M122.990306,108.954801 L106.335623,108.954801 L106.335623,84.5005826 L122.990306,84.5005826 L122.990306,108.954801 L122.990306,108.954801 Z" id="Shape" fill="#C2D5F0"></path>
                            <path d="M94.5477277,149.126103 C94.2053407,149.126103 93.8629537,149.004076 93.5939354,148.784427 C93.2515483,148.515967 93.0803548,148.101076 93.0803548,147.661778 L93.1537235,119.864019 C93.1537235,111.761423 86.5505454,105.171963 78.431082,105.171963 C74.4936313,105.171963 70.8007428,106.709504 68.0127343,109.467315 C65.2247258,112.249531 63.7084404,115.934748 63.7084404,119.839613 L63.7084404,147.246886 C63.7084404,147.686184 63.5127907,148.101076 63.1704037,148.369535 C62.8280167,148.637995 62.3878048,148.760022 61.947593,148.6624 C58.9150223,148.052265 55.8824516,147.271292 52.9232496,146.343886 C52.4830377,146.197454 52.0183696,146.051021 51.5781577,145.904589 C50.6732778,145.611724 49.792854,145.294454 48.9124303,144.977183 C48.7901492,144.928373 48.6923243,144.903967 48.5944995,144.855156 C48.4966746,144.806345 48.3743936,144.78194 48.2765687,144.733129 C48.0564628,144.659913 47.8363568,144.562291 47.6407071,144.489075 C47.5673385,144.46467 47.4695136,144.415859 47.3716887,144.391454 L47.2983201,144.367048 C47.176039,144.318237 47.0537579,144.269427 46.9559331,144.220616 L46.6869147,144.122994 C46.4423526,144.025372 46.2222466,143.927751 45.9776845,143.830129 L45.8554034,143.781318 C45.7575785,143.756913 45.6842099,143.708102 45.586385,143.683697 C45.3907353,143.61048 45.1950856,143.512859 44.9749796,143.439643 C44.7548737,143.342021 44.559224,143.268805 44.3391181,143.171183 C44.216837,143.122372 44.0945559,143.049156 43.9478186,143.000345 L43.87445,142.97594 C43.8010813,142.951534 43.7277127,142.927129 43.6788002,142.878318 C43.2875008,142.70748 42.9206576,142.536643 42.5293581,142.365805 C42.4804457,142.341399 42.4315333,142.316994 42.4070771,142.316994 L42.3826208,142.292588 C42.2114273,142.219372 42.0157776,142.121751 41.8445841,142.048534 C41.722303,141.975318 41.5511095,141.902102 41.4043722,141.853291 L41.1842663,141.755669 C40.9641604,141.658048 40.7195982,141.536021 40.4994923,141.413994 C40.2793863,141.316372 40.0592804,141.194345 39.8391745,141.072318 L39.5946123,140.950291 C38.8120134,140.559805 38.0049583,140.120507 37.1979032,139.68121 L36.7087789,139.41275 C36.4153043,139.241912 36.1218298,139.09548 35.8528114,138.924642 C35.6571617,138.827021 35.461512,138.704994 35.2658622,138.582966 C34.9723877,138.412129 34.6789131,138.241291 34.3854385,138.070453 L34.3365261,138.046047 C34.0675077,137.899615 33.7984893,137.728777 33.5539272,137.557939 C33.4561023,137.484723 33.3338212,137.411507 33.2115402,137.338291 L33.1870839,137.313885 C32.8202407,137.094237 32.4778537,136.874588 32.1110105,136.630534 C32.0865543,136.606128 32.0376418,136.581723 32.0131856,136.557318 C31.7441673,136.38648 31.4751489,136.215642 31.2061305,136.020399 L31.1572181,135.995993 C31.1083057,135.971588 31.0838494,135.947182 31.034937,135.922777 C30.8637435,135.80075 30.69255,135.703128 30.5213565,135.581101 L30.4479879,135.53229 C30.2523381,135.410263 30.0566884,135.288236 29.8854949,135.141804 C29.7387576,135.044182 29.6164765,134.946561 29.4697392,134.848939 C29.1762647,134.653696 28.8583339,134.434047 28.5648593,134.214398 C28.2224723,133.970344 27.9045415,133.72629 27.5621545,133.482236 C27.4643296,133.40902 27.3665047,133.360209 27.2931361,133.286993 C27.0241177,133.09175 26.7306432,132.872101 26.4371686,132.652452 C26.3393437,132.579236 26.2659751,132.530425 26.1681502,132.457209 C26.0703253,132.383993 25.9725005,132.310777 25.8746756,132.23756 C25.7279383,132.139939 25.581201,132.017912 25.4344637,131.895885 L25.4344637,131.895885 L25.4100075,131.871479 C25.1899016,131.700641 24.9697957,131.529804 24.7741459,131.358966 C24.6029524,131.236939 24.4317589,131.090506 24.2605654,130.944074 L23.9426346,130.70002 C23.7714411,130.577993 23.6247038,130.43156 23.4535103,130.285128 L23.3556855,130.211912 C23.2823168,130.163101 23.2334044,130.11429 23.1600357,130.041074 C23.1111233,129.992263 23.0377547,129.943452 22.9888422,129.894641 L22.7442801,129.674993 C22.5241741,129.479749 22.3040682,129.308911 22.0839623,129.113668 C22.0350498,129.089263 21.9861374,129.040452 21.9616812,128.991641 C21.6926628,128.723182 21.5214693,128.332695 21.5214693,127.966614 L21.5214693,72.9324193 C21.5214693,72.1270408 22.1817871,71.4680948 22.9888422,71.4680948 L134.509183,71.4680948 C135.316238,71.4680948 135.976556,72.1270408 135.976556,72.9324193 L135.976556,129.333317 C135.976556,129.772614 135.780906,130.187506 135.438519,130.455966 C127.906005,136.630534 119.517523,141.462805 110.444268,144.855156 C106.384536,146.368292 102.153611,147.612967 97.8982292,148.515967 C96.8955244,148.735616 95.8439071,148.930859 94.8167461,149.101697 C94.7189212,149.126103 94.6210964,149.126103 94.5477277,149.126103 L94.5477277,149.126103 Z M78.431082,102.26772 C88.1646556,102.26772 96.0884693,110.175072 96.0884693,119.888424 L96.0151007,145.928994 C96.4308563,145.855778 96.846612,145.758156 97.2623676,145.660535 C101.371012,144.78194 105.4552,143.61048 109.39265,142.121751 C117.927869,138.924642 125.876139,134.409642 133.017354,128.649965 L133.017354,74.4211492 L24.3583903,74.4211492 L24.3583903,127.307668 C24.4073027,127.356479 24.4806714,127.40529 24.5295838,127.4541 L24.7986022,127.673749 L24.8230584,127.698155 C24.8719708,127.746965 24.9208832,127.771371 24.9453394,127.820182 L24.9697957,127.844587 C25.0187081,127.893398 25.0676205,127.917803 25.116533,127.966614 L25.2143578,128.03983 C25.3610951,128.161857 25.5322886,128.30829 25.6790259,128.430317 L25.9969567,128.698776 C26.1681502,128.845209 26.3393437,128.967236 26.486081,129.089263 C26.7061869,129.260101 26.9018367,129.430939 27.1219426,129.577371 C27.1463988,129.577371 27.1463988,129.601776 27.170855,129.626182 C27.2931361,129.723803 27.4398734,129.84583 27.5621545,129.943452 C27.6599793,130.016668 27.733348,130.089885 27.8311728,130.138695 C27.855629,130.138695 27.8800853,130.163101 27.9045415,130.187506 C27.9534539,130.236317 28.0268226,130.285128 28.075735,130.309533 L28.1001912,130.333939 C28.3692096,130.553587 28.6626841,130.748831 28.9561587,130.968479 C29.0539836,131.041695 29.1273522,131.090506 29.2007209,131.139317 C29.5431079,131.383371 29.8610387,131.627425 30.2034257,131.847074 C30.4969003,132.066723 30.7903749,132.261966 31.0838494,132.457209 C31.2061305,132.554831 31.3284116,132.628047 31.4506927,132.701263 C31.4751489,132.701263 31.4751489,132.725669 31.4996051,132.725669 C31.6707986,132.847696 31.8419921,132.969723 32.0131856,133.067344 L32.1110105,133.140561 C32.282204,133.238182 32.4289413,133.360209 32.6001348,133.457831 C32.624591,133.457831 32.624591,133.482236 32.6490472,133.482236 L32.7713283,133.555452 C33.0403467,133.72629 33.309365,133.897128 33.5783834,134.067966 C33.6028396,134.067966 33.6028396,134.092371 33.6272958,134.092371 C33.6272958,134.092371 33.651752,134.092371 33.651752,134.116777 C33.994139,134.336425 34.3609823,134.556074 34.7033693,134.775723 L34.7278255,134.800128 C34.8256504,134.873344 34.9479314,134.922155 35.0457563,134.995372 C35.3147747,135.166209 35.5593368,135.312642 35.8283552,135.459074 L35.8772676,135.48348 C36.1707422,135.654318 36.4397606,135.825155 36.7332351,135.995993 C36.9288849,136.11802 37.1000784,136.215642 37.2712719,136.313264 C37.5647465,136.484101 37.8337648,136.630534 38.1272394,136.801372 L38.6163637,137.069831 C39.3989626,137.509129 40.1815615,137.899615 40.9397041,138.290102 L41.1842663,138.412129 C41.379916,138.50975 41.600022,138.631777 41.8201279,138.729399 C42.0402338,138.851426 42.2603398,138.949048 42.4804457,139.046669 L42.7005516,139.144291 C42.8472889,139.217507 42.9940262,139.290723 43.1407635,139.339534 C43.311957,139.437156 43.4831505,139.510372 43.654344,139.583588 L43.7521689,139.632399 C43.7766251,139.632399 43.7766251,139.656804 43.8010813,139.656804 C44.1679245,139.827642 44.5347678,139.99848 44.9260672,140.169318 L44.9505234,140.169318 C44.9994359,140.193723 45.0728045,140.218129 45.1217169,140.242534 L45.1950856,140.26694 C45.3173667,140.31575 45.4151915,140.364561 45.5374726,140.413372 L45.5619288,140.413372 C45.7820347,140.510994 45.9776845,140.58421 46.1733342,140.681832 C46.3689839,140.779453 46.5890898,140.852669 46.7847396,140.925886 C46.8825644,140.974696 46.9314769,140.999102 47.0048455,141.023507 L47.1271266,141.072318 C47.3472325,141.16994 47.5673385,141.243156 47.7874444,141.340778 L48.0564628,141.462805 C48.1787438,141.511615 48.2765687,141.560426 48.3743936,141.584832 L48.4477622,141.609237 C48.5211308,141.633642 48.6189557,141.682453 48.6923243,141.706859 C48.9124303,141.80448 49.10808,141.877697 49.3037297,141.950913 C49.4015546,141.999724 49.5238357,142.024129 49.6461167,142.07294 L49.9395913,142.194967 C50.7955589,142.512237 51.6759826,142.805102 52.5319501,143.097967 C52.972162,143.244399 53.3879177,143.390832 53.8281295,143.512859 C56.1270138,144.245021 58.4503542,144.855156 60.7981508,145.392075 L60.7981508,119.864019 C60.7981508,115.153775 62.632367,110.736396 65.9584122,107.417261 C69.2844575,104.098125 73.7354887,102.26772 78.431082,102.26772 L78.431082,102.26772 Z M25.3366389,131.871479 L25.3366389,131.871479 L25.3366389,131.871479 L25.3366389,131.871479 L25.3366389,131.871479 Z" id="Shape" fill="#324A7B"></path>
                            <path d="M156.324127,72.9324193 L143.142227,72.9324193 L142.873209,72.6639598 L88.8249734,18.703603 C83.3956936,13.2856024 74.567,13.2856024 69.1377202,18.703603 L15.0894847,72.9324193 L1.63856641,72.9324193 L19.3448662,55.262904 L39.0076632,35.640956 L69.1377202,5.57349353 C74.567,0.155492979 83.3712374,0.155492979 88.8249734,5.57349353 L118.930574,35.6165506 L138.617827,55.2873094 L156.324127,72.9324193 L156.324127,72.9324193 Z" id="Shape" fill="#D9E4F6"></path>
                            <path d="M156.324127,74.3967437 L143.142227,74.3967437 C142.750928,74.3967437 142.384085,74.2503113 142.09061,73.9574464 L141.821592,73.6889869 L87.7733561,19.7286301 C82.9065693,14.8963593 75.0072118,14.8963593 70.1648812,19.7286301 L16.1166458,73.933041 C15.8476274,74.2015005 15.456328,74.3723383 15.0650285,74.3723383 L1.6141102,74.3723383 C1.02716104,74.3723383 0.489124303,74.0062572 0.269018367,73.4693382 C0.0489124303,72.9324193 0.171193506,72.2978787 0.586949163,71.8829867 L18.2932489,54.2134714 L37.9560459,34.5915235 L68.086103,4.52406099 C70.9963926,1.61981745 74.8604746,0.0334659393 78.9691187,0.0334659393 C83.0777628,0.0334659393 86.9418448,1.61981745 89.8521344,4.52406099 L139.644988,54.2134714 L157.351288,71.8829867 C157.767044,72.2978787 157.889325,72.9324193 157.669219,73.4693382 C157.449113,74.0306626 156.911076,74.3967437 156.324127,74.3967437 L156.324127,74.3967437 Z M143.753633,71.4680948 L152.777976,71.4680948 L137.56621,56.2879311 L87.7733561,6.59852066 C85.4255595,4.2556015 82.295164,2.96211488 78.9691187,2.96211488 C75.6430734,2.96211488 72.5126779,4.2556015 70.1648812,6.59852066 L40.0348242,36.6659832 L20.3720272,56.2879311 L5.1602614,71.4680948 L14.4536231,71.4680948 L68.086103,17.6785758 C74.0778757,11.6992509 83.8359055,11.6992509 89.8521344,17.6785758 L143.753633,71.4680948 L143.753633,71.4680948 Z" id="Shape" fill="#324A7B"></path>
                            <g transform="translate(21.276907, 126.502290)" id="Shape">
                                <path fill="#9AB6E0"></path>
                                <path d="M1.6141102,2.92864895 C0.8070551,2.92864895 0.146737291,2.26970293 0.146737291,1.46432447 L0.146737291,1.46432447 C0.146737291,0.658946013 0.8070551,0 1.6141102,0 C2.4211653,0 3.08148311,0.658946013 3.08148311,1.46432447 C3.08148311,2.26970293 2.4211653,2.92864895 1.6141102,2.92864895 L1.6141102,2.92864895 Z" fill="#324A7B"></path>
                            </g>
                            <g transform="translate(137.199367, 114.787694)" id="Shape">
                                <path d="M1.46737291,1.63516233 L6.72545916,1.63516233" fill="#9AB6E0"></path>
                                <path d="M6.72545916,3.0994868 L1.46737291,3.0994868 C0.660317809,3.0994868 0,2.44054079 0,1.63516233 C0,0.829783868 0.660317809,0.170837855 1.46737291,0.170837855 L6.72545916,0.170837855 C7.53251426,0.170837855 8.19283207,0.829783868 8.19283207,1.63516233 C8.19283207,2.44054079 7.55697048,3.0994868 6.72545916,3.0994868 L6.72545916,3.0994868 Z" fill="#324A7B"></path>
                            </g>
                            <g transform="translate(133.775497, 120.889046)" id="Shape">
                                <path d="M1.54074155,1.65956774 L7.11675861,1.65956774" fill="#9AB6E0"></path>
                                <path d="M7.11675861,3.12389221 L1.51628534,3.12389221 C0.709230239,3.12389221 0.0489124303,2.4649462 0.0489124303,1.65956774 C0.0489124303,0.854189276 0.709230239,0.195243263 1.51628534,0.195243263 L7.11675861,0.195243263 C7.92381371,0.195243263 8.58413152,0.854189276 8.58413152,1.65956774 C8.58413152,2.4649462 7.94826992,3.12389221 7.11675861,3.12389221 L7.11675861,3.12389221 Z" fill="#324A7B"></path>
                            </g>
                            <g transform="translate(137.199367, 96.483638)" id="Shape">
                                <path d="M1.46737291,1.5619461 L6.72545916,1.5619461" fill="#9AB6E0"></path>
                                <path d="M6.72545916,3.02627058 L1.46737291,3.02627058 C0.660317809,3.02627058 0,2.36732456 0,1.5619461 C0,0.756567644 0.660317809,0.0976216315 1.46737291,0.0976216315 L6.72545916,0.0976216315 C7.53251426,0.0976216315 8.19283207,0.756567644 8.19283207,1.5619461 C8.19283207,2.36732456 7.55697048,3.02627058 6.72545916,3.02627058 L6.72545916,3.02627058 Z" fill="#324A7B"></path>
                            </g>
                            <g transform="translate(136.221118, 90.382286)" id="Shape">
                                <g transform="translate(0.000000, 18.304056)">
                                    <path d="M1.51628534,1.58635151 L5.55156084,1.58635151" fill="#9AB6E0"></path>
                                    <path d="M5.55156084,3.05067598 L1.51628534,3.05067598 C0.709230239,3.05067598 0.0489124303,2.39172997 0.0489124303,1.58635151 C0.0489124303,0.780973052 0.709230239,0.122027039 1.51628534,0.122027039 L5.55156084,0.122027039 C6.35861594,0.122027039 7.01893375,0.780973052 7.01893375,1.58635151 C7.01893375,2.39172997 6.35861594,3.05067598 5.55156084,3.05067598 L5.55156084,3.05067598 Z" fill="#324A7B"></path>
                                </g>
                                <g>
                                    <path d="M1.51628534,1.5375407 L5.55156084,1.5375407" fill="#9AB6E0"></path>
                                    <path d="M5.55156084,3.00186517 L1.51628534,3.00186517 C0.709230239,3.00186517 0.0489124303,2.34291916 0.0489124303,1.5375407 C0.0489124303,0.732162236 0.709230239,0.0732162236 1.51628534,0.0732162236 L5.55156084,0.0732162236 C6.35861594,0.0732162236 7.01893375,0.732162236 7.01893375,1.5375407 C7.01893375,2.34291916 6.35861594,3.00186517 5.55156084,3.00186517 L5.55156084,3.00186517 Z" fill="#324A7B"></path>
                                </g>
                            </g>
                            <g transform="translate(133.775497, 102.584990)" id="Shape">
                                <path d="M1.54074155,1.61075692 L7.11675861,1.61075692" fill="#9AB6E0"></path>
                                <path d="M7.11675861,3.07508139 L1.51628534,3.07508139 C0.709230239,3.07508139 0.0489124303,2.41613538 0.0489124303,1.61075692 C0.0489124303,0.80537846 0.709230239,0.146432447 1.51628534,0.146432447 L7.11675861,0.146432447 C7.92381371,0.146432447 8.58413152,0.80537846 8.58413152,1.61075692 C8.58413152,2.41613538 7.94826992,3.07508139 7.11675861,3.07508139 L7.11675861,3.07508139 Z" fill="#324A7B"></path>
                            </g>
                            <g transform="translate(137.199367, 78.179582)" id="Shape">
                                <path d="M1.46737291,1.51313529 L6.72545916,1.51313529" fill="#9AB6E0"></path>
                                <path d="M6.72545916,2.97745976 L1.46737291,2.97745976 C0.660317809,2.97745976 0,2.31851375 0,1.51313529 C0,0.707756828 0.660317809,0.0488108158 1.46737291,0.0488108158 L6.72545916,0.0488108158 C7.53251426,0.0488108158 8.19283207,0.707756828 8.19283207,1.51313529 C8.19283207,2.31851375 7.55697048,2.97745976 6.72545916,2.97745976 L6.72545916,2.97745976 Z" fill="#324A7B"></path>
                            </g>
                            <g transform="translate(133.775497, 84.280934)" id="Shape">
                                <path d="M1.54074155,1.5619461 L7.11675861,1.5619461" fill="#9AB6E0"></path>
                                <path d="M7.11675861,3.02627058 L1.51628534,3.02627058 C0.709230239,3.02627058 0.0489124303,2.36732456 0.0489124303,1.5619461 C0.0489124303,0.756567644 0.709230239,0.0976216315 1.51628534,0.0976216315 L7.11675861,0.0976216315 C7.92381371,0.0976216315 8.58413152,0.756567644 8.58413152,1.5619461 C8.58413152,2.36732456 7.94826992,3.02627058 7.11675861,3.02627058 L7.11675861,3.02627058 Z" fill="#324A7B"></path>
                            </g>
                            <g transform="translate(15.651978, 114.787694)" id="Shape">
                                <path d="M1.51628534,1.63516233 L6.77437159,1.63516233" fill="#9AB6E0"></path>
                                <path d="M6.77437159,3.0994868 L1.51628534,3.0994868 C0.709230239,3.0994868 0.0489124303,2.44054079 0.0489124303,1.63516233 C0.0489124303,0.829783868 0.709230239,0.170837855 1.51628534,0.170837855 L6.77437159,0.170837855 C7.58142669,0.170837855 8.2417445,0.829783868 8.2417445,1.63516233 C8.2417445,2.44054079 7.58142669,3.0994868 6.77437159,3.0994868 L6.77437159,3.0994868 Z" fill="#324A7B"></path>
                            </g>
                            <g transform="translate(15.651978, 120.889046)" id="Shape">
                                <path d="M3.74180092,1.65956774 L1.51628534,1.65956774" fill="#9AB6E0"></path>
                                <path d="M3.74180092,3.12389221 L1.51628534,3.12389221 C0.709230239,3.12389221 0.0489124303,2.4649462 0.0489124303,1.65956774 C0.0489124303,0.854189276 0.709230239,0.195243263 1.51628534,0.195243263 L3.74180092,0.195243263 C4.54885602,0.195243263 5.20917383,0.854189276 5.20917383,1.65956774 C5.20917383,2.4649462 4.54885602,3.12389221 3.74180092,3.12389221 L3.74180092,3.12389221 Z" fill="#324A7B"></path>
                            </g>
                            <g transform="translate(15.651978, 96.483638)" id="Shape">
                                <path d="M1.51628534,1.5619461 L6.77437159,1.5619461" fill="#9AB6E0"></path>
                                <path d="M6.77437159,3.02627058 L1.51628534,3.02627058 C0.709230239,3.02627058 0.0489124303,2.36732456 0.0489124303,1.5619461 C0.0489124303,0.756567644 0.709230239,0.0976216315 1.51628534,0.0976216315 L6.77437159,0.0976216315 C7.58142669,0.0976216315 8.2417445,0.756567644 8.2417445,1.5619461 C8.2417445,2.36732456 7.58142669,3.02627058 6.77437159,3.02627058 L6.77437159,3.02627058 Z" fill="#324A7B"></path>
                            </g>
                            <g transform="translate(14.673729, 90.382286)" id="Shape">
                                <g transform="translate(0.000000, 18.304056)">
                                    <path d="M1.54074155,1.58635151 L5.60047327,1.58635151" fill="#9AB6E0"></path>
                                    <path d="M5.60047327,3.05067598 L1.56519777,3.05067598 C0.758142669,3.05067598 0.0978248606,2.39172997 0.0978248606,1.58635151 C0.0978248606,0.780973052 0.758142669,0.122027039 1.56519777,0.122027039 L5.60047327,0.122027039 C6.40752837,0.122027039 7.06784618,0.780973052 7.06784618,1.58635151 C7.06784618,2.39172997 6.40752837,3.05067598 5.60047327,3.05067598 L5.60047327,3.05067598 Z" fill="#324A7B"></path>
                                </g>
                                <g>
                                    <path d="M1.54074155,1.5375407 L5.60047327,1.5375407" fill="#9AB6E0"></path>
                                    <path d="M5.60047327,3.00186517 L1.56519777,3.00186517 C0.758142669,3.00186517 0.0978248606,2.34291916 0.0978248606,1.5375407 C0.0978248606,0.732162236 0.758142669,0.0732162236 1.56519777,0.0732162236 L5.60047327,0.0732162236 C6.40752837,0.0732162236 7.06784618,0.732162236 7.06784618,1.5375407 C7.06784618,2.34291916 6.40752837,3.00186517 5.60047327,3.00186517 L5.60047327,3.00186517 Z" fill="#324A7B"></path>
                                </g>
                            </g>
                            <g transform="translate(12.228108, 102.584990)" id="Shape">
                                <path d="M1.56519777,1.61075692 L7.16567104,1.61075692" fill="#9AB6E0"></path>
                                <path d="M7.16567104,3.07508139 L1.56519777,3.07508139 C0.758142669,3.07508139 0.0978248606,2.41613538 0.0978248606,1.61075692 C0.0978248606,0.80537846 0.758142669,0.146432447 1.56519777,0.146432447 L7.16567104,0.146432447 C7.97272614,0.146432447 8.63304395,0.80537846 8.63304395,1.61075692 C8.63304395,2.41613538 7.97272614,3.07508139 7.16567104,3.07508139 L7.16567104,3.07508139 Z" fill="#324A7B"></path>
                            </g>
                            <g transform="translate(15.651978, 78.179582)" id="Shape">
                                <path d="M1.51628534,1.51313529 L6.77437159,1.51313529" fill="#9AB6E0"></path>
                                <path d="M6.77437159,2.97745976 L1.51628534,2.97745976 C0.709230239,2.97745976 0.0489124303,2.31851375 0.0489124303,1.51313529 C0.0489124303,0.707756828 0.709230239,0.0488108158 1.51628534,0.0488108158 L6.77437159,0.0488108158 C7.58142669,0.0488108158 8.2417445,0.707756828 8.2417445,1.51313529 C8.2417445,2.31851375 7.58142669,2.97745976 6.77437159,2.97745976 L6.77437159,2.97745976 Z" fill="#324A7B"></path>
                            </g>
                            <g transform="translate(12.228108, 84.280934)" id="Shape">
                                <path d="M1.56519777,1.5619461 L7.16567104,1.5619461" fill="#9AB6E0"></path>
                                <path d="M7.16567104,3.02627058 L1.56519777,3.02627058 C0.758142669,3.02627058 0.0978248606,2.36732456 0.0978248606,1.5619461 C0.0978248606,0.756567644 0.758142669,0.0976216315 1.56519777,0.0976216315 L7.16567104,0.0976216315 C7.97272614,0.0976216315 8.63304395,0.756567644 8.63304395,1.5619461 C8.63304395,2.36732456 7.97272614,3.02627058 7.16567104,3.02627058 L7.16567104,3.02627058 Z" fill="#324A7B"></path>
                            </g>
                            <polygon id="Shape" fill="#D9E4F6" points="138.593371 35.640956 138.593371 55.262904 118.906118 35.5921452 133.653216 35.6165506"></polygon>
                            <path d="M138.593371,56.7272284 C138.202072,56.7272284 137.835229,56.580796 137.56621,56.2879311 L117.878957,36.6415778 C117.463201,36.2266858 117.34092,35.5921452 117.561026,35.0552262 C117.781132,34.5183073 118.319169,34.1522262 118.906118,34.1522262 L118.906118,34.1522262 L138.593371,34.1766316 C139.400426,34.1766316 140.060744,34.8355776 140.060744,35.640956 L140.060744,55.262904 C140.060744,55.8486338 139.693901,56.3855527 139.155864,56.6052014 C138.984671,56.6784176 138.789021,56.7272284 138.593371,56.7272284 L138.593371,56.7272284 Z M122.452269,37.0808751 L137.125998,51.7241198 L137.125998,37.1052805 L122.452269,37.0808751 L122.452269,37.0808751 Z" id="Shape" fill="#324A7B"></path>
                            <path d="M118.906118,37.0564697 L118.808293,37.0564697 C118.001238,37.0564697 117.34092,36.3975237 117.34092,35.5921452 C117.34092,34.7867668 118.001238,34.1278207 118.808293,34.1278207 L118.906118,34.1278207 C119.713173,34.1278207 120.373491,34.7867668 120.373491,35.5921452 C120.373491,36.3975237 119.713173,37.0564697 118.906118,37.0564697 L118.906118,37.0564697 Z" id="Shape" fill="#324A7B"></path>
                            <polyline id="Shape" fill="#9AB6E0" points="137.801247 55.262904 137.801247 55.5813552 137.801247 56.85516"></polyline>
                            <path d="M138.593371,56.8492555 C137.786316,56.8492555 137.125998,56.1903095 137.125998,55.384931 L137.125998,55.262904 C137.125998,54.4575255 137.786316,53.7985795 138.593371,53.7985795 C139.400426,53.7985795 140.060744,54.4575255 140.060744,55.262904 L140.060744,55.384931 C140.060744,56.1903095 139.424883,56.8492555 138.593371,56.8492555 L138.593371,56.8492555 Z" id="Shape" fill="#324A7B"></path>
                            <polygon id="Shape" fill="#D9E4F6" points="38.9832069 35.640956 19.32041 55.262904 19.32041 35.640956"></polygon>
                            <path d="M19.32041,56.7272284 C19.1247602,56.7272284 18.9291105,56.702823 18.757917,56.6052014 C18.2198803,56.3855527 17.8530371,55.8486338 17.8530371,55.262904 L17.8530371,35.640956 C17.8530371,34.8355776 18.5133549,34.1766316 19.32041,34.1766316 L38.9832069,34.1766316 C39.5701561,34.1766316 40.1081928,34.5427127 40.3282988,35.0796317 C40.5484047,35.6165506 40.4261236,36.2510912 40.010368,36.6659832 L20.347571,56.2879311 C20.0785526,56.580796 19.7117094,56.7272284 19.32041,56.7272284 L19.32041,56.7272284 Z M20.7877829,37.1052805 L20.7877829,51.7241198 L35.4370557,37.1052805 L20.7877829,37.1052805 L20.7877829,37.1052805 Z" id="Shape" fill="#324A7B"></path>
                            <polyline id="Shape" fill="#9AB6E0" points="18.5282855 55.262904 18.5282855 55.5813552 18.5282855 56.85516"></polyline>
                            <path d="M19.32041,56.8492555 C18.5133549,56.8492555 17.8530371,56.1903095 17.8530371,55.384931 L17.8530371,55.262904 C17.8530371,54.4575255 18.5133549,53.7985795 19.32041,53.7985795 C20.1274651,53.7985795 20.7877829,54.4575255 20.7877829,55.262904 L20.7877829,55.384931 C20.7877829,56.1903095 20.1519213,56.8492555 19.32041,56.8492555 L19.32041,56.8492555 Z" id="Shape" fill="#324A7B"></path>
                            <path d="M39.0810318,37.1052805 L39.0076632,37.1052805 C38.2006081,37.1052805 37.5402902,36.4463345 37.5402902,35.640956 C37.5402902,34.8355776 38.2006081,34.1766316 39.0076632,34.1766316 L39.0810318,34.1766316 C39.8880869,34.1766316 40.5484047,34.8355776 40.5484047,35.640956 C40.5484047,36.4463345 39.8880869,37.1052805 39.0810318,37.1052805 L39.0810318,37.1052805 Z" id="Shape" fill="#324A7B"></path>
                            <path id="Shape" fill="#9AB6E0"></path>
                            <path d="M66.9855733,109.906612 L66.9855733,109.906612 C66.1785182,109.906612 65.5182004,109.247666 65.5182004,108.442288 C65.5182004,107.636909 66.1785182,106.977963 66.9855733,106.977963 C67.7926284,106.977963 68.4529462,107.636909 68.4529462,108.442288 C68.4529462,109.247666 67.7926284,109.906612 66.9855733,109.906612 L66.9855733,109.906612 Z" id="Shape" fill="#324A7B"></path>
                            <path d="M62.2410675,147.246886 L62.2410675,119.864019 C62.2410675,115.397829 64.0508275,111.370937 66.9855733,108.442288 C69.9203191,105.513639 73.9555946,103.707639 78.431082,103.707639 L78.431082,103.707639 C87.3576005,103.707639 94.6210964,110.931639 94.6210964,119.864019 L94.5477277,147.661778 C93.8384975,147.783805 93.1537235,147.905832 92.4444932,148.003454 C91.4662446,148.149886 90.487996,148.296319 89.4852912,148.39394 L89.4852912,120.644992 C89.4852912,114.54364 84.5451357,109.613747 78.431082,109.613747 C72.3170282,109.613747 67.3768727,114.54364 67.3768727,120.644992 L67.3768727,148.125481 C66.6431863,148.027859 65.933956,147.905832 65.2002696,147.783805 C64.9557074,147.734994 64.7111453,147.710589 64.4421269,147.661778 C64.1975647,147.612967 63.9530026,147.564157 63.6839842,147.539751 C63.4394221,147.49094 63.1948599,147.44213 62.9258416,147.393319 L62.1921551,147.246886" id="Shape" fill="#B9CEED"></path>
                            <path d="M60.7736946,145.440886 L60.7736946,119.864019 C60.7736946,115.153775 62.6079108,110.736396 65.933956,107.417261 C69.2600013,104.098125 73.7110324,102.26772 78.4066257,102.26772 C88.1401994,102.26772 96.0640131,110.175072 96.0640131,119.888424 L96.0640131,119.888424 L95.9906444,147.686184 C95.9906444,148.39394 95.4770639,149.004076 94.7922899,149.126103 C94.1075159,149.24813 93.4227418,149.370157 92.640143,149.467778 C91.4907008,149.638616 90.5369085,149.760643 89.6320285,149.858265 L89.460835,149.858265 C89.0939918,149.858265 88.7516048,149.736238 88.4825864,149.492184 C88.1646556,149.223724 87.9934621,148.808832 87.9934621,148.39394 L87.9934621,120.644992 C87.9934621,115.373424 83.6891682,111.078072 78.4066257,111.078072 C73.1240833,111.078072 68.8197894,115.373424 68.8197894,120.644992 L68.8197894,148.125481 C68.8197894,148.540373 68.6241397,148.955265 68.3062089,149.223724 C67.9882781,149.492184 67.5480662,149.614211 67.1323106,149.5654 C66.3741679,149.467778 65.6404814,149.345751 64.906795,149.223724 C64.6622328,149.174913 64.3932145,149.150508 64.1486523,149.101697 C63.879634,149.052886 63.6350718,149.004076 63.3905097,148.955265 C63.1459475,148.906454 62.8769291,148.857643 62.632367,148.808832 C62.3878048,148.760022 62.1432427,148.711211 61.8742243,148.6624 L60.7736946,145.440886 Z M78.4555382,108.149423 C85.3521908,108.149423 90.9771203,113.762667 90.9771203,120.644992 L90.9771203,146.734373 C91.3684198,146.685562 91.8086316,146.612346 92.2488435,146.539129 C92.5423181,146.490319 92.8357927,146.441508 93.104811,146.417102 L93.1781797,119.864019 C93.1781797,111.761423 86.5750016,105.171963 78.4555382,105.171963 C74.5180875,105.171963 70.8251991,106.709504 68.0371905,109.467315 C65.249182,112.249531 63.7328967,115.934748 63.7328967,119.839613 L63.7328967,146.00221 C63.8062653,146.026616 63.9040902,146.026616 63.9774588,146.051021 C64.222021,146.099832 64.4665831,146.148643 64.7111453,146.173048 C64.9557074,146.221859 65.2002696,146.27067 65.4692879,146.295075 C65.6160252,146.319481 65.7872187,146.343886 65.933956,146.368292 L65.933956,120.644992 C65.933956,113.762667 71.5344293,108.149423 78.4555382,108.149423 L78.4555382,108.149423 Z" id="Shape" fill="#324A7B"></path>
                            <ellipse id="Oval" fill="#324A7B" cx="84.5940482" cy="128.796398" rx="1.44291669" ry="1.43991906"></ellipse>
                            <path d="M24.9208832,42.4744702 C24.1138281,42.4744702 23.4535103,41.8155242 23.4535103,41.0101458 L23.4535103,35.640956 C23.4535103,34.8355776 24.1138281,34.1766316 24.9208832,34.1766316 C25.7279383,34.1766316 26.3882561,34.8355776 26.3882561,35.640956 L26.3882561,41.0101458 C26.3882561,41.8155242 25.7523945,42.4744702 24.9208832,42.4744702 L24.9208832,42.4744702 Z" id="Shape" fill="#324A7B"></path>
                            <path d="M133.653216,42.4744702 C132.846161,42.4744702 132.185843,41.8155242 132.185843,41.0101458 L132.185843,35.6165506 C132.185843,34.8111722 132.846161,34.1522262 133.653216,34.1522262 C134.460271,34.1522262 135.120589,34.8111722 135.120589,35.6165506 L135.120589,41.0101458 C135.120589,41.8155242 134.460271,42.4744702 133.653216,42.4744702 L133.653216,42.4744702 Z" id="Shape" fill="#324A7B"></path>
                            <path d="M142.873209,72.6639598 L88.8249734,18.703603 C83.3956936,13.2856024 74.567,13.2856024 69.1377202,18.703603 L15.0894847,72.9324193 L143.142227,72.9324193 L142.873209,72.6639598 L142.873209,72.6639598 Z M79.3115057,51.6997144 C74.3224378,51.6997144 70.3116185,47.6728221 70.3116185,42.7185243 C70.3116185,37.7642265 74.346894,33.7373342 79.3115057,33.7373342 C84.2761174,33.7373342 88.3113929,37.7642265 88.3113929,42.7185243 C88.3113929,47.6728221 84.3005736,51.6997144 79.3115057,51.6997144 L79.3115057,51.6997144 Z" id="Shape" fill="#C2D5F0"></path>
                            <path d="M143.142227,74.3967437 L15.0650285,74.3967437 C14.4780794,74.3967437 13.9400426,74.0306626 13.7199367,73.4937437 C13.4998308,72.9568247 13.6221118,72.3222841 14.0378675,71.9073921 L68.086103,17.6785758 C74.0778757,11.6992509 83.8359055,11.6992509 89.8521344,17.6785758 L143.90037,71.6389327 L143.90037,71.6389327 L144.169388,71.9073921 C144.585144,72.3222841 144.707425,72.9568247 144.487319,73.4937437 C144.267213,74.0306626 143.729176,74.3967437 143.142227,74.3967437 L143.142227,74.3967437 Z M18.5867235,71.4680948 L139.57162,71.4680948 L87.7733561,19.7530355 C82.9065693,14.9207647 75.0072118,14.9207647 70.1648812,19.7530355 L18.5867235,71.4680948 L18.5867235,71.4680948 Z M79.3115057,53.1640389 C73.5398389,53.1640389 68.8442456,48.4782006 68.8442456,42.7185243 C68.8442456,36.9588481 73.5398389,32.2730097 79.3115057,32.2730097 C85.0831725,32.2730097 89.7787658,36.9588481 89.7787658,42.7185243 C89.7787658,48.4782006 85.0831725,53.1640389 79.3115057,53.1640389 L79.3115057,53.1640389 Z M79.3115057,35.1772533 C75.1539491,35.1772533 71.7789914,38.5451996 71.7789914,42.6941189 C71.7789914,46.8430383 75.1539491,50.2109845 79.3115057,50.2109845 C83.4690623,50.2109845 86.84402,46.8430383 86.84402,42.6941189 C86.84402,38.5451996 83.4690623,35.1772533 79.3115057,35.1772533 L79.3115057,35.1772533 Z" id="Shape" fill="#324A7B"></path>
                            <g transform="translate(68.721965, 32.053361)" id="Shape">
                                <path d="M19.6138845,10.6407578 C19.6138845,15.5950556 15.578609,19.6219479 10.6139974,19.6219479 C5.62492948,19.6219479 1.6141102,15.5950556 1.6141102,10.6407578 C1.6141102,5.68646004 5.6493857,1.65956774 10.6139974,1.65956774 C15.578609,1.65956774 19.6138845,5.68646004 19.6138845,10.6407578 L19.6138845,10.6407578 Z" fill="#9AB6E0"></path>
                                <path d="M10.5895412,21.1106778 C4.81787438,21.1106778 0.122281076,16.4248395 0.122281076,10.6651632 C0.122281076,4.90548698 4.81787438,0.219648671 10.5895412,0.219648671 C16.3612079,0.219648671 21.0568012,4.90548698 21.0568012,10.6651632 C21.0568012,16.4248395 16.3612079,21.1106778 10.5895412,21.1106778 L10.5895412,21.1106778 Z M10.5895412,3.12389221 C6.43198458,3.12389221 3.05702689,6.4918385 3.05702689,10.6407578 C3.05702689,14.7896772 6.43198458,18.1576235 10.5895412,18.1576235 C14.7470977,18.1576235 18.1220554,14.7896772 18.1220554,10.6407578 C18.1220554,6.4918385 14.7470977,3.12389221 10.5895412,3.12389221 L10.5895412,3.12389221 Z" fill="#324A7B"></path>
                            </g>
                            <g transform="translate(11.494421, 71.346068)" id="Shape">
                                <path d="M11.3965963,1.58635151 L11.3965963,56.6205463 C9.41564283,54.9121677 7.48360183,53.1061675 5.67384191,51.2269511 C4.206469,49.7138158 2.81246474,48.1518697 1.46737291,46.5655182 L1.46737291,1.61075692 L11.3965963,1.61075692 L11.3965963,1.58635151 Z" fill="#B9CEED"></path>
                                <path d="M11.3965963,58.0848708 C11.0542092,58.0848708 10.7118222,57.9628437 10.4428039,57.7187896 C8.41293801,55.9616003 6.4564408,54.1311947 4.62222466,52.2275729 C3.10593932,50.6656268 1.66302263,49.0792752 0.342387012,47.4685183 C0.122281076,47.2000588 0,46.8827885 0,46.5411128 L0,1.58635151 C0,0.780973052 0.660317809,0.122027039 1.46737291,0.122027039 L11.3965963,0.122027039 C12.2036514,0.122027039 12.8639692,0.780973052 12.8639692,1.58635151 L12.8639692,56.6205463 C12.8639692,57.1818707 12.5215822,57.7187896 12.0080016,57.9628437 C11.8123519,58.0360599 11.592246,58.0848708 11.3965963,58.0848708 L11.3965963,58.0848708 Z M2.93474582,46.0041939 C4.13310036,47.4197075 5.40482355,48.8108158 6.72545916,50.201924 C7.7526202,51.275762 8.82869367,52.3251945 9.92922335,53.3502216 L9.92922335,3.05067598 L2.93474582,3.05067598 L2.93474582,46.0041939 L2.93474582,46.0041939 Z" fill="#324A7B"></path>
                            </g>
                            <g transform="translate(21.276907, 126.502290)" id="Shape">
                                <path fill="#9AB6E0"></path>
                                <path d="M1.6141102,2.92864895 C0.8070551,2.92864895 0.146737291,2.26970293 0.146737291,1.46432447 L0.146737291,1.46432447 C0.146737291,0.658946013 0.8070551,0 1.6141102,0 C2.4211653,0 3.08148311,0.658946013 3.08148311,1.46432447 C3.08148311,2.26970293 2.4211653,2.92864895 1.6141102,2.92864895 L1.6141102,2.92864895 Z" fill="#324A7B"></path>
                            </g>
                            <path d="M145.0009,71.4680948 L134.753745,71.4680948 C134.655921,71.4436894 134.582552,71.4436894 134.484727,71.4436894 C133.702128,71.4436894 133.066267,72.0538246 133.017354,72.8347976 L133.017354,72.9080139 L133.017354,129.333317 C133.017354,130.138695 133.677672,130.797641 134.484727,130.797641 C134.827114,130.797641 135.145045,130.675614 135.414063,130.455966 C139.253689,127.307668 142.848753,123.817695 146.076973,120.108073 C146.297079,119.839613 146.443816,119.497938 146.443816,119.156262 L146.443816,72.9324193 C146.468272,72.1270408 145.807955,71.4680948 145.0009,71.4680948 L145.0009,71.4680948 Z M143.533527,118.594937 C141.18573,121.255127 138.66674,123.793289 135.976556,126.160614 L135.976556,74.3967437 L143.533527,74.3967437 L143.533527,118.594937 L143.533527,118.594937 Z" id="Shape" fill="#C2D5F0"></path>
                            <path d="M143.533527,74.3967437 L143.533527,118.594937 C141.18573,121.255127 138.66674,123.793289 135.976556,126.160614 L135.976556,74.3967437 L143.533527,74.3967437 L143.533527,74.3967437 Z" id="Shape" fill="#C2D5F0"></path>
                            <path d="M145.0009,71.4680948 L134.753745,71.4680948 C134.680377,71.4436894 134.582552,71.4436894 134.484727,71.4436894 C133.702128,71.4436894 133.066267,72.0538246 133.017354,72.8347976 L133.017354,72.9080139 L133.017354,129.333317 C133.017354,130.138695 133.677672,130.797641 134.484727,130.797641 C134.827114,130.797641 135.145045,130.675614 135.414063,130.455966 C139.253689,127.307668 142.848753,123.817695 146.076973,120.108073 C146.297079,119.839613 146.443816,119.497938 146.443816,119.156262 L146.443816,72.9324193 C146.468272,72.1270408 145.807955,71.4680948 145.0009,71.4680948 L145.0009,71.4680948 Z M143.533527,118.594937 C141.18573,121.255127 138.66674,123.793289 135.976556,126.160614 L135.976556,74.3967437 L143.533527,74.3967437 L143.533527,118.594937 L143.533527,118.594937 Z" id="Shape" fill="#324A7B"></path>
                            <g transform="translate(137.199367, 114.787694)" id="Shape">
                                <path d="M1.46737291,1.63516233 L6.72545916,1.63516233" fill="#9AB6E0"></path>
                                <path d="M6.72545916,3.0994868 L1.46737291,3.0994868 C0.660317809,3.0994868 0,2.44054079 0,1.63516233 C0,0.829783868 0.660317809,0.170837855 1.46737291,0.170837855 L6.72545916,0.170837855 C7.53251426,0.170837855 8.19283207,0.829783868 8.19283207,1.63516233 C8.19283207,2.44054079 7.55697048,3.0994868 6.72545916,3.0994868 L6.72545916,3.0994868 Z" fill="#324A7B"></path>
                            </g>
                            <g transform="translate(133.775497, 120.889046)" id="Shape">
                                <path d="M1.54074155,1.65956774 L7.11675861,1.65956774" fill="#9AB6E0"></path>
                                <path d="M7.11675861,3.12389221 L1.51628534,3.12389221 C0.709230239,3.12389221 0.0489124303,2.4649462 0.0489124303,1.65956774 C0.0489124303,0.854189276 0.709230239,0.195243263 1.51628534,0.195243263 L7.11675861,0.195243263 C7.92381371,0.195243263 8.58413152,0.854189276 8.58413152,1.65956774 C8.58413152,2.4649462 7.94826992,3.12389221 7.11675861,3.12389221 L7.11675861,3.12389221 Z" fill="#324A7B"></path>
                            </g>
                            <g transform="translate(137.199367, 96.483638)" id="Shape">
                                <path d="M1.46737291,1.5619461 L6.72545916,1.5619461" fill="#9AB6E0"></path>
                                <path d="M6.72545916,3.02627058 L1.46737291,3.02627058 C0.660317809,3.02627058 0,2.36732456 0,1.5619461 C0,0.756567644 0.660317809,0.0976216315 1.46737291,0.0976216315 L6.72545916,0.0976216315 C7.53251426,0.0976216315 8.19283207,0.756567644 8.19283207,1.5619461 C8.19283207,2.36732456 7.55697048,3.02627058 6.72545916,3.02627058 L6.72545916,3.02627058 Z" fill="#324A7B"></path>
                            </g>
                            <g transform="translate(136.221118, 90.382286)" id="Shape">
                                <g transform="translate(0.000000, 18.304056)">
                                    <path d="M1.51628534,1.58635151 L5.55156084,1.58635151" fill="#9AB6E0"></path>
                                    <path d="M5.55156084,3.05067598 L1.51628534,3.05067598 C0.709230239,3.05067598 0.0489124303,2.39172997 0.0489124303,1.58635151 C0.0489124303,0.780973052 0.709230239,0.122027039 1.51628534,0.122027039 L5.55156084,0.122027039 C6.35861594,0.122027039 7.01893375,0.780973052 7.01893375,1.58635151 C7.01893375,2.39172997 6.35861594,3.05067598 5.55156084,3.05067598 L5.55156084,3.05067598 Z" fill="#324A7B"></path>
                                </g>
                                <g>
                                    <path d="M1.51628534,1.5375407 L5.55156084,1.5375407" fill="#9AB6E0"></path>
                                    <path d="M5.55156084,3.00186517 L1.51628534,3.00186517 C0.709230239,3.00186517 0.0489124303,2.34291916 0.0489124303,1.5375407 C0.0489124303,0.732162236 0.709230239,0.0732162236 1.51628534,0.0732162236 L5.55156084,0.0732162236 C6.35861594,0.0732162236 7.01893375,0.732162236 7.01893375,1.5375407 C7.01893375,2.34291916 6.35861594,3.00186517 5.55156084,3.00186517 L5.55156084,3.00186517 Z" fill="#324A7B"></path>
                                </g>
                            </g>
                            <g transform="translate(133.775497, 102.584990)" id="Shape">
                                <path d="M1.54074155,1.61075692 L7.11675861,1.61075692" fill="#9AB6E0"></path>
                                <path d="M7.11675861,3.07508139 L1.51628534,3.07508139 C0.709230239,3.07508139 0.0489124303,2.41613538 0.0489124303,1.61075692 C0.0489124303,0.80537846 0.709230239,0.146432447 1.51628534,0.146432447 L7.11675861,0.146432447 C7.92381371,0.146432447 8.58413152,0.80537846 8.58413152,1.61075692 C8.58413152,2.41613538 7.94826992,3.07508139 7.11675861,3.07508139 L7.11675861,3.07508139 Z" fill="#324A7B"></path>
                            </g>
                            <g transform="translate(137.199367, 78.179582)" id="Shape">
                                <path d="M1.46737291,1.51313529 L6.72545916,1.51313529" fill="#9AB6E0"></path>
                                <path d="M6.72545916,2.97745976 L1.46737291,2.97745976 C0.660317809,2.97745976 0,2.31851375 0,1.51313529 C0,0.707756828 0.660317809,0.0488108158 1.46737291,0.0488108158 L6.72545916,0.0488108158 C7.53251426,0.0488108158 8.19283207,0.707756828 8.19283207,1.51313529 C8.19283207,2.31851375 7.55697048,2.97745976 6.72545916,2.97745976 L6.72545916,2.97745976 Z" fill="#324A7B"></path>
                            </g>
                            <g transform="translate(133.775497, 84.280934)" id="Shape">
                                <path d="M1.54074155,1.5619461 L7.11675861,1.5619461" fill="#9AB6E0"></path>
                                <path d="M7.11675861,3.02627058 L1.51628534,3.02627058 C0.709230239,3.02627058 0.0489124303,2.36732456 0.0489124303,1.5619461 C0.0489124303,0.756567644 0.709230239,0.0976216315 1.51628534,0.0976216315 L7.11675861,0.0976216315 C7.92381371,0.0976216315 8.58413152,0.756567644 8.58413152,1.5619461 C8.58413152,2.36732456 7.94826992,3.02627058 7.11675861,3.02627058 L7.11675861,3.02627058 Z" fill="#324A7B"></path>
                            </g>
                            <g transform="translate(15.651978, 114.787694)" id="Shape">
                                <path d="M1.51628534,1.63516233 L6.77437159,1.63516233" fill="#9AB6E0"></path>
                                <path d="M6.77437159,3.0994868 L1.51628534,3.0994868 C0.709230239,3.0994868 0.0489124303,2.44054079 0.0489124303,1.63516233 C0.0489124303,0.829783868 0.709230239,0.170837855 1.51628534,0.170837855 L6.77437159,0.170837855 C7.58142669,0.170837855 8.2417445,0.829783868 8.2417445,1.63516233 C8.2417445,2.44054079 7.58142669,3.0994868 6.77437159,3.0994868 L6.77437159,3.0994868 Z" fill="#324A7B"></path>
                            </g>
                            <g transform="translate(15.651978, 120.889046)" id="Shape">
                                <path d="M3.74180092,1.65956774 L1.51628534,1.65956774" fill="#9AB6E0"></path>
                                <path d="M3.74180092,3.12389221 L1.51628534,3.12389221 C0.709230239,3.12389221 0.0489124303,2.4649462 0.0489124303,1.65956774 C0.0489124303,0.854189276 0.709230239,0.195243263 1.51628534,0.195243263 L3.74180092,0.195243263 C4.54885602,0.195243263 5.20917383,0.854189276 5.20917383,1.65956774 C5.20917383,2.4649462 4.54885602,3.12389221 3.74180092,3.12389221 L3.74180092,3.12389221 Z" fill="#324A7B"></path>
                            </g>
                            <g transform="translate(15.651978, 96.483638)" id="Shape">
                                <path d="M1.51628534,1.5619461 L6.77437159,1.5619461" fill="#9AB6E0"></path>
                                <path d="M6.77437159,3.02627058 L1.51628534,3.02627058 C0.709230239,3.02627058 0.0489124303,2.36732456 0.0489124303,1.5619461 C0.0489124303,0.756567644 0.709230239,0.0976216315 1.51628534,0.0976216315 L6.77437159,0.0976216315 C7.58142669,0.0976216315 8.2417445,0.756567644 8.2417445,1.5619461 C8.2417445,2.36732456 7.58142669,3.02627058 6.77437159,3.02627058 L6.77437159,3.02627058 Z" fill="#324A7B"></path>
                            </g>
                            <g transform="translate(14.673729, 90.382286)" id="Shape">
                                <g transform="translate(0.000000, 18.304056)">
                                    <path d="M1.54074155,1.58635151 L5.60047327,1.58635151" fill="#9AB6E0"></path>
                                    <path d="M5.60047327,3.05067598 L1.56519777,3.05067598 C0.758142669,3.05067598 0.0978248606,2.39172997 0.0978248606,1.58635151 C0.0978248606,0.780973052 0.758142669,0.122027039 1.56519777,0.122027039 L5.60047327,0.122027039 C6.40752837,0.122027039 7.06784618,0.780973052 7.06784618,1.58635151 C7.06784618,2.39172997 6.40752837,3.05067598 5.60047327,3.05067598 L5.60047327,3.05067598 Z" fill="#324A7B"></path>
                                </g>
                                <g>
                                    <path d="M1.54074155,1.5375407 L5.60047327,1.5375407" fill="#9AB6E0"></path>
                                    <path d="M5.60047327,3.00186517 L1.56519777,3.00186517 C0.758142669,3.00186517 0.0978248606,2.34291916 0.0978248606,1.5375407 C0.0978248606,0.732162236 0.758142669,0.0732162236 1.56519777,0.0732162236 L5.60047327,0.0732162236 C6.40752837,0.0732162236 7.06784618,0.732162236 7.06784618,1.5375407 C7.06784618,2.34291916 6.40752837,3.00186517 5.60047327,3.00186517 L5.60047327,3.00186517 Z" fill="#324A7B"></path>
                                </g>
                            </g>
                            <g transform="translate(12.228108, 102.584990)" id="Shape">
                                <path d="M1.56519777,1.61075692 L7.16567104,1.61075692" fill="#9AB6E0"></path>
                                <path d="M7.16567104,3.07508139 L1.56519777,3.07508139 C0.758142669,3.07508139 0.0978248606,2.41613538 0.0978248606,1.61075692 C0.0978248606,0.80537846 0.758142669,0.146432447 1.56519777,0.146432447 L7.16567104,0.146432447 C7.97272614,0.146432447 8.63304395,0.80537846 8.63304395,1.61075692 C8.63304395,2.41613538 7.97272614,3.07508139 7.16567104,3.07508139 L7.16567104,3.07508139 Z" fill="#324A7B"></path>
                            </g>
                            <g transform="translate(15.651978, 78.179582)" id="Shape">
                                <path d="M1.51628534,1.51313529 L6.77437159,1.51313529" fill="#9AB6E0"></path>
                                <path d="M6.77437159,2.97745976 L1.51628534,2.97745976 C0.709230239,2.97745976 0.0489124303,2.31851375 0.0489124303,1.51313529 C0.0489124303,0.707756828 0.709230239,0.0488108158 1.51628534,0.0488108158 L6.77437159,0.0488108158 C7.58142669,0.0488108158 8.2417445,0.707756828 8.2417445,1.51313529 C8.2417445,2.31851375 7.58142669,2.97745976 6.77437159,2.97745976 L6.77437159,2.97745976 Z" fill="#324A7B"></path>
                            </g>
                            <g transform="translate(12.228108, 84.280934)" id="Shape">
                                <path d="M1.56519777,1.5619461 L7.16567104,1.5619461" fill="#9AB6E0"></path>
                                <path d="M7.16567104,3.02627058 L1.56519777,3.02627058 C0.758142669,3.02627058 0.0978248606,2.36732456 0.0978248606,1.5619461 C0.0978248606,0.756567644 0.758142669,0.0976216315 1.56519777,0.0976216315 L7.16567104,0.0976216315 C7.97272614,0.0976216315 8.63304395,0.756567644 8.63304395,1.5619461 C8.63304395,2.36732456 7.97272614,3.02627058 7.16567104,3.02627058 L7.16567104,3.02627058 Z" fill="#324A7B"></path>
                            </g>
                            <g transform="translate(40.597317, 83.548772)" id="Shape">
                                <path d="M1.6141102,1.63516233 L1.6141102,24.6250565" fill="#9AB6E0"></path>
                                <path d="M1.6141102,26.089381 C0.8070551,26.089381 0.146737291,25.430435 0.146737291,24.6250565 L0.146737291,1.63516233 C0.146737291,0.829783868 0.8070551,0.170837855 1.6141102,0.170837855 C2.4211653,0.170837855 3.08148311,0.829783868 3.08148311,1.63516233 L3.08148311,24.6250565 C3.08148311,25.430435 2.4211653,26.089381 1.6141102,26.089381 L1.6141102,26.089381 Z" fill="#324A7B"></path>
                            </g>
                            <g transform="translate(33.505015, 95.019313)" id="Shape">
                                <path d="M17.168263,1.46432447 L0.586949163,1.46432447" fill="#9AB6E0"></path>
                                <path d="M16.2389269,2.92864895 L1.49182912,2.92864895 C0.782598885,2.92864895 0.195649721,2.26970293 0.195649721,1.46432447 C0.195649721,0.658946013 0.782598885,0 1.49182912,0 L16.2389269,0 C16.9481571,0 17.5351063,0.658946013 17.5351063,1.46432447 C17.5351063,2.26970293 16.9726133,2.92864895 16.2389269,2.92864895 L16.2389269,2.92864895 Z" fill="#324A7B"></path>
                            </g>
                            <g transform="translate(104.672601, 82.816609)" id="Shape" fill="#324A7B">
                                <path d="M1.66302263,1.68397314 L1.66302263,26.1381918 L18.3177051,26.1381918 L18.3177051,1.68397314 L1.66302263,1.68397314 L1.66302263,1.68397314 Z M16.8503322,24.6738674 L3.13039554,24.6738674 L3.13039554,3.14829762 L16.8503322,3.14829762 L16.8503322,24.6738674 L16.8503322,24.6738674 Z"></path>
                                <path d="M18.3177051,0.219648671 L1.66302263,0.219648671 C0.85596753,0.219648671 0.195649721,0.878594684 0.195649721,1.68397314 L0.195649721,26.1381918 C0.195649721,26.9435703 0.85596753,27.6025163 1.66302263,27.6025163 L18.3177051,27.6025163 C19.1247602,27.6025163 19.7850781,26.9435703 19.7850781,26.1381918 L19.7850781,1.68397314 C19.7850781,0.878594684 19.1247602,0.219648671 18.3177051,0.219648671 L18.3177051,0.219648671 Z M16.8503322,24.6738674 L3.13039554,24.6738674 L3.13039554,3.14829762 L16.8503322,3.14829762 L16.8503322,24.6738674 L16.8503322,24.6738674 Z"></path>
                            </g>
                            <g transform="translate(32.526766, 82.816609)" id="Shape" fill="#324A7B">
                                <path d="M1.49182912,1.68397314 L1.49182912,26.1381918 L18.1465116,26.1381918 L18.1465116,1.68397314 L1.49182912,1.68397314 L1.49182912,1.68397314 Z M16.6791387,24.6738674 L2.95920203,24.6738674 L2.95920203,3.14829762 L16.6791387,3.14829762 L16.6791387,24.6738674 L16.6791387,24.6738674 Z"></path>
                                <path d="M18.1465116,0.219648671 L1.49182912,0.219648671 C0.684774024,0.219648671 0.0244562151,0.878594684 0.0244562151,1.68397314 L0.0244562151,26.1381918 C0.0244562151,26.9435703 0.684774024,27.6025163 1.49182912,27.6025163 L18.1465116,27.6025163 C18.9535667,27.6025163 19.6138845,26.9435703 19.6138845,26.1381918 L19.6138845,1.68397314 C19.6138845,0.878594684 18.9535667,0.219648671 18.1465116,0.219648671 L18.1465116,0.219648671 Z M16.6791387,24.6738674 L2.95920203,24.6738674 L2.95920203,3.14829762 L16.6791387,3.14829762 L16.6791387,24.6738674 L16.6791387,24.6738674 Z"></path>
                            </g>
                            <g transform="translate(112.987714, 83.548772)" id="Shape">
                                <path d="M1.68747884,1.63516233 L1.68747884,24.6250565" fill="#9AB6E0"></path>
                                <path d="M1.68747884,26.089381 C0.880423745,26.089381 0.220105936,25.430435 0.220105936,24.6250565 L0.220105936,1.63516233 C0.220105936,0.829783868 0.880423745,0.170837855 1.68747884,0.170837855 C2.49453394,0.170837855 3.15485175,0.829783868 3.15485175,1.63516233 L3.15485175,24.6250565 C3.15485175,25.430435 2.49453394,26.089381 1.68747884,26.089381 L1.68747884,26.089381 Z" fill="#324A7B"></path>
                            </g>
                            <g transform="translate(104.917163, 95.019313)" id="Shape">
                                <path d="M16.5079452,1.46432447 L1.63856641,1.46432447" fill="#9AB6E0"></path>
                                <path d="M16.5079452,2.92864895 L1.6141102,2.92864895 C0.8070551,2.92864895 0.146737291,2.26970293 0.146737291,1.46432447 C0.146737291,0.658946013 0.8070551,0 1.6141102,0 L16.5079452,0 C17.3150003,0 17.9753181,0.658946013 17.9753181,1.46432447 C17.9753181,2.26970293 17.3150003,2.92864895 16.5079452,2.92864895 L16.5079452,2.92864895 Z" fill="#324A7B"></path>
                            </g>
                            <g transform="translate(81.439196, 53.286066)" id="Shape">
                                <path d="M5.3314549,1.46432447 C4.13310036,2.19648671 2.86137717,2.73340568 1.54074155,3.0994868" fill="#9AB6E0"></path>
                                <path d="M1.56519777,4.53940587 C0.929336175,4.53940587 0.317930797,4.10010852 0.146737291,3.46556792 C-0.0733686454,2.68459487 0.391299442,1.87921641 1.17389833,1.68397314 C2.37225287,1.36670284 3.52169498,0.878594684 4.57331223,0.219648671 C5.25808626,-0.195243263 6.16296622,-1.00089598e-12 6.60317809,0.683351421 C7.01893375,1.36670284 6.82328402,2.26970293 6.13851,2.70900027 C4.8423306,3.51437873 3.44832634,4.12451393 1.95649721,4.51500046 C1.80975992,4.53940587 1.68747884,4.53940587 1.56519777,4.53940587 L1.56519777,4.53940587 Z" fill="#324A7B"></path>
                            </g>
                            <g transform="translate(88.531499, 46.940660)" id="Shape">
                                <path d="M3.66843227,1.65956774 C3.13039554,2.85543272 2.39670908,3.97808148 1.49182912,5.02751402" fill="#9AB6E0"></path>
                                <path d="M1.49182912,6.4918385 C1.14944211,6.4918385 0.8070551,6.36981146 0.538036733,6.12575738 C-0.0733686454,5.5888384 -0.146737291,4.6614329 0.391299442,4.05129771 C1.19835454,3.12389221 1.85867235,2.12327049 2.34779665,1.02502713 C2.69018367,0.292864895 3.5461512,-0.0244054079 4.30429387,0.317270302 C5.03798032,0.658946013 5.35591112,1.51313529 5.0135241,2.26970293 C4.40211873,3.61200037 3.59506363,4.85667617 2.61681502,5.97932493 C2.32334044,6.32100064 1.90758478,6.4918385 1.49182912,6.4918385 L1.49182912,6.4918385 Z" fill="#324A7B"></path>
                            </g>
                            <g transform="translate(90.732558, 42.547686)" id="Shape">
                                <path d="M3.07170062,1.65956774 C2.84600469,3.17270302 2.33012829,4.6370275 1.49182912,6.05254115" fill="#9AB6E0"></path>
                                <path d="M1.46737291,7.51686563 C1.27172319,7.51686563 1.05161725,7.46805481 0.85596753,7.39483859 C0.122281076,7.05316288 -0.195649721,6.1989736 0.146737291,5.44240596 C0.709230239,4.19773016 1.07607347,2.87983813 1.22281076,1.51313529 C1.32063562,0.707756828 2.02986586,0.122027039 2.83692096,0.219648671 C3.64397606,0.317270302 4.23092522,1.02502713 4.13310036,1.83040559 C3.96190685,3.51437873 3.49723877,5.14954106 2.78800853,6.68708176 C2.56790259,7.19959532 2.02986586,7.51686563 1.46737291,7.51686563 L1.46737291,7.51686563 Z" fill="#324A7B"></path>
                            </g>
                            <g transform="translate(91.466245, 37.666605)" id="Shape">
                                <path d="M1.6141102,1.61075692 C3.09341006,3.22151384 3.55569127,4.90548698 2.90849758,6.54064931" fill="#9AB6E0"></path>
                                <path d="M1.95649721,8.00497378 L1.80975992,8.00497378 C1.00270482,7.90735215 0.415755657,7.19959532 0.513580518,6.39421686 C0.684774024,4.90548698 0.562492948,3.4167571 0.220105936,1.95243263 C0.0244562151,1.17145958 0.513580518,0.366081118 1.2961794,0.170837855 C2.07877829,-0.0244054079 2.88583339,0.46370275 3.08148311,1.2446758 C3.52169498,3.02627058 3.64397606,4.85667617 3.44832634,6.68708176 C3.32604526,7.4436494 2.69018367,8.00497378 1.95649721,8.00497378 L1.95649721,8.00497378 Z" fill="#324A7B"></path>
                            </g>
                            <g transform="translate(89.754310, 33.761740)" id="Shape">
                                <path d="M1.66302263,1.5375407 C2.4211653,2.7822165 2.98365825,4.12451393 3.32604526,5.51562218" fill="#9AB6E0"></path>
                                <path d="M3.32604526,6.97994665 C2.66572745,6.97994665 2.07877829,6.54064931 1.90758478,5.85729789 C1.58965398,4.58821668 1.10052968,3.3923517 0.415755657,2.29410834 C-7.96224198e-13,1.61075692 0.220105936,0.707756828 0.90487996,0.268459487 C1.58965398,-0.146432447 2.49453394,0.0732162236 2.93474582,0.756567644 C3.76625713,2.12327049 4.40211873,3.58759496 4.76896195,5.14954106 C4.96461167,5.93051411 4.47548737,6.73589257 3.69288849,6.93113584 C3.57060741,6.95554125 3.44832634,6.97994665 3.32604526,6.97994665 L3.32604526,6.97994665 Z" fill="#324A7B"></path>
                            </g>
                            <g transform="translate(85.596753, 29.368766)" id="Shape">
                                <path d="M1.58965398,1.5619461 C2.07877829,1.87921641 2.56790259,2.24529752 3.00811446,2.66018946 C4.13310036,3.63640577 5.06243653,4.73464913 5.79612299,5.95491952" fill="#9AB6E0"></path>
                                <path d="M5.8205792,7.39483859 C5.3314549,7.39483859 4.8423306,7.15078451 4.57331223,6.68708176 C3.88853821,5.5888384 3.05702689,4.58821668 2.05432207,3.73402741 C1.63856641,3.3923517 1.22281076,3.05067598 0.782598885,2.75781109 C0.0978248606,2.31851375 -0.0733686454,1.39110825 0.391299442,0.732162236 C0.831511315,0.0488108158 1.76084749,-0.122027039 2.4211653,0.34167571 C2.95920203,0.707756828 3.49723877,1.09824335 3.98636307,1.5375407 C5.20917383,2.58697324 6.23633486,3.80724363 7.06784618,5.17394647 C7.48360183,5.85729789 7.2634959,6.76029798 6.57872187,7.19959532 C6.33415972,7.32162236 6.06514136,7.39483859 5.8205792,7.39483859 L5.8205792,7.39483859 Z" fill="#324A7B"></path>
                            </g>
                            <g transform="translate(78.259888, 26.928225)" id="Shape">
                                <path d="M1.49182912,1.63516233 C4.08418793,1.70837855 6.65209052,2.4893516 8.92651853,4.00248689" fill="#9AB6E0"></path>
                                <path d="M8.92651853,5.46681136 C8.65750016,5.46681136 8.36402558,5.39359514 8.11946343,5.22275729 C6.13851,3.90486526 3.83962578,3.17270302 1.46737291,3.0994868 C0.660317809,3.07508139 0.0244562151,2.39172997 0.0489124303,1.58635151 C0.0733686454,0.80537846 0.733686454,0.170837855 1.51628534,0.170837855 L1.56519777,0.170837855 C4.49994359,0.268459487 7.33686454,1.17145958 9.75802984,2.7822165 C10.4428039,3.22151384 10.6139974,4.14891934 10.1737855,4.80786535 C9.8558547,5.22275729 9.39118661,5.46681136 8.92651853,5.46681136 L8.92651853,5.46681136 Z" fill="#324A7B"></path>
                            </g>
                            <g transform="translate(71.901273, 26.928225)" id="Shape">
                                <path d="M1.49182912,3.21919182 C3.49723877,2.06311413 5.67384191,1.54592148 7.85044506,1.63719077" fill="#9AB6E0"></path>
                                <path d="M1.49182912,4.36856801 C0.929336175,4.36856801 0.415755657,4.05129771 0.146737291,3.51437873 C-0.195649721,2.7822165 0.122281076,1.90362181 0.880423745,1.5619461 C3.05702689,0.561324381 5.47819219,0.0732162236 7.89935749,0.146432447 C8.70641259,0.170837855 9.34227418,0.854189276 9.31781797,1.65956774 C9.29336175,2.4649462 8.60858773,3.0994868 7.80153263,3.07508139 C5.84503542,3.02627058 3.86408199,3.4167571 2.1032345,4.22213556 C1.90758478,4.31975719 1.71193506,4.36856801 1.49182912,4.36856801 L1.49182912,4.36856801 Z" fill="#324A7B"></path>
                            </g>
                            <g transform="translate(67.010029, 28.148496)" id="Shape">
                                <path d="M1.58965398,5.2715681 C2.95920203,3.68521659 4.59776845,2.4893516 6.38307215,1.68397314" fill="#9AB6E0"></path>
                                <path d="M1.58965398,6.73589257 C1.24726697,6.73589257 0.90487996,6.61386554 0.635861594,6.36981146 C0.0244562151,5.83289248 -0.0489124303,4.90548698 0.489124303,4.29535179 C1.95649721,2.58697324 3.74180092,1.26908121 5.77166677,0.34167571 C6.50535323,-2.06973327e-13 7.38577697,0.317270302 7.72816399,1.07383795 C8.070551,1.80600018 7.7526202,2.68459487 6.99447753,3.02627058 C5.35591112,3.78283822 3.88853821,4.85667617 2.69018367,6.24778442 C2.4211653,6.56505472 2.00540964,6.73589257 1.58965398,6.73589257 L1.58965398,6.73589257 Z" fill="#324A7B"></path>
                            </g>
                            <g transform="translate(63.586159, 39.374983)" id="Shape">
                                <path d="M3.12860835,6.68708176 C1.51775898,5.02751402 1.1387356,3.29473006 1.99153821,1.61075692" fill="#9AB6E0"></path>
                                <path d="M1.95649721,8.15140623 C1.2961794,8.15140623 0.684774024,7.71210889 0.538036733,7.02875747 C0.0978248606,5.19835188 -0.0244562151,3.31913547 0.195649721,1.43991906 C0.293474582,0.634540605 1.02716104,0.0732162236 1.83421614,0.170837855 C2.64127124,0.268459487 3.20376418,1.00062172 3.10593932,1.80600018 C2.9102896,3.34354088 3.00811446,4.85667617 3.37495769,6.36981146 C3.57060741,7.15078451 3.08148311,7.95616297 2.29888422,8.12700082 C2.17660315,8.12700082 2.05432207,8.15140623 1.95649721,8.15140623 L1.95649721,8.15140623 Z" fill="#324A7B"></path>
                            </g>
                            <g transform="translate(67.254592, 50.601471)" id="Shape">
                                <path d="M15.7498026,5.75967626 C11.3476838,6.93113584 6.4564408,5.97932493 2.76355231,2.7822165 C2.32334044,2.39172997 1.90758478,1.97683804 1.51628534,1.5619461" fill="#9AB6E0"></path>
                                <path d="M12.0569141,7.71210889 C8.33956936,7.71210889 4.69559331,6.39421686 1.80975992,3.88045985 C1.32063562,3.46556792 0.85596753,3.00186517 0.440211873,2.53816242 C-0.0978248606,1.92802722 -0.0489124303,1.00062172 0.538036733,0.46370275 C1.14944211,-0.0732162236 2.07877829,-0.0244054079 2.61681502,0.561324381 C2.95920203,0.951810907 3.35050147,1.31789203 3.74180092,1.65956774 C6.9455651,4.41737883 11.2987714,5.41800055 15.3829593,4.3441626 C16.1655582,4.12451393 16.9726133,4.58821668 17.168263,5.36918973 C17.388369,6.15016279 16.9237009,6.95554125 16.141102,7.15078451 C14.7715539,7.54127103 13.4020059,7.71210889 12.0569141,7.71210889 L12.0569141,7.71210889 Z" fill="#324A7B"></path>
                            </g>
                            <path d="M88.3358491,42.6941189 C88.3358491,47.6484167 84.3005736,51.675309 79.3359619,51.675309 C74.346894,51.675309 70.3360748,47.6484167 70.3360748,42.6941189 C70.3360748,37.7398211 74.3713502,33.7129288 79.3359619,33.7129288 C84.3005736,33.7129288 88.3358491,37.7398211 88.3358491,42.6941189 L88.3358491,42.6941189 Z" id="Shape" fill="#9AB6E0"></path>
                            <path d="M79.3115057,53.1640389 C73.5398389,53.1640389 68.8442456,48.4782006 68.8442456,42.7185243 C68.8442456,36.9588481 73.5398389,32.2730097 79.3115057,32.2730097 C85.0831725,32.2730097 89.7787658,36.9588481 89.7787658,42.7185243 C89.7787658,48.4782006 85.0831725,53.1640389 79.3115057,53.1640389 L79.3115057,53.1640389 Z M79.3115057,35.1772533 C75.1539491,35.1772533 71.7789914,38.5451996 71.7789914,42.6941189 C71.7789914,46.8430383 75.1539491,50.2109845 79.3115057,50.2109845 C83.4690623,50.2109845 86.84402,46.8430383 86.84402,42.6941189 C86.84402,38.5451996 83.4690623,35.1772533 79.3115057,35.1772533 L79.3115057,35.1772533 Z" id="Shape" fill="#324A7B"></path>
                            <path d="M79.3115057,34.0790099 C74.5425438,34.0790099 70.6784618,37.9350644 70.6784618,42.6941189 C70.6784618,47.4531734 74.5425438,51.3092279 79.3115057,51.3092279 C84.0804677,51.3092279 87.9445497,47.4531734 87.9445497,42.6941189 C87.9445497,37.9350644 84.0804677,34.0790099 79.3115057,34.0790099 L79.3115057,34.0790099 Z" id="Shape" fill="#9AB6E0"></path>
                            <path d="M79.3115057,52.7735524 C73.7354887,52.7735524 69.2110889,48.2585519 69.2110889,42.6941189 C69.2110889,37.1296859 73.7354887,32.6146855 79.3115057,32.6146855 C84.8875228,32.6146855 89.4119226,37.1296859 89.4119226,42.6941189 C89.4119226,48.2585519 84.8875228,52.7735524 79.3115057,52.7735524 L79.3115057,52.7735524 Z M79.3115057,35.5433344 C75.3495989,35.5433344 72.1458347,38.7404428 72.1458347,42.6941189 C72.1458347,46.647795 75.3740551,49.8449034 79.3115057,49.8449034 C83.2489563,49.8449034 86.4771767,46.6233896 86.4771767,42.6941189 C86.4771767,38.7648482 83.2734126,35.5433344 79.3115057,35.5433344 L79.3115057,35.5433344 Z" id="Shape" fill="#324A7B"></path>
                            <path d="M87.9445497,42.6941189 C87.9445497,47.4531734 84.0804677,51.3092279 79.3115057,51.3092279 L79.3115057,42.6941189 L87.9445497,42.6941189 L87.9445497,42.6941189 Z" id="Shape" fill="#FFFFFF"></path>
                            <path d="M79.3115057,52.7735524 C78.5044506,52.7735524 77.8441328,52.1146064 77.8441328,51.3092279 L77.8441328,42.6941189 C77.8441328,41.8887405 78.5044506,41.2297944 79.3115057,41.2297944 L87.9445497,41.2297944 C88.7516048,41.2297944 89.4119226,41.8887405 89.4119226,42.6941189 C89.4119226,48.2585519 84.8875228,52.7735524 79.3115057,52.7735524 L79.3115057,52.7735524 Z M80.7788786,44.1584434 L80.7788786,49.698471 C83.5424309,49.1127412 85.7434903,46.9406599 86.3304395,44.1584434 L80.7788786,44.1584434 L80.7788786,44.1584434 Z" id="Shape" fill="#324A7B"></path>
                            <path d="M79.3115057,42.6941189 L79.3115057,51.3092279 C74.5425438,51.3092279 70.6784618,47.4531734 70.6784618,42.6941189 L79.3115057,42.6941189 L79.3115057,42.6941189 Z" id="Shape" fill="#FFFFFF"></path>
                            <path d="M79.3115057,52.7735524 C73.7354887,52.7735524 69.2110889,48.2585519 69.2110889,42.6941189 C69.2110889,41.8887405 69.8714067,41.2297944 70.6784618,41.2297944 L79.3115057,41.2297944 C80.1185608,41.2297944 80.7788786,41.8887405 80.7788786,42.6941189 L80.7788786,51.3092279 C80.7788786,52.1390118 80.1185608,52.7735524 79.3115057,52.7735524 L79.3115057,52.7735524 Z M72.292572,44.1584434 C72.8795211,46.9406599 75.0805805,49.1371466 77.8441328,49.698471 L77.8441328,44.1584434 L72.292572,44.1584434 L72.292572,44.1584434 Z" id="Shape" fill="#324A7B"></path>
                            <path d="M79.3115057,34.0790099 L79.3115057,42.6941189 L70.6784618,42.6941189 C70.6784618,37.9350644 74.5425438,34.0790099 79.3115057,34.0790099 L79.3115057,34.0790099 Z" id="Shape" fill="#FFFFFF"></path>
                            <path d="M79.3115057,44.1584434 L70.6784618,44.1584434 C69.8714067,44.1584434 69.2110889,43.4994974 69.2110889,42.6941189 C69.2110889,37.1296859 73.7354887,32.6146855 79.3115057,32.6146855 C80.1185608,32.6146855 80.7788786,33.2736315 80.7788786,34.0790099 L80.7788786,42.6941189 C80.7788786,43.4994974 80.1185608,44.1584434 79.3115057,44.1584434 L79.3115057,44.1584434 Z M72.292572,41.2297944 L77.8441328,41.2297944 L77.8441328,35.7141723 C75.0805805,36.2754966 72.8795211,38.4719833 72.292572,41.2297944 L72.292572,41.2297944 Z" id="Shape" fill="#324A7B"></path>
                            <path d="M87.9445497,42.6941189 L79.3115057,42.6941189 L79.3115057,34.0790099 C84.0804677,34.0790099 87.9445497,37.9350644 87.9445497,42.6941189 L87.9445497,42.6941189 Z" id="Shape" fill="#FFFFFF"></path>
                            <path d="M87.9445497,44.1584434 L79.3115057,44.1584434 C78.5044506,44.1584434 77.8441328,43.4994974 77.8441328,42.6941189 L77.8441328,34.0790099 C77.8441328,33.2736315 78.5044506,32.6146855 79.3115057,32.6146855 C84.8875228,32.6146855 89.4119226,37.1296859 89.4119226,42.6941189 C89.4119226,43.4994974 88.7516048,44.1584434 87.9445497,44.1584434 L87.9445497,44.1584434 Z M80.7788786,41.2297944 L86.3304395,41.2297944 C85.7434903,38.4719833 83.5668871,36.2754966 80.7788786,35.6897669 L80.7788786,41.2297944 L80.7788786,41.2297944 Z" id="Shape" fill="#324A7B"></path>
                            <path d="M31.255043,65.8060402 L94.8656585,65.8060402" id="Shape" fill="#9AB6E0"></path>
                            <path d="M94.8656585,67.2703646 L31.255043,67.2703646 C30.4479879,67.2703646 29.78767,66.6114186 29.78767,65.8060402 C29.78767,65.0006617 30.4479879,64.3417157 31.255043,64.3417157 L94.8656585,64.3417157 C95.6727136,64.3417157 96.3330314,65.0006617 96.3330314,65.8060402 C96.3330314,66.6114186 95.6727136,67.2703646 94.8656585,67.2703646 L94.8656585,67.2703646 Z" id="Shape" fill="#324A7B"></path>
                            <path d="M115.066492,65.8060402 L120.44686,65.8060402" id="Shape" fill="#9AB6E0"></path>
                            <path d="M120.44686,67.2703646 L115.066492,67.2703646 C114.259437,67.2703646 113.599119,66.6114186 113.599119,65.8060402 C113.599119,65.0006617 114.259437,64.3417157 115.066492,64.3417157 L120.44686,64.3417157 C121.253915,64.3417157 121.914232,65.0006617 121.914232,65.8060402 C121.914232,66.6114186 121.253915,67.2703646 120.44686,67.2703646 L120.44686,67.2703646 Z" id="Shape" fill="#324A7B"></path>
                            <path d="M99.0965838,65.8060402 L110.762198,65.8060402" id="Shape" fill="#9AB6E0"></path>
                            <path d="M110.762198,67.2703646 L99.0965838,67.2703646 C98.2895287,67.2703646 97.6292109,66.6114186 97.6292109,65.8060402 C97.6292109,65.0006617 98.2895287,64.3417157 99.0965838,64.3417157 L110.762198,64.3417157 C111.569253,64.3417157 112.229571,65.0006617 112.229571,65.8060402 C112.229571,66.6114186 111.569253,67.2703646 110.762198,67.2703646 L110.762198,67.2703646 Z" id="Shape" fill="#324A7B"></path>
                        </g>
                    </g>
                </g>
                <g id="Group-30" transform="translate(77.767241, 58.262911)">
                    <path id="Shape" stroke="#32527D" stroke-width="5.06844212" stroke-linejoin="round"></path>
                    <path d="M11.3108255,55.1076417 L11.5784891,55.0586847 L11.556953,54.6272514 C11.556953,53.5532578 11.5933593,52.4889536 11.6661721,51.4343389 C13.2167753,30.1135775 30.9794894,13.2387212 52.7863859,12.9878167 L52.7863859,12.9878167 L52.9709816,12.9878167 L53.1248112,12.9878167 L53.7785874,12.9878167 C76.8176598,13.0734914 95.4279754,31.7184483 95.3418308,54.633371 L95.3202946,55.0648043 L95.5325796,55.0112576 C110.915548,55.0556249 101.347342,73.4542669 97.5062145,78.7324405 C87.5780464,92.3761367 70.1845236,100.163355 53.4801578,100.313286 L53.4801578,100.313286 C36.7742537,100.204662 19.3622713,92.4602814 9.40026076,78.8410638 C5.54067389,73.5644201 -4.0721433,55.1902566 11.3108255,55.1076417 Z" id="Shape" fill="#F6CDB2" fill-rule="nonzero"></path>
                    <path d="M24.5601765,92.7173056 C27.0425524,94.2041121 29.6360522,95.4991586 32.3178077,96.591026 C34.019164,97.2825432 35.7661565,97.8945053 37.5587851,98.4269124 C39.4158356,98.9811816 41.3001403,99.4407519 43.2043347,99.8038273 L43.2043347,99.8038273 C46.7739106,100.486184 50.4005684,100.829915 54.035483,100.830394 C57.2087853,100.831314 60.3765408,100.566728 63.5052386,100.039433 C65.4706938,99.7071704 67.4168592,99.2705228 69.3353837,98.7313636 C71.2137192,98.203233 73.0623147,97.5755857 74.8732525,96.8511099 C77.5004764,95.8005399 80.0403747,94.5457033 82.4693625,93.098252 C77.7975549,86.2901731 66.5356834,81.4908599 53.3817068,81.4908599 C40.4707811,81.48933 29.3842755,86.1111741 24.5601765,92.7173056 Z" id="Shape" fill="#F8AF82" fill-rule="nonzero"></path>
                    <path id="Shape" fill="#32527D" fill-rule="nonzero"></path>
                    <path d="M36.0455172,64.5928379 C36.0274784,64.5698831 36.0134483,64.548694 35.9974138,64.5257392 C36.0234698,64.5928379 36.0515302,64.6581709 36.0795905,64.7252697 C36.0675647,64.6811258 36.0575431,64.6299188 36.0455172,64.5928379 Z M35.8158948,64.0178106 C35.8360613,64.1992394 35.9048425,64.3735435 36.0163258,64.5257392 C35.9483831,64.3589795 35.8821389,64.1876301 35.8158948,64.0178106 Z M48.0743473,64.3788682 L48.0583128,64.4109963 C48.0583128,64.4293551 48.046287,64.4461841 48.0422784,64.463013 C48.0547981,64.446656 48.0661719,64.4298033 48.0763516,64.4125262 L48.0903818,64.3880477 C48.1610929,64.2811274 48.2071954,64.1657236 48.2266749,64.0468788 C48.1745628,64.157032 48.1244551,64.2687151 48.0743473,64.3788682 L48.0743473,64.3788682 Z M48.1899549,63.930606 L48.1899549,64.0468788 C48.3299399,63.6429838 48.4668483,63.2329691 48.5976035,62.8229545 C48.3358193,63.1334913 48.1915961,63.5253706 48.1899549,63.930606 L48.1899549,63.930606 Z" id="Shape" fill="#FFFFFF" fill-rule="nonzero"></path>
                    <path d="M35.8158948,64.0178106 C35.8360613,64.1992394 35.9048425,64.3735435 36.0163258,64.5257392 C35.9483831,64.3589795 35.8821389,64.1876301 35.8158948,64.0178106 Z M36.0455172,64.5928379 C36.0274784,64.5698831 36.0134483,64.548694 35.9974138,64.5257392 C36.0234698,64.5928379 36.0515302,64.6581709 36.0795905,64.7252697 C36.0675647,64.6811258 36.0575431,64.6299188 36.0455172,64.5928379 Z M46.6485814,63.2360289 C46.9892517,62.8169939 47.2977797,62.3730915 47.5715595,61.9080711 C47.2940581,62.3713372 46.9862484,62.8159677 46.6501197,63.2390887 L46.6485814,63.2360289 Z M45.5317778,55.182607 C44.4149743,53.3344813 43.0705028,52.1870523 42.024461,52.1870523 C40.9476531,52.1870523 39.5124222,53.3666093 38.3740825,55.1948463 C37.2972747,56.9190496 36.5281262,59.0563274 36.1389371,61.3787238 C36.9219302,58.2791355 44.625721,58.2791355 47.8223019,61.4582789 C47.3592745,59.0700966 46.5732048,56.9006908 45.5333161,55.182607 L45.5317778,55.182607 Z M48.0653528,64.3788682 L48.0530464,64.4109963 C48.0407401,64.4415944 48.029972,64.4706626 48.0207422,64.4997308 C47.3331235,66.3891639 46.5347474,68.150085 45.6640714,69.5392391 C44.5411147,71.3292284 43.2966325,72.5011359 42.0229227,72.5240845 L41.9844652,72.5240845 C40.7107554,72.5011359 39.4662733,71.3307583 38.3433165,69.540769 C37.5049447,68.2051616 36.734258,66.5237956 36.0650989,64.7185072 C36.1404754,65.0000098 36.9665408,68.0491112 37.5034064,69.3281121 C37.850287,70.1695012 38.2681438,70.9801841 38.7525035,71.7514823 C39.3678223,72.7122628 40.6092278,74.3217233 42.024461,74.3217233 C43.4396941,74.3217233 44.6810997,72.7122628 45.2948801,71.7514823 C45.7830116,70.9757488 46.2034761,70.1598806 46.5516687,69.3128131 C47.1938975,67.7441218 47.6922812,66.1209214 48.0407401,64.463013 C48.0503489,64.446656 48.0590782,64.4298033 48.0668911,64.4125262 L48.0776592,64.3880477 C48.1319295,64.2811274 48.1673129,64.1657236 48.1822634,64.0468788 C48.1438059,64.157032 48.1053485,64.2687151 48.0668911,64.3788682 L48.0653528,64.3788682 Z M48.1884166,63.930606 L48.1884166,64.0468788 C48.3284016,63.6429838 48.46531,63.2329691 48.5960652,62.8229545 C48.3348357,63.133703 48.1911646,63.5255608 48.1899549,63.930606 L48.1884166,63.930606 Z M46.6501197,63.2360289 C46.99079,62.8169939 47.299318,62.3730915 47.5730978,61.9080711 C47.2951004,62.3713811 46.9867761,62.8160125 46.6501197,63.2390887 L46.6501197,63.2360289 Z M45.5333161,55.182607 C44.4165126,53.3344813 43.0720411,52.1870523 42.0259993,52.1870523 C40.9491914,52.1870523 39.5139605,53.3666093 38.3756208,55.1948463 C37.298813,56.9190496 36.5296645,59.0563274 36.1404754,61.3787238 C36.9234685,58.2791355 44.6272593,58.2791355 47.8238402,61.4582789 C47.3592745,59.0700966 46.5732048,56.9006908 45.5333161,55.182607 L45.5333161,55.182607 Z M48.0668911,64.3788682 L48.0545847,64.4109963 C48.0422784,64.4415944 48.0315103,64.4706626 48.0222805,64.4997308 C47.3346618,66.3891639 46.5362857,68.150085 45.6656097,69.5392391 C44.542653,71.3292284 43.2981708,72.5011359 42.024461,72.5240845 L41.9860035,72.5240845 C40.7122937,72.5011359 39.4678116,71.3307583 38.3448548,69.540769 C37.506483,68.2051616 36.7357963,66.5237956 36.0666372,64.7185072 C36.1420137,65.0000098 36.9680791,68.0491112 37.5049447,69.3281121 C37.8518253,70.1695012 38.2696821,70.9801841 38.7540418,71.7514823 C39.3693606,72.7122628 40.6107661,74.3217233 42.0259993,74.3217233 C43.4412324,74.3217233 44.682638,72.7122628 45.2964184,71.7514823 C45.7845499,70.9757488 46.2050144,70.1598806 46.553207,69.3128131 C47.1954358,67.7441218 47.6938195,66.1209214 48.0422784,64.463013 C48.0518872,64.446656 48.0606165,64.4298033 48.0684294,64.4125262 L48.0791975,64.3880477 C48.1038102,64.3283814 48.0930421,64.3192019 48.0668911,64.3788682 L48.0668911,64.3788682 Z" id="Shape" fill="#32527D" fill-rule="nonzero"></path>
                    <path d="M51.6895803,63.8250425 C51.6911091,63.8082479 51.6911091,63.7913502 51.6895803,63.7745556 L51.6895803,63.7286585 C51.4790614,61.3081561 50.946255,58.9261791 50.1051345,56.6451966 L50.0866749,56.5977695 C49.6715929,55.4832195 49.1567617,54.4079719 48.548378,53.3849682 C46.7208813,50.3634051 44.4088211,48.7003979 42.0383056,48.7003979 C37.252664,48.7003979 32.894669,55.4029134 32.3947225,63.4303269 C32.3854927,63.5695483 32.3793395,63.7102996 32.3716481,63.8510509 L32.3716481,63.9657938 C32.3738682,64.0644517 32.3846767,64.162733 32.4039523,64.2595356 C32.5065054,64.8082617 32.6218777,65.3447485 32.7500691,65.8689961 L32.7500691,65.8689961 C33.4253814,68.7054407 34.3606659,71.1716481 35.4943907,73.1008588 L35.4943907,73.1008588 C35.5974566,73.2783278 35.7020608,73.4496772 35.8020501,73.6164369 C38.014121,77.075553 40.4169407,77.802258 42.0290759,77.802258 C43.641211,77.802258 46.0424924,77.075553 48.2561016,73.6164369 C48.3237867,73.5108734 48.3914717,73.4022502 48.4560802,73.2936269 L48.4560802,73.2936269 C49.6774879,71.2802714 50.6743043,68.6549538 51.3788443,65.6165617 C51.4813974,65.1728891 51.5772846,64.7200371 51.6665058,64.2580057 C51.6796059,64.1851028 51.6888484,64.1115661 51.6941951,64.0376993 C51.6957309,64.0132447 51.6957309,63.9887185 51.6941951,63.9642639 C51.7003483,63.9198966 51.7003483,63.8724696 51.6895803,63.8250425 Z M38.3756208,55.1948463 C39.5139605,53.3589598 40.9461149,52.1870523 42.0259993,52.1870523 C43.0705028,52.1870523 44.4165126,53.3344813 45.5333161,55.182607 C46.5732048,56.9006908 47.3592745,59.0700966 47.8238402,61.4552191 C44.6272593,58.2760757 36.9234685,58.2760757 36.1404754,61.375664 C36.5312028,59.0563274 37.298813,56.9190496 38.3756208,55.1948463 L38.3756208,55.1948463 Z M47.5669446,61.9080711 C47.2931648,62.3730915 46.9846368,62.8169939 46.6439665,63.2360289 C46.9805108,62.8139386 47.2888331,62.3703323 47.5669446,61.9080711 L47.5669446,61.9080711 Z M35.9974138,64.5257392 C35.8964497,64.3735435 35.8341584,64.1992394 35.8158948,64.0178106 C35.8758883,64.1876301 35.9358819,64.3589795 35.9974138,64.5257392 C36.0097202,64.5456279 36.0204882,64.5639868 36.0343329,64.5838756 C36.0481776,64.6037643 36.0512542,64.6603708 36.060484,64.6986185 C36.0389478,64.6404821 36.0174117,64.5838756 35.9974138,64.5257392 L35.9974138,64.5257392 Z M48.1838017,64.0468788 C48.1688512,64.1657236 48.1334678,64.2811274 48.0791975,64.3880477 L48.0684294,64.4125262 C48.0606165,64.4298033 48.0518872,64.446656 48.0422784,64.463013 C47.6938195,66.1209214 47.1954358,67.7441218 46.553207,69.3128131 C46.2050144,70.1598806 45.7845499,70.9757488 45.2964184,71.7514823 C44.6810997,72.7122628 43.4396941,74.3217233 42.0259993,74.3217233 C40.6123044,74.3217233 39.3693606,72.7122628 38.7540418,71.7514823 C38.2696821,70.9801841 37.8518253,70.1695012 37.5049447,69.3281121 C36.9680791,68.0491112 36.1420137,65.0000098 36.0666372,64.7185072 C36.7357963,66.5237956 37.506483,68.2051616 38.3448548,69.540769 C39.4678116,71.3307583 40.7122937,72.5011359 41.9860035,72.5240845 L42.024461,72.5240845 C43.2981708,72.5011359 44.542653,71.3292284 45.6656097,69.5392391 C46.5362857,68.150085 47.3346618,66.3891639 48.0222805,64.4997308 C48.0315103,64.4706626 48.0422784,64.4415944 48.0545847,64.4109963 L48.0668911,64.3788682 C48.1053485,64.2687151 48.1438059,64.1585619 48.1838017,64.0468788 L48.1838017,63.930606 C48.1833563,63.525605 48.3253929,63.133211 48.5852972,62.8214246 C48.4606951,63.2390887 48.3237867,63.6429838 48.1838017,64.0468788 L48.1838017,64.0468788 Z" id="Shape" fill="#32527D" fill-rule="nonzero"></path>
                    <path d="M48.0791975,64.3880477 L48.0684294,64.4125262 C48.0606165,64.4298033 48.0518872,64.446656 48.0422784,64.463013 C47.6938195,66.1209214 47.1954358,67.7441218 46.553207,69.3128131 C46.2050144,70.1598806 45.7845499,70.9757488 45.2964184,71.7514823 C44.6810997,72.7122628 43.4396941,74.3217233 42.0259993,74.3217233 C40.6123044,74.3217233 39.3693606,72.7122628 38.7540418,71.7514823 C38.2696821,70.9801841 37.8518253,70.1695012 37.5049447,69.3281121 C36.9680791,68.0491112 36.1420137,65.0000098 36.0666372,64.7185072 C36.7357963,66.5237956 37.506483,68.2051616 38.3448548,69.540769 C39.4678116,71.3307583 40.7122937,72.5011359 41.9860035,72.5240845 L42.024461,72.5240845 C43.2981708,72.5011359 44.542653,71.3292284 45.6656097,69.5392391 C46.5362857,68.150085 47.3346618,66.3891639 48.0222805,64.4997308 C48.0315103,64.4706626 48.0422784,64.4415944 48.0545847,64.4109963 L48.0668911,64.3788682 C48.0930421,64.3192019 48.1038102,64.3283814 48.0791975,64.3880477 Z" id="Shape" fill="#FFFFFF" fill-rule="nonzero"></path>
                    <path d="M47.8238402,61.4582789 C44.6272593,58.2791355 36.9234685,58.2791355 36.1404754,61.3787238 C36.5312028,59.0563274 37.298813,56.9190496 38.3756208,55.1948463 C39.5139605,53.3589598 40.9461149,52.1870523 42.0259993,52.1870523 C43.0705028,52.1870523 44.4165126,53.3344813 45.5333161,55.182607 C46.5732048,56.9006908 47.3592745,59.0700966 47.8238402,61.4582789 Z" id="Shape" fill="#FFFFFF" fill-rule="nonzero"></path>
                    <path id="Shape" fill="#FFFFFF" fill-rule="nonzero"></path>
                    <path d="M17.7762873,86.3161815 C16.087692,86.3024711 14.408845,86.0600471 12.7860522,85.595596 C11.5741293,85.2576187 10.8671593,84.0065356 11.2069904,82.8012238 C11.5468216,81.5959121 12.8047668,80.8927986 14.0166897,81.230776 C16.3733605,81.8871054 18.6208123,81.957481 20.3437048,81.4311936 C21.5467071,81.0636432 22.8215259,81.7355909 23.1910923,82.9320308 C23.5606587,84.1284706 22.8850254,85.3963352 21.682023,85.7638856 C20.4150147,86.140327 19.0985845,86.3264786 17.7762873,86.3161815 Z" id="Shape" fill="#32527D" fill-rule="nonzero"></path>
                    <path d="M88.3318119,86.3192413 C87.0078319,86.3287515 85.6898464,86.1415686 84.4214612,85.7638856 C83.218459,85.3963352 82.5428258,84.1284706 82.9123921,82.9320308 C83.2819585,81.735591 84.5567772,81.0636433 85.7597795,81.4311936 C87.6611145,82.0125576 90.1454639,81.8702764 92.7544154,81.0303584 C93.5290492,80.7811167 94.3785385,80.9618157 94.982889,81.5043879 C95.5872394,82.0469601 95.8546357,82.8689758 95.6843524,83.6607896 C95.514069,84.4526034 94.931976,85.09392 94.1573422,85.3431616 C92.278505,85.9684443 90.3129335,86.2977799 88.3318119,86.3192413 L88.3318119,86.3192413 Z" id="Shape" fill="#32527D" fill-rule="nonzero"></path>
                    <path d="M53.4740046,102.576016 L53.4524685,102.576016 C44.610195,102.489393 35.8942133,100.47842 27.9167403,96.6843502 C19.6099371,92.7341345 12.5583843,87.0229977 7.54507473,80.1690216 C6.06677143,78.1480166 3.79470694,74.3309027 2.25794835,70.2246367 C0.275083677,64.9342239 0.0566455204,60.7040355 1.60724877,57.6518743 C3.23015198,54.4620216 6.39442866,53.2947038 9.29873317,52.9550648 C9.31873103,52.3889998 9.34795867,51.8259946 9.38949268,51.2721689 C11.0620021,28.6489858 29.8415184,11.0485295 52.6479392,10.7296764 L52.7756178,10.7296764 L53.7632044,10.7296764 C77.3737899,10.8073289 96.7131293,29.4064799 97.5831293,52.8724499 C100.470513,53.2136188 103.605562,54.3778768 105.225388,57.543251 C106.785221,60.5908225 106.576013,64.8210109 104.610069,70.1175433 C103.082541,74.2222794 100.819706,78.0439831 99.3475558,80.0619283 C94.3511676,86.9281436 87.3211509,92.6561093 79.0174243,96.6262138 C71.0489978,100.439421 62.3377445,102.47128 53.4955408,102.579076 L53.4740046,102.576016 Z M13.8351707,54.5706449 L13.8536302,54.9485315 C13.9110846,56.0834126 13.1144234,57.0850928 11.9907527,57.2908166 L11.723089,57.3397736 C11.5911595,57.3641895 11.4573221,57.3769882 11.3231319,57.3780212 C6.85284113,57.4024997 5.97139702,59.1358825 5.68219721,59.7050073 C4.75921908,61.5286545 5.05764867,64.7047381 6.53595197,68.6488342 C7.82350646,72.0850016 9.826369,75.5731859 11.2385255,77.5054564 C15.8072673,83.75206 22.2558078,88.9705673 29.8888369,92.596443 C37.1616438,96.0556512 45.0994981,97.9129168 53.1601921,98.0413763 C53.2590979,98.0278231 53.358784,98.0206685 53.4586217,98.0199576 C53.5681928,98.0200043 53.6776442,98.027159 53.7862789,98.0413763 C61.8469598,97.8913379 69.780108,96.0126726 77.0437894,92.5337169 C84.6675887,88.8879524 91.1038229,83.6602657 95.6571816,77.3968331 C97.0647233,75.4615028 99.058356,71.9687288 100.338219,68.5233819 C101.805754,64.576226 102.101107,61.4001425 101.168899,59.5780252 C100.078247,57.4453371 97.1077956,57.2831671 95.798705,57.2663381 C95.1059425,57.41573 94.3827333,57.2359046 93.8421711,56.7798478 C93.3016089,56.3237909 93.0052951,55.6434738 93.0405386,54.9393521 L93.0589982,54.5614654 C93.1109251,32.9187806 75.5275852,15.3238725 53.766281,15.2428972 L52.9017582,15.2428972 L52.8156136,15.2428972 C32.3344432,15.4811012 15.4449503,31.2714567 13.9413131,51.5873294 C13.8674749,52.580238 13.8336324,53.5792662 13.8351707,54.569115 L13.8351707,54.5706449 Z" id="Shape" fill="#32527D" fill-rule="nonzero"></path>
                    <path d="M12.0122889,75.1448124 C9.46486923,75.1448124 6.70516463,74.3232532 4.00237701,72.7551002 C3.29918865,72.3470763 2.8682879,71.5969467 2.87199093,70.7872778 C2.87569397,69.9776089 3.3134382,69.2314088 4.0203296,68.8297638 C4.72722101,68.4281188 5.59586595,68.4320484 6.29905425,68.8400723 C8.37883163,70.0471677 10.5047579,70.6759588 12.2799525,70.607113 C13.0933318,70.576231 13.8614909,70.9792604 14.2950718,71.664384 C14.7286527,72.3495075 14.761784,73.2126386 14.3819856,73.9286441 C14.0021871,74.6446496 13.2671593,75.1047511 12.4537801,75.135633 C12.3091802,75.1417526 12.1620164,75.1448124 12.0122889,75.1448124 Z" id="Shape" fill="#32527D" fill-rule="nonzero"></path>
                    <path d="M96.1955855,71.837157 C96.0417559,71.837157 95.9002325,71.837157 95.7540943,71.8295074 C94.496719,71.7817681 93.5163276,70.7293241 93.5643287,69.4788078 C93.6123299,68.2282916 94.6705466,67.2532482 95.9279219,67.3009875 C97.7061931,67.3683034 99.8290428,66.7410422 101.90882,65.5339468 C102.612008,65.1259228 103.480653,65.1219932 104.187545,65.5236382 C104.894436,65.9252832 105.332181,66.6714833 105.335884,67.4811522 C105.339587,68.2908212 104.908686,69.0409508 104.205497,69.4489747 C101.50271,71.0155978 98.7445435,71.837157 96.1955855,71.837157 Z" id="Shape" fill="#32527D" fill-rule="nonzero"></path>
                    <path d="M82.5308944,105.876022 C81.8290349,105.877009 81.1660039,105.55577 80.7341636,105.005506 C78.5667033,102.251676 74.2733167,101.243468 74.2302444,101.234289 C73.4352762,101.059929 72.7942253,100.477017 72.5485694,99.7051298 C72.3029136,98.9332428 72.4899737,98.0896489 73.0392861,97.4921217 C73.5885985,96.8945945 74.4167096,96.6339127 75.2116778,96.8082725 C75.4516521,96.8602893 81.124891,98.1438799 84.3245485,102.213428 C84.8617581,102.89582 84.9605114,103.823202 84.578937,104.602367 C84.1973626,105.381532 83.4023154,105.875962 82.5308944,105.876022 L82.5308944,105.876022 Z" id="Shape" fill="#32527D" fill-rule="nonzero"></path>
                    <path d="M74.0594935,109.763511 C73.0205596,109.763823 72.1128224,109.065502 71.8520374,108.065316 C70.5521766,103.071705 67.4909658,100.929838 67.4601999,100.909949 C66.4122455,100.216673 66.1278046,98.8097609 66.8248832,97.7675232 C67.5219619,96.7252855 68.9365907,96.4423962 69.984545,97.1356723 C70.1691407,97.2580647 74.5117527,100.195483 76.2654112,106.927067 C76.4413221,107.606115 76.2916394,108.327902 75.859936,108.882315 C75.4282325,109.436728 74.7630243,109.76146 74.0579552,109.761981 L74.0594935,109.763511 Z" id="Shape" fill="#32527D" fill-rule="nonzero"></path>
                    <path d="M64.5420507,111.634586 C63.338899,111.633615 62.3439134,110.702345 62.2699862,109.508017 C61.9915544,105.028454 62.2576798,99.727332 62.2699862,99.5039658 C62.3112047,98.6952969 62.7830783,97.9699259 63.5078566,97.6010931 C64.232635,97.2322602 65.100207,97.276 65.7837668,97.715836 C66.4673267,98.155672 66.8630252,98.9247827 66.8218066,99.7334516 C66.8218066,99.7854684 66.5587579,105.008565 66.8218066,109.228044 C66.8592734,109.827987 66.6555019,110.41815 66.2553437,110.868634 C65.8551856,111.319118 65.2914391,111.593 64.6881889,111.629996 L64.5420507,111.634586 Z" id="Shape" fill="#32527D" fill-rule="nonzero"></path>
                    <path d="M24.3186639,106.624145 C23.4920525,106.622754 22.7309575,106.176466 22.3295732,105.457788 C21.9281888,104.73911 21.9494065,103.860651 22.3850247,103.16197 C25.39701,98.3412377 31.8886228,96.8694687 32.163978,96.8082725 C33.3924676,96.5370457 34.609434,97.3076279 34.8821486,98.5294161 C35.1548631,99.7512042 34.3800542,100.961532 33.1515646,101.232759 C33.0792646,101.249588 28.2397826,102.378658 26.2553797,105.553212 C25.8396174,106.219426 25.1070684,106.624499 24.3186639,106.624145 L24.3186639,106.624145 Z" id="Shape" fill="#32527D" fill-rule="nonzero"></path>
                    <path d="M33.1715624,110.386183 C32.481365,110.385385 31.8286374,110.073861 31.3961998,109.538863 C30.9637623,109.003865 30.7981125,108.30292 30.9456468,107.632353 C32.5700883,100.40508 37.1972854,97.2718339 37.3926491,97.1433218 L39.9169942,100.917598 L39.9339155,100.905359 C39.7985454,100.998683 36.5988879,103.255294 35.3928631,108.620672 C35.1573854,109.652585 34.2355209,110.385292 33.1715624,110.386183 Z" id="Shape" fill="#32527D" fill-rule="nonzero"></path>
                    <path d="M42.8397583,111.634586 L42.6966967,111.634586 C42.0934464,111.597589 41.5297,111.323708 41.1295418,110.873224 C40.7293837,110.42274 40.5256122,109.832577 40.5630789,109.232634 C40.8261277,105.005506 40.5630789,99.7900581 40.5630789,99.7380413 C40.5215855,98.9293724 40.9170301,98.1601158 41.6004526,97.7200431 C42.283875,97.2799703 43.1514471,97.235939 43.8763629,97.6045352 C44.6012787,97.9731314 45.0734061,98.6983567 45.1148994,99.5070256 C45.1256675,99.7303918 45.3917928,105.031514 45.1148994,109.511077 C45.0393427,110.705375 44.0429816,111.635331 42.8397583,111.634586 L42.8397583,111.634586 Z" id="Shape" fill="#32527D" fill-rule="nonzero"></path>
                    <path d="M95.3372159,56.8945711 L85.0906204,56.8945711 C83.8323956,56.894571 82.812403,55.8801424 82.812403,54.6287813 C82.812403,53.3774202 83.8323956,52.3629916 85.0906204,52.3629914 L95.3372159,52.3629914 C96.5958656,52.3629914 97.6162027,53.3777626 97.6162027,54.6295462 C97.6162027,55.8813299 96.5958656,56.896101 95.3372159,56.896101 L95.3372159,56.8945711 Z" id="Shape" fill="#32527D" fill-rule="nonzero"></path>
                    <path d="M19.406882,52.8556209 C18.800009,52.8551226 18.2366101,52.5423335 17.9176759,52.02884 C17.5987417,51.5153464 17.5696941,50.8742793 17.8408957,50.3343369 C18.6577314,48.7095774 20.4560004,47.7334977 22.7634457,47.6386436 C24.9678252,47.551439 27.8628999,48.3240412 29.0043162,50.2165342 C29.3843582,50.7497648 29.432413,51.4496672 29.1287813,52.0293277 C28.8251496,52.6089882 28.2208947,52.9709221 27.5637212,52.9667606 C26.9065476,52.9625991 26.3069758,52.5930421 26.0107905,52.0095833 C25.8261948,51.7036022 24.537102,51.0488027 22.8772797,51.1222382 C21.9235357,51.1650755 21.1959212,51.4588173 20.9790214,51.8871908 C20.6828794,52.4811545 20.0734948,52.8565323 19.406882,52.8556209 Z" id="Shape" fill="#32527D" fill-rule="nonzero"></path>
                    <path d="M70.9782848,52.8556209 C70.3138105,52.8562355 69.7061642,52.4829718 69.409222,51.8917806 C69.1923221,51.4588173 68.4647077,51.1635456 67.5109636,51.1268279 C65.8542179,51.0472728 64.5635868,51.7158414 64.3774529,52.014173 C63.8712522,52.8318707 62.797496,53.0918512 61.9700183,52.5970669 C61.1463214,52.1042848 60.8792872,51.0412904 61.3731591,50.2211239 C62.5145754,48.3301608 65.4081118,47.5575586 67.6140295,47.6432333 C69.9307046,47.7319678 71.7274354,48.7141671 72.5365796,50.3389266 C72.8077812,50.878869 72.7787336,51.5199362 72.4597994,52.0334297 C72.1408652,52.5469232 71.5774663,52.8597123 70.9705933,52.8602107 L70.9782848,52.8556209 Z" id="Shape" fill="#32527D" fill-rule="nonzero"></path>
                </g>
            </g>
        </g>
    </g>
</svg>