<?xml version="1.0" encoding="UTF-8"?>
<svg width="200px" height="140px" viewBox="0 0 200 140" version="1.1" xmlns="http://www.w3.org/2000/svg" xmlns:xlink="http://www.w3.org/1999/xlink">
    <!-- Generator: Sketch 42 (36781) - http://www.bohemiancoding.com/sketch -->
    <title>entreprise</title>
    <desc>Created with Sketch.</desc>
    <defs>
        <polygon id="path-1" points="68.9120769 0.0620211161 0.0841356159 0.0620211161 0.0841356159 15.982049 68.9120769 15.982049 68.9120769 0.0620211161"></polygon>
        <polygon id="path-3" points="59.0444182 50.5779976 59.0444182 0.0607162849 0.278797447 0.0607162849 0.278797447 50.5779976 59.0444182 50.5779976"></polygon>
    </defs>
    <g id="Home" stroke="none" stroke-width="1" fill="none" fill-rule="evenodd">
        <g id="entreprise">
            <g transform="translate(7.000000, 10.000000)">
                <polygon id="Fill-1" fill="#ECECEC" points="0 97.4127756 20.6344252 104.470588 79.7396226 103.851064 44.8188417 96.7058824"></polygon>
                <g id="Group-80" transform="translate(27.520755, 0.000000)">
                    <path d="M134.645233,114.918586 C134.699556,117.335646 122.9418,119.557937 108.386404,119.880424 C93.8310082,120.204508 81.9869743,118.507457 81.9326512,116.088801 C81.8783281,113.671741 93.6360841,111.451047 108.19148,111.126963 C122.748473,110.804476 134.590909,112.501526 134.645233,114.918586" id="Fill-2" fill="#ECECEC"></path>
                    <path d="M71.0048873,10.3437856 C71.0592104,12.7688279 69.5860957,14.8841545 67.4467242,15.7510393 C66.8268017,16.0016856 66.1445675,16.151754 65.4303784,16.1677188 L6.22458863,17.4832124 L6.22299089,17.4528795 C9.07495373,17.0920766 11.2686484,14.6015788 11.2031411,11.6720511 C11.1344384,8.51901706 8.51574533,6.01734401 5.37459187,6.08599234 L65.1763381,4.75772688 C68.3318712,4.68748207 70.9345868,7.1907516 71.0048873,10.3437856" id="Fill-4" fill="#F8D3B8"></path>
                    <path d="M13.6280285,11.0989173 C13.6935358,14.0284451 11.4998411,16.5189428 8.64787829,16.8797457 C8.45455195,16.8989034 8.26122562,16.918061 8.05351964,16.9228504 C6.47495422,16.9579729 5.03219655,16.3497167 3.96650512,15.3471317 L3.96650512,15.331167 C2.91679107,14.3126172 2.24414325,12.914107 2.20899301,11.3527565 C2.13869252,8.198126 4.64234841,5.58310338 7.79947926,5.51285857 C10.9406327,5.44261376 13.557728,7.94588328 13.6280285,11.0989173" id="Fill-6" fill="#C1D5EF"></path>
                    <path d="M4.86730996,11.7643272 C5.65978815,12.4571964 6.66955874,12.8084205 7.70808863,12.8020346 C7.87265567,12.7988416 8.02603855,12.7828769 8.17782368,12.7669122 C10.1925717,12.5114765 11.7679416,10.683515 11.7216072,8.60969672 C11.6960434,7.51132336 11.2454812,6.48638775 10.4498075,5.72487017 C9.65732933,4.96494907 8.61560397,4.58658499 7.52594646,4.58339204 C5.25556036,4.63447917 3.44692063,6.52310662 3.49804825,8.7932911 C3.52201433,9.86931384 3.97257652,10.88946 4.76984793,11.6621529 C4.80340043,11.6956788 4.83695293,11.7292048 4.86730996,11.7643272 M7.61382207,15.9965769 C5.73328411,15.9965769 3.94381723,15.2861464 2.56177362,13.985021 C2.50425504,13.9307409 2.45152968,13.8732679 2.40359753,13.8126019 C1.08865892,12.4683717 0.344112883,10.7202339 0.302571687,8.86513238 C0.214696082,4.83403829 3.42295455,1.48144518 7.45404824,1.3920427 C9.42246181,1.34414851 11.2502744,2.06894721 12.6610773,3.41956329 C14.0718802,4.77177584 14.8723471,6.58856201 14.915486,8.53785544 C15.0001662,12.2879703 12.2584473,15.4681443 8.53891254,15.9391038 C8.26569929,15.9678404 8.03083176,15.9885945 7.77998685,15.9933839 C7.72406601,15.9949804 7.66814517,15.9965769 7.61382207,15.9965769" id="Fill-8" fill="#324A7A"></path>
                    <g id="Group-12" transform="translate(5.806780, 0.000000)">
                        <mask id="mask-2" fill="white">
                            <use xlink:href="#path-1"></use>
                        </mask>
                        <g id="Clip-11"></g>
                        <path d="M7.7488709,4.45072514 C8.6004654,5.63690451 9.07659141,7.04978304 9.10854618,8.53929226 C9.14209868,10.0559415 8.71390482,11.4799954 7.94539271,12.6677712 L61.702895,11.4736095 C62.1997916,11.4640306 62.6886995,11.3618564 63.1568368,11.1734726 C64.7242181,10.5380763 65.7531615,8.97353289 65.7164135,7.28127161 L65.7164135,7.28127161 C65.6908497,6.1797053 65.2402875,5.15636617 64.4494071,4.39644506 C63.6569289,3.63652396 62.6104103,3.21824806 61.5207528,3.25656341 L7.7488709,4.45072514 Z M2.5322554,15.982049 C1.68385638,15.982049 0.980851532,15.3179162 0.937712598,14.4669962 C0.894573665,13.6336373 1.50011647,12.8769092 2.33094038,12.7715419 C4.38722955,12.5113169 5.95940402,10.6833554 5.91466735,8.60953707 C5.88910354,7.51116371 5.43854134,6.48782457 4.64286768,5.726307 C3.85038949,4.96638589 2.80706639,4.56407472 1.71740888,4.58482887 C0.848239254,4.54332057 0.103693215,3.90473141 0.0845203552,3.02347836 C0.0653474958,2.14222532 0.765156864,1.4126372 1.6471084,1.39188305 L1.6471084,1.39188305 L1.65030387,1.39188305 L61.4488546,0.063617589 C63.4300501,0.0109339831 65.2530694,0.740522102 66.6622746,2.09273466 C68.0682843,3.44175426 68.8671534,5.25854043 68.9102924,7.2110268 L68.9102924,7.2110268 C68.9773974,10.2203782 67.1463893,13.001434 64.3551405,14.1333333 C63.5259143,14.4669962 62.6583425,14.6473976 61.7731955,14.6665553 L2.56900338,15.982049 L2.5322554,15.982049 L2.5322554,15.982049 Z" id="Fill-10" fill="#324A7A" mask="url(#mask-2)"></path>
                    </g>
                    <path d="M23.1374472,108.107636 C22.7396104,108.107636 22.3417736,107.96076 22.0334101,107.665413 C21.3959125,107.05556 21.3735442,106.044993 21.9822824,105.408 L38.4469755,88.2091974 L38.2552469,79.6345414 C38.236074,78.7516918 38.9358834,78.0221037 39.8162372,78.002946 C40.6566475,77.9662272 41.4315506,78.681447 41.4507234,79.5627001 L41.6552339,88.7982959 C41.6664181,89.2229577 41.5066443,89.6332512 41.2126604,89.9381775 L24.292612,107.614326 C23.9778576,107.941603 23.5576524,108.107636 23.1374472,108.107636" id="Fill-13" fill="#324A7A"></path>
                    <path d="M57.5997033,107.342127 C57.2018665,107.342127 56.8040297,107.195251 56.4956662,106.899904 L38.8039102,89.9916594 C38.1664126,89.3818067 38.1440443,88.3712394 38.7543803,87.7342467 C39.3631186,87.097254 40.3760847,87.0733069 41.0135822,87.684756 L58.7037405,104.591404 C59.3412381,105.201257 59.3636064,106.211824 58.7548681,106.848817 C58.4401137,107.176094 58.0199085,107.342127 57.5997033,107.342127" id="Fill-15" fill="#324A7A"></path>
                    <path d="M10.1471959,15.9416582 L18.0575981,78.4882738 L76.2520196,77.1951308 L68.2026141,14.6261645 C67.9965059,14.6485151 67.7887999,14.6628834 67.5794962,14.6676728 L10.1471959,15.9416582 Z M16.6515884,81.7131491 C15.8495238,81.7131491 15.1688873,81.1160682 15.0682298,80.3162353 L6.75359978,14.5846562 C6.69767894,14.1360473 6.83348669,13.6842455 7.12906827,13.3426003 C7.42464986,13.0009551 7.85124598,12.798203 8.30500365,12.7886242 L67.5091957,11.474727 C68.0060923,11.4635517 68.4950002,11.3629739 68.9615398,11.1745901 C69.4200907,10.9878028 69.9377579,11.0261181 70.3659518,11.2767644 C70.7941456,11.5258141 71.0817385,11.9600548 71.1440503,12.4501719 L79.6472135,78.5457468 C79.704732,78.9959522 79.5689243,79.4493505 79.2733427,79.7925922 C78.9777611,80.1342374 78.551165,80.335393 78.0974073,80.3465683 L16.6883364,81.7131491 L16.6515884,81.7131491 Z" id="Fill-17" fill="#324A7A"></path>
                    <path d="M16.6531862,80.1155586 L12.1875077,80.21454 L3.65718299,12.8226291 C4.72287442,13.8252141 6.16563209,14.4334702 7.74419751,14.3983478 L8.33855615,14.3855761 L16.6531862,80.1155586 Z" id="Fill-19" fill="#C1D5EF"></path>
                    <path d="M5.63486343,15.7266133 L13.5916001,78.5877341 L14.8458246,78.5589976 L6.92903144,15.9644878 C6.48805568,15.9245759 6.05666634,15.8447523 5.63486343,15.7266133 L5.63486343,15.7266133 Z M12.1871881,81.8110129 C11.3835258,81.8110129 10.7028893,81.213932 10.6022318,80.4140991 L2.07190706,13.0237847 C1.98722693,12.3548625 2.3323384,11.705098 2.933088,11.4001717 C3.53543533,11.0952454 4.26240625,11.1990161 4.7529119,11.6603968 C5.56136747,12.4203179 6.59510414,12.795489 7.70872772,12.8018749 L8.3046841,12.7891031 C9.10195551,12.7906996 9.82093773,13.3750087 9.92479072,14.1860169 L18.237823,79.9159995 C18.2953416,80.363012 18.1579361,80.8148138 17.8623545,81.1580555 C17.5683707,81.4997007 17.1417745,81.7008562 16.6880169,81.7120316 L12.2239361,81.8110129 L12.1871881,81.8110129 Z" id="Fill-21" fill="#324A7A"></path>
                    <path d="M21.0677371,101.766924 C20.9175497,101.766924 20.7657645,101.74617 20.6139794,101.701469 C19.7687758,101.452419 19.2846611,100.563184 19.535506,99.7186495 L25.536611,79.4290753 C25.7874559,78.5845411 26.6757984,78.0992134 27.5225997,78.3498596 C28.3678033,78.5989094 28.851918,79.4881448 28.6010731,80.332679 L22.5983703,100.622253 C22.3938598,101.318315 21.75796,101.766924 21.0677371,101.766924" id="Fill-23" fill="#324A7A"></path>
                    <path d="M40.7740813,32.2381344 C40.8827275,37.1025873 37.4891314,41.2246804 32.8924383,42.1905465 L30.8153785,32.4600441 L37.7000328,25.2823019 C39.5406273,27.0272468 40.7133672,29.5001833 40.7740813,32.2381344" id="Fill-25" fill="#F7B480"></path>
                    <path d="M32.8930774,42.1908658 C32.2859369,42.323373 31.6756008,42.3968108 31.0365055,42.411179 C26.2576703,42.5165462 22.2074038,39.258145 21.1401146,34.7880209 L30.8144199,32.4587669 L32.8930774,42.1908658 Z" id="Fill-27" fill="#D88D5A"></path>
                    <path d="M30.5936125,22.5226388 L30.8141004,32.4590862 L21.139795,34.7883402 C20.9768257,34.1066462 20.8857547,33.4089876 20.8697773,32.6809959 C20.7483492,27.1923221 25.1005883,22.6439708 30.5936125,22.5226388" id="Fill-29" fill="#F8D3B8"></path>
                    <path d="M45.8833287,27.8724195 C45.0173546,27.8724195 44.3063611,27.1795503 44.2871882,26.311069 C44.2664176,25.429816 44.966227,24.7002279 45.8497762,24.6794737 L63.3402172,24.2915308 C64.1550637,24.2580049 64.9539329,24.9716283 64.9731057,25.8512848 C64.9922786,26.7341344 64.2924692,27.4637225 63.4105177,27.4844766 L45.918479,27.8724195 L45.8833287,27.8724195 Z" id="Fill-31" fill="#ECECEC"></path>
                    <path d="M45.9910163,32.7070184 C45.1250422,32.7070184 44.4140486,32.0141492 44.3948758,31.1456679 C44.3741052,30.2644149 45.0739145,29.5348268 45.9574638,29.5140726 L63.4479048,29.1261297 C64.2883151,29.0973932 65.0616204,29.8062272 65.0807933,30.6858837 C65.0999662,31.5687333 64.4001568,32.2983214 63.5182053,32.3190755 L46.0261665,32.7070184 L45.9910163,32.7070184 Z" id="Fill-33" fill="#ECECEC"></path>
                    <path d="M46.0987039,37.5416174 C45.2327297,37.5416174 44.5217362,36.8487481 44.5025633,35.9802669 C44.4817927,35.0990138 45.1816021,34.3694257 46.0651514,34.3486715 L63.5555923,33.9607286 C64.3752321,33.9144309 65.169308,34.6408261 65.1884809,35.5204827 C65.2076537,36.4033322 64.5078444,37.1329203 63.6258928,37.1536744 L46.1338541,37.5416174 L46.0987039,37.5416174 Z" id="Fill-35" fill="#ECECEC"></path>
                    <path d="M25.3257096,57.7251858 C24.4597354,57.7251858 23.7487419,57.0323165 23.729569,56.1638352 C23.7087984,55.2825822 24.4086078,54.5529941 25.2921571,54.5322399 L64.1203928,53.6701446 C64.9783783,53.6637587 65.7341085,54.350242 65.7532813,55.2314951 C65.7724542,56.1127481 65.0726448,56.8423362 64.1906933,56.8630904 L25.3624576,57.7251858 L25.3257096,57.7251858 Z" id="Fill-37" fill="#ECECEC"></path>
                    <path d="M24.3287209,52.1905335 C23.4627467,52.1905335 22.7517532,51.4976642 22.7325803,50.629183 C22.7118097,49.7479299 23.4116191,49.0183418 24.2951684,48.9975877 L63.1250019,48.1354923 C63.9957692,48.0987734 64.7371198,48.8171862 64.7562927,49.6968428 C64.7770633,50.5780958 64.0772539,51.307684 63.1953024,51.3284381 L24.3654689,52.1905335 L24.3287209,52.1905335 Z" id="Fill-39" fill="#ECECEC"></path>
                    <path d="M26.3626417,63.2582416 C25.4966676,63.2582416 24.785674,62.5653723 24.7665012,61.6968911 C24.7457306,60.815638 25.4455399,60.0860499 26.3290892,60.0652957 L65.157325,59.2032004 C66.0217014,59.2047968 66.7710406,59.8832978 66.7902135,60.7645509 C66.8093864,61.6458039 66.109577,62.375392 65.2276255,62.3961462 L26.3993897,63.2582416 L26.3626417,63.2582416 Z" id="Fill-41" fill="#ECECEC"></path>
                    <path d="M27.5211618,68.7898605 C26.6551876,68.7898605 25.9441941,68.0969913 25.9250212,67.22851 C25.9042506,66.347257 26.60406,65.6176689 27.4876092,65.5969147 L66.3174427,64.7348194 C67.1562553,64.7028899 67.9295607,65.4149168 67.9487335,66.2961699 C67.9695041,67.1774229 67.2696948,67.907011 66.3877432,67.9277652 L27.5579097,68.7898605 L27.5211618,68.7898605 Z" id="Fill-43" fill="#ECECEC"></path>
                    <path d="M83.7188897,64.1461998 C83.8499042,70.0419742 85.5562887,75.5354375 88.4306199,80.2290679 C89.2470642,81.5605263 90.1545795,82.8281258 91.1483727,84.0222875 C97.2229737,91.3277475 106.454705,95.8936601 116.696208,95.6669609 C121.978331,95.5488219 126.932917,94.1710658 131.281961,91.8274436 C131.892297,91.4969737 132.491449,91.1473461 133.077818,90.7817538 C142.402219,84.9514347 148.503982,74.5009231 148.241953,62.7125671 C147.845713,44.9087012 133.081014,30.7974772 115.261439,31.1934025 C97.4450593,31.5877313 83.3226506,46.3423339 83.7188897,64.1461998" id="Fill-45" fill="#F8D3B8"></path>
                    <path d="M103.651154,94.00168 C118.139445,99.1662699 129.13508,95.9429911 137.724521,91.1663441 C141.718866,88.9440538 144.81049,85.5036547 147.488299,81.9642743 C155.521727,71.346133 158.431209,57.5142917 156.863828,49.7937487 C153.601246,66.6620814 147.053715,69.7177306 135.858362,69.31063 C132.531871,69.1892981 129.427466,68.280905 126.712908,66.7594663 C126.682551,66.7387121 126.652194,66.7163615 126.615446,66.6956074 C126.449282,66.6173802 126.297497,66.5231883 126.137723,66.4289964 C123.975983,65.2092911 121.502684,64.4733171 118.856829,64.3759322 C109.978198,64.0502518 102.523151,70.9757512 102.205201,79.8473512 C102.146085,81.42307 102.317043,82.9572804 102.689316,84.4132637 L103.651154,94.00168 Z" id="Fill-47" fill="#F8D3B8"></path>
                    <path d="M103.652592,94.0023186 C102.422334,93.4547284 101.230421,92.832104 100.081647,92.1440241 C96.8062835,90.1851519 93.8920089,87.6818824 91.4602512,84.757144 C91.4666422,84.753951 91.4682399,84.7475651 91.4746309,84.7443722 C94.5215178,82.0239824 98.1963158,79.9868829 102.267353,78.8853166 C104.318849,78.3281476 106.469405,78.008853 108.690261,77.9593623 C119.425464,77.7198914 128.821763,83.8407685 133.276258,92.8672264 C133.279453,92.8768052 133.285844,92.8847876 133.289039,92.8943664 C133.245901,92.916717 133.205957,92.9406641 133.162818,92.9598218 C131.076172,94.0773528 128.853718,94.9777635 126.529009,95.6355104 C126.519422,95.6387033 126.514629,95.6418963 126.505043,95.6418963 L103.652592,94.0023186 Z" id="Fill-49" fill="#F7B480"></path>
                    <path d="M89.8155394,58.0781659 C90.3220225,58.0669906 90.8157236,57.8147479 91.1145007,57.3597531 C91.6912842,56.481693 92.7409982,55.9149451 94.0687187,55.7648767 C95.8757607,55.5589317 97.7882535,56.187942 99.0632486,57.4060508 C99.6991485,58.014307 100.708919,57.9919564 101.317657,57.3549637 C101.926396,56.7195675 101.904027,55.7105966 101.268127,55.1023404 C99.2981161,53.2200989 96.4717171,52.2861622 93.7076299,52.5974744 C91.4564166,52.8529101 89.5391307,53.9512834 88.4494732,55.6100188 C87.9653585,56.3443963 88.169869,57.3326131 88.9048286,57.8163444 C89.1860305,57.9999387 89.5039805,58.0845518 89.8155394,58.0781659" id="Fill-51" fill="#324A7A"></path>
                    <path d="M74.9802199,74.0890331 C77.6484429,76.7407746 80.7240891,83.4507502 84.6912732,83.6742564 L82.6509614,52.58135 C76.5300261,59.0023641 70.8037321,70.4267242 70.8676416,73.3195331 C70.8676416,73.3195331 73.6173492,72.735224 74.9802199,74.0890331" id="Fill-53" fill="#FEFEFE"></path>
                    <path d="M138.647854,71.1770665 C142.707707,71.087664 146.984852,70.3357253 150.503072,67.4524952 C154.41114,64.251567 157.007464,58.7517178 158.67071,50.1435359 C158.864036,49.1457403 158.210561,48.1798742 157.211975,47.986701 C156.213388,47.7951243 155.248354,48.4464852 155.055028,49.4442808 C153.562741,57.1632273 151.375437,61.9813825 148.168776,64.6075805 C145.457414,66.8282743 141.7938,67.6871767 135.925308,67.4716529 C134.904353,67.4397234 134.055954,68.2267845 134.017608,69.2421413 C133.98086,70.2574981 134.774936,71.1116111 135.791098,71.14833 C136.720981,71.1818559 137.679624,71.1978206 138.647854,71.1770665" id="Fill-55" fill="#324A7A"></path>
                    <g id="Group-59" transform="translate(100.073339, 47.894187)">
                        <mask id="mask-4" fill="white">
                            <use xlink:href="#path-3"></use>
                        </mask>
                        <g id="Clip-58"></g>
                        <path d="M18.8628982,50.5683574 C20.280092,50.5364279 21.6829062,50.4278677 23.0729385,50.2410804 C28.2496106,49.5450182 33.3112455,47.7904945 38.5470338,44.8785279 C43.1373359,42.3257677 46.4829999,38.3537431 48.8844005,35.1783585 C53.7926525,28.6902926 56.2691468,21.9132651 57.4818302,17.3712997 C59.0683843,11.4340169 59.4630257,5.80804641 58.593856,1.53428843 C58.4197026,0.673789535 57.6607769,0.0559545191 56.7804231,0.0607439378 L56.7484683,0.0607439378 C55.8840919,0.0799016127 55.1475346,0.699333101 54.9813698,1.55025316 C53.49068,9.26919968 51.3017785,14.0873549 48.0951178,16.7135528 C45.3837559,18.9342467 41.7233375,19.7931491 35.8516493,19.5776252 C32.9166041,19.4706616 30.1461259,18.705951 27.6153085,17.3026514 C27.5641809,17.2691254 27.5114555,17.2355995 27.4507414,17.2004771 C27.410798,17.1781265 27.3708545,17.1573723 27.3293133,17.1382146 C27.2685993,17.1094781 27.1823214,17.058391 27.0816639,16.9993215 L26.9985815,16.9498308 C26.9889951,16.9450414 26.9794086,16.9386555 26.9698222,16.9338661 C24.4661663,15.5193911 21.7340339,14.7498912 18.851714,14.6429275 C14.0632924,14.4673155 9.49855409,16.1643662 5.9931163,19.4211709 C2.48767851,22.6779756 0.463344102,27.104995 0.290788367,31.8880278 C0.228476574,33.6090256 0.409021,35.3220411 0.832421645,36.9727941 C1.08326656,37.9578178 2.08345072,38.5533022 3.07085298,38.3010595 C4.0566575,38.0504133 4.65101614,37.0478283 4.40017123,36.0628045 C4.06464619,34.7521002 3.92084975,33.3935018 3.97197737,32.0205351 C4.10778513,28.2193331 5.71670758,24.7023033 8.5015654,22.1160172 C11.2848255,19.5281346 14.9148869,18.1775185 18.7159062,18.3196046 C20.9974765,18.4042177 23.1608141,19.0124738 25.1436074,20.1284084 L25.2027237,20.1635308 C25.3209563,20.2337756 25.463155,20.3167922 25.6245266,20.3998088 C25.6628723,20.4253524 25.7028158,20.4492995 25.7395637,20.4700536 C28.8072212,22.1894549 32.1640694,23.1265845 35.7190371,23.2543024 C40.5474021,23.4299144 46.0723811,23.128181 50.4294134,19.5584676 C51.9105168,18.3467446 53.2030871,16.8045518 54.3262971,14.8871878 C52.9618286,20.7973305 50.2249029,27.3045541 45.9461598,32.9592612 C43.7620516,35.8472807 40.7439239,39.4441341 36.7559692,41.6632315 C26.0543182,47.6164789 15.7089628,48.4769778 4.19566073,44.3740425 C3.2386155,44.0339937 2.18570597,44.5320933 1.84378998,45.489977 C1.50187399,46.4462643 2.00196607,47.4983399 2.9590113,47.8399851 C8.3721486,49.7701209 13.705399,50.6833034 18.8628982,50.5683574" id="Fill-57" fill="#324A7A" mask="url(#mask-4)"></path>
                    </g>
                    <path d="M144.15366,85.4927987 C146.208351,85.446501 147.524888,84.4391266 148.331745,83.4285592 C148.881367,82.7404794 148.767928,81.7378944 148.079303,81.1887077 C147.390678,80.6395211 146.387298,80.7528706 145.839274,81.4409505 C145.534106,81.8225075 144.727248,82.8346713 142.167671,81.9470324 C141.335249,81.6580708 140.426136,82.0986973 140.138543,82.9304597 C139.849353,83.7606256 140.290329,84.6690187 141.121153,84.9579803 C142.276317,85.358695 143.281295,85.5119564 144.15366,85.4927987" id="Fill-60" fill="#324A7A"></path>
                    <path d="M148.974196,77.9759657 C151.028887,77.9296679 152.345424,76.9222935 153.152282,75.9117262 C153.701904,75.2236464 153.588464,74.2210614 152.899839,73.6718747 C152.212811,73.1242845 151.207834,73.2360376 150.65981,73.9241174 C150.354642,74.3056744 149.546186,75.3178383 146.988207,74.4301993 C146.157383,74.1412377 145.246673,74.5818643 144.95908,75.4136266 C144.669889,76.2437926 145.110865,77.1521856 145.943286,77.4411472 C147.096853,77.8418619 148.101831,77.9951233 148.974196,77.9759657" id="Fill-62" fill="#324A7A"></path>
                    <path d="M72.2023922,72.8611858 L72.2055876,72.8611858 L72.2023922,72.8611858 Z M82.7378784,75.3931918 L82.7362806,75.3915953 L82.7378784,75.3931918 Z M82.8433291,75.4889802 C81.8383517,75.0020559 77.0291595,74.6428495 72.227956,74.7003225 C71.2181854,74.7130943 70.3873615,73.9100685 70.3649931,72.902694 C70.280313,69.162158 76.4587669,57.3546444 82.654796,50.8538067 C83.3578008,50.1194292 84.522552,50.0906927 85.2591094,50.7915443 C85.994069,51.4923959 86.0228283,52.6562246 85.3214212,53.3921986 C80.3492597,58.6094721 75.8436377,67.0915327 74.4711805,71.0300313 C75.4026619,71.0428031 76.5322629,71.0715396 77.7002096,71.1290126 C83.4952063,71.4147813 84.6791304,72.1331941 85.3342031,72.7829586 C86.0547831,73.4997749 86.0579785,74.6652001 85.3405941,75.3852094 C84.9906894,75.7364335 84.535334,75.9168349 84.0767831,75.9264137 C83.637405,75.9359926 83.1964293,75.7907135 82.8433291,75.4889802 L82.8433291,75.4889802 Z" id="Fill-64" fill="#324A7A"></path>
                    <path d="M86.0709202,85.0550458 C87.0215745,85.0342917 87.8124549,84.2839494 87.866778,83.3180833 C87.9226989,82.304323 87.1461981,81.4358417 86.1316343,81.3783687 C83.2461189,81.217125 78.398581,76.4165309 78.1525293,73.4774243 C78.0678492,72.4652605 77.1763112,71.7101288 76.1633451,71.7979348 C75.1503791,71.8825479 74.3978443,72.7717833 74.4825245,73.7839471 C74.8851545,78.5733658 81.194623,84.7868384 85.925526,85.0518529 C85.9734582,85.0550458 86.0229881,85.0566423 86.0709202,85.0550458" id="Fill-66" fill="#324A7A"></path>
                    <path d="M96.5787656,92.0528655 C97.1539514,92.0400937 97.7147575,91.7591145 98.0630644,91.2466467 C98.633457,90.406902 98.4145669,89.2622309 97.5741565,88.6906936 C94.0096024,86.2736336 90.9211743,83.0631266 88.6396041,79.4024142 C88.609247,79.3497306 88.5772923,79.2986435 88.542142,79.2491528 C87.5052099,77.5568915 86.637638,75.7911925 85.9649902,73.9967569 C85.9474151,73.9488627 85.9266445,73.9009686 85.9042761,73.8546708 C85.8787123,73.784426 85.8515508,73.7141812 85.8275847,73.6439364 C85.8020209,73.548148 85.7700661,73.4523597 85.7301226,73.3581678 C84.6372697,70.2689927 84.0477042,67.0313456 83.9742083,63.7330326 C83.9182874,61.2409384 84.1595459,58.7695983 84.689995,56.3892572 C85.3818157,53.1979079 86.5833149,50.1390658 88.267331,47.2861687 C88.2833084,47.2622216 88.2976881,47.2382745 88.3136654,47.2127309 C93.8258625,37.9691528 103.535318,32.3064634 114.284901,32.0685889 C116.745418,32.0127124 119.213924,32.2505868 121.621715,32.7726335 C131.596396,34.9534155 139.853507,41.9108444 143.707252,51.3827182 C145.127641,54.8566432 145.889762,58.5476886 145.974442,62.3552765 L146.007995,63.8463822 C146.030363,64.8617389 146.872371,65.6679578 147.888533,65.6456071 C148.906292,65.6216601 149.711552,64.7803188 149.689184,63.7649621 L149.655631,62.2738564 C149.561365,58.0144666 148.706575,53.8827948 147.116825,49.9953832 C142.809323,39.401189 133.569602,31.6183836 122.404607,29.1773765 C119.71082,28.5930674 116.953124,28.3280529 114.203417,28.3903153 C102.201207,28.6569263 91.3621501,34.9613978 85.1884894,45.2634375 C85.172512,45.2889811 85.1565346,45.3145247 85.1405572,45.3400682 C83.2328577,48.5537682 81.8715847,52.0053426 81.0934861,55.6005996 C80.5007252,58.258727 80.2307075,61.027011 80.2914215,63.8144527 C80.3745039,67.5070946 81.0359676,71.1326845 82.2614328,74.5938378 C82.272617,74.6369426 82.2869966,74.6816438 82.302974,74.7231521 C82.3780677,74.9338865 82.4483682,75.1270598 82.5250596,75.320233 C82.5362438,75.3489695 82.547428,75.3761095 82.5602099,75.4032496 C83.3223311,77.413209 84.3001469,79.3896424 85.4664958,81.2766734 C85.4856687,81.3086029 85.5048415,81.3389358 85.5256121,81.3676724 C88.0772002,85.4514501 91.5251194,89.0355317 95.5050855,91.7351674 C95.8342195,91.9586736 96.209688,92.0608479 96.5787656,92.0528655" id="Fill-68" fill="#324A7A"></path>
                    <path d="M102.431441,118.422288 C101.862646,118.422288 101.30184,118.152484 100.951935,117.649595 C100.386336,116.833797 100.589248,115.714669 101.404095,115.147922 L111.626425,108.057985 L111.377177,96.794869 C111.354809,95.8018629 112.142494,94.9796793 113.134689,94.9589252 C114.09493,94.9094345 114.94972,95.7220392 114.972088,96.7134489 L115.243704,108.944028 C115.258084,109.545898 114.967295,110.115839 114.471996,110.460677 L103.455591,118.101396 C103.142434,118.318517 102.784541,118.422288 102.431441,118.422288" id="Fill-70" fill="#324A7A"></path>
                    <path d="M117.893233,118.994463 C117.254138,118.994463 116.635813,118.652818 116.309875,118.050948 L111.864967,109.840288 C111.393634,108.967017 111.717975,107.876626 112.591938,107.40407 C113.467498,106.933111 114.557156,107.257195 115.030086,108.130465 L119.473397,116.342722 C119.946327,117.215993 119.620388,118.304787 118.748023,118.777343 C118.47481,118.924219 118.182424,118.994463 117.893233,118.994463" id="Fill-72" fill="#324A7A"></path>
                    <path d="M112.127955,116.849283 C111.55916,116.849283 110.998354,116.579479 110.648449,116.07659 C110.08285,115.260792 110.285762,114.141665 111.100609,113.574917 L121.324536,106.484981 L121.113635,96.9859668 C121.091266,95.9929607 121.878951,95.1707771 122.871147,95.1484265 C123.855354,95.1420406 124.686177,95.913137 124.708546,96.9045467 L124.941816,107.371023 C124.956195,107.972893 124.665407,108.542834 124.170108,108.887672 L113.152105,116.528392 C112.838948,116.745512 112.481055,116.849283 112.127955,116.849283" id="Fill-74" fill="#324A7A"></path>
                    <path d="M127.590386,117.421459 C126.951291,117.421459 126.332966,117.079813 126.007028,116.477943 L121.56212,108.267283 C121.090787,107.394012 121.415128,106.303621 122.289091,105.831065 C123.163054,105.360106 124.254309,105.68419 124.727239,106.55746 L129.170549,114.769717 C129.64348,115.642988 129.317541,116.731782 128.445176,117.204338 C128.171963,117.351214 127.879577,117.421459 127.590386,117.421459" id="Fill-76" fill="#324A7A"></path>
                    <polygon id="Fill-78" fill="#324A7A" points="80.3058012 79.5013955 82.7375588 75.3936707 76.985701 73.9520557"></polygon>
                </g>
            </g>
        </g>
    </g>
</svg>