<svg xmlns="http://www.w3.org/2000/svg" viewBox="0 0 200 99.86"><defs><style>.cls-1{fill:#fff;}</style></defs><title>Fichier 1</title><g id="Calque_2" data-name="Calque 2"><g id="Calque_1-2" data-name="Calque 1"><g id="jwrtF0.tif"><path class="cls-1" d="M0,79.43c.28-.85.55-1.69.84-2.54C3.07,70.2,5.51,63.59,8,57Q13.4,42.44,19.1,28c1.55-3.94,3.09-7.88,4.76-11.77a1,1,0,0,1,.84-.64,41.12,41.12,0,0,1,5.89-.44c2.24,0,4.47,0,6.7.16a18.52,18.52,0,0,1,2.53.34.59.59,0,0,1,.46.38c1.13,2.56,2.16,5.16,3.19,7.75Q49.91,39.95,56,56.24c2.6,7,5.18,13.91,7.52,21,.27.8.51,1.61.76,2.44a16.39,16.39,0,0,1-2.57.29c-3.43.2-6.87.29-10.31.22a13.28,13.28,0,0,1-2.54-.28,1,1,0,0,1-.78-.64c-.59-1.43-1.08-2.89-1.56-4.35-.74-2.21-1.45-4.43-2.1-6.67a.43.43,0,0,0-.5-.36q-11.79,0-23.57,0c-.3,0-.4.09-.48.37-1.07,3.46-2.17,6.91-3.37,10.33a2,2,0,0,1-2,1.49c-1.31.12-2.62.14-3.93.14Q7.76,80.16,5,80c-1.52-.06-3-.13-4.56-.33L0,79.64ZM23.37,57h17.2a.43.43,0,0,0,0-.25L37.91,48.4l-5-15.83c-.06-.18-.14-.28-.35-.26a7,7,0,0,1-.94,0c-.23,0-.31.08-.37.29-.15.49-.32,1-.48,1.47l-6.49,20Z"/><path class="cls-1" d="M57.48,99.86c0-4.22,0-8.45,0-12.67,0-.37.09-.48.45-.45a12.68,12.68,0,0,0,1.33,0c.19,0,.25.06.24.25s0,.64,0,1.07a2.87,2.87,0,0,1,2-1.47,4.27,4.27,0,0,1,5.34,3.64,6.68,6.68,0,0,1-.4,4,4,4,0,0,1-6.78,1h0c-.07.08,0,.18,0,.27q0,2.06,0,4.11a2.56,2.56,0,0,0,0,.28Zm7.37-8.3a4,4,0,0,0-.61-2.26A2.33,2.33,0,0,0,62,88.18,2.26,2.26,0,0,0,60,89.54a4.54,4.54,0,0,0,.06,4,2.46,2.46,0,0,0,4.29.2A4.09,4.09,0,0,0,64.85,91.57Z"/><path class="cls-1" d="M136.91,32.79a20.59,20.59,0,0,0,11.43,5.56c.9.13.9.12.9,1q0,18.83,0,37.65a2.59,2.59,0,0,1-2.67,2.68c-3,0-5.94,0-8.92,0a3.55,3.55,0,0,1-3.2-1.67c-1-1.55-1.88-3.17-2.81-4.77q-9-15.45-17.9-30.91a4.13,4.13,0,0,0-.62-.84,1.34,1.34,0,0,0-2.35.87,4.33,4.33,0,0,0,0,.54q0,17.82,0,35.63c0,.82-.31,1.14-1.12,1.14H99.53c-.76,0-1.1-.34-1.1-1.09q0-30.42,0-60.83A2.52,2.52,0,0,1,101,15.17c2.91,0,5.82,0,8.74,0a2.78,2.78,0,0,1,2.5,1.29c.85,1.26,1.56,2.61,2.32,3.93l17.92,31.14c.52.9,1,1.81,1.56,2.71a2.44,2.44,0,0,0,1.12,1.13,1.28,1.28,0,0,0,1.64-1,3.47,3.47,0,0,0,.08-.93q0-10.09,0-20.18Z"/><path class="cls-1" d="M84.13,47.4q0,15.61,0,31.23c0,.83-.24,1.08-1.06,1.08H71.66c-.76,0-1-.22-1-1q0-17,0-34,0-14.28,0-28.56c0-.86.16-1,1-1H83.12a1.25,1.25,0,0,1,.69.14.62.62,0,0,1,.31.5c0,.13,0,.26,0,.4Q84.13,31.81,84.13,47.4Z"/><path class="cls-1" d="M199.5.47l-.65.57c-8.1,6.84-16.33,13.5-25,19.55a112.52,112.52,0,0,1-14.69,8.89,36.59,36.59,0,0,1-8.18,3,12.33,12.33,0,0,1-5,.23,6,6,0,0,1-4.75-4.26,13,13,0,0,1-.62-3.86,35.63,35.63,0,0,1,1.28-9.6,79.2,79.2,0,0,1,3.64-10.94.47.47,0,0,1,.2-.28L145.35,5a42,42,0,0,0-1.28,7,21,21,0,0,0,.48,7.72,7.85,7.85,0,0,0,7.18,6.16,21.3,21.3,0,0,0,8.82-1.34,67.73,67.73,0,0,0,12.12-5.62A185.75,185.75,0,0,0,190.72,7Q195,3.88,199.16.61A.4.4,0,0,1,199.5.47Z"/><path class="cls-1" d="M28.52,89.71c0-2.09,0-4.19,0-6.28,0-.27.06-.33.33-.33,1.72,0,3.44,0,5.16,0a5.27,5.27,0,0,1,5.58,4.39,8.63,8.63,0,0,1-.6,6.06,4.92,4.92,0,0,1-3.85,2.69,19.72,19.72,0,0,1-2.84.08c-1.15,0-2.31,0-3.46,0-.25,0-.32-.05-.32-.31C28.53,93.92,28.52,91.82,28.52,89.71Zm2.32,0q0,2.2,0,4.4c0,.16,0,.34.23.33,1,0,2,0,3-.06a3.37,3.37,0,0,0,3.23-2.86,8.81,8.81,0,0,0,0-3.61,3.31,3.31,0,0,0-2.9-2.78A23.56,23.56,0,0,0,31.16,85c-.25,0-.32.06-.32.32C30.85,86.78,30.84,88.25,30.84,89.71Z"/><path class="cls-1" d="M147.95,14.16a7.81,7.81,0,0,1,.58-3.23,4.64,4.64,0,0,1,4.26-3,4.84,4.84,0,0,1,4.15,1.49,5.55,5.55,0,0,1,1.32,3,9.18,9.18,0,0,1-.33,4.47,4.65,4.65,0,0,1-4.41,3.25,5.19,5.19,0,0,1-3.32-.82,5.33,5.33,0,0,1-2.09-3.56A6.9,6.9,0,0,1,147.95,14.16Zm7.15-.1c0-.28,0-.55,0-.83a5.06,5.06,0,0,0-.62-2.41,1.49,1.49,0,0,0-2.59,0,3,3,0,0,0-.4.88,10,10,0,0,0-.18,4,3.66,3.66,0,0,0,.64,1.73,1.49,1.49,0,0,0,2.43,0,2.71,2.71,0,0,0,.43-.86A7.74,7.74,0,0,0,155.1,14.05Z"/><path class="cls-1" d="M117.91,88.12c1.45-2.36,5-1.93,5.67-.09l.46-.5a3.88,3.88,0,0,1,4.4-.66,2.54,2.54,0,0,1,1.32,2.22c.09,1,0,1.92,0,2.88,0,1.35,0,2.69,0,4,0,.25-.06.33-.32.32-.5,0-1,0-1.52,0-.26,0-.32-.06-.31-.31,0-1.85,0-3.71,0-5.56a5.87,5.87,0,0,0-.08-1c-.17-1-.81-1.36-1.93-1.23s-1.73.93-1.74,2.33c0,1.8,0,3.61,0,5.41,0,.34-.09.42-.41.4a12,12,0,0,0-1.41,0c-.29,0-.33-.09-.33-.35,0-1.92,0-3.85,0-5.77a4.31,4.31,0,0,0,0-.75c-.17-1-.74-1.41-1.87-1.26A2.21,2.21,0,0,0,118,90.64c0,1.77,0,3.54,0,5.31,0,.3,0,.43-.38.4-.5,0-1,0-1.52,0-.18,0-.25,0-.25-.23q0-4.57,0-9.13c0-.17.05-.23.22-.23.53,0,1.06,0,1.59,0,.18,0,.22.07.22.23C117.91,87.33,117.91,87.67,117.91,88.12Z"/><path class="cls-1" d="M77.6,95.49a5.08,5.08,0,0,1-4.67.89A2.77,2.77,0,0,1,71.6,92a3.08,3.08,0,0,1,1.92-1c1-.17,1.94-.29,2.92-.44s1.32-.74,1-1.5a1.09,1.09,0,0,0-.71-.67,3.31,3.31,0,0,0-2.32,0,1.38,1.38,0,0,0-.93,1.1c0,.2-.12.22-.28.22-.55,0-1.11,0-1.66,0-.23,0-.25-.08-.22-.28A3,3,0,0,1,73.6,86.8a6.34,6.34,0,0,1,4.23.08,2.51,2.51,0,0,1,1.73,2.55q0,2.4,0,4.8c0,.59.14.73.73.67.23,0,.3,0,.28.25s0,.38,0,.58c0,.66,0,.67-.63.79a3.27,3.27,0,0,1-1.18,0A1.31,1.31,0,0,1,77.6,95.49Zm-.19-3.9a7.51,7.51,0,0,1-2.26.48,3.21,3.21,0,0,0-1.46.46,1.32,1.32,0,0,0-.54,1.33,1.05,1.05,0,0,0,.79.85,3.06,3.06,0,0,0,2.51-.13,1.52,1.52,0,0,0,1-1.26C77.43,92.76,77.41,92.19,77.41,91.6Z"/><path class="cls-1" d="M139.93,92.1c-1,0-2.09,0-3.14,0-.27,0-.37,0-.34.35a2.55,2.55,0,0,0,3.55,2.3,1.91,1.91,0,0,0,1.21-1.16.37.37,0,0,1,.43-.27c.47,0,.94,0,1.41,0,.22,0,.32,0,.24.29a4.15,4.15,0,0,1-3.47,2.94,5.88,5.88,0,0,1-2.21-.12,4,4,0,0,1-2.85-2.51,6,6,0,0,1,.1-4.82,4.43,4.43,0,0,1,4.6-2.59A4.52,4.52,0,0,1,143.33,90a5.69,5.69,0,0,1,.17,1.85c0,.23-.09.3-.32.29C142.1,92.1,141,92.1,139.93,92.1Zm-1-1.41h1.87c.63,0,.63,0,.47-.61a2.38,2.38,0,0,0-2.38-1.91,2.49,2.49,0,0,0-2.37,2.07c-.09.44-.09.44.35.44Z"/><path class="cls-1" d="M49.55,92.1c-1.07,0-2.14,0-3.21,0-.26,0-.32.07-.29.33a2.44,2.44,0,0,0,1.9,2.41,2.33,2.33,0,0,0,2.89-1.33.24.24,0,0,1,.26-.19h1.62c.19,0,.21,0,.16.23a4.13,4.13,0,0,1-3.5,3,5.88,5.88,0,0,1-2.28-.14,3.82,3.82,0,0,1-2.49-1.92,5.81,5.81,0,0,1-.05-5.62A4.31,4.31,0,0,1,49,86.52a4.38,4.38,0,0,1,3.8,3.22,5.51,5.51,0,0,1,.24,2c0,.32-.13.36-.4.35C51.64,92.1,50.6,92.1,49.55,92.1Zm-1.08-1.41h1.91c.61,0,.61,0,.45-.61a2.4,2.4,0,0,0-2.48-1.91,2.5,2.5,0,0,0-2.29,2.24c0,.24,0,.28.25.27C47,90.68,47.75,90.69,48.47,90.69Z"/><path class="cls-1" d="M108,92.1h-3.21c-.14,0-.29,0-.27.2a2.53,2.53,0,0,0,1.91,2.52,2.34,2.34,0,0,0,2.9-1.31.29.29,0,0,1,.33-.2c.49,0,1,0,1.48,0,.28,0,.3.1.23.31a3.9,3.9,0,0,1-2.86,2.77,4.8,4.8,0,0,1-4.57-.88A4.25,4.25,0,0,1,102.5,93a5.75,5.75,0,0,1,.81-4.61,4.27,4.27,0,0,1,4.26-1.84,4.33,4.33,0,0,1,3.69,3.06,5.77,5.77,0,0,1,.3,2.2c0,.26-.11.32-.35.32Zm-1-1.41h2.23c.09,0,.24.06.21-.14a2.63,2.63,0,0,0-1.45-2.17,2.46,2.46,0,0,0-3.44,2.14c0,.2.1.17.22.17Z"/><path class="cls-1" d="M12.41,92.1c-1.06,0-2.12,0-3.17,0-.33,0-.36.11-.32.4a2.59,2.59,0,0,0,1.32,2.14,2.48,2.48,0,0,0,3.46-1.12.3.3,0,0,1,.33-.19c.47,0,.94,0,1.41,0s.38.08.28.37a3.9,3.9,0,0,1-2.26,2.5,5.13,5.13,0,0,1-4,0,3.8,3.8,0,0,1-2.2-2.16,6,6,0,0,1,.14-5.18,4.41,4.41,0,0,1,4.52-2.38,4.53,4.53,0,0,1,3.83,3.29,6.56,6.56,0,0,1,.22,2c0,.24-.1.27-.31.27Zm-1.09-1.41h2.23c.1,0,.26.06.23-.16a2.64,2.64,0,0,0-1.63-2.23A2.46,2.46,0,0,0,9,90.21c-.09.48-.09.48.39.48Z"/><path class="cls-1" d="M149.87,88.07a3.77,3.77,0,0,1,4.34-1.4,2.75,2.75,0,0,1,2,2.74c0,2.23,0,4.45,0,6.68,0,.21-.07.26-.27.25-.53,0-1.06,0-1.59,0-.26,0-.29-.1-.29-.31,0-1.88,0-3.75,0-5.63a4.47,4.47,0,0,0-.08-.82A1.64,1.64,0,0,0,152,88.21a2.29,2.29,0,0,0-2,2.39c0,1.78,0,3.56,0,5.34,0,.3,0,.43-.38.4a9.82,9.82,0,0,0-1.37,0c-.31,0-.4-.06-.4-.39,0-2.73,0-5.46,0-8.19,0-.32-.14-.74.06-.94s.62-.05.94-.07.51,0,.76,0,.29.08.28.29S149.87,87.73,149.87,88.07Z"/><path class="cls-1" d="M163,10.61c-.82.33-1.61.63-2.38,1-.26.11-.34.06-.4-.2-.12-.51-.25-1-.39-1.53,0-.17,0-.26.16-.34,1.09-.41,2.18-.85,3.27-1.28a1.09,1.09,0,0,1,.42-.07c.69,0,1.37,0,2.06,0,.31,0,.4.05.4.38,0,3.68,0,7.36,0,11a1.57,1.57,0,0,0,0,.18c0,.17,0,.23-.22.23h-2.67c-.19,0-.24-.06-.24-.25,0-.58,0-1.15,0-1.73q0-3.48,0-7Z"/><path class="cls-1" d="M94.51,91.48c0-.94,0-1.88,0-2.82,0-.26-.08-.33-.32-.32s-.7,0-1,0c-.17,0-.23-.05-.23-.23,0-.38,0-.77,0-1.15,0-.18.06-.23.23-.22.36,0,.72,0,1.08,0s.29-.07.28-.29c0-.76,0-1.52,0-2.27,0-.26.08-.32.32-.31.5,0,1,0,1.52,0,.25,0,.29.08.29.3,0,.72,0,1.44,0,2.17,0,.3.05.43.39.4s.84,0,1.26,0c.21,0,.31,0,.29.27s0,.72,0,1.08c0,.19-.06.25-.25.25H96.87c-.15,0-.25,0-.25.21,0,1.78,0,3.56,0,5.34,0,.61.28.82.89.84a2.08,2.08,0,0,0,.61,0c.37-.1.42,0,.4.36a3.28,3.28,0,0,0,0,.76c.06.38-.08.53-.46.54a10.51,10.51,0,0,1-1.76,0,1.87,1.87,0,0,1-1.81-2.1c0-.94,0-1.88,0-2.81Z"/><path class="cls-1" d="M164,91.18c0,.77,0,1.54,0,2.31a3.86,3.86,0,0,0,.05.57.68.68,0,0,0,.71.67,3.93,3.93,0,0,0,.93,0c.23,0,.24,0,.24.21,0,.4,0,.79,0,1.19,0,.1,0,.21-.14.23a6.54,6.54,0,0,1-2.54,0,1.78,1.78,0,0,1-1.35-2c0-1.86,0-3.73,0-5.59,0-.32-.07-.41-.4-.4s-.92.18-1.14-.07,0-.73-.07-1.12.08-.45.41-.41.58,0,.86,0,.33-.06.33-.32c0-.76,0-1.52,0-2.27,0-.22,0-.29.28-.28.52,0,1,0,1.55,0,.23,0,.31.05.3.29,0,.76,0,1.52,0,2.27,0,.24.06.31.3.3.46,0,.91,0,1.37,0,.2,0,.28.05.27.26s0,.72,0,1.08-.08.26-.27.26c-.47,0-.94,0-1.41,0-.21,0-.26.07-.26.27C164,89.47,164,90.32,164,91.18Z"/><path class="cls-1" d="M86.59,88.39A4,4,0,0,1,88,86.91a3.19,3.19,0,0,1,2-.4c.19,0,.24.1.24.28,0,.53,0,1.06,0,1.59,0,.21-.08.23-.26.2a2.59,2.59,0,0,0-3.19,2.35,10.26,10.26,0,0,0-.06,1.65c0,1.14,0,2.29,0,3.43,0,.28-.08.34-.34.33-.49,0-1,0-1.48,0-.29,0-.33-.09-.33-.35q0-4.46,0-8.91c0-.28.08-.35.35-.34.46,0,.91,0,1.37,0,.25,0,.3.07.3.31C86.57,87.5,86.59,87.94,86.59,88.39Z"/><path class="cls-1" d="M2.17,89.75c0,2.06,0,4.12,0,6.17,0,.36-.1.44-.44.42a10.47,10.47,0,0,0-1.33,0c-.29,0-.35-.07-.35-.35q0-5.81,0-11.62c0-.31,0-.63,0-.94s0-.34.31-.32c.5,0,1,0,1.52,0,.24,0,.3.06.29.3C2.16,85.52,2.17,87.64,2.17,89.75Z"/><path class="cls-1" d="M51.92,82.76l-.86.84c-.55.55-1.1,1.11-1.64,1.67a.5.5,0,0,1-.41.17H47.67l1.61-2.56a.21.21,0,0,1,.2-.12Z"/><path class="cls-1" d="M199.77.25a.28.28,0,0,1-.18.12l-.05-.06.17-.11Z"/><path class="cls-1" d="M200,.06a.45.45,0,0,1-.1.07s-.07,0,0,0A.26.26,0,0,1,200,0S200,0,200,.06Z"/><path class="cls-1" d="M199.59.38c0,.06-.08.14-.14.08s.05-.09.09-.13Z"/><path class="cls-1" d="M199.71.21s.06-.06.07-.06,0,.07,0,.1Z"/></g></g></g></svg>