<svg xmlns="http://www.w3.org/2000/svg" viewBox="0 0 100 55.19"><defs><style>.cls-1{fill:#fff;}</style></defs><title>Fichier 3</title><g id="Calque_2" data-name="Calque 2"><g id="Calque_1-2" data-name="Calque 1"><path class="cls-1" d="M13.2,26.6a6.05,6.05,0,0,1-4.53-2.14C8.3,24,5.79,20.17,5.58,19.87a3.66,3.66,0,0,1-.82.08H2.7s0,4.84,0,5.19a1,1,0,0,0,1,1v.16H.06v-.16a1,1,0,0,0,1-1V13a1,1,0,0,0-1-1v-.14H4.76a4.05,4.05,0,0,1,2.37,7.33c.54.8,3.4,5.25,3.62,5.56A4.63,4.63,0,0,0,13.2,26.6ZM7.19,16a3.33,3.33,0,0,0-3.25-3.27H2.7v6.36H4.16a3.26,3.26,0,0,0,3-3.09"/><path class="cls-1" d="M19.35,19.08v6.05a1,1,0,0,0,1,1v.16H16.72v-.16a1,1,0,0,0,1-1V13a1,1,0,0,0-1-1v-.16h3.66V12a1,1,0,0,0-1,1v5H28.7V13a1,1,0,0,0-1-1v-.16h3.64V12a1,1,0,0,0-1,1V25.14a1,1,0,0,0,1,1v.16H27.67v-.16a1,1,0,0,0,1-1V19.06l-9.35,0"/><path class="cls-1" d="M82.58,26.6,70.9,14.72V25.14a1,1,0,0,0,1,1v.14H69v-.14a1,1,0,0,0,1-1c0-.08,0-13.88,0-13.88L81.69,23.39V13a1,1,0,0,0-1-1v-.16h2.9V12a1,1,0,0,0-1,1V26.6"/><path class="cls-1" d="M98.09,12.72h-5v5.46h5a.92.92,0,0,0,.91-1h.14v2.92H99c0-.58-.27-1-.93-1h-5s0,5.68,0,6.36h4.72a1.66,1.66,0,0,0,1.73-1l.14,0c-.06.12-.7,1.32-1,1.89H90.49v-.14a1,1,0,0,0,1-1c0-1.55,0-12.11,0-12.11a1,1,0,0,0-1-1v-.14h8.75v1.89h-.14a1,1,0,0,0-1-1"/><path class="cls-1" d="M48,8.34c4.37,0,6.83,3.08,6.83,3.37a11.13,11.13,0,0,0-4.45-1.08A9.33,9.33,0,0,0,41,20a10.18,10.18,0,0,0,1.21,4.62c-.62,0-3.29-2.87-3.29-6.83,0-4.33,3-9.45,9.08-9.45"/><path class="cls-1" d="M56.92,9.54c.62.58,5.21,4,5.16,10.24a12.13,12.13,0,0,1-12,12c-6,0-9.79-4.83-10.24-5.37a12.24,12.24,0,0,0,8.25,2.91A11.62,11.62,0,0,0,59.71,17.5a14.17,14.17,0,0,0-2.79-8"/><polyline class="cls-1" points="55.85 4.44 55.65 4.85 49.85 2.51 44.19 4.85 43.98 4.47 49.85 0 55.85 4.44"/><path class="cls-1" d="M.73,54.28H2.51v.67H0V49.1H.73Z"/><path class="cls-1" d="M6.18,49.1H9.32v.67H6.91V51.4H9.25v.67H6.91v2.21H9.32v.67H6.18Z"/><path class="cls-1" d="M18.79,49.1H20c1.79,0,3.28.95,3.28,2.89s-1.46,3-3.3,3H18.79Zm.73,5.18h.26c1.49,0,2.78-.56,2.78-2.26s-1.29-2.26-2.78-2.26h-.26Z"/><path class="cls-1" d="M27.21,49.1h3.14v.67H27.93V51.4h2.34v.67H27.93v2.21h2.41v.67H27.21Zm2.37-1.72L28.3,48.53,28,48.33l1-1.29Z"/><path class="cls-1" d="M35.17,54.95h-.73V49.1h.84c1.8,0,2.36.62,2.36,1.69,0,1.23-.94,1.71-2,1.71h-.42Zm0-3.1h.23c.74,0,1.55-.14,1.55-1.07s-.87-1-1.59-1h-.19Z"/><path class="cls-1" d="M41.69,53.48,41,54.95h-.78L43,48.85l2.79,6.1H45l-.67-1.47Zm1.34-3-1,2.37h2.08Z"/><path class="cls-1" d="M53.14,54.95h-.88l-1.72-2.47h-.3v2.47H49.5V49.1h.88a3.09,3.09,0,0,1,1.54.27,1.62,1.62,0,0,1,.77,1.4,1.59,1.59,0,0,1-1.4,1.64Zm-2.91-3.08h.23c.74,0,1.55-.14,1.55-1.07s-.87-1-1.59-1h-.19Z"/><path class="cls-1" d="M58.33,54.95H57.6V49.77H56.21V49.1h3.51v.67H58.33Z"/><path class="cls-1" d="M63.49,49.1h3.14v.67H64.22V51.4h2.34v.67H64.22v2.21h2.41v.67H63.49Z"/><path class="cls-1" d="M71.72,51.09h0L71,54.95h-.75l1.19-6.1,2,4.61,2-4.61,1.19,6.1h-.75l-.68-3.86h0l-1.75,4Z"/><path class="cls-1" d="M80.52,49.1h3.14v.67H81.25V51.4h2.34v.67H81.25v2.21h2.41v.67H80.52Z"/><path class="cls-1" d="M87.68,48.82l4.39,4.6V49.1h.73v6.09l-4.39-4.6v4.36h-.73Z"/><path class="cls-1" d="M98.61,54.95h-.73V49.77H96.5V49.1H100v.67H98.61Z"/><path class="cls-1" d="M.73,54.28H2.51v.67H0V49.1H.73Z"/><path class="cls-1" d="M6.18,49.1H9.32v.67H6.91V51.4H9.25v.67H6.91v2.21H9.32v.67H6.18Z"/><path class="cls-1" d="M18.79,49.1H20c1.79,0,3.28.95,3.28,2.89s-1.46,3-3.3,3H18.79Zm.73,5.18h.26c1.49,0,2.78-.56,2.78-2.26s-1.29-2.26-2.78-2.26h-.26Z"/><path class="cls-1" d="M27.21,49.1h3.14v.67H27.93V51.4h2.34v.67H27.93v2.21h2.41v.67H27.21Zm2.37-1.72L28.3,48.53,28,48.33l1-1.29Z"/><path class="cls-1" d="M35.17,54.95h-.73V49.1h.84c1.8,0,2.36.62,2.36,1.69,0,1.23-.94,1.71-2,1.71h-.42Zm0-3.1h.23c.74,0,1.55-.14,1.55-1.07s-.87-1-1.59-1h-.19Z"/><path class="cls-1" d="M41.69,53.48,41,54.95h-.78L43,48.85l2.79,6.1H45l-.67-1.47Zm1.34-3-1,2.37h2.08Z"/><path class="cls-1" d="M53.14,54.95h-.88l-1.72-2.47h-.3v2.47H49.5V49.1h.88a3.09,3.09,0,0,1,1.54.27,1.62,1.62,0,0,1,.77,1.4,1.59,1.59,0,0,1-1.4,1.64Zm-2.91-3.08h.23c.74,0,1.55-.14,1.55-1.07s-.87-1-1.59-1h-.19Z"/><path class="cls-1" d="M58.33,54.95H57.6V49.77H56.21V49.1h3.51v.67H58.33Z"/><path class="cls-1" d="M63.49,49.1h3.14v.67H64.22V51.4h2.34v.67H64.22v2.21h2.41v.67H63.49Z"/><path class="cls-1" d="M71.72,51.09h0L71,54.95h-.75l1.19-6.1,2,4.61,2-4.61,1.19,6.1h-.75l-.68-3.86h0l-1.75,4Z"/><path class="cls-1" d="M80.52,49.1h3.14v.67H81.25V51.4h2.34v.67H81.25v2.21h2.41v.67H80.52Z"/><path class="cls-1" d="M87.68,48.82l4.39,4.6V49.1h.73v6.09l-4.39-4.6v4.36h-.73Z"/><path class="cls-1" d="M98.61,54.95h-.73V49.77H96.5V49.1H100v.67H98.61Z"/></g></g></svg>