<?xml version="1.0" encoding="UTF-8"?>
<svg width="200px" height="140px" viewBox="0 0 200 140" version="1.1" xmlns="http://www.w3.org/2000/svg" xmlns:xlink="http://www.w3.org/1999/xlink">
    <!-- Generator: Sketch 42 (36781) - http://www.bohemiancoding.com/sketch -->
    <title>qui-sommes-nous</title>
    <desc>Created with Sketch.</desc>
    <defs></defs>
    <g id="Home" stroke="none" stroke-width="1" fill="none" fill-rule="evenodd">
        <g id="qui-sommes-nous">
            <g id="source-icone-logo" transform="translate(52.000000, 10.000000)">
                <g id="Calque_1">
                    <g id="Group">
                        <path d="M58.0673016,119.518364 L58.0673016,118.551188" id="Shape" fill="#9AB6E0"></path>
                        <path d="M14.0587155,73.1586985 L14.0587155,106.58785 L14.0587155,106.58785 C14.1938955,106.706446 14.3440955,106.825042 14.4792754,106.943637 C14.5393554,106.988111 14.5844154,107.032584 14.6444954,107.077058 C14.6745353,107.106706 14.7195953,107.136355 14.7496353,107.166004 C14.7946953,107.210478 14.8547753,107.254951 14.9148553,107.299424 C15.0199952,107.373547 15.1101152,107.462493 15.2152552,107.536616 C15.2753352,107.595914 15.3504351,107.640387 15.4105151,107.699685 C15.5156551,107.788632 15.620795,107.862754 15.725935,107.951701 C15.861115,108.055472 15.9812749,108.159243 16.1164549,108.263014 L16.1314749,108.277839 C16.2215949,108.351961 16.3117148,108.411259 16.4018348,108.485381 C16.4619148,108.529854 16.5219948,108.574328 16.5820747,108.618801 C16.6271347,108.663275 16.6721947,108.692923 16.7322747,108.737397 C16.9125146,108.870817 17.0777346,109.004237 17.2579745,109.122833 C17.3030345,109.167306 17.3631145,109.196955 17.4081745,109.241428 C17.6184544,109.389673 17.8137144,109.537918 18.0239943,109.671338 C18.2042342,109.804758 18.3844742,109.923353 18.5797341,110.056774 C18.6548341,110.116071 18.7449541,110.175369 18.820054,110.219843 C18.940214,110.293965 19.045354,110.368087 19.1655139,110.442209 C19.2856739,110.516332 19.4058338,110.605278 19.5259938,110.679401 C19.5560338,110.694225 19.5860738,110.723874 19.6161138,110.738699 C19.7813337,110.84247 19.9465537,110.961065 20.1117736,111.064837 C20.1267936,111.079661 20.1418136,111.079661 20.1568336,111.094486 C20.3821335,111.227906 20.6074335,111.37615 20.8327334,111.50957 C20.9078334,111.554044 20.9679134,111.598517 21.0430133,111.64299 C21.2082333,111.746762 21.3734532,111.850533 21.5536932,111.954304 C21.7339331,112.058075 21.9141731,112.161847 22.094413,112.265618 C22.214573,112.33974 22.3197129,112.399038 22.4398729,112.458336 C22.6050928,112.562107 22.7853328,112.651054 22.9505527,112.74 C22.9956127,112.769649 23.0406727,112.784474 23.0857327,112.814123 C23.1458127,112.843772 23.1908727,112.87342 23.2509526,112.903069 C23.7315925,113.16991 24.2122323,113.421925 24.7078922,113.659117 C24.7529522,113.688766 24.7980121,113.70359 24.8430721,113.733239 C24.9782521,113.807361 25.113432,113.866659 25.248612,113.925957 C25.383792,113.985255 25.5189719,114.059377 25.6541519,114.118675 C25.7893318,114.177973 25.9245118,114.252095 26.0596917,114.311393 C26.1648317,114.355866 26.2699717,114.415164 26.3901316,114.459637 C26.4201716,114.474462 26.4502116,114.489286 26.4802516,114.504111 C26.7205715,114.607882 26.9458715,114.711653 27.1861914,114.815424 C27.2312514,114.830249 27.2612914,114.845073 27.3063513,114.874722 C27.3964713,114.919196 27.4865913,114.948845 27.5767113,114.993318 C27.7118912,115.052616 27.8320512,115.111914 27.9672311,115.156387 C28.0873911,115.215685 28.2225711,115.260158 28.342731,115.319456 C28.417831,115.349105 28.492931,115.378754 28.553011,115.408403 C28.6881909,115.467701 28.8383909,115.526998 28.9735708,115.571472 C29.0336508,115.586296 29.0937308,115.615945 29.1387908,115.63077 C29.2289107,115.660419 29.3040107,115.690067 29.3941307,115.734541 C29.4542107,115.749365 29.4992707,115.779014 29.5593506,115.793839 C29.6795106,115.838312 29.8146906,115.89761 29.9348505,115.942083 C30.0700305,115.986557 30.2052104,116.045854 30.3403904,116.090328 C30.8811102,116.283046 31.42183,116.475764 31.9625499,116.653657 C32.2329098,116.742604 32.5032697,116.831551 32.7736296,116.920497 C34.5459891,117.469002 36.3634085,117.943385 38.2258879,118.299172 L38.2258879,101.66613 C38.2258879,98.9532547 39.3373675,96.5072192 41.139767,94.7282843 C42.9421664,92.9493494 45.4204656,91.8523395 48.1691247,91.8523395 L48.1691247,91.8523395 C53.651423,91.8523395 58.1123616,96.240379 58.1123616,101.66613 L58.0673016,118.551188 C58.6981414,118.447417 59.3139612,118.328821 59.929781,118.195401 C62.5282402,117.646896 65.0666194,116.920497 67.5148786,116.016205 C73.0422369,113.97043 78.1340152,111.050012 82.6099738,107.41802 L82.6099738,73.1586985 L14.0587155,73.1586985 L14.0587155,73.1586985 Z M31.0313102,95.0395979 L20.8026934,95.0395979 L20.8026934,80.1854914 L31.0313102,80.1854914 L31.0313102,95.0395979 L31.0313102,95.0395979 Z M75.5355561,95.0395979 L65.3069393,95.0395979 L65.3069393,80.1854914 L75.5355561,80.1854914 L75.5355561,95.0395979 L75.5355561,95.0395979 Z" id="Shape" fill="#C2D5F0"></path>
                        <path d="M58.0673016,119.440655 C57.8570217,119.440655 57.6467417,119.366533 57.4815218,119.233113 C57.2712418,119.070044 57.1661019,118.818028 57.1661019,118.551188 L57.2111619,101.66613 C57.2111619,96.7444106 53.1557632,92.741807 48.1691247,92.741807 C45.7509055,92.741807 43.4828862,93.6757478 41.7706068,95.3509115 C40.0583273,97.0408997 39.1270876,99.2793928 39.1270876,101.651306 L39.1270876,118.299172 C39.1270876,118.566012 39.0069276,118.818028 38.7966477,118.981097 C38.5863678,119.144166 38.3160079,119.218288 38.0456479,119.158991 C36.1831685,118.788379 34.3206891,118.313996 32.5032697,117.750667 C32.2329098,117.66172 31.9475299,117.572774 31.67717,117.483827 C31.1214301,117.305933 30.5807103,117.113215 30.0399905,116.920497 C29.9648905,116.890848 29.9048105,116.876024 29.8447305,116.846375 C29.7846506,116.816726 29.7095506,116.801902 29.6494706,116.772253 C29.5142906,116.727779 29.3791107,116.668482 29.2589507,116.624008 C29.2138907,116.609184 29.1538108,116.579535 29.0937308,116.56471 L29.0486708,116.549886 C28.9735708,116.520237 28.8984708,116.490588 28.8383909,116.460939 L28.6731709,116.401641 C28.522971,116.342344 28.387791,116.283046 28.2375911,116.223748 L28.1624911,116.194099 C28.1024111,116.179275 28.0573511,116.149626 27.9972711,116.134801 C27.8771112,116.090328 27.7569512,116.03103 27.6217712,115.986557 C27.4865913,115.927259 27.3664313,115.882785 27.2312514,115.823488 C27.1561514,115.793839 27.0810514,115.749365 26.9909314,115.719716 L26.9458715,115.704892 C26.9008115,115.690067 26.8557515,115.675243 26.8257115,115.645594 C26.5853916,115.541823 26.3600916,115.438052 26.1197717,115.33428 C26.0897317,115.319456 26.0596917,115.304632 26.0446717,115.304632 L26.0296518,115.289807 C25.9245118,115.245334 25.8043518,115.186036 25.6992119,115.141562 C25.6241119,115.097089 25.5189719,115.052616 25.4288519,115.022967 L25.293672,114.963669 C25.158492,114.904371 25.0082921,114.830249 24.8731121,114.756127 C24.7379322,114.696829 24.6027522,114.622706 24.4675722,114.548584 L24.3173723,114.474462 C23.8367324,114.237271 23.3410726,113.97043 22.8454128,113.70359 L22.5450129,113.540521 C22.3647729,113.43675 22.184533,113.347803 22.019313,113.244032 C21.8991531,113.184734 21.7789931,113.110612 21.6588331,113.03649 C21.4785932,112.932718 21.2983532,112.828947 21.1181133,112.725176 L21.0880733,112.710351 C20.9228534,112.621405 20.7576334,112.517633 20.6074335,112.413862 C20.5473535,112.369389 20.4722535,112.324916 20.3971535,112.280442 L20.3821335,112.265618 C20.1568336,112.132198 19.9465537,111.998777 19.7212537,111.850533 C19.7062338,111.835708 19.6761938,111.820884 19.6611738,111.80606 C19.4959538,111.702288 19.3307339,111.598517 19.1655139,111.479921 L19.1354739,111.465097 C19.1054339,111.450273 19.0904139,111.435448 19.060374,111.420624 C18.955234,111.346501 18.850094,111.287204 18.7449541,111.213081 L18.6998941,111.183432 C18.5797341,111.10931 18.4595741,111.035188 18.3544342,110.946241 C18.2643142,110.886943 18.1892142,110.827645 18.0990943,110.768347 C17.9188543,110.649752 17.7235944,110.516332 17.5433544,110.382912 C17.3330745,110.234667 17.1378146,110.086422 16.9275346,109.938178 C16.8674547,109.893704 16.8073747,109.864056 16.7623147,109.819582 C16.5970947,109.700987 16.4168548,109.567566 16.2366149,109.434146 C16.1765349,109.389673 16.1314749,109.360024 16.0713949,109.315551 C16.0113149,109.271077 15.9512349,109.226604 15.891155,109.182131 C15.801035,109.122833 15.710915,109.04871 15.620795,108.974588 L15.620795,108.974588 L15.6057751,108.959764 C15.4705951,108.855992 15.3354151,108.752221 15.2152552,108.64845 C15.1101152,108.574328 15.0049752,108.485381 14.8998353,108.396434 L14.7045753,108.24819 C14.5994354,108.174067 14.5093154,108.085121 14.4041754,107.996174 L14.3440955,107.951701 C14.2990355,107.922052 14.2689955,107.892403 14.2239355,107.847929 C14.1938955,107.81828 14.1488355,107.788632 14.1187955,107.758983 L13.9685956,107.625562 C13.8334156,107.506967 13.6982357,107.403196 13.5630557,107.2846 C13.5330157,107.269775 13.5029757,107.240127 13.4879557,107.210478 C13.3227358,107.047409 13.2175958,106.810217 13.2175958,106.58785 L13.2175958,73.1586985 C13.2175958,72.6694914 13.6231357,72.269231 14.1187955,72.269231 L82.6099738,72.269231 C83.1056337,72.269231 83.5111735,72.6694914 83.5111735,73.1586985 L83.5111735,107.41802 C83.5111735,107.68486 83.3910136,107.936876 83.1807336,108.099945 C78.5545751,111.850533 73.4027167,114.785776 67.8302985,116.846375 C65.3369793,117.765491 62.7385201,118.521539 60.1250409,119.070044 C59.5092211,119.203464 58.8633613,119.32206 58.2325215,119.425831 C58.1724416,119.440655 58.1123616,119.440655 58.0673016,119.440655 L58.0673016,119.440655 Z M48.1691247,90.9776965 C54.1470828,90.9776965 59.0135613,95.7808208 59.0135613,101.680955 L58.9685013,117.498651 C59.2238412,117.454178 59.4791811,117.39488 59.7345211,117.335582 C62.2578803,116.801902 64.7662195,116.090328 67.1844387,115.186036 C72.426417,113.244032 77.3079155,110.501507 81.6937541,107.002935 L81.6937541,74.0629904 L14.9599153,74.0629904 L14.9599153,106.18759 C14.9899552,106.217239 15.0350152,106.246888 15.0650552,106.276537 L15.2302752,106.409957 L15.2452952,106.424781 C15.2753352,106.45443 15.3053751,106.469255 15.3203951,106.498904 L15.3354151,106.513728 C15.3654551,106.543377 15.3954951,106.558202 15.4255351,106.58785 L15.4856151,106.632324 C15.5757351,106.706446 15.680875,106.795393 15.770995,106.869515 L15.9662549,107.032584 C16.0713949,107.121531 16.1765349,107.195653 16.2666548,107.269775 C16.4018348,107.373547 16.5219948,107.477318 16.6571747,107.566265 C16.6721947,107.566265 16.6721947,107.581089 16.6872147,107.595914 C16.7623147,107.655211 16.8524347,107.729334 16.9275346,107.788632 C16.9876146,107.833105 17.0326746,107.877578 17.0927546,107.907227 C17.1077746,107.907227 17.1227946,107.922052 17.1378146,107.936876 C17.1678546,107.966525 17.2129145,107.996174 17.2429545,108.010998 L17.2579745,108.025823 C17.4231945,108.159243 17.6034344,108.277839 17.7836744,108.411259 C17.8437543,108.455732 17.8888143,108.485381 17.9338743,108.51503 C18.1441542,108.663275 18.3394142,108.811519 18.5496941,108.944939 C18.7299341,109.078359 18.910174,109.196955 19.0904139,109.315551 C19.1655139,109.374848 19.2406139,109.419322 19.3157139,109.463795 C19.3307339,109.463795 19.3307339,109.47862 19.3457539,109.47862 C19.4508938,109.552742 19.5560338,109.626864 19.6611738,109.686162 L19.7212537,109.730635 C19.8263937,109.789933 19.9165137,109.864056 20.0216537,109.923353 C20.0366736,109.923353 20.0366736,109.938178 20.0516936,109.938178 L20.1267936,109.982651 C20.2920136,110.086422 20.4572335,110.190194 20.6224535,110.293965 C20.6374735,110.293965 20.6374735,110.308789 20.6524935,110.308789 C20.6524935,110.308789 20.6675134,110.308789 20.6675134,110.323614 C20.8777934,110.457034 21.1030933,110.590454 21.3133732,110.723874 L21.3283932,110.738699 C21.3884732,110.783172 21.4635732,110.812821 21.5236532,110.857294 C21.6888731,110.961065 21.8390731,111.050012 22.004293,111.138959 L22.034333,111.153783 C22.214573,111.257555 22.3797929,111.361326 22.5600329,111.465097 C22.6801928,111.539219 22.7853328,111.598517 22.8904727,111.657815 C23.0707127,111.761586 23.2359326,111.850533 23.4161726,111.954304 L23.7165725,112.117373 C24.1972123,112.384213 24.6778522,112.621405 25.143472,112.858596 L25.293672,112.932718 C25.4138319,112.992016 25.5490119,113.066138 25.6841919,113.125436 C25.8193718,113.199559 25.9545518,113.258856 26.0897317,113.318154 L26.2249117,113.377452 C26.3150317,113.421925 26.4051516,113.466399 26.4952716,113.496048 C26.6004116,113.555346 26.7055515,113.599819 26.8106915,113.644292 L26.8707715,113.673941 C26.8857915,113.673941 26.8857915,113.688766 26.9008115,113.688766 C27.1261114,113.792537 27.3514113,113.896308 27.5917313,114.000079 L27.6067513,114.000079 C27.6367912,114.014904 27.6818512,114.029728 27.7118912,114.044553 L27.7569512,114.059377 C27.8320512,114.089026 27.8921312,114.118675 27.9672311,114.148324 L27.9822511,114.148324 C28.1174311,114.207622 28.2375911,114.252095 28.357751,114.311393 C28.477911,114.370691 28.6130909,114.415164 28.7332509,114.459637 C28.7933309,114.489286 28.8233709,114.504111 28.8684309,114.518935 L28.9435308,114.548584 C29.0787108,114.607882 29.2138907,114.652355 29.3490707,114.711653 L29.5142906,114.785776 C29.5893906,114.815424 29.6494706,114.845073 29.7095506,114.859898 L29.7546106,114.874722 C29.7996706,114.889547 29.8597505,114.919196 29.9048105,114.93402 C30.0399905,114.993318 30.1601504,115.037791 30.2803104,115.082265 C30.3403904,115.111914 30.4154904,115.126738 30.4905903,115.156387 L30.6708303,115.230509 C31.1965301,115.423227 31.7372499,115.601121 32.2629498,115.779014 C32.5333097,115.867961 32.7886496,115.956908 33.0590095,116.03103 C34.4708891,116.475764 35.8977886,116.846375 37.3397082,117.172513 L37.3397082,101.66613 C37.3397082,98.8050102 38.4662078,96.1217833 40.5089272,94.1056571 C42.5516465,92.0895309 45.2852856,90.9776965 48.1691247,90.9776965 L48.1691247,90.9776965 Z M15.5607151,108.959764 L15.5607151,108.959764 L15.5607151,108.959764 L15.5607151,108.959764 L15.5607151,108.959764 Z" id="Shape" fill="#324A7B"></path>
                        <path d="M66.208139,20.2057358 C66.208139,23.7487811 65.2468593,27.0694597 63.5646199,29.93058 C63.08398,30.7459251 62.5582802,31.5167969 61.9574804,32.2431954 C58.3677015,36.7053571 52.8103033,39.5813019 46.5770052,39.5813019 C43.3627263,39.5813019 40.3286872,38.8252546 37.6551281,37.4762289 C37.2796282,37.283511 36.9041283,37.090793 36.5436484,36.8684262 C30.7909902,33.4884498 26.9458715,27.2918265 26.9458715,20.2057358 C26.9458715,9.50247735 35.7325687,0.830169628 46.5770052,0.830169628 C57.4214418,0.830169628 66.208139,9.50247735 66.208139,20.2057358 L66.208139,20.2057358 Z" id="Shape" fill="#F9D4B9"></path>
                        <path d="M54.9731826,37.7430692 C46.5920252,40.9006786 40.1334273,39.1810415 35.0566689,36.5422881 C32.6985296,35.3118581 30.8510702,33.3698541 29.2439307,31.3685524 C24.4225123,25.3498226 22.5450129,17.4187377 23.3560926,12.956576 C25.4739119,22.6369468 29.3340507,24.3121105 35.8677486,23.9414991 C37.805328,23.8229034 39.6077274,23.259574 41.169807,22.3552821 C41.1848269,22.3404577 41.1998469,22.3256332 41.2298869,22.3108087 C41.3200069,22.2663354 41.4101269,22.2070375 41.5002468,22.1477397 C42.7469065,21.4213413 44.173806,20.9617831 45.7208655,20.8728364 C50.9027639,20.5763472 55.3336625,24.4603551 55.6340624,29.574793 C55.6941423,30.4790849 55.6040224,31.3685524 55.4087624,32.2135465 L54.9731826,37.7430692 L54.9731826,37.7430692 Z" id="Shape" fill="#F9D4B9"></path>
                        <path d="M54.9731826,37.7430692 C55.6791224,37.4169311 56.3700421,37.0314952 57.0309219,36.6312348 C58.9234413,35.4601027 60.5906608,33.9776569 61.9725004,32.2580198 C61.9725004,32.2580198 61.9725004,32.2580198 61.9574804,32.2580198 C60.1400609,30.7311007 57.9771816,29.6044419 55.5890024,29.0262881 C54.3874028,28.7297989 53.1257232,28.5815543 51.8340036,28.5815543 C45.5706656,28.5815543 40.1634673,32.2283709 37.6851681,37.4910534 L37.6851681,37.5058778 C37.715208,37.5207023 37.730228,37.5355267 37.760268,37.5355267 C38.9919076,38.158154 40.2986472,38.6473611 41.6654668,38.9883236 L41.6804868,38.9883236 L54.9731826,37.7430692 L54.9731826,37.7430692 Z" id="Shape" fill="#F8B480"></path>
                        <path d="M60.2001409,16.8702328 C59.899741,16.8702328 59.6143611,16.7368127 59.4341212,16.4699724 C59.0886613,15.9659409 58.4728415,15.6546273 57.6918017,15.5953294 C56.640402,15.5063827 55.5289224,15.8918186 54.7929426,16.6033926 C54.4324627,16.9591795 53.8466829,16.9591795 53.4711831,16.6033926 C53.1107032,16.2476056 53.1107032,15.6694517 53.4711831,15.2988403 C54.5976827,14.187006 56.2348622,13.6088521 57.8420017,13.7570967 C59.1637612,13.8756924 60.2902609,14.4834951 60.9511407,15.4322604 C61.2365206,15.8473452 61.1313806,16.4254991 60.7108208,16.7071638 C60.5606208,16.810935 60.3803809,16.8702328 60.2001409,16.8702328 L60.2001409,16.8702328 Z" id="Shape" fill="#324A7B"></path>
                        <path d="M71.4350974,25.913152 C69.9180778,27.46972 68.2057984,31.3833768 65.8927191,31.5612703 L66.6737589,13.6236766 C70.3236177,17.2408442 73.8232766,23.7487811 73.8232766,25.4239449 C73.8232766,25.4091204 72.2161371,25.1126312 71.4350974,25.913152 L71.4350974,25.913152 Z" id="Shape" fill="#FFFFFF"></path>
                        <path d="M34.2606091,25.038509 C31.8874499,25.038509 29.3791107,24.6530731 27.2913314,23.0372072 C24.9632321,21.2434478 23.3861326,18.1006628 22.3046929,13.1641184 C22.184533,12.5859645 22.5450129,12.0226351 23.1307927,11.9040395 C23.7165725,11.7854438 24.2873323,12.1412308 24.4074923,12.7193847 C25.383792,17.1518975 26.7205715,19.8944222 28.6281109,21.3620435 C30.2352504,22.6072979 32.3831097,23.0520316 35.8076687,22.8593137 C36.4084685,22.8296648 36.9041283,23.2743985 36.9491883,23.8525523 C36.9792283,24.4307062 36.5286284,24.9347378 35.9428486,24.9792111 C35.3871088,25.0236845 34.816349,25.038509 34.2606091,25.038509 L34.2606091,25.038509 Z" id="Shape" fill="#324A7B"></path>
                        <path d="M46.1113854,40.5152427 C45.2852856,40.5152427 44.4591859,40.4707694 43.6481062,40.3818226 C40.6140671,40.0408601 37.6401081,39.1069193 34.5459891,37.4910534 C31.8273699,36.0827299 29.8297105,33.8294123 28.387791,32.035653 C25.4438719,28.3591875 23.9118324,24.490004 23.1458127,21.8808995 C22.139473,18.4860987 21.8390731,15.2395425 22.2896729,12.763858 C22.3797929,12.2598265 22.8153728,11.9040395 23.3260526,11.889215 L23.3410726,11.889215 C23.8517524,11.889215 24.2873323,12.2301776 24.3924723,12.7193847 C25.368772,17.1518975 26.7055515,19.8944222 28.6130909,21.3620435 C30.2202304,22.6072979 32.3680897,23.0520316 35.7926487,22.8593137 C37.5049281,22.7555425 39.1120676,22.2811598 40.5690071,21.4361657 C40.5990471,21.4213413 40.6290871,21.3916924 40.6591271,21.3768679 C40.6891671,21.3620435 40.7041871,21.347219 40.7342271,21.3323945 C40.7642671,21.3175701 40.8243471,21.2879212 40.869407,21.2434478 L40.914467,21.2137989 C40.914467,21.2137989 40.929487,21.2137989 40.929487,21.1989744 C42.3714066,20.3539803 43.9635261,19.8795977 45.6307455,19.7758265 C48.4244647,19.6127575 51.1130438,20.5318738 53.2008231,22.3701066 C55.2886025,24.2083393 56.5202421,26.7284971 56.685462,29.4858462 C56.745542,30.4790849 56.655422,31.4723236 56.4301221,32.4210889 C56.2949422,32.9844182 55.7241823,33.3402052 55.1384025,33.2216096 C54.5676427,33.0881895 54.2071628,32.5248601 54.3273228,31.9467062 C54.5075627,31.1906589 54.5676427,30.4049626 54.5225827,29.6044419 C54.3874028,27.4104222 53.4111031,25.4091204 51.7438836,23.9563235 C50.0766641,22.5035267 47.9438248,21.7623038 45.7358855,21.8957239 C44.3991059,21.9698462 43.1524463,22.3552821 42.0109267,23.0223827 L41.9808867,23.0372072 C41.9057867,23.0816805 41.8306867,23.1261539 41.7405668,23.1854517 C41.7255468,23.2002762 41.6955068,23.2151007 41.6804868,23.2299251 C39.9081274,24.2528127 37.970548,24.845791 35.8977886,24.9643867 C33.0890495,25.1274557 29.8597505,25.0236845 27.2612914,23.0223827 C26.3751116,22.3404577 25.6090919,21.4658147 24.9331921,20.3836293 C25.8043518,23.7784301 27.4865913,27.4845445 30.0550105,30.6866273 C31.3617501,32.3173177 33.1791695,34.3630928 35.5373087,35.5786983 C41.8607267,38.8697279 47.8987648,39.2403394 54.5676427,36.7201816 C55.1233825,36.5126392 55.7392023,36.7794794 55.9494823,37.3279843 C56.1597622,37.8764893 55.8894023,38.484292 55.3336625,38.6918344 C52.2245234,39.9222644 49.1304044,40.5152427 46.1113854,40.5152427 L46.1113854,40.5152427 Z" id="Shape" fill="#324A7B"></path>
                        <path d="M31.2265701,33.3698541 C30.0249705,33.3698541 29.2439307,32.8065248 28.7632909,32.2283709 C28.432851,31.842935 28.492931,31.2647812 28.8834508,30.9386431 C29.2739707,30.612505 29.8597505,30.6718029 30.1901904,31.0572388 C30.3704304,31.2796056 30.8510702,31.842935 32.3380498,31.2944301 C32.8186896,31.1165366 33.3594094,31.3537279 33.5396494,31.8281106 C33.7198893,32.3024932 33.4795694,32.8361737 32.9989295,33.0140672 C32.3230298,33.2660829 31.7372499,33.3698541 31.2265701,33.3698541 L31.2265701,33.3698541 Z" id="Shape" fill="#324A7B"></path>
                        <path d="M28.327711,29.1004103 C27.1261114,29.1004103 26.3450717,28.537081 25.8644318,27.9589271 C25.5339919,27.5734912 25.5940719,26.9953374 25.9845918,26.6691993 C26.3751116,26.3430612 26.9608915,26.4023591 27.2913314,26.787795 C27.4715713,27.0101618 27.9522111,27.5734912 29.4391907,27.0249863 C29.9198305,26.8470928 30.4605503,27.0842841 30.6407903,27.5586668 C30.8210302,28.0330494 30.5807103,28.5667299 30.1000705,28.7446234 C29.4091507,28.9966391 28.8233709,29.1004103 28.327711,29.1004103 L28.327711,29.1004103 Z" id="Shape" fill="#324A7B"></path>
                        <path d="M66.163079,27.0842841 C65.8927191,27.0842841 65.6223592,26.9805129 65.4120793,26.787795 C64.9915194,26.3875346 64.9764994,25.7056095 65.3820393,25.2905247 C65.7575392,24.9050888 66.4334389,24.4751796 69.8129379,24.2379882 C70.4888377,24.1935149 71.1497175,24.163866 71.6904373,24.134217 C70.8342976,21.8808995 68.1006584,17.0481263 65.1266994,14.1128837 C64.7061395,13.6977989 64.7061395,13.0306983 65.1266994,12.6156135 C65.5472592,12.2005286 66.223159,12.2005286 66.6437189,12.6156135 C70.3386377,16.2772545 74.0936365,23.0075583 74.0936365,25.1571046 C74.0936365,25.7352585 73.6129967,26.2096411 73.0272169,26.2244656 C70.2184777,26.2541145 67.4247586,26.5209547 66.8389788,26.8174439 C66.6737589,26.9953374 66.418419,27.0842841 66.163079,27.0842841 L66.163079,27.0842841 Z" id="Shape" fill="#324A7B"></path>
                        <path d="M65.1116794,32.361791 C64.5559395,32.361791 64.0903197,31.9467062 64.0452597,31.3833768 C64.0001997,30.805223 64.4357796,30.286367 65.0365794,30.2418936 C66.7188189,30.1084735 69.482498,27.2770021 69.5876379,25.5870139 C69.6176779,25.00886 70.1283578,24.5493019 70.7291576,24.5937752 C71.3149374,24.6234241 71.7655373,25.1274557 71.7354973,25.720434 C71.5702773,28.4926076 67.9654785,32.1542486 65.2017993,32.361791 C65.1717593,32.361791 65.1417194,32.361791 65.1116794,32.361791 L65.1116794,32.361791 Z" id="Shape" fill="#324A7B"></path>
                        <path d="M59.0736413,36.5274636 C58.7432014,36.5274636 58.4127615,36.379219 58.2024816,36.0827299 C57.8570217,35.6083473 57.9771816,34.9412467 58.4578215,34.6002841 C60.5005408,33.1623117 62.2729003,31.2647812 63.5495999,29.1300593 C63.5646199,29.1004103 63.5796398,29.0707614 63.6096798,29.0411125 C64.1954597,28.0478739 64.6760995,27.0249863 65.0515994,25.9872742 C65.0666194,25.9576253 65.0666194,25.9279764 65.0816394,25.8983275 C65.0966594,25.8538541 65.1116794,25.8242052 65.1266994,25.7797318 C65.1417194,25.720434 65.1567394,25.6611362 65.1867793,25.6166628 C65.7875792,23.8229034 66.0879791,21.9550218 66.0879791,20.0426667 C66.0879791,18.6046943 65.9077391,17.1815464 65.5772992,15.8176963 C65.1266994,13.994288 64.3907196,12.245002 63.3693599,10.6143117 C63.3543399,10.5994872 63.3543399,10.5846628 63.3393199,10.5698383 C60.004881,5.30715584 54.2672428,2.17919527 47.9888848,2.17919527 C46.5469652,2.17919527 45.1200657,2.34226431 43.7232061,2.68322683 C37.925488,4.06190139 33.2092095,8.18310062 31.0763702,13.6977989 C30.2953304,15.7139251 29.8897905,17.848647 29.8897905,20.0426667 L29.8897905,20.9024853 C29.8897905,21.4954636 29.4091507,21.9698462 28.8083509,21.9698462 C28.2075511,21.9698462 27.7269112,21.4954636 27.7269112,20.9024853 L27.7269112,20.0426667 C27.7269112,17.5818068 28.1775111,15.1950691 29.0486708,12.9269271 C31.42183,6.75995268 36.7088684,2.16437082 43.1975063,0.607802763 C44.7595858,0.237191322 46.3667253,0.0444733729 47.9738648,0.0444733729 C54.9731826,0.0444733729 61.3867205,3.54304538 65.1266994,9.39870614 C65.1417194,9.4135306 65.1417194,9.42835506 65.1567394,9.44317952 L65.1567394,9.44317952 C66.313279,11.2665878 67.1543987,13.2382407 67.6500586,15.2988403 C68.0255584,16.8257594 68.2208184,18.4119764 68.2208184,20.0278423 C68.2208184,22.1625642 67.8753585,24.2528127 67.2144787,26.2689389 C67.2144787,26.2985879 67.1994587,26.3134123 67.1994587,26.3430612 C67.1543987,26.4616569 67.1243587,26.5802525 67.0792987,26.6840238 C67.0792987,26.6988482 67.0642787,26.7136727 67.0642787,26.7284971 C66.6437189,27.8996293 66.1029991,29.0411125 65.4421193,30.1529468 C65.4270993,30.1677713 65.4270993,30.1825958 65.4120793,30.2122447 C63.9701597,32.5989824 62.0175603,34.7040553 59.7195011,36.3199212 C59.5092211,36.4681658 59.2839212,36.5274636 59.0736413,36.5274636 L59.0736413,36.5274636 Z" id="Shape" fill="#324A7B"></path>
                        <path d="M96.0078096,73.1586985 L87.9120321,73.1586985 L87.7468122,72.9956294 L54.5526227,40.2187536 C51.2181838,36.927724 45.7959655,36.927724 42.4615265,40.2187536 L9.26733706,73.1586985 L1.00633968,73.1586985 L11.8808162,62.4257911 L23.9568924,50.5069272 L42.4615265,32.2431954 C45.7959655,28.9521658 51.2031638,28.9521658 54.5526227,32.2431954 L73.0422369,50.4921027 L85.133333,62.4406156 L96.0078096,73.1586985 L96.0078096,73.1586985 Z" id="Shape" fill="#D9E4F6"></path>
                        <path d="M96.0078096,74.0481659 L87.9120321,74.0481659 C87.6717122,74.0481659 87.4464123,73.9592192 87.2661723,73.7813257 L87.1009524,73.6182566 L53.9067629,40.8413808 C50.9177839,37.9061382 46.0663254,37.9061382 43.0923663,40.8413808 L9.89817686,73.7665012 C9.73295692,73.9295703 9.49263699,74.0333415 9.25231707,74.0333415 L0.991319686,74.0333415 C0.6308398,74.0333415 0.300399905,73.8109746 0.165219948,73.4848365 C0.0300399905,73.1586985 0.105139967,72.7732626 0.360479886,72.5212468 L11.2349564,61.7883394 L23.3110326,49.8694755 L41.8156667,31.6057437 C43.6030462,29.8416332 45.9762054,28.8780435 48.4995646,28.8780435 C51.0229238,28.8780435 53.3960831,29.8416332 55.1834625,31.6057437 L85.7641728,61.7883394 L96.6386494,72.5212468 C96.8939893,72.7732626 96.9690893,73.1586985 96.8339093,73.4848365 C96.6987294,73.825799 96.3682895,74.0481659 96.0078096,74.0481659 L96.0078096,74.0481659 Z M88.287532,72.269231 L93.8299103,72.269231 L84.4874732,63.0484183 L53.9067629,32.8658226 C52.4648434,31.4426747 50.542284,30.6569784 48.4995646,30.6569784 C46.4568453,30.6569784 44.5342859,31.4426747 43.0923663,32.8658226 L24.5877322,51.1295544 L12.511656,63.0484183 L3.169219,72.269231 L8.87681719,72.269231 L41.8156667,39.5961264 C45.4955656,35.9641342 51.4885437,35.9641342 55.1834625,39.5961264 L88.287532,72.269231 L88.287532,72.269231 Z" id="Shape" fill="#324A7B"></path>
                        <g transform="translate(13.067396, 105.698383)" id="Shape">
                            <path fill="#9AB6E0"></path>
                            <path d="M0.991319686,1.77893492 C0.495659843,1.77893492 0.0901199714,1.37867456 0.0901199714,0.889467458 L0.0901199714,0.889467458 C0.0901199714,0.400260356 0.495659843,0 0.991319686,0 C1.48697953,0 1.8925194,0.400260356 1.8925194,0.889467458 C1.8925194,1.37867456 1.48697953,1.77893492 0.991319686,1.77893492 L0.991319686,1.77893492 Z" fill="#324A7B"></path>
                        </g>
                        <g transform="translate(84.262173, 98.582643)" id="Shape">
                            <path d="M0.901199714,0.993238662 L4.13049869,0.993238662" fill="#9AB6E0"></path>
                            <path d="M4.13049869,1.88270612 L0.901199714,1.88270612 C0.405539871,1.88270612 0,1.48244576 0,0.993238662 C0,0.50403156 0.405539871,0.103771203 0.901199714,0.103771203 L4.13049869,0.103771203 C4.62615853,0.103771203 5.03169841,0.50403156 5.03169841,0.993238662 C5.03169841,1.48244576 4.64117853,1.88270612 4.13049869,1.88270612 L4.13049869,1.88270612 Z" fill="#324A7B"></path>
                        </g>
                        <g transform="translate(82.159374, 102.288758)" id="Shape">
                            <path d="M0.9462597,1.00806312 L4.37081861,1.00806312" fill="#9AB6E0"></path>
                            <path d="M4.37081861,1.89753058 L0.931239705,1.89753058 C0.435579862,1.89753058 0.0300399905,1.49727022 0.0300399905,1.00806312 C0.0300399905,0.518856017 0.435579862,0.118595661 0.931239705,0.118595661 L4.37081861,0.118595661 C4.86647846,0.118595661 5.27201833,0.518856017 5.27201833,1.00806312 C5.27201833,1.49727022 4.88149845,1.89753058 4.37081861,1.89753058 L4.37081861,1.89753058 Z" fill="#324A7B"></path>
                        </g>
                        <g transform="translate(84.262173, 87.464300)" id="Shape">
                            <path d="M0.901199714,0.948765289 L4.13049869,0.948765289" fill="#9AB6E0"></path>
                            <path d="M4.13049869,1.83823275 L0.901199714,1.83823275 C0.405539871,1.83823275 0,1.43797239 0,0.948765289 C0,0.459558187 0.405539871,0.0592978306 0.901199714,0.0592978306 L4.13049869,0.0592978306 C4.62615853,0.0592978306 5.03169841,0.459558187 5.03169841,0.948765289 C5.03169841,1.43797239 4.64117853,1.83823275 4.13049869,1.83823275 L4.13049869,1.83823275 Z" fill="#324A7B"></path>
                        </g>
                        <g transform="translate(83.661373, 83.758186)" id="Shape">
                            <g transform="translate(0.000000, 11.118343)">
                                <path d="M0.931239705,0.963589747 L3.40953892,0.963589747" fill="#9AB6E0"></path>
                                <path d="M3.40953892,1.85305721 L0.931239705,1.85305721 C0.435579862,1.85305721 0.0300399905,1.45279685 0.0300399905,0.963589747 C0.0300399905,0.474382644 0.435579862,0.0741222882 0.931239705,0.0741222882 L3.40953892,0.0741222882 C3.90519876,0.0741222882 4.31073863,0.474382644 4.31073863,0.963589747 C4.31073863,1.45279685 3.90519876,1.85305721 3.40953892,1.85305721 L3.40953892,1.85305721 Z" fill="#324A7B"></path>
                            </g>
                            <g>
                                <path d="M0.931239705,0.933940831 L3.40953892,0.933940831" fill="#9AB6E0"></path>
                                <path d="M3.40953892,1.82340829 L0.931239705,1.82340829 C0.435579862,1.82340829 0.0300399905,1.42314793 0.0300399905,0.933940831 C0.0300399905,0.444733729 0.435579862,0.0444733729 0.931239705,0.0444733729 L3.40953892,0.0444733729 C3.90519876,0.0444733729 4.31073863,0.444733729 4.31073863,0.933940831 C4.31073863,1.42314793 3.90519876,1.82340829 3.40953892,1.82340829 L3.40953892,1.82340829 Z" fill="#324A7B"></path>
                            </g>
                        </g>
                        <g transform="translate(82.159374, 91.170414)" id="Shape">
                            <path d="M0.9462597,0.978414204 L4.37081861,0.978414204" fill="#9AB6E0"></path>
                            <path d="M4.37081861,1.86788166 L0.931239705,1.86788166 C0.435579862,1.86788166 0.0300399905,1.46762131 0.0300399905,0.978414204 C0.0300399905,0.489207102 0.435579862,0.0889467458 0.931239705,0.0889467458 L4.37081861,0.0889467458 C4.86647846,0.0889467458 5.27201833,0.489207102 5.27201833,0.978414204 C5.27201833,1.46762131 4.88149845,1.86788166 4.37081861,1.86788166 L4.37081861,1.86788166 Z" fill="#324A7B"></path>
                        </g>
                        <g transform="translate(84.262173, 76.345957)" id="Shape">
                            <path d="M0.901199714,0.919116374 L4.13049869,0.919116374" fill="#9AB6E0"></path>
                            <path d="M4.13049869,1.80858383 L0.901199714,1.80858383 C0.405539871,1.80858383 0,1.40832348 0,0.919116374 C0,0.429909272 0.405539871,0.0296489153 0.901199714,0.0296489153 L4.13049869,0.0296489153 C4.62615853,0.0296489153 5.03169841,0.429909272 5.03169841,0.919116374 C5.03169841,1.40832348 4.64117853,1.80858383 4.13049869,1.80858383 L4.13049869,1.80858383 Z" fill="#324A7B"></path>
                        </g>
                        <g transform="translate(82.159374, 80.052071)" id="Shape">
                            <path d="M0.9462597,0.948765289 L4.37081861,0.948765289" fill="#9AB6E0"></path>
                            <path d="M4.37081861,1.83823275 L0.931239705,1.83823275 C0.435579862,1.83823275 0.0300399905,1.43797239 0.0300399905,0.948765289 C0.0300399905,0.459558187 0.435579862,0.0592978306 0.931239705,0.0592978306 L4.37081861,0.0592978306 C4.86647846,0.0592978306 5.27201833,0.459558187 5.27201833,0.948765289 C5.27201833,1.43797239 4.88149845,1.83823275 4.37081861,1.83823275 L4.37081861,1.83823275 Z" fill="#324A7B"></path>
                        </g>
                        <g transform="translate(9.612797, 98.582643)" id="Shape">
                            <path d="M0.931239705,0.993238662 L4.16053868,0.993238662" fill="#9AB6E0"></path>
                            <path d="M4.16053868,1.88270612 L0.931239705,1.88270612 C0.435579862,1.88270612 0.0300399905,1.48244576 0.0300399905,0.993238662 C0.0300399905,0.50403156 0.435579862,0.103771203 0.931239705,0.103771203 L4.16053868,0.103771203 C4.65619852,0.103771203 5.0617384,0.50403156 5.0617384,0.993238662 C5.0617384,1.48244576 4.65619852,1.88270612 4.16053868,1.88270612 L4.16053868,1.88270612 Z" fill="#324A7B"></path>
                        </g>
                        <g transform="translate(9.612797, 102.288758)" id="Shape">
                            <path d="M2.29805927,1.00806312 L0.931239705,1.00806312" fill="#9AB6E0"></path>
                            <path d="M2.29805927,1.89753058 L0.931239705,1.89753058 C0.435579862,1.89753058 0.0300399905,1.49727022 0.0300399905,1.00806312 C0.0300399905,0.518856017 0.435579862,0.118595661 0.931239705,0.118595661 L2.29805927,0.118595661 C2.79371911,0.118595661 3.19925899,0.518856017 3.19925899,1.00806312 C3.19925899,1.49727022 2.79371911,1.89753058 2.29805927,1.89753058 L2.29805927,1.89753058 Z" fill="#324A7B"></path>
                        </g>
                        <g transform="translate(9.612797, 87.464300)" id="Shape">
                            <path d="M0.931239705,0.948765289 L4.16053868,0.948765289" fill="#9AB6E0"></path>
                            <path d="M4.16053868,1.83823275 L0.931239705,1.83823275 C0.435579862,1.83823275 0.0300399905,1.43797239 0.0300399905,0.948765289 C0.0300399905,0.459558187 0.435579862,0.0592978306 0.931239705,0.0592978306 L4.16053868,0.0592978306 C4.65619852,0.0592978306 5.0617384,0.459558187 5.0617384,0.948765289 C5.0617384,1.43797239 4.65619852,1.83823275 4.16053868,1.83823275 L4.16053868,1.83823275 Z" fill="#324A7B"></path>
                        </g>
                        <g transform="translate(9.011997, 83.758186)" id="Shape">
                            <g transform="translate(0.000000, 11.118343)">
                                <path d="M0.9462597,0.963589747 L3.43957891,0.963589747" fill="#9AB6E0"></path>
                                <path d="M3.43957891,1.85305721 L0.961279695,1.85305721 C0.465619852,1.85305721 0.060079981,1.45279685 0.060079981,0.963589747 C0.060079981,0.474382644 0.465619852,0.0741222882 0.961279695,0.0741222882 L3.43957891,0.0741222882 C3.93523875,0.0741222882 4.34077862,0.474382644 4.34077862,0.963589747 C4.34077862,1.45279685 3.93523875,1.85305721 3.43957891,1.85305721 L3.43957891,1.85305721 Z" fill="#324A7B"></path>
                            </g>
                            <g>
                                <path d="M0.9462597,0.933940831 L3.43957891,0.933940831" fill="#9AB6E0"></path>
                                <path d="M3.43957891,1.82340829 L0.961279695,1.82340829 C0.465619852,1.82340829 0.060079981,1.42314793 0.060079981,0.933940831 C0.060079981,0.444733729 0.465619852,0.0444733729 0.961279695,0.0444733729 L3.43957891,0.0444733729 C3.93523875,0.0444733729 4.34077862,0.444733729 4.34077862,0.933940831 C4.34077862,1.42314793 3.93523875,1.82340829 3.43957891,1.82340829 L3.43957891,1.82340829 Z" fill="#324A7B"></path>
                            </g>
                        </g>
                        <g transform="translate(7.509998, 91.170414)" id="Shape">
                            <path d="M0.961279695,0.978414204 L4.40085861,0.978414204" fill="#9AB6E0"></path>
                            <path d="M4.40085861,1.86788166 L0.961279695,1.86788166 C0.465619852,1.86788166 0.060079981,1.46762131 0.060079981,0.978414204 C0.060079981,0.489207102 0.465619852,0.0889467458 0.961279695,0.0889467458 L4.40085861,0.0889467458 C4.89651845,0.0889467458 5.30205832,0.489207102 5.30205832,0.978414204 C5.30205832,1.46762131 4.89651845,1.86788166 4.40085861,1.86788166 L4.40085861,1.86788166 Z" fill="#324A7B"></path>
                        </g>
                        <g transform="translate(9.612797, 76.345957)" id="Shape">
                            <path d="M0.931239705,0.919116374 L4.16053868,0.919116374" fill="#9AB6E0"></path>
                            <path d="M4.16053868,1.80858383 L0.931239705,1.80858383 C0.435579862,1.80858383 0.0300399905,1.40832348 0.0300399905,0.919116374 C0.0300399905,0.429909272 0.435579862,0.0296489153 0.931239705,0.0296489153 L4.16053868,0.0296489153 C4.65619852,0.0296489153 5.0617384,0.429909272 5.0617384,0.919116374 C5.0617384,1.40832348 4.65619852,1.80858383 4.16053868,1.80858383 L4.16053868,1.80858383 Z" fill="#324A7B"></path>
                        </g>
                        <g transform="translate(7.509998, 80.052071)" id="Shape">
                            <path d="M0.961279695,0.948765289 L4.40085861,0.948765289" fill="#9AB6E0"></path>
                            <path d="M4.40085861,1.83823275 L0.961279695,1.83823275 C0.465619852,1.83823275 0.060079981,1.43797239 0.060079981,0.948765289 C0.060079981,0.459558187 0.465619852,0.0592978306 0.961279695,0.0592978306 L4.40085861,0.0592978306 C4.89651845,0.0592978306 5.30205832,0.459558187 5.30205832,0.948765289 C5.30205832,1.43797239 4.89651845,1.83823275 4.40085861,1.83823275 L4.40085861,1.83823275 Z" fill="#324A7B"></path>
                        </g>
                        <polygon id="Shape" fill="#D9E4F6" points="85.118313 50.5069272 85.118313 62.4257911 73.0272169 50.4772783 82.084274 50.4921027"></polygon>
                        <path d="M85.118313,63.3152586 C84.8779931,63.3152586 84.6526932,63.2263118 84.4874732,63.0484183 L72.3963771,51.1147299 C72.1410371,50.8627142 72.0659372,50.4772783 72.2011171,50.1511402 C72.3362971,49.8250021 72.666737,49.6026353 73.0272169,49.6026353 L73.0272169,49.6026353 L85.118313,49.6174597 C85.6139729,49.6174597 86.0195127,50.0177201 86.0195127,50.5069272 L86.0195127,62.4257911 C86.0195127,62.7815781 85.7942128,63.1077162 85.4637729,63.2411363 C85.3586329,63.2856097 85.238473,63.3152586 85.118313,63.3152586 L85.118313,63.3152586 Z M75.2051162,51.3815702 L84.2171133,60.2762448 L84.2171133,51.3963946 L75.2051162,51.3815702 L75.2051162,51.3815702 Z" id="Shape" fill="#324A7B"></path>
                        <path d="M73.0272169,51.3667457 L72.9671369,51.3667457 C72.471477,51.3667457 72.0659372,50.9664854 72.0659372,50.4772783 C72.0659372,49.9880712 72.471477,49.5878108 72.9671369,49.5878108 L73.0272169,49.5878108 C73.5228767,49.5878108 73.9284166,49.9880712 73.9284166,50.4772783 C73.9284166,50.9664854 73.5228767,51.3667457 73.0272169,51.3667457 L73.0272169,51.3667457 Z" id="Shape" fill="#324A7B"></path>
                        <polyline id="Shape" fill="#9AB6E0" points="84.6318229 62.4257911 84.6318229 62.6192264 84.6318229 63.3929674"></polyline>
                        <path d="M85.118313,63.3893809 C84.6226532,63.3893809 84.2171133,62.9891205 84.2171133,62.4999134 L84.2171133,62.4257911 C84.2171133,61.936584 84.6226532,61.5363237 85.118313,61.5363237 C85.6139729,61.5363237 86.0195127,61.936584 86.0195127,62.4257911 L86.0195127,62.4999134 C86.0195127,62.9891205 85.6289929,63.3893809 85.118313,63.3893809 L85.118313,63.3893809 Z" id="Shape" fill="#324A7B"></path>
                        <polygon id="Shape" fill="#D9E4F6" points="23.9418724 50.5069272 11.8657962 62.4257911 11.8657962 50.5069272"></polygon>
                        <path d="M11.8657962,63.3152586 C11.7456363,63.3152586 11.6254763,63.3004341 11.5203363,63.2411363 C11.1898965,63.1077162 10.9645965,62.7815781 10.9645965,62.4257911 L10.9645965,50.5069272 C10.9645965,50.0177201 11.3701364,49.6174597 11.8657962,49.6174597 L23.9418724,49.6174597 C24.3023523,49.6174597 24.6327922,49.8398266 24.7679722,50.1659647 C24.9031521,50.4921027 24.8280521,50.8775386 24.5727122,51.1295544 L12.496636,63.0484183 C12.3314161,63.2263118 12.1061162,63.3152586 11.8657962,63.3152586 L11.8657962,63.3152586 Z M12.766996,51.3963946 L12.766996,60.2762448 L21.7639731,51.3963946 L12.766996,51.3963946 L12.766996,51.3963946 Z" id="Shape" fill="#324A7B"></path>
                        <polyline id="Shape" fill="#9AB6E0" points="11.3793061 62.4257911 11.3793061 62.6192264 11.3793061 63.3929674"></polyline>
                        <path d="M11.8657962,63.3893809 C11.3701364,63.3893809 10.9645965,62.9891205 10.9645965,62.4999134 L10.9645965,62.4257911 C10.9645965,61.936584 11.3701364,61.5363237 11.8657962,61.5363237 C12.3614561,61.5363237 12.766996,61.936584 12.766996,62.4257911 L12.766996,62.4999134 C12.766996,62.9891205 12.3764761,63.3893809 11.8657962,63.3893809 L11.8657962,63.3893809 Z" id="Shape" fill="#324A7B"></path>
                        <path d="M24.0019524,51.3963946 L23.9568924,51.3963946 C23.4612326,51.3963946 23.0556927,50.9961343 23.0556927,50.5069272 C23.0556927,50.0177201 23.4612326,49.6174597 23.9568924,49.6174597 L24.0019524,49.6174597 C24.4976122,49.6174597 24.9031521,50.0177201 24.9031521,50.5069272 C24.9031521,50.9961343 24.4976122,51.3963946 24.0019524,51.3963946 L24.0019524,51.3963946 Z" id="Shape" fill="#324A7B"></path>
                        <path id="Shape" fill="#9AB6E0"></path>
                        <path d="M41.139767,95.6177518 L41.139767,95.6177518 C40.6441071,95.6177518 40.2385672,95.2174914 40.2385672,94.7282843 C40.2385672,94.2390772 40.6441071,93.8388169 41.139767,93.8388169 C41.6354268,93.8388169 42.0409667,94.2390772 42.0409667,94.7282843 C42.0409667,95.2174914 41.6354268,95.6177518 41.139767,95.6177518 L41.139767,95.6177518 Z" id="Shape" fill="#324A7B"></path>
                        <path d="M38.2258879,118.299172 L38.2258879,101.66613 C38.2258879,98.9532547 39.3373675,96.5072192 41.139767,94.7282843 C42.9421664,92.9493494 45.4204656,91.8523395 48.1691247,91.8523395 L48.1691247,91.8523395 C53.651423,91.8523395 58.1123616,96.240379 58.1123616,101.66613 L58.0673016,118.551188 C57.6317217,118.62531 57.2111619,118.699432 56.775582,118.75873 C56.1747822,118.847677 55.5739824,118.936624 54.9581626,118.995921 L54.9581626,102.140513 C54.9581626,98.4343987 51.9241235,95.4398583 48.1691247,95.4398583 C44.4141259,95.4398583 41.3800869,98.4343987 41.3800869,102.140513 L41.3800869,118.832852 C40.929487,118.773555 40.4939072,118.699432 40.0433073,118.62531 C39.8931074,118.595661 39.7429074,118.580837 39.5776875,118.551188 C39.4274875,118.521539 39.2772876,118.49189 39.1120676,118.477065 C38.9618677,118.447417 38.8116677,118.417768 38.6464478,118.388119 C38.4962478,118.35847 38.3460478,118.328821 38.1958479,118.299172" id="Shape" fill="#B9CEED"></path>
                        <path d="M37.3246882,117.202162 L37.3246882,101.66613 C37.3246882,98.8050102 38.4511878,96.1217833 40.4939072,94.1056571 C42.5366265,92.0895309 45.2702657,90.9776965 48.1541047,90.9776965 C54.1320628,90.9776965 58.9985413,95.7808208 58.9985413,101.680955 L58.9985413,101.680955 L58.9534813,118.566012 C58.9534813,118.995921 58.6380614,119.366533 58.2175015,119.440655 C57.7969417,119.514777 57.3763818,119.5889 56.895742,119.648198 C56.1898022,119.751969 55.6040224,119.826091 55.0482826,119.885389 L54.9431426,119.885389 C54.7178427,119.885389 54.5075627,119.811267 54.3423428,119.663022 C54.1470828,119.499953 54.0419429,119.247937 54.0419429,118.995921 L54.0419429,102.140513 C54.0419429,98.9384303 51.3984237,96.3293257 48.1541047,96.3293257 C44.9097858,96.3293257 42.2662666,98.9384303 42.2662666,102.140513 L42.2662666,118.832852 C42.2662666,119.084868 42.1461066,119.336884 41.9508467,119.499953 C41.7555868,119.663022 41.4852269,119.737144 41.2298869,119.707495 C40.7642671,119.648198 40.3136672,119.574075 39.8630674,119.499953 C39.7128674,119.470304 39.5476475,119.45548 39.3974475,119.425831 C39.2322276,119.396182 39.0820276,119.366533 38.9318277,119.336884 C38.7816277,119.307235 38.6164078,119.277586 38.4662078,119.247937 C38.3160079,119.218288 38.1658079,119.188639 38.000588,119.158991 L37.3246882,117.202162 Z M48.1841447,94.5503908 C52.4197834,94.5503908 55.8743823,97.9600161 55.8743823,102.140513 L55.8743823,117.987858 C56.1147022,117.958209 56.3850621,117.913736 56.655422,117.869263 C56.835662,117.839614 57.0159019,117.809965 57.1811219,117.79514 L57.2261819,101.66613 C57.2261819,96.7444106 53.1707831,92.741807 48.1841447,92.741807 C45.7659255,92.741807 43.4979062,93.6757478 41.7856268,95.3509115 C40.0733473,97.0408997 39.1421076,99.2793928 39.1421076,101.651306 L39.1421076,117.543125 C39.1871676,117.557949 39.2472476,117.557949 39.2923075,117.572774 C39.4425075,117.602422 39.5927075,117.632071 39.7429074,117.646896 C39.8931074,117.676545 40.0433073,117.706194 40.2085273,117.721018 C40.2986472,117.735843 40.4037872,117.750667 40.4939072,117.765491 L40.4939072,102.140513 C40.4939072,97.9600161 43.9334861,94.5503908 48.1841447,94.5503908 L48.1841447,94.5503908 Z" id="Shape" fill="#324A7B"></path>
                        <ellipse id="Oval" fill="#324A7B" cx="51.9541635" cy="107.091882" rx="0.886179719" ry="0.874643001"></ellipse>
                        <path d="M15.3053751,54.6577753 C14.8097153,54.6577753 14.4041754,54.257515 14.4041754,53.7683079 L14.4041754,50.5069272 C14.4041754,50.0177201 14.8097153,49.6174597 15.3053751,49.6174597 C15.801035,49.6174597 16.2065749,50.0177201 16.2065749,50.5069272 L16.2065749,53.7683079 C16.2065749,54.257515 15.816055,54.6577753 15.3053751,54.6577753 L15.3053751,54.6577753 Z" id="Shape" fill="#324A7B"></path>
                        <path d="M82.084274,54.6577753 C81.5886141,54.6577753 81.1830743,54.257515 81.1830743,53.7683079 L81.1830743,50.4921027 C81.1830743,50.0028956 81.5886141,49.6026353 82.084274,49.6026353 C82.5799338,49.6026353 82.9854737,50.0028956 82.9854737,50.4921027 L82.9854737,53.7683079 C82.9854737,54.257515 82.5799338,54.6577753 82.084274,54.6577753 L82.084274,54.6577753 Z" id="Shape" fill="#324A7B"></path>
                        <path d="M87.7468122,72.9956294 L54.5526227,40.2187536 C51.2181838,36.927724 45.7959655,36.927724 42.4615265,40.2187536 L9.26733706,73.1586985 L87.9120321,73.1586985 L87.7468122,72.9956294 L87.7468122,72.9956294 Z M48.7098446,60.2614203 C45.6457655,60.2614203 43.1824863,57.8153848 43.1824863,54.8060199 C43.1824863,51.796655 45.6607855,49.3506195 48.7098446,49.3506195 C51.7589036,49.3506195 54.2372028,51.796655 54.2372028,54.8060199 C54.2372028,57.8153848 51.7739236,60.2614203 48.7098446,60.2614203 L48.7098446,60.2614203 Z" id="Shape" fill="#C2D5F0"></path>
                        <path d="M87.9120321,74.0481659 L9.25231707,74.0481659 C8.89183718,74.0481659 8.56139729,73.825799 8.42621733,73.499661 C8.29103737,73.1735229 8.36613735,72.788087 8.62147727,72.5360712 L41.8156667,39.5961264 C45.4955656,35.9641342 51.4885437,35.9641342 55.1834625,39.5961264 L88.377652,72.3730022 L88.377652,72.3730022 L88.5428719,72.5360712 C88.7982119,72.788087 88.8733118,73.1735229 88.7381319,73.499661 C88.6029519,73.825799 88.272512,74.0481659 87.9120321,74.0481659 L87.9120321,74.0481659 Z M11.4151964,72.269231 L85.7191128,72.269231 L53.9067629,40.8562053 C50.9177839,37.9209626 46.0663254,37.9209626 43.0923663,40.8562053 L11.4151964,72.269231 L11.4151964,72.269231 Z M48.7098446,61.1508878 C45.1651257,61.1508878 42.2812866,58.3045919 42.2812866,54.8060199 C42.2812866,51.3074479 45.1651257,48.461152 48.7098446,48.461152 C52.2545634,48.461152 55.1384025,51.3074479 55.1384025,54.8060199 C55.1384025,58.3045919 52.2545634,61.1508878 48.7098446,61.1508878 L48.7098446,61.1508878 Z M48.7098446,50.2252625 C46.1564454,50.2252625 44.083686,52.2710376 44.083686,54.7911954 C44.083686,57.3113532 46.1564454,59.3571284 48.7098446,59.3571284 C51.2632438,59.3571284 53.3360031,57.3113532 53.3360031,54.7911954 C53.3360031,52.2710376 51.2632438,50.2252625 48.7098446,50.2252625 L48.7098446,50.2252625 Z" id="Shape" fill="#324A7B"></path>
                        <g transform="translate(42.206187, 48.327732)" id="Shape">
                            <path d="M12.0460362,6.46346353 C12.0460362,9.47282843 9.56773697,11.9188639 6.51867793,11.9188639 C3.45459891,11.9188639 0.991319686,9.47282843 0.991319686,6.46346353 C0.991319686,3.45409863 3.4696189,1.00806312 6.51867793,1.00806312 C9.56773697,1.00806312 12.0460362,3.45409863 12.0460362,6.46346353 L12.0460362,6.46346353 Z" fill="#9AB6E0"></path>
                            <path d="M6.50365794,12.8231559 C2.95893906,12.8231559 0.0750999762,9.97685999 0.0750999762,6.47828799 C0.0750999762,2.97971599 2.95893906,0.133420119 6.50365794,0.133420119 C10.0483768,0.133420119 12.9322159,2.97971599 12.9322159,6.47828799 C12.9322159,9.97685999 10.0483768,12.8231559 6.50365794,12.8231559 L6.50365794,12.8231559 Z M6.50365794,1.89753058 C3.95025875,1.89753058 1.8774994,3.94330573 1.8774994,6.46346353 C1.8774994,8.98362133 3.95025875,11.0293965 6.50365794,11.0293965 C9.05705713,11.0293965 11.1298165,8.98362133 11.1298165,6.46346353 C11.1298165,3.94330573 9.05705713,1.89753058 6.50365794,1.89753058 L6.50365794,1.89753058 Z" fill="#324A7B"></path>
                        </g>
                        <g transform="translate(7.059398, 72.195109)" id="Shape">
                            <path d="M6.99931778,0.963589747 L6.99931778,34.3927417 C5.78269817,33.3550297 4.59611854,32.2580198 3.4846389,31.1165366 C2.58343918,30.1974202 1.72729945,29.2486549 0.901199714,28.2850652 L0.901199714,0.978414204 L6.99931778,0.978414204 L6.99931778,0.963589747 Z" fill="#B9CEED"></path>
                            <path d="M6.99931778,35.2822092 C6.78903785,35.2822092 6.57875792,35.2080869 6.41353797,35.0598423 C5.16687836,33.9924814 3.96527874,32.880647 2.8387791,31.7243393 C1.9075394,30.7755741 1.02135968,29.8119843 0.210279933,28.8335701 C0.0750999762,28.6705011 0,28.4777831 0,28.2702407 L0,0.963589747 C0,0.474382644 0.405539871,0.0741222882 0.901199714,0.0741222882 L6.99931778,0.0741222882 C7.49497762,0.0741222882 7.9005175,0.474382644 7.9005175,0.963589747 L7.9005175,34.3927417 C7.9005175,34.7337043 7.69023756,35.0598423 7.37481766,35.2080869 C7.2546577,35.2525603 7.11947774,35.2822092 6.99931778,35.2822092 L6.99931778,35.2822092 Z M1.80239943,27.9441027 C2.5383792,28.8039212 3.31941895,29.6489153 4.13049869,30.4939094 C4.76133849,31.1461855 5.42221828,31.7836372 6.09811807,32.4062644 L6.09811807,1.85305721 L1.80239943,1.85305721 L1.80239943,27.9441027 L1.80239943,27.9441027 Z" fill="#324A7B"></path>
                        </g>
                        <g transform="translate(13.067396, 105.698383)" id="Shape">
                            <path fill="#9AB6E0"></path>
                            <path d="M0.991319686,1.77893492 C0.495659843,1.77893492 0.0901199714,1.37867456 0.0901199714,0.889467458 L0.0901199714,0.889467458 C0.0901199714,0.400260356 0.495659843,0 0.991319686,0 C1.48697953,0 1.8925194,0.400260356 1.8925194,0.889467458 C1.8925194,1.37867456 1.48697953,1.77893492 0.991319686,1.77893492 L0.991319686,1.77893492 Z" fill="#324A7B"></path>
                        </g>
                        <path d="M89.0535518,72.269231 L82.7601738,72.269231 C82.7000938,72.2544065 82.6550338,72.2544065 82.5949538,72.2544065 C82.114314,72.2544065 81.7237941,72.625018 81.6937541,73.0994006 L81.6937541,73.143874 L81.6937541,107.41802 C81.6937541,107.907227 82.099294,108.307488 82.5949538,108.307488 C82.8052338,108.307488 83.0004937,108.233365 83.1657136,108.099945 C85.5238529,106.18759 87.7317922,104.067693 89.7144316,101.814375 C89.8496115,101.651306 89.9397315,101.443764 89.9397315,101.236221 L89.9397315,73.1586985 C89.9547515,72.6694914 89.5492116,72.269231 89.0535518,72.269231 L89.0535518,72.269231 Z M88.1523521,100.895259 C86.7104325,102.511125 85.163373,104.052868 83.5111735,105.490841 L83.5111735,74.0481659 L88.1523521,74.0481659 L88.1523521,100.895259 L88.1523521,100.895259 Z" id="Shape" fill="#C2D5F0"></path>
                        <path d="M88.1523521,74.0481659 L88.1523521,100.895259 C86.7104325,102.511125 85.163373,104.052868 83.5111735,105.490841 L83.5111735,74.0481659 L88.1523521,74.0481659 L88.1523521,74.0481659 Z" id="Shape" fill="#C2D5F0"></path>
                        <path d="M89.0535518,72.269231 L82.7601738,72.269231 C82.7151138,72.2544065 82.6550338,72.2544065 82.5949538,72.2544065 C82.114314,72.2544065 81.7237941,72.625018 81.6937541,73.0994006 L81.6937541,73.143874 L81.6937541,107.41802 C81.6937541,107.907227 82.099294,108.307488 82.5949538,108.307488 C82.8052338,108.307488 83.0004937,108.233365 83.1657136,108.099945 C85.5238529,106.18759 87.7317922,104.067693 89.7144316,101.814375 C89.8496115,101.651306 89.9397315,101.443764 89.9397315,101.236221 L89.9397315,73.1586985 C89.9547515,72.6694914 89.5492116,72.269231 89.0535518,72.269231 L89.0535518,72.269231 Z M88.1523521,100.895259 C86.7104325,102.511125 85.163373,104.052868 83.5111735,105.490841 L83.5111735,74.0481659 L88.1523521,74.0481659 L88.1523521,100.895259 L88.1523521,100.895259 Z" id="Shape" fill="#324A7B"></path>
                        <g transform="translate(84.262173, 98.582643)" id="Shape">
                            <path d="M0.901199714,0.993238662 L4.13049869,0.993238662" fill="#9AB6E0"></path>
                            <path d="M4.13049869,1.88270612 L0.901199714,1.88270612 C0.405539871,1.88270612 0,1.48244576 0,0.993238662 C0,0.50403156 0.405539871,0.103771203 0.901199714,0.103771203 L4.13049869,0.103771203 C4.62615853,0.103771203 5.03169841,0.50403156 5.03169841,0.993238662 C5.03169841,1.48244576 4.64117853,1.88270612 4.13049869,1.88270612 L4.13049869,1.88270612 Z" fill="#324A7B"></path>
                        </g>
                        <g transform="translate(82.159374, 102.288758)" id="Shape">
                            <path d="M0.9462597,1.00806312 L4.37081861,1.00806312" fill="#9AB6E0"></path>
                            <path d="M4.37081861,1.89753058 L0.931239705,1.89753058 C0.435579862,1.89753058 0.0300399905,1.49727022 0.0300399905,1.00806312 C0.0300399905,0.518856017 0.435579862,0.118595661 0.931239705,0.118595661 L4.37081861,0.118595661 C4.86647846,0.118595661 5.27201833,0.518856017 5.27201833,1.00806312 C5.27201833,1.49727022 4.88149845,1.89753058 4.37081861,1.89753058 L4.37081861,1.89753058 Z" fill="#324A7B"></path>
                        </g>
                        <g transform="translate(84.262173, 87.464300)" id="Shape">
                            <path d="M0.901199714,0.948765289 L4.13049869,0.948765289" fill="#9AB6E0"></path>
                            <path d="M4.13049869,1.83823275 L0.901199714,1.83823275 C0.405539871,1.83823275 0,1.43797239 0,0.948765289 C0,0.459558187 0.405539871,0.0592978306 0.901199714,0.0592978306 L4.13049869,0.0592978306 C4.62615853,0.0592978306 5.03169841,0.459558187 5.03169841,0.948765289 C5.03169841,1.43797239 4.64117853,1.83823275 4.13049869,1.83823275 L4.13049869,1.83823275 Z" fill="#324A7B"></path>
                        </g>
                        <g transform="translate(83.661373, 83.758186)" id="Shape">
                            <g transform="translate(0.000000, 11.118343)">
                                <path d="M0.931239705,0.963589747 L3.40953892,0.963589747" fill="#9AB6E0"></path>
                                <path d="M3.40953892,1.85305721 L0.931239705,1.85305721 C0.435579862,1.85305721 0.0300399905,1.45279685 0.0300399905,0.963589747 C0.0300399905,0.474382644 0.435579862,0.0741222882 0.931239705,0.0741222882 L3.40953892,0.0741222882 C3.90519876,0.0741222882 4.31073863,0.474382644 4.31073863,0.963589747 C4.31073863,1.45279685 3.90519876,1.85305721 3.40953892,1.85305721 L3.40953892,1.85305721 Z" fill="#324A7B"></path>
                            </g>
                            <g>
                                <path d="M0.931239705,0.933940831 L3.40953892,0.933940831" fill="#9AB6E0"></path>
                                <path d="M3.40953892,1.82340829 L0.931239705,1.82340829 C0.435579862,1.82340829 0.0300399905,1.42314793 0.0300399905,0.933940831 C0.0300399905,0.444733729 0.435579862,0.0444733729 0.931239705,0.0444733729 L3.40953892,0.0444733729 C3.90519876,0.0444733729 4.31073863,0.444733729 4.31073863,0.933940831 C4.31073863,1.42314793 3.90519876,1.82340829 3.40953892,1.82340829 L3.40953892,1.82340829 Z" fill="#324A7B"></path>
                            </g>
                        </g>
                        <g transform="translate(82.159374, 91.170414)" id="Shape">
                            <path d="M0.9462597,0.978414204 L4.37081861,0.978414204" fill="#9AB6E0"></path>
                            <path d="M4.37081861,1.86788166 L0.931239705,1.86788166 C0.435579862,1.86788166 0.0300399905,1.46762131 0.0300399905,0.978414204 C0.0300399905,0.489207102 0.435579862,0.0889467458 0.931239705,0.0889467458 L4.37081861,0.0889467458 C4.86647846,0.0889467458 5.27201833,0.489207102 5.27201833,0.978414204 C5.27201833,1.46762131 4.88149845,1.86788166 4.37081861,1.86788166 L4.37081861,1.86788166 Z" fill="#324A7B"></path>
                        </g>
                        <g transform="translate(84.262173, 76.345957)" id="Shape">
                            <path d="M0.901199714,0.919116374 L4.13049869,0.919116374" fill="#9AB6E0"></path>
                            <path d="M4.13049869,1.80858383 L0.901199714,1.80858383 C0.405539871,1.80858383 0,1.40832348 0,0.919116374 C0,0.429909272 0.405539871,0.0296489153 0.901199714,0.0296489153 L4.13049869,0.0296489153 C4.62615853,0.0296489153 5.03169841,0.429909272 5.03169841,0.919116374 C5.03169841,1.40832348 4.64117853,1.80858383 4.13049869,1.80858383 L4.13049869,1.80858383 Z" fill="#324A7B"></path>
                        </g>
                        <g transform="translate(82.159374, 80.052071)" id="Shape">
                            <path d="M0.9462597,0.948765289 L4.37081861,0.948765289" fill="#9AB6E0"></path>
                            <path d="M4.37081861,1.83823275 L0.931239705,1.83823275 C0.435579862,1.83823275 0.0300399905,1.43797239 0.0300399905,0.948765289 C0.0300399905,0.459558187 0.435579862,0.0592978306 0.931239705,0.0592978306 L4.37081861,0.0592978306 C4.86647846,0.0592978306 5.27201833,0.459558187 5.27201833,0.948765289 C5.27201833,1.43797239 4.88149845,1.83823275 4.37081861,1.83823275 L4.37081861,1.83823275 Z" fill="#324A7B"></path>
                        </g>
                        <g transform="translate(9.612797, 98.582643)" id="Shape">
                            <path d="M0.931239705,0.993238662 L4.16053868,0.993238662" fill="#9AB6E0"></path>
                            <path d="M4.16053868,1.88270612 L0.931239705,1.88270612 C0.435579862,1.88270612 0.0300399905,1.48244576 0.0300399905,0.993238662 C0.0300399905,0.50403156 0.435579862,0.103771203 0.931239705,0.103771203 L4.16053868,0.103771203 C4.65619852,0.103771203 5.0617384,0.50403156 5.0617384,0.993238662 C5.0617384,1.48244576 4.65619852,1.88270612 4.16053868,1.88270612 L4.16053868,1.88270612 Z" fill="#324A7B"></path>
                        </g>
                        <g transform="translate(9.612797, 102.288758)" id="Shape">
                            <path d="M2.29805927,1.00806312 L0.931239705,1.00806312" fill="#9AB6E0"></path>
                            <path d="M2.29805927,1.89753058 L0.931239705,1.89753058 C0.435579862,1.89753058 0.0300399905,1.49727022 0.0300399905,1.00806312 C0.0300399905,0.518856017 0.435579862,0.118595661 0.931239705,0.118595661 L2.29805927,0.118595661 C2.79371911,0.118595661 3.19925899,0.518856017 3.19925899,1.00806312 C3.19925899,1.49727022 2.79371911,1.89753058 2.29805927,1.89753058 L2.29805927,1.89753058 Z" fill="#324A7B"></path>
                        </g>
                        <g transform="translate(9.612797, 87.464300)" id="Shape">
                            <path d="M0.931239705,0.948765289 L4.16053868,0.948765289" fill="#9AB6E0"></path>
                            <path d="M4.16053868,1.83823275 L0.931239705,1.83823275 C0.435579862,1.83823275 0.0300399905,1.43797239 0.0300399905,0.948765289 C0.0300399905,0.459558187 0.435579862,0.0592978306 0.931239705,0.0592978306 L4.16053868,0.0592978306 C4.65619852,0.0592978306 5.0617384,0.459558187 5.0617384,0.948765289 C5.0617384,1.43797239 4.65619852,1.83823275 4.16053868,1.83823275 L4.16053868,1.83823275 Z" fill="#324A7B"></path>
                        </g>
                        <g transform="translate(9.011997, 83.758186)" id="Shape">
                            <g transform="translate(0.000000, 11.118343)">
                                <path d="M0.9462597,0.963589747 L3.43957891,0.963589747" fill="#9AB6E0"></path>
                                <path d="M3.43957891,1.85305721 L0.961279695,1.85305721 C0.465619852,1.85305721 0.060079981,1.45279685 0.060079981,0.963589747 C0.060079981,0.474382644 0.465619852,0.0741222882 0.961279695,0.0741222882 L3.43957891,0.0741222882 C3.93523875,0.0741222882 4.34077862,0.474382644 4.34077862,0.963589747 C4.34077862,1.45279685 3.93523875,1.85305721 3.43957891,1.85305721 L3.43957891,1.85305721 Z" fill="#324A7B"></path>
                            </g>
                            <g>
                                <path d="M0.9462597,0.933940831 L3.43957891,0.933940831" fill="#9AB6E0"></path>
                                <path d="M3.43957891,1.82340829 L0.961279695,1.82340829 C0.465619852,1.82340829 0.060079981,1.42314793 0.060079981,0.933940831 C0.060079981,0.444733729 0.465619852,0.0444733729 0.961279695,0.0444733729 L3.43957891,0.0444733729 C3.93523875,0.0444733729 4.34077862,0.444733729 4.34077862,0.933940831 C4.34077862,1.42314793 3.93523875,1.82340829 3.43957891,1.82340829 L3.43957891,1.82340829 Z" fill="#324A7B"></path>
                            </g>
                        </g>
                        <g transform="translate(7.509998, 91.170414)" id="Shape">
                            <path d="M0.961279695,0.978414204 L4.40085861,0.978414204" fill="#9AB6E0"></path>
                            <path d="M4.40085861,1.86788166 L0.961279695,1.86788166 C0.465619852,1.86788166 0.060079981,1.46762131 0.060079981,0.978414204 C0.060079981,0.489207102 0.465619852,0.0889467458 0.961279695,0.0889467458 L4.40085861,0.0889467458 C4.89651845,0.0889467458 5.30205832,0.489207102 5.30205832,0.978414204 C5.30205832,1.46762131 4.89651845,1.86788166 4.40085861,1.86788166 L4.40085861,1.86788166 Z" fill="#324A7B"></path>
                        </g>
                        <g transform="translate(9.612797, 76.345957)" id="Shape">
                            <path d="M0.931239705,0.919116374 L4.16053868,0.919116374" fill="#9AB6E0"></path>
                            <path d="M4.16053868,1.80858383 L0.931239705,1.80858383 C0.435579862,1.80858383 0.0300399905,1.40832348 0.0300399905,0.919116374 C0.0300399905,0.429909272 0.435579862,0.0296489153 0.931239705,0.0296489153 L4.16053868,0.0296489153 C4.65619852,0.0296489153 5.0617384,0.429909272 5.0617384,0.919116374 C5.0617384,1.40832348 4.65619852,1.80858383 4.16053868,1.80858383 L4.16053868,1.80858383 Z" fill="#324A7B"></path>
                        </g>
                        <g transform="translate(7.509998, 80.052071)" id="Shape">
                            <path d="M0.961279695,0.948765289 L4.40085861,0.948765289" fill="#9AB6E0"></path>
                            <path d="M4.40085861,1.83823275 L0.961279695,1.83823275 C0.465619852,1.83823275 0.060079981,1.43797239 0.060079981,0.948765289 C0.060079981,0.459558187 0.465619852,0.0592978306 0.961279695,0.0592978306 L4.40085861,0.0592978306 C4.89651845,0.0592978306 5.30205832,0.459558187 5.30205832,0.948765289 C5.30205832,1.43797239 4.89651845,1.83823275 4.40085861,1.83823275 L4.40085861,1.83823275 Z" fill="#324A7B"></path>
                        </g>
                        <g transform="translate(24.933192, 79.607338)" id="Shape">
                            <path d="M0.991319686,0.993238662 L0.991319686,14.9578778" fill="#9AB6E0"></path>
                            <path d="M0.991319686,15.8473452 C0.495659843,15.8473452 0.0901199714,15.4470849 0.0901199714,14.9578778 L0.0901199714,0.993238662 C0.0901199714,0.50403156 0.495659843,0.103771203 0.991319686,0.103771203 C1.48697953,0.103771203 1.8925194,0.50403156 1.8925194,0.993238662 L1.8925194,14.9578778 C1.8925194,15.4470849 1.48697953,15.8473452 0.991319686,15.8473452 L0.991319686,15.8473452 Z" fill="#324A7B"></path>
                        </g>
                        <g transform="translate(20.577393, 86.574833)" id="Shape">
                            <path d="M10.5440367,0.889467458 L0.360479886,0.889467458" fill="#9AB6E0"></path>
                            <path d="M9.97327684,1.77893492 L0.91621971,1.77893492 C0.480639848,1.77893492 0.120159962,1.37867456 0.120159962,0.889467458 C0.120159962,0.400260356 0.480639848,0 0.91621971,0 L9.97327684,0 C10.4088567,0 10.7693366,0.400260356 10.7693366,0.889467458 C10.7693366,1.37867456 10.4238767,1.77893492 9.97327684,1.77893492 L9.97327684,1.77893492 Z" fill="#324A7B"></path>
                        </g>
                        <g transform="translate(64.285580, 79.162604)" id="Shape" fill="#324A7B">
                            <path d="M1.02135968,1.02288758 L1.02135968,15.8769941 L11.2499764,15.8769941 L11.2499764,1.02288758 L1.02135968,1.02288758 L1.02135968,1.02288758 Z M10.3487767,14.9875267 L1.92255939,14.9875267 L1.92255939,1.91235504 L10.3487767,1.91235504 L10.3487767,14.9875267 L10.3487767,14.9875267 Z"></path>
                            <path d="M11.2499764,0.133420119 L1.02135968,0.133420119 C0.525699833,0.133420119 0.120159962,0.533680475 0.120159962,1.02288758 L0.120159962,15.8769941 C0.120159962,16.3662012 0.525699833,16.7664616 1.02135968,16.7664616 L11.2499764,16.7664616 C11.7456363,16.7664616 12.1511761,16.3662012 12.1511761,15.8769941 L12.1511761,1.02288758 C12.1511761,0.533680475 11.7456363,0.133420119 11.2499764,0.133420119 L11.2499764,0.133420119 Z M10.3487767,14.9875267 L1.92255939,14.9875267 L1.92255939,1.91235504 L10.3487767,1.91235504 L10.3487767,14.9875267 L10.3487767,14.9875267 Z"></path>
                        </g>
                        <g transform="translate(19.976594, 79.162604)" id="Shape" fill="#324A7B">
                            <path d="M0.91621971,1.02288758 L0.91621971,15.8769941 L11.1448365,15.8769941 L11.1448365,1.02288758 L0.91621971,1.02288758 L0.91621971,1.02288758 Z M10.2436368,14.9875267 L1.81741942,14.9875267 L1.81741942,1.91235504 L10.2436368,1.91235504 L10.2436368,14.9875267 L10.2436368,14.9875267 Z"></path>
                            <path d="M11.1448365,0.133420119 L0.91621971,0.133420119 C0.420559867,0.133420119 0.0150199952,0.533680475 0.0150199952,1.02288758 L0.0150199952,15.8769941 C0.0150199952,16.3662012 0.420559867,16.7664616 0.91621971,16.7664616 L11.1448365,16.7664616 C11.6404963,16.7664616 12.0460362,16.3662012 12.0460362,15.8769941 L12.0460362,1.02288758 C12.0460362,0.533680475 11.6404963,0.133420119 11.1448365,0.133420119 L11.1448365,0.133420119 Z M10.2436368,14.9875267 L1.81741942,14.9875267 L1.81741942,1.91235504 L10.2436368,1.91235504 L10.2436368,14.9875267 L10.2436368,14.9875267 Z"></path>
                        </g>
                        <g transform="translate(69.392378, 79.607338)" id="Shape">
                            <path d="M1.03637967,0.993238662 L1.03637967,14.9578778" fill="#9AB6E0"></path>
                            <path d="M1.03637967,15.8473452 C0.540719829,15.8473452 0.135179957,15.4470849 0.135179957,14.9578778 L0.135179957,0.993238662 C0.135179957,0.50403156 0.540719829,0.103771203 1.03637967,0.103771203 C1.53203951,0.103771203 1.93757939,0.50403156 1.93757939,0.993238662 L1.93757939,14.9578778 C1.93757939,15.4470849 1.53203951,15.8473452 1.03637967,15.8473452 L1.03637967,15.8473452 Z" fill="#324A7B"></path>
                        </g>
                        <g transform="translate(64.435780, 86.574833)" id="Shape">
                            <path d="M10.1384968,0.889467458 L1.00633968,0.889467458" fill="#9AB6E0"></path>
                            <path d="M10.1384968,1.77893492 L0.991319686,1.77893492 C0.495659843,1.77893492 0.0901199714,1.37867456 0.0901199714,0.889467458 C0.0901199714,0.400260356 0.495659843,0 0.991319686,0 L10.1384968,0 C10.6341566,0 11.0396965,0.400260356 11.0396965,0.889467458 C11.0396965,1.37867456 10.6341566,1.77893492 10.1384968,1.77893492 L10.1384968,1.77893492 Z" fill="#324A7B"></path>
                        </g>
                        <g transform="translate(50.016584, 61.225010)" id="Shape">
                            <path d="M3.27435896,0.889467458 C2.5383792,1.33420119 1.75733944,1.66033926 0.9462597,1.88270612" fill="#9AB6E0"></path>
                            <path d="M0.961279695,2.75734912 C0.570759819,2.75734912 0.195259938,2.49050888 0.0901199714,2.10507298 C-0.0450599857,1.63069034 0.240319924,1.14148324 0.720959772,1.02288758 C1.45693954,0.830169628 2.16287931,0.533680475 2.80873911,0.133420119 C3.22929898,-0.118595661 3.7850388,-7.82482369e-13 4.05539871,0.415084814 C4.31073863,0.830169628 4.19057867,1.37867456 3.77001881,1.6455148 C2.97395906,2.1347219 2.11781933,2.50533334 1.20159962,2.74252466 C1.11147965,2.75734912 1.03637967,2.75734912 0.961279695,2.75734912 L0.961279695,2.75734912 Z" fill="#324A7B"></path>
                        </g>
                        <g transform="translate(54.372383, 57.370651)" id="Shape">
                            <path d="M2.25299929,1.00806312 C1.92255939,1.73446154 1.47195953,2.4163866 0.91621971,3.05383827" fill="#9AB6E0"></path>
                            <path d="M0.91621971,3.94330573 C0.705939776,3.94330573 0.495659843,3.86918344 0.330439895,3.72093887 C-0.0450599857,3.3948008 -0.0901199714,2.83147141 0.240319924,2.46085997 C0.735979767,1.89753058 1.14151964,1.28972781 1.44191954,0.622627221 C1.65219948,0.177893492 2.17789931,-0.0148244576 2.64351916,0.192717949 C3.09411902,0.400260356 3.28937896,0.919116374 3.07909902,1.37867456 C2.70359914,2.19401973 2.2079393,2.95006707 1.60713949,3.63199212 C1.42689955,3.83953453 1.17155963,3.94330573 0.91621971,3.94330573 L0.91621971,3.94330573 Z" fill="#324A7B"></path>
                        </g>
                        <g transform="translate(55.724182, 54.702249)" id="Shape">
                            <path d="M1.8865114,1.00806312 C1.7478983,1.92717949 1.43106836,2.81664695 0.91621971,3.67646549" fill="#9AB6E0"></path>
                            <path d="M0.901199714,4.56593295 C0.781039752,4.56593295 0.645859795,4.53628404 0.525699833,4.49181066 C0.0750999762,4.28426826 -0.120159962,3.76541224 0.0901199714,3.30585405 C0.435579862,2.54980671 0.660879791,1.749286 0.750999762,0.919116374 C0.811079743,0.429909272 1.2466596,0.0741222882 1.74231945,0.133420119 C2.23797929,0.192717949 2.59845918,0.622627221 2.5383792,1.11183432 C2.43323923,2.1347219 2.14785932,3.12796056 1.71227946,4.06190139 C1.5770995,4.373215 1.2466596,4.56593295 0.901199714,4.56593295 L0.901199714,4.56593295 Z" fill="#324A7B"></path>
                        </g>
                        <g transform="translate(56.174782, 51.737357)" id="Shape">
                            <path d="M0.991319686,0.978414204 C1.89984444,1.95682841 2.18375843,2.97971599 1.78627885,3.97295465" fill="#9AB6E0"></path>
                            <path d="M1.20159962,4.86242211 L1.11147965,4.86242211 C0.615819805,4.80312428 0.255339919,4.373215 0.3154199,3.8840079 C0.420559867,2.97971599 0.345459891,2.07542407 0.135179957,1.18595661 C0.0150199952,0.711573967 0.3154199,0.222366865 0.796059748,0.103771203 C1.2766996,-0.0148244576 1.77235944,0.281664695 1.8925194,0.75604734 C2.16287931,1.83823275 2.23797929,2.95006707 2.11781933,4.06190139 C2.04271935,4.52145958 1.65219948,4.86242211 1.20159962,4.86242211 L1.20159962,4.86242211 Z" fill="#324A7B"></path>
                        </g>
                        <g transform="translate(55.123383, 49.365444)" id="Shape">
                            <path d="M1.02135968,0.933940831 C1.48697953,1.68998817 1.83243942,2.50533334 2.04271935,3.35032743" fill="#9AB6E0"></path>
                            <path d="M2.04271935,4.23979489 C1.63717948,4.23979489 1.2766996,3.97295465 1.17155963,3.55786983 C0.976299691,2.78699804 0.675899786,2.06059961 0.255339919,1.39349902 C3.03923553e-14,0.978414204 0.135179957,0.429909272 0.555739824,0.163069034 C0.976299691,-0.0889467458 1.53203951,0.0444733729 1.80239943,0.459558187 C2.31307927,1.28972781 2.70359914,2.17919527 2.92889907,3.12796056 C3.04905903,3.60234321 2.74865913,4.09155031 2.26801928,4.21014597 C2.19291931,4.22497043 2.11781933,4.23979489 2.04271935,4.23979489 L2.04271935,4.23979489 Z" fill="#324A7B"></path>
                        </g>
                        <g transform="translate(52.569983, 46.697042)" id="Shape">
                            <path d="M0.976299691,0.948765289 C1.2766996,1.14148324 1.5770995,1.3638501 1.84745941,1.61586588 C2.5383792,2.20884419 3.10913901,2.87594478 3.55973887,3.61716766" fill="#9AB6E0"></path>
                            <path d="M3.57475887,4.49181066 C3.27435896,4.49181066 2.97395906,4.34356609 2.80873911,4.06190139 C2.38817924,3.3948008 1.8774994,2.78699804 1.2616796,2.26814202 C1.00633968,2.06059961 0.750999762,1.85305721 0.480639848,1.67516371 C0.060079981,1.40832348 -0.0450599857,0.844994085 0.240319924,0.444733729 C0.510679838,0.0296489153 1.08143966,-0.0741222882 1.48697953,0.207542407 C1.81741942,0.429909272 2.14785932,0.667100594 2.44825922,0.933940831 C3.19925899,1.57139251 3.83009879,2.31261539 4.34077862,3.14278502 C4.59611854,3.55786983 4.46093859,4.10637477 4.04037872,4.373215 C3.89017877,4.44733729 3.72495882,4.49181066 3.57475887,4.49181066 L3.57475887,4.49181066 Z" fill="#324A7B"></path>
                        </g>
                        <g transform="translate(48.063985, 45.214596)" id="Shape">
                            <path d="M0.91621971,0.993238662 C2.50833921,1.03771203 4.08543871,1.51209468 5.48229826,2.43121105" fill="#9AB6E0"></path>
                            <path d="M5.48229826,3.32067851 C5.31707831,3.32067851 5.13683837,3.27620514 4.98663842,3.17243393 C3.77001881,2.37191322 2.35813925,1.92717949 0.901199714,1.88270612 C0.405539871,1.86788166 0.0150199952,1.45279685 0.0300399905,0.963589747 C0.0450599857,0.489207102 0.450599857,0.103771203 0.931239705,0.103771203 L0.961279695,0.103771203 C2.76367912,0.163069034 4.50599857,0.711573967 5.9929781,1.68998817 C6.41353797,1.95682841 6.51867793,2.5201578 6.24831802,2.92041816 C6.05305808,3.17243393 5.76767817,3.32067851 5.48229826,3.32067851 L5.48229826,3.32067851 Z" fill="#324A7B"></path>
                        </g>
                        <g transform="translate(44.158786, 45.214596)" id="Shape">
                            <path d="M0.91621971,1.95541795 C2.14785932,1.25318733 3.4846389,0.939031527 4.82141847,0.994470786" fill="#9AB6E0"></path>
                            <path d="M0.91621971,2.65357792 C0.570759819,2.65357792 0.255339919,2.46085997 0.0901199714,2.1347219 C-0.120159962,1.68998817 0.0750999762,1.1563077 0.540719829,0.948765289 C1.8774994,0.340962526 3.36447893,0.0444733729 4.85145846,0.0889467458 C5.34711831,0.103771203 5.73763818,0.518856017 5.72261819,1.00806312 C5.70759819,1.49727022 5.28703832,1.88270612 4.79137848,1.86788166 C3.58977886,1.83823275 2.37315925,2.07542407 1.29171959,2.56463117 C1.17155963,2.623929 1.05139967,2.65357792 0.91621971,2.65357792 L0.91621971,2.65357792 Z" fill="#324A7B"></path>
                        </g>
                        <g transform="translate(41.154787, 45.955819)" id="Shape">
                            <path d="M0.976299691,3.20208285 C1.81741942,2.2384931 2.82375911,1.51209468 3.92021876,1.02288758" fill="#9AB6E0"></path>
                            <path d="M0.976299691,4.09155031 C0.766019757,4.09155031 0.555739824,4.01742802 0.390519876,3.86918344 C0.0150199952,3.54304538 -0.0300399905,2.97971599 0.300399905,2.60910454 C1.20159962,1.57139251 2.29805927,0.770871797 3.54471888,0.207542407 C3.99531873,-4.67653694e-13 4.53603856,0.192717949 4.7463185,0.652276136 C4.95659843,1.09700987 4.76133849,1.63069034 4.29571864,1.83823275 C3.28937896,2.29779093 2.38817924,2.95006707 1.65219948,3.79506116 C1.48697953,3.98777911 1.23163961,4.09155031 0.976299691,4.09155031 L0.976299691,4.09155031 Z" fill="#324A7B"></path>
                        </g>
                        <g transform="translate(39.051988, 52.775069)" id="Shape">
                            <path d="M1.92146178,4.06190139 C0.932144756,3.05383827 0.699364281,2.00130178 1.22312035,0.978414204" fill="#9AB6E0"></path>
                            <path d="M1.20159962,4.95136885 C0.796059748,4.95136885 0.420559867,4.68452861 0.330439895,4.2694438 C0.060079981,3.15760948 -0.0150199952,2.01612624 0.120159962,0.874643001 C0.180239943,0.385435899 0.6308398,0.0444733729 1.12649964,0.103771203 C1.62215949,0.163069034 1.96761938,0.607802763 1.9075394,1.09700987 C1.78737943,2.0309507 1.84745941,2.95006707 2.07275934,3.86918344 C2.19291931,4.34356609 1.8925194,4.83277319 1.41187955,4.93654439 C1.33677958,4.93654439 1.2616796,4.95136885 1.20159962,4.95136885 L1.20159962,4.95136885 Z" fill="#324A7B"></path>
                        </g>
                        <g transform="translate(41.304987, 59.594320)" id="Shape">
                            <path d="M9.67287693,3.498572 C6.96927779,4.21014597 3.96527874,3.63199212 1.69725946,1.68998817 C1.42689955,1.45279685 1.17155963,1.20078107 0.931239705,0.948765289" fill="#9AB6E0"></path>
                            <path d="M7.40485765,4.68452861 C5.12181838,4.68452861 2.88383909,3.8840079 1.11147965,2.35708876 C0.811079743,2.10507298 0.525699833,1.82340829 0.270359914,1.54174359 C-0.060079981,1.17113215 -0.0300399905,0.607802763 0.330439895,0.281664695 C0.705939776,-0.0444733729 1.2766996,-0.0148244576 1.60713949,0.340962526 C1.81741942,0.578153848 2.05773935,0.800520713 2.29805927,1.00806312 C4.26567865,2.68322683 6.9392378,3.2910296 9.44757701,2.63875346 C9.92821685,2.50533334 10.4238767,2.78699804 10.5440367,3.26138068 C10.6792166,3.73576333 10.3938367,4.22497043 9.91319686,4.34356609 C9.07207712,4.58075741 8.23095739,4.68452861 7.40485765,4.68452861 L7.40485765,4.68452861 Z" fill="#324A7B"></path>
                        </g>
                        <path d="M54.2522228,54.7911954 C54.2522228,57.8005603 51.7739236,60.2465958 48.7248646,60.2465958 C45.6607855,60.2465958 43.1975063,57.8005603 43.1975063,54.7911954 C43.1975063,51.7818305 45.6758055,49.335795 48.7248646,49.335795 C51.7739236,49.335795 54.2522228,51.7818305 54.2522228,54.7911954 L54.2522228,54.7911954 Z" id="Shape" fill="#9AB6E0"></path>
                        <path d="M48.7098446,61.1508878 C45.1651257,61.1508878 42.2812866,58.3045919 42.2812866,54.8060199 C42.2812866,51.3074479 45.1651257,48.461152 48.7098446,48.461152 C52.2545634,48.461152 55.1384025,51.3074479 55.1384025,54.8060199 C55.1384025,58.3045919 52.2545634,61.1508878 48.7098446,61.1508878 L48.7098446,61.1508878 Z M48.7098446,50.2252625 C46.1564454,50.2252625 44.083686,52.2710376 44.083686,54.7911954 C44.083686,57.3113532 46.1564454,59.3571284 48.7098446,59.3571284 C51.2632438,59.3571284 53.3360031,57.3113532 53.3360031,54.7911954 C53.3360031,52.2710376 51.2632438,50.2252625 48.7098446,50.2252625 L48.7098446,50.2252625 Z" id="Shape" fill="#324A7B"></path>
                        <path d="M48.7098446,49.5581619 C45.7809455,49.5581619 43.4077862,51.9004262 43.4077862,54.7911954 C43.4077862,57.6819647 45.7809455,60.024229 48.7098446,60.024229 C51.6387436,60.024229 54.0119029,57.6819647 54.0119029,54.7911954 C54.0119029,51.9004262 51.6387436,49.5581619 48.7098446,49.5581619 L48.7098446,49.5581619 Z" id="Shape" fill="#9AB6E0"></path>
                        <path d="M48.7098446,60.9136964 C45.2852856,60.9136964 42.5065865,58.1711718 42.5065865,54.7911954 C42.5065865,51.4112191 45.2852856,48.6686944 48.7098446,48.6686944 C52.1344035,48.6686944 54.9131026,51.4112191 54.9131026,54.7911954 C54.9131026,58.1711718 52.1344035,60.9136964 48.7098446,60.9136964 L48.7098446,60.9136964 Z M48.7098446,50.4476293 C46.2766053,50.4476293 44.308986,52.3896333 44.308986,54.7911954 C44.308986,57.1927576 46.2916253,59.1347615 48.7098446,59.1347615 C51.1280638,59.1347615 53.1107032,57.1779331 53.1107032,54.7911954 C53.1107032,52.4044578 51.1430838,50.4476293 48.7098446,50.4476293 L48.7098446,50.4476293 Z" id="Shape" fill="#324A7B"></path>
                        <path d="M54.0119029,54.7911954 C54.0119029,57.6819647 51.6387436,60.024229 48.7098446,60.024229 L48.7098446,54.7911954 L54.0119029,54.7911954 L54.0119029,54.7911954 Z" id="Shape" fill="#FFFFFF"></path>
                        <path d="M48.7098446,60.9136964 C48.2141847,60.9136964 47.8086448,60.5134361 47.8086448,60.024229 L47.8086448,54.7911954 C47.8086448,54.3019883 48.2141847,53.901728 48.7098446,53.901728 L54.0119029,53.901728 C54.5075627,53.901728 54.9131026,54.3019883 54.9131026,54.7911954 C54.9131026,58.1711718 52.1344035,60.9136964 48.7098446,60.9136964 L48.7098446,60.9136964 Z M49.6110443,55.6806629 L49.6110443,59.0458148 C51.3083037,58.6900278 52.6601033,57.3706511 53.0205832,55.6806629 L49.6110443,55.6806629 L49.6110443,55.6806629 Z" id="Shape" fill="#324A7B"></path>
                        <path d="M48.7098446,54.7911954 L48.7098446,60.024229 C45.7809455,60.024229 43.4077862,57.6819647 43.4077862,54.7911954 L48.7098446,54.7911954 L48.7098446,54.7911954 Z" id="Shape" fill="#FFFFFF"></path>
                        <path d="M48.7098446,60.9136964 C45.2852856,60.9136964 42.5065865,58.1711718 42.5065865,54.7911954 C42.5065865,54.3019883 42.9121264,53.901728 43.4077862,53.901728 L48.7098446,53.901728 C49.2055044,53.901728 49.6110443,54.3019883 49.6110443,54.7911954 L49.6110443,60.024229 C49.6110443,60.5282605 49.2055044,60.9136964 48.7098446,60.9136964 L48.7098446,60.9136964 Z M44.3991059,55.6806629 C44.7595858,57.3706511 46.1113854,58.7048523 47.8086448,59.0458148 L47.8086448,55.6806629 L44.3991059,55.6806629 L44.3991059,55.6806629 Z" id="Shape" fill="#324A7B"></path>
                        <path d="M48.7098446,49.5581619 L48.7098446,54.7911954 L43.4077862,54.7911954 C43.4077862,51.9004262 45.7809455,49.5581619 48.7098446,49.5581619 L48.7098446,49.5581619 Z" id="Shape" fill="#FFFFFF"></path>
                        <path d="M48.7098446,55.6806629 L43.4077862,55.6806629 C42.9121264,55.6806629 42.5065865,55.2804025 42.5065865,54.7911954 C42.5065865,51.4112191 45.2852856,48.6686944 48.7098446,48.6686944 C49.2055044,48.6686944 49.6110443,49.0689548 49.6110443,49.5581619 L49.6110443,54.7911954 C49.6110443,55.2804025 49.2055044,55.6806629 48.7098446,55.6806629 L48.7098446,55.6806629 Z M44.3991059,53.901728 L47.8086448,53.901728 L47.8086448,50.5514006 C46.1113854,50.8923631 44.7595858,52.2265643 44.3991059,53.901728 L44.3991059,53.901728 Z" id="Shape" fill="#324A7B"></path>
                        <path d="M54.0119029,54.7911954 L48.7098446,54.7911954 L48.7098446,49.5581619 C51.6387436,49.5581619 54.0119029,51.9004262 54.0119029,54.7911954 L54.0119029,54.7911954 Z" id="Shape" fill="#FFFFFF"></path>
                        <path d="M54.0119029,55.6806629 L48.7098446,55.6806629 C48.2141847,55.6806629 47.8086448,55.2804025 47.8086448,54.7911954 L47.8086448,49.5581619 C47.8086448,49.0689548 48.2141847,48.6686944 48.7098446,48.6686944 C52.1344035,48.6686944 54.9131026,51.4112191 54.9131026,54.7911954 C54.9131026,55.2804025 54.5075627,55.6806629 54.0119029,55.6806629 L54.0119029,55.6806629 Z M49.6110443,53.901728 L53.0205832,53.901728 C52.6601033,52.2265643 51.3233237,50.8923631 49.6110443,50.5365761 L49.6110443,53.901728 L49.6110443,53.901728 Z" id="Shape" fill="#324A7B"></path>
                        <path d="M19.1955539,68.8299568 L58.2625615,68.8299568" id="Shape" fill="#9AB6E0"></path>
                        <path d="M58.2625615,69.7194243 L19.1955539,69.7194243 C18.6998941,69.7194243 18.2943542,69.3191639 18.2943542,68.8299568 C18.2943542,68.3407497 18.6998941,67.9404894 19.1955539,67.9404894 L58.2625615,67.9404894 C58.7582214,67.9404894 59.1637612,68.3407497 59.1637612,68.8299568 C59.1637612,69.3191639 58.7582214,69.7194243 58.2625615,69.7194243 L58.2625615,69.7194243 Z" id="Shape" fill="#324A7B"></path>
                        <path d="M70.6690776,68.8299568 L73.9734766,68.8299568" id="Shape" fill="#9AB6E0"></path>
                        <path d="M73.9734766,69.7194243 L70.6690776,69.7194243 C70.1734178,69.7194243 69.7678779,69.3191639 69.7678779,68.8299568 C69.7678779,68.3407497 70.1734178,67.9404894 70.6690776,67.9404894 L73.9734766,67.9404894 C74.4691364,67.9404894 74.8746763,68.3407497 74.8746763,68.8299568 C74.8746763,69.3191639 74.4691364,69.7194243 73.9734766,69.7194243 L73.9734766,69.7194243 Z" id="Shape" fill="#324A7B"></path>
                        <path d="M60.8610207,68.8299568 L68.0255584,68.8299568" id="Shape" fill="#9AB6E0"></path>
                        <path d="M68.0255584,69.7194243 L60.8610207,69.7194243 C60.3653609,69.7194243 59.959821,69.3191639 59.959821,68.8299568 C59.959821,68.3407497 60.3653609,67.9404894 60.8610207,67.9404894 L68.0255584,67.9404894 C68.5212183,67.9404894 68.9267582,68.3407497 68.9267582,68.8299568 C68.9267582,69.3191639 68.5212183,69.7194243 68.0255584,69.7194243 L68.0255584,69.7194243 Z" id="Shape" fill="#324A7B"></path>
                    </g>
                </g>
            </g>
        </g>
    </g>
</svg>