<?xml version="1.0" encoding="UTF-8"?>
<svg width="400px" height="400px" viewBox="0 0 400 400" version="1.1" xmlns="http://www.w3.org/2000/svg" xmlns:xlink="http://www.w3.org/1999/xlink">
    <!-- Generator: Sketch 42 (36781) - http://www.bohemiancoding.com/sketch -->
    <title>recrutement-creche</title>
    <desc>Created with Sketch.</desc>
    <defs></defs>
    <g id="Home" stroke="none" stroke-width="1" fill="none" fill-rule="evenodd">
        <g id="recrutement-creche">
            <g transform="translate(50.000000, 31.000000)">
                <path d="M49.2188878,223.501478 C48.9811519,232.356623 59.9715194,245.270525 64.0511619,248.356409 L49.2188878,223.501478 Z" id="Fill-27" fill="#F7CDB2"></path>
                <path d="M63.4652532,266.800036 C69.0240417,273.693633 85.7587984,276.386551 90.863863,276.086609 L63.4652532,266.800036 Z" id="Fill-29" fill="#F7CDB2"></path>
                <path d="M241.099186,196.499099 C240.447051,201.087674 237.524211,211.290173 230.353704,221.496249 C230.341787,221.511157 230.329871,221.528748 230.317954,221.543954 L230.386177,219.993558 C230.386177,206.815194 227.23424,194.37297 221.645362,183.377086 C219.765819,179.680286 217.60862,176.143893 215.20147,172.801896 C214.403357,171.692766 213.580814,170.60421 212.725799,169.539803 C196.480516,168.538307 176.705243,167.950946 155.371281,167.950946 C128.323615,167.950946 103.775452,168.896091 85.757577,170.428598 C85.2004767,171.147146 84.6523138,171.877621 84.1190467,172.614059 C81.8787289,175.708888 79.8499305,178.970682 78.0594638,182.37231 C72.1428798,193.612679 68.7975968,206.412687 68.7975968,219.993558 C68.7975968,220.479547 68.8032572,220.959276 68.8151738,221.442284 C61.6714796,211.254394 58.7605561,201.081413 58.105144,196.499099 C58.105144,196.499099 49.2451639,203.717384 49.2335452,223.183796 L49.2335452,223.219276 C49.2335452,223.320946 49.2335452,223.425299 49.2362264,223.529355 L49.2362264,223.532635 C49.2362264,223.917252 49.2421847,224.307832 49.2511221,224.69245 L49.2511221,224.716302 C49.5758491,239.644825 54.7506256,254.164579 63.5867726,266.842344 C63.7059384,267.015273 63.8251043,267.181941 63.9472493,267.354869 L63.9502284,267.357851 C63.9532075,267.361131 63.9532075,267.364112 63.9564846,267.366796 C66.1965045,270.533479 68.6662165,273.583286 71.350427,276.493558 C77.5887587,283.270278 84.9740616,289.290286 93.2590665,294.260497 C96.5837934,296.251861 100.04854,298.076558 103.644369,299.7164 C105.065422,300.363392 106.510308,300.98355 107.970089,301.570912 C109.596703,302.226848 111.244171,302.844323 112.915472,303.41946 C113.412989,303.595371 113.913486,303.762635 114.417259,303.926619 C115.823118,304.391439 117.244171,304.826743 118.680119,305.235212 C120.321629,305.700629 121.983992,306.12669 123.664528,306.514289 C124.266018,306.657701 124.868103,306.791869 125.475849,306.920075 C126.962145,307.239099 128.460655,307.528307 129.971082,307.784719 C131.606931,308.062001 133.260357,308.306487 134.925402,308.509231 C139.295809,309.04859 143.761847,309.32617 148.310705,309.32617 C153.744667,309.32617 159.089553,308.926347 164.311698,308.166057 C165.982999,307.921869 167.642681,307.641606 169.286872,307.325563 L169.286872,307.322284 C170.782701,307.036057 172.268997,306.720313 173.740695,306.371474 C174.241192,306.254896 174.741688,306.135933 175.239503,306.010708 C176.916763,305.590313 178.575849,305.13384 180.217656,304.642186 C181.64139,304.215529 183.053505,303.762635 184.447746,303.279627 C184.775452,303.16931 185.100179,303.056012 185.424906,302.939732 C187.093525,302.349389 188.740695,301.719988 190.367309,301.055405 C191.836326,300.456117 193.286872,299.827015 194.719841,299.168096 C198.416961,297.465642 201.982999,295.578334 205.406038,293.517798 C213.244171,288.804297 220.313684,283.198722 226.388163,276.934526 L226.391142,276.934526 C241.072373,261.80326 249.971082,242.819856 249.971082,223.219276 C249.971082,203.72603 241.099186,196.499099 241.099186,196.499099" id="Fill-31" fill="#F7CDB2"></path>
                <path d="M241.099186,196.499099 C240.447051,201.087674 237.524211,211.290173 230.353704,221.496249 C230.341787,221.511157 230.329871,221.528748 230.317954,221.543954 L230.386177,219.993558 C230.386177,206.815194 227.23424,194.37297 221.645362,183.377086 C219.765819,179.680286 217.60862,176.143893 215.20147,172.801896 C214.403357,171.692766 213.580814,170.60421 212.725799,169.539803 C196.480516,168.538307 176.705243,167.950946 155.371281,167.950946 C128.323615,167.950946 103.775452,168.896091 85.757577,170.428598 C85.2004767,171.147146 84.6523138,171.877621 84.1190467,172.614059 C81.8787289,175.708888 79.8499305,178.970682 78.0594638,182.37231 C72.1428798,193.612679 68.7975968,206.412687 68.7975968,219.993558 C68.7975968,220.479547 68.8032572,220.959276 68.8151738,221.442284 C61.6714796,211.254394 58.7605561,201.081413 58.105144,196.499099 C58.105144,196.499099 49.2451639,203.717384 49.2335452,223.183796 L49.2335452,223.219276 C49.2335452,223.320946 49.2335452,223.425299 49.2362264,223.529355 L49.2362264,223.532635 C49.2362264,223.917252 49.2421847,224.307832 49.2511221,224.69245 L49.2511221,224.716302 C49.5758491,239.644825 54.7506256,254.164579 63.5867726,266.842344 C63.7059384,267.015273 63.8251043,267.181941 63.9472493,267.354869 L63.9502284,267.357851 C63.9532075,267.361131 63.9532075,267.364112 63.9564846,267.366796 C66.1965045,270.533479 68.6662165,273.583286 71.350427,276.493558 C77.5887587,283.270278 84.9740616,289.290286 93.2590665,294.260497 C96.5837934,296.251861 100.04854,298.076558 103.644369,299.7164 C105.065422,300.363392 106.510308,300.98355 107.970089,301.570912 C109.596703,302.226848 111.244171,302.844323 112.915472,303.41946 C113.412989,303.595371 113.913486,303.762635 114.417259,303.926619 C115.823118,304.391439 117.244171,304.826743 118.680119,305.235212 C120.321629,305.700629 121.983992,306.12669 123.664528,306.514289 C124.266018,306.657701 124.868103,306.791869 125.475849,306.920075 C126.962145,307.239099 128.460655,307.528307 129.971082,307.784719 C131.606931,308.062001 133.260357,308.306487 134.925402,308.509231 C139.295809,309.04859 143.761847,309.32617 148.310705,309.32617 C153.744667,309.32617 159.089553,308.926347 164.311698,308.166057 C165.982999,307.921869 167.642681,307.641606 169.286872,307.325563 L169.286872,307.322284 C170.782701,307.036057 172.268997,306.720313 173.740695,306.371474 C174.241192,306.254896 174.741688,306.135933 175.239503,306.010708 C176.916763,305.590313 178.575849,305.13384 180.217656,304.642186 C181.64139,304.215529 183.053505,303.762635 184.447746,303.279627 C184.775452,303.16931 185.100179,303.056012 185.424906,302.939732 C187.093525,302.349389 188.740695,301.719988 190.367309,301.055405 C191.836326,300.456117 193.286872,299.827015 194.719841,299.168096 C198.416961,297.465642 201.982999,295.578334 205.406038,293.517798 C213.244171,288.804297 220.313684,283.198722 226.388163,276.934526 L226.391142,276.934526 C241.072373,261.80326 249.971082,242.819856 249.971082,223.219276 C249.971082,203.72603 241.099186,196.499099 241.099186,196.499099" id="Fill-33" fill="#F7CDB2"></path>
                <path d="M68.8157994,221.442641 C68.8283118,221.460232 68.8405263,221.479911 68.8530387,221.497502 C72.5784608,226.801048 77.4520457,232.104594 83.7550248,236.623103 L68.8157994,221.442641 Z" id="Fill-35" fill="#F7CDB2"></path>
                <path d="M215.450586,236.623103 C221.733605,232.117116 226.597061,226.833248 230.317418,221.544908 L215.450586,236.623103 Z" id="Fill-37" fill="#F7CDB2"></path>
                <path d="M234.900566,248.674717 C238.980209,245.588535 249.970576,232.675229 249.73284,223.819786 L234.900566,248.674717 Z" id="Fill-39" fill="#F7CDB2"></path>
                <path d="M64.0514896,248.356767 C60.1517875,245.405052 49.9333168,233.472967 49.2510924,224.695342 L49.2510924,224.69236 C49.2183217,224.286872 49.2064052,223.890031 49.2183217,223.50273 L49.2364945,223.529265 L49.2364945,223.532545 L64.0514896,248.356767 Z" id="Fill-41" fill="#F7CDB2"></path>
                <path d="M90.8638034,276.087921 C85.9005462,276.377129 69.9501986,273.842828 63.9564548,267.366945 C63.9531778,267.363963 63.9531778,267.360982 63.9501986,267.358 L63.9472195,267.355018 C63.7774081,267.173145 63.6165343,266.98829 63.4645978,266.800454 L63.5867428,266.842195 L90.8638034,276.087921 Z" id="Fill-43" fill="#F7CDB2"></path>
                <path d="M49.2363456,223.532635 C49.2363456,223.917252 49.2423039,224.307832 49.2512413,224.69245 L49.2512413,224.695133 C49.9334657,233.473057 60.1519364,245.404843 64.0513406,248.356856 L49.2363456,223.532635 Z M83.75571,236.624236 L68.8152929,221.442284 C68.8272095,221.460471 68.8421053,221.481044 68.8540218,221.496249 C72.5779543,226.800392 77.4518371,232.104534 83.75571,236.624236 L83.75571,236.624236 Z M63.9473684,267.354869 L63.9503476,267.357851 C63.9530288,267.361131 63.9530288,267.364112 63.9563059,267.367094 C69.9500497,273.842679 85.9003972,276.37698 90.8636544,276.08807 L63.5868918,266.842344 C63.7057597,267.015273 63.8252234,267.181941 63.9473684,267.354869 L63.9473684,267.354869 Z M230.317776,221.543954 L215.451837,236.624236 C221.734856,232.11646 226.596822,226.832891 230.317776,221.543954 L230.317776,221.543954 Z M234.899702,248.67588 C238.981132,245.589698 249.971202,232.673708 249.73287,223.818861 L234.899702,248.67588 Z" id="Fill-45" fill="#F7CDB2"></path>
                <path d="M49.2363456,223.532635 C49.2363456,223.917252 49.2423039,224.307832 49.2512413,224.69245 L49.2512413,224.695133 C49.9334657,233.473057 60.1519364,245.404843 64.0513406,248.356856 L49.2363456,223.532635 Z M83.75571,236.624236 L68.8152929,221.442284 C68.8272095,221.460471 68.8421053,221.481044 68.8540218,221.496249 C72.5779543,226.800392 77.4518371,232.104534 83.75571,236.624236 L83.75571,236.624236 Z M63.9473684,267.354869 L63.9503476,267.357851 C63.9530288,267.361131 63.9530288,267.364112 63.9563059,267.367094 C69.9500497,273.842679 85.9003972,276.37698 90.8636544,276.08807 L63.5868918,266.842344 C63.7057597,267.015273 63.8252234,267.181941 63.9473684,267.354869 L63.9473684,267.354869 Z M230.317776,221.543954 L215.451837,236.624236 C221.734856,232.11646 226.596822,226.832891 230.317776,221.543954 L230.317776,221.543954 Z M234.899702,248.67588 C238.981132,245.589698 249.971202,232.673708 249.73287,223.818861 L234.899702,248.67588 Z" id="Fill-47" fill="#F7CDB2"></path>
                <path d="M83.7557398,236.624266 C77.4518669,232.104564 72.5776862,226.800422 68.8537537,221.496279 C68.8418371,221.481073 68.8272393,221.460501 68.8153227,221.442313 L83.7557398,236.624266 Z" id="Fill-49" fill="#F7CDB2"></path>
                <path d="M230.317805,221.543954 C226.596852,226.832891 221.734588,232.11646 215.451867,236.624236 L230.317805,221.543954 Z" id="Fill-51" fill="#F7CDB2"></path>
                <path d="M249.73287,223.818832 C249.971202,232.673679 238.981132,245.589966 234.899702,248.67585 L249.73287,223.818832 Z" id="Fill-53" fill="#F7CDB2"></path>
                <path d="M205.404697,293.51911 C200.658322,296.375118 195.630417,298.904648 190.368352,301.055524 C187.074012,302.40407 183.684638,303.605329 180.218103,304.642007 C176.654449,305.711482 173.006485,306.61101 169.286127,307.323894 L169.286127,307.326279 C162.502314,308.631891 155.484935,309.325097 148.310556,309.327482 C142.029623,309.325097 135.901221,308.794086 129.971827,307.784838 C126.121877,307.1292 122.354151,306.274395 118.680864,305.235332 C115.010258,304.193585 111.436773,302.969667 107.970238,301.571627 C102.813039,299.495588 97.89715,297.040894 93.2601092,294.259126 C102.307478,280.990421 124.119593,271.636764 149.592781,271.636764 C174.587815,271.636764 196.0615,280.643968 205.404697,293.51911" id="Fill-55" fill="#F8AE81"></path>
                <path id="Fill-57" fill="#32527D"></path>
                <path d="M91.6539921,333.916789 C88.9036445,333.916789 86.6734558,331.685412 86.6734558,328.932266 C86.6734558,316.893741 93.300864,306.126541 105.334528,298.613979 C107.668689,297.157203 110.740487,297.869789 112.196395,300.204923 C113.652006,302.540953 112.940288,305.615507 110.606425,307.072879 C104.232542,311.051433 96.6348262,318.073533 96.6348262,328.932266 C96.6348262,331.685412 94.4046375,333.916789 91.6539921,333.916789" id="Fill-59" fill="#32527D"></path>
                <path d="M112.572304,338.92892 C109.821658,338.92892 107.59147,336.697543 107.59147,333.944398 C107.59147,320.973846 111.175978,310.701878 114.182532,304.368213 C115.36287,301.882213 118.332781,300.821981 120.818282,302.004456 C123.303188,303.186335 124.360189,306.159517 123.179553,308.646113 C120.612721,314.053118 117.55284,322.832234 117.55284,333.944398 C117.55284,336.697543 115.322949,338.92892 112.572304,338.92892" id="Fill-61" fill="#32527D"></path>
                <path d="M131.328977,333.916789 C128.578332,333.916789 126.348441,331.685412 126.348441,328.932266 C126.348441,321.747971 125.911996,315.320686 125.051619,309.829005 C124.625303,307.109551 126.4828,304.558554 129.200079,304.132195 C131.917061,303.710905 134.466316,305.564522 134.892334,308.283976 C135.832552,314.285797 136.309513,321.232166 136.309513,328.932266 C136.309513,331.685412 134.079623,333.916789 131.328977,333.916789" id="Fill-63" fill="#32527D"></path>
                <path d="M207.53142,333.916789 C204.780775,333.916789 202.550884,331.685412 202.550884,328.932266 C202.550884,317.741391 194.53996,310.616427 187.819603,306.609251 C185.455948,305.200478 184.681668,302.141129 186.089315,299.776179 C187.498153,297.410931 190.556246,296.637821 192.917219,298.044805 C205.552969,305.578237 212.511956,316.547586 212.511956,328.932266 C212.511956,331.685412 210.282066,333.916789 207.53142,333.916789" id="Fill-65" fill="#32527D"></path>
                <path d="M186.613078,338.92892 C183.862433,338.92892 181.632542,336.697543 181.632542,333.944398 C181.632542,322.550778 178.430258,313.602907 175.743664,308.10258 C174.535621,305.629102 175.559553,302.644591 178.030755,301.43558 C180.50434,300.227464 183.484677,301.252216 184.692721,303.724501 C187.840785,310.170271 191.593615,320.645282 191.593615,333.944398 C191.593615,336.697543 189.363724,338.92892 186.613078,338.92892" id="Fill-67" fill="#32527D"></path>
                <path d="M167.856703,333.916789 C165.106058,333.916789 162.875869,331.685412 162.875869,328.932266 C162.875869,321.031211 163.378749,313.921454 164.369613,307.800074 C164.809633,305.082707 167.368123,303.235947 170.082721,303.677512 C172.797915,304.117884 174.642304,306.677826 174.202582,309.395193 C173.296326,314.990332 172.837239,321.563414 172.837239,328.932266 C172.837239,331.685412 170.607349,333.916789 167.856703,333.916789" id="Fill-69" fill="#32527D"></path>
                <path d="M94.0370109,217.522674 C93.5269811,217.522674 93.0092056,217.406693 92.5221152,217.1634 C90.8463456,216.324696 90.1668024,214.285031 91.0048361,212.607622 C92.5864647,209.441833 96.0664052,207.527988 100.552105,207.35506 C104.822115,207.186603 110.427676,208.692276 112.637905,212.378938 C113.601956,213.986878 113.080904,216.073054 111.47425,217.037878 C109.867895,218.000912 107.783386,217.481231 106.819037,215.872994 C106.460645,215.290999 103.966504,214.000593 100.75141,214.144004 C98.9046375,214.226294 97.4955015,214.801134 97.0742502,215.64431 C96.4796127,216.834239 95.2816981,217.522674 94.0370109,217.522674" id="Fill-71" fill="#32527D"></path>
                <path d="M205.149265,217.522674 C203.904578,217.522674 202.706663,216.834239 202.111728,215.64431 C201.690477,214.801134 200.281936,214.226294 198.434866,214.144004 C195.225432,213.989859 192.725631,215.290999 192.366643,215.87359 C191.387398,217.462149 189.299613,217.979445 187.705174,217.009553 C186.110735,216.038767 185.588491,213.979722 186.548073,212.378938 C188.757706,208.692872 194.361182,207.187796 198.634171,207.35506 C203.119871,207.527988 206.600109,209.441833 208.181738,212.607622 C209.018878,214.285031 208.33993,216.324696 206.663863,217.1634 C206.177071,217.406693 205.659295,217.522674 205.149265,217.522674" id="Fill-73" fill="#32527D"></path>
                <path d="M49.0580139,220.028144 C49.0580139,232.616463 57.8056802,247.854468 68.658709,251.829743" id="Stroke-75" stroke="#32527D" stroke-width="8.82571996" stroke-linecap="round"></path>
                <path d="M249.81143,220.028144 C249.81143,232.616463 241.063764,247.854468 230.210735,251.829743" id="Stroke-77" stroke="#32527D" stroke-width="8.82571996" stroke-linecap="round"></path>
                <path d="M211.654201,277.295083 C216.042781,278.644225 221.24139,278.377378 226.391142,276.935212" id="Stroke-79" stroke="#32527D" stroke-width="8.82571996" stroke-linecap="round"></path>
                <path d="M71.351857,276.493498 C76.9693347,278.313425 82.7458987,278.77258 87.5515591,277.294934" id="Stroke-81" stroke="#32527D" stroke-width="8.82571996" stroke-linecap="round"></path>
                <path d="M137.437686,256.304423 C122.642354,258.786547 123.663009,285.024015 123.663009,285.024015 C123.663009,285.024015 129.387736,279.65726 130.781678,282.042484 C132.175621,284.427708 130.860626,295.34965 133.90144,297.342803 L143.403128,290.482302 L153.680884,297.858012 C153.680884,297.858012 168.269464,290.870497 168.571847,283.268191 C168.571847,283.268191 175.343148,290.423268 175.236495,293.553875 C175.236495,293.553875 187.295482,254.923677 162.170854,255.297561" id="Fill-83" fill="#FFFFFF"></path>
                <path d="M137.437686,256.304423 C122.642354,258.786547 123.663009,285.024015 123.663009,285.024015 C123.663009,285.024015 129.387736,279.65726 130.781678,282.042484 C132.175621,284.427708 130.860626,295.34965 133.90144,297.342803 L143.403128,290.482302 L153.680884,297.858012 C153.680884,297.858012 168.269464,290.870497 168.571847,283.268191 C168.571847,283.268191 175.343148,290.423268 175.236495,293.553875 C175.236495,293.553875 187.295482,254.923677 162.170854,255.297561" id="Stroke-85" stroke="#32527D" stroke-width="5.95829196" stroke-linecap="round" stroke-linejoin="round"></path>
                <path d="M161.100387,238.690675 C161.082214,238.765213 161.067617,238.839752 161.049444,238.917272 C161.094131,238.803973 161.13286,238.690675 161.171589,238.580359 C161.151033,238.616137 161.1272,238.654897 161.100387,238.690675 M161.171589,238.580359 C161.374469,238.261335 161.493337,237.930385 161.523426,237.590491 C161.409921,237.92144 161.291053,238.252092 161.171589,238.580359 M137.824022,238.353762 C137.815382,238.32991 137.806445,238.309039 137.800189,238.29115 C137.722731,238.079461 137.648252,237.864493 137.571092,237.644158 C137.600586,237.888644 137.675065,238.126868 137.794528,238.359725 C137.806445,238.389541 137.824022,238.422337 137.844876,238.458116 C137.839215,238.425021 137.830278,238.389541 137.824022,238.353762 M137.558878,237.420543 C137.558878,236.597343 137.267219,235.846295 136.781321,235.255654 C137.034846,236.060965 137.299692,236.857034 137.571092,237.644158 C137.565134,237.56962 137.558878,237.495082 137.558878,237.420543" id="Fill-87" fill="#FFFFFF"></path>
                <path d="M149.499444,257.671157 C148.173724,257.671157 146.925462,256.937701 145.855948,255.96274 C144.714935,254.931131 143.776504,253.627904 143.162502,252.661888 C142.286931,251.278756 141.470645,249.686619 140.728838,247.909627 C139.584846,245.166619 138.610665,241.985326 137.845025,238.458175 C137.824171,238.422099 137.806296,238.3896 137.794379,238.359487 C137.719901,238.201466 137.740755,238.162706 137.80004,238.29121 C137.806296,238.309099 137.815233,238.32997 137.824171,238.353822 C137.845025,238.416434 137.865879,238.472785 137.886733,238.529732 C139.215134,242.211624 140.761609,245.643365 142.447805,248.347613 C144.625561,251.838985 147.032711,254.120154 149.499444,254.164579 L149.576902,254.164579 C152.043635,254.120154 154.450785,251.841967 156.625561,248.350595 C158.252175,245.750999 159.741748,242.473999 161.040655,238.953109 C160.891698,239.501711 159.294876,245.443603 158.255154,247.939144 C157.516326,249.70421 156.705998,251.287701 155.833108,252.661888 C155.281966,253.529513 154.462701,254.677701 153.470645,255.652363 C152.332612,256.773418 150.962205,257.671157 149.499444,257.671157 M142.704012,220.371914 C144.869851,216.770226 147.473625,214.531394 149.499444,214.531394 C151.587825,214.531394 154.36141,216.832838 156.568659,220.393083 C158.65138,223.756249 160.137974,227.921447 160.897656,232.447112 C158.252175,237.372898 155.901629,238.553584 154.036385,240.235168 C151.272036,242.727727 149.576902,242.587297 149.576902,242.587297 C149.576902,242.587297 147.863893,242.727727 145.08435,240.237851 C143.228342,238.577437 140.892691,237.438492 138.268064,232.59917 C139.167766,227.948281 140.693088,223.717191 142.704012,220.371914 M168.217418,237.265563 C168.205501,236.991263 168.190606,236.716962 168.172731,236.445642 C167.207488,220.801553 158.767567,207.73917 149.499444,207.73917 C144.905601,207.73917 140.427944,210.983075 136.888719,216.868616 C135.756643,218.758906 134.752671,220.864165 133.900636,223.12983 C133.888719,223.159943 133.876802,223.189759 133.867865,223.222555 C132.303813,227.396698 131.243237,232.113181 130.799047,237.024059 C130.793386,237.053875 130.790407,237.083392 130.787428,237.113505 C130.784449,237.146004 130.78147,237.179099 130.78147,237.211896 L130.78147,237.223822 C130.778491,237.253637 130.778491,237.283154 130.778491,237.315951 C130.775511,237.328175 130.775511,237.340102 130.778491,237.352028 C130.775511,237.372898 130.775511,237.396751 130.775511,237.420603 L130.775511,237.489178 C130.775511,237.536883 130.775511,237.587569 130.78147,237.635273 C130.790407,237.778088 130.811261,237.9215 130.835094,238.064315 C131.010864,238.962054 131.195571,239.844587 131.394876,240.708933 C132.750685,246.633234 134.684151,251.749838 137.046614,255.67055 L137.049593,255.673532 C137.177696,255.888202 137.305799,256.096909 137.436882,256.305616 C141.723873,263.046558 146.359424,264.462785 149.499444,264.462785 C152.636485,264.462785 157.272036,263.046558 161.558729,256.305616 C161.764588,255.97735 161.970149,255.643418 162.169752,255.30084 L162.169752,255.297859 C164.368361,251.538149 166.176405,246.731922 167.484548,241.204165 C167.484548,241.204165 167.484548,241.201183 167.487527,241.198202 C167.728838,240.178518 167.952274,239.131703 168.160814,238.064315 C168.196564,237.873796 168.217418,237.685959 168.220397,237.489178 C168.223376,237.41464 168.220397,237.340102 168.217418,237.265563" id="Fill-89" fill="#32527D"></path>
                <path d="M161.045392,238.933521 C160.943505,239.312473 159.312423,245.405827 158.253932,247.938041 C157.516594,249.704896 156.705074,251.28779 155.833376,252.660785 C154.643208,254.532291 152.237547,257.670352 149.497925,257.670352 C146.758898,257.670352 144.353237,254.532291 143.163069,252.660785 C142.286306,251.280038 141.472105,249.687304 140.73,247.908225 C139.584518,245.16641 138.610636,241.983925 137.846187,238.45737 C137.696634,238.193207 137.739235,238.120756 137.823843,238.355402 C137.846187,238.415033 137.865849,238.472278 137.886107,238.529822 C139.215998,242.210521 140.762175,245.64256 142.448073,248.349194 C144.624638,251.83818 147.032681,254.121138 149.500606,254.166159 L149.575382,254.166159 C152.043009,254.121138 154.451351,251.840864 156.625233,248.351579 C158.253932,245.744827 159.748272,242.46246 161.045392,238.933521" id="Fill-91" fill="#FFFFFF"></path>
                <path d="M160.896137,232.446069 C158.251549,237.373047 155.900407,238.55433 154.035462,240.234422 C151.271112,242.726385 149.575382,242.587148 149.575382,242.587148 C149.575382,242.587148 147.864757,242.726385 145.085511,240.239491 C143.227418,238.576989 140.892066,237.438045 138.269523,232.600512 C139.168332,227.947536 140.692761,223.718235 142.704578,220.370871 C144.86863,216.769778 147.473297,214.531544 149.497925,214.531544 C151.587498,214.531544 154.36138,216.832092 156.568034,220.393232 C158.652542,223.755504 160.139136,227.919807 160.896137,232.446069" id="Fill-93" fill="#FFFFFF"></path>
                <path id="Fill-95" fill="#FFFFFF"></path>
                <path d="M222.357319,116.513734 C221.207666,130.786319 220.725045,143.362712 221.389096,149.107823 C200.937557,151.314454 176.133188,152.584288 149.395353,152.584288 C122.50856,152.584288 97.5549355,151.28434 77.0408342,149.048193 C77.8568222,142.608385 77.1001192,126.522731 75.5301092,109.167243 C75.7565243,109.015483 75.9862165,108.866406 76.218292,108.71733 C76.4506653,108.565272 76.6860179,108.419177 76.9243496,108.2701 C77.1629791,108.121024 77.4039921,107.974631 77.6515591,107.828536 C77.8720159,107.694665 78.098431,107.563179 78.3275273,107.431992 C78.8789672,107.110285 79.4509633,106.793945 80.0348759,106.481182 C80.2672493,106.355958 80.5026018,106.233715 80.7409335,106.111174 C80.9643694,105.995193 81.1904866,105.878615 81.4198808,105.765317 C82.4953525,105.219697 83.6187885,104.689282 84.7866137,104.173179 C85.0544389,104.057198 85.32286,103.94062 85.5939623,103.82434 C85.8680437,103.705079 86.1421251,103.588799 86.4188878,103.475799 C86.6810526,103.365185 86.9432175,103.25785 87.2086594,103.150813 C87.7207746,102.941807 88.2394439,102.736082 88.7664548,102.533338 C89.0706256,102.42004 89.3742006,102.304058 89.6840318,102.18748 C89.8273287,102.134111 89.9733069,102.080443 90.1189871,102.026478 C90.3605958,101.937032 90.6016087,101.850567 90.8461966,101.764103 C91.0040914,101.707752 91.1616882,101.648121 91.3225621,101.594454 C91.4089573,101.56434 91.4923734,101.534823 91.5790665,101.501728 C91.647289,101.477876 91.7187885,101.454024 91.7876068,101.430172 C92.0703277,101.331781 92.3533466,101.233391 92.6393446,101.13828 C92.6989275,101.117111 92.7585104,101.09624 92.8210725,101.075668 C93.0445084,101.001129 93.2709235,100.923609 93.5006157,100.849071 C93.813426,100.74442 94.1259384,100.643346 94.4420258,100.544657 C95.0765839,100.342211 95.7138232,100.14543 96.3632771,99.9483509 C96.607567,99.8738127 96.8521549,99.8022559 97.096147,99.7309974 C98.812433,99.2271187 100.581748,98.7438127 102.402304,98.2909182 C102.795253,98.1925277 103.1885,98.0941372 103.584727,97.9984301 C103.980953,97.9030211 104.380159,97.8079103 104.782642,97.7151847 C105.181847,97.6200739 105.586713,97.5273483 105.991877,97.4382005 C106.397339,97.3457731 106.805482,97.2593087 107.216604,97.1695646 C107.871718,97.0267493 108.533386,96.8895989 109.200417,96.7551319 C109.534081,96.6865567 109.867746,96.6209631 110.204389,96.5556675 C110.541033,96.4900739 110.877974,96.4241821 111.217299,96.3585884 C112.233486,96.1680686 113.261291,95.9832137 114.300715,95.8040237 C114.991877,95.6850607 115.688997,95.5717625 116.392373,95.4614459 C116.743615,95.4044987 117.095154,95.3511293 117.449672,95.2974617 C117.804489,95.243496 118.158709,95.1898285 118.516207,95.1394406 C119.561887,94.9873826 120.619484,94.8412876 121.686018,94.7011557 C122.752552,94.5640053 123.828322,94.4325198 124.912433,94.310277 C125.457617,94.2476649 126.000119,94.191314 126.547984,94.1316834 C128.189494,93.961438 129.851857,93.8066966 131.532393,93.6695462 C132.813426,93.567876 134.103396,93.4754485 135.402006,93.3919657 C135.80717,93.3651319 136.215611,93.3412797 136.623754,93.3207071 C137.037557,93.2968549 137.454935,93.2730026 137.871718,93.2548153 C138.270924,93.2342427 138.66715,93.213372 139.066356,93.1951847 C139.483436,93.1746121 139.903496,93.1564248 140.323853,93.1415172 C141.97996,93.0762216 143.651559,93.028219 145.3315,92.9987018 C146.004786,92.9867757 146.681053,92.9778311 147.357319,92.9715699 C148.036564,92.965905 148.716107,92.9629235 149.395353,92.9629235 C150.077577,92.9629235 150.756524,92.965905 151.433088,92.9715699 C152.386415,92.9805145 153.333784,92.9924406 154.277875,93.0136095 C155.222264,93.0341821 156.163972,93.0580343 157.099126,93.0908311 C158.973009,93.1534433 160.829315,93.2399077 162.661192,93.3475409 C164.866058,93.4784301 167.037855,93.6394327 169.179563,93.8305488 C169.814419,93.8868997 170.448977,93.9468285 171.077279,94.0094406 C171.705879,94.0717546 172.3315,94.1373483 172.954141,94.2032401 C173.731698,94.2864248 174.497637,94.3791504 175.266256,94.4685963 C175.674399,94.5189842 176.079265,94.5669868 176.484727,94.6176728 C176.835968,94.6623958 177.181549,94.7098021 177.530109,94.7548232 C178.355631,94.8651398 179.174896,94.9754565 179.985223,95.0944195 C180.163674,95.1212533 180.342721,95.1451055 180.521172,95.1722375 C181.08423,95.2554222 181.647587,95.3418865 182.207368,95.4283509 C182.955134,95.5479103 183.706177,95.6668734 184.444707,95.7920976 C184.850169,95.8606728 185.252056,95.9295462 185.651261,96.0008047 C186.607567,96.1710501 187.555233,96.3496438 188.490387,96.5315172 C188.82137,96.5971108 189.155035,96.6630026 189.482443,96.7285963 C190.117001,96.856504 190.74292,96.9879894 191.368242,97.1188786 C191.392373,97.1251398 191.418888,97.1308047 191.4457,97.137066 C192.092175,97.2768997 192.73567,97.4170317 193.373208,97.5631266 C194.011043,97.7065383 194.642622,97.8556148 195.267944,98.0076728 C195.580755,98.0822111 195.893565,98.1594327 196.203396,98.2369525 C196.548977,98.3234169 196.891877,98.4098813 197.231202,98.4963456 C197.913426,98.6692744 198.586713,98.8481662 199.254042,99.0330211 C199.92137,99.2148945 200.579762,99.4000475 201.232493,99.5905673 C201.557219,99.6862744 201.881946,99.7816834 202.203694,99.8767942 C202.525442,99.9725013 202.84719,100.070892 203.16566,100.169282 C203.481748,100.267673 203.800218,100.366063 204.113327,100.467435 C204.741629,100.667198 205.361291,100.869644 205.975293,101.075668 C206.588699,101.278113 207.193764,101.489802 207.789593,101.704472 C207.804191,101.710734 207.819086,101.713417 207.833982,101.719678 C208.414916,101.925106 208.986912,102.136794 209.550268,102.351464 C209.838947,102.461781 210.122264,102.569116 210.405283,102.679731 C210.410943,102.682414 210.413923,102.682414 210.420179,102.685396 C210.703198,102.795712 210.982939,102.906029 211.263277,103.019327 C211.543019,103.132625 211.823357,103.245923 212.100119,103.35952 C212.654538,103.588799 213.199722,103.821657 213.732989,104.054216 C214.000814,104.173179 214.269235,104.289459 214.531102,104.40872 C214.796246,104.52828 215.055432,104.647243 215.314618,104.766802 C215.833287,105.008008 216.339742,105.24981 216.83994,105.497277 C217.087507,105.61952 217.334777,105.744744 217.582046,105.869968 C217.733684,105.944507 217.882642,106.022026 218.031599,106.099248 C218.174598,106.173786 218.317597,106.248325 218.457617,106.322863 C218.931301,106.57033 219.393366,106.82376 219.843217,107.077488 C220.030606,107.181544 220.218292,107.289177 220.402999,107.396512 C220.617498,107.518456 220.829017,107.643681 221.040536,107.765923 C221.079265,107.789776 221.115015,107.813628 221.153744,107.83748 C221.347388,107.950778 221.538054,108.067356 221.726038,108.183636 C221.940536,108.314525 222.154737,108.448694 222.366256,108.582863 C222.574796,108.71733 222.783635,108.851499 222.988898,108.985369 L222.992175,108.985369 C222.780357,111.525931 222.536365,114.033398 222.357319,116.513734" id="Fill-97" fill="#C8C5FF"></path>
                <path d="M102.402185,98.2876683 C100.581927,98.7411591 98.8123138,99.224167 97.0960278,99.7310272 C96.8520357,99.8022858 96.6077458,99.8738425 96.3631579,99.9483807 C95.714002,100.142478 95.0731877,100.338961 94.4419067,100.544687 C94.1261172,100.643077 93.8133069,100.744449 93.5004965,100.849101 C93.2711023,100.923639 93.0446872,100.998178 92.8212512,101.075697 C92.7586892,101.09627 92.6991063,101.114159 92.6392254,101.135328 L92.6392254,101.138309 C92.4965243,101.182734 92.3535253,101.230439 92.2135055,101.281125 C92.0702085,101.328829 91.9275074,101.379515 91.7874876,101.430201 C91.7189672,101.454054 91.6471698,101.477906 91.5789474,101.501758 C91.4925521,101.534853 91.409136,101.56437 91.3227408,101.594484 C91.1976167,101.638908 91.0724926,101.68065 90.9473684,101.725373 C90.9142999,101.737299 90.8818272,101.749225 90.8460775,101.764133 C90.6017875,101.850597 90.3604767,101.937061 90.1191658,102.026507 C89.9731877,102.080473 89.8272095,102.133842 89.6842105,102.18751 C89.3743793,102.304088 89.0705065,102.420069 88.7663357,102.533368 C88.2393247,102.736112 87.7209533,102.941837 87.2085402,103.150842 C86.9430983,103.254898 86.6782522,103.365215 86.4190665,103.475531 C86.142006,103.588829 85.8649454,103.705109 85.5938431,103.82437 C85.3197617,103.937668 85.0516385,104.057228 84.7864945,104.173209 C83.6186693,104.689312 82.4955313,105.219726 81.4197617,105.765346 C81.1906653,105.878645 80.9642502,105.995222 80.7408143,106.111204 C80.5024826,106.233447 80.2671301,106.355988 80.0347567,106.480914 C79.4508441,106.793974 78.8788481,107.110315 78.3274081,107.432022 C78.0983118,107.563209 77.8718967,107.694695 77.6514399,107.828565 C77.4041708,107.97466 77.16286,108.120755 76.9242304,108.269832 C76.6861966,108.418908 76.4508441,108.565302 76.2181728,108.717061 C75.9860973,108.866138 75.7567031,109.015215 75.530288,109.167273 C73.5670308,87.9715734 70.3644489,64.8739559 67.1618669,55.317853 C67.1618669,55.2880377 67.1317776,55.2585206 67.1317776,55.2284071 C65.5888779,51.9010193 64.8053625,48.4543702 64.8053625,44.8884599 C64.8053625,30.6278003 77.4935452,17.9354256 97.2363456,9.77199551 C96.5273088,13.7168583 96.1519364,17.8015549 96.1519364,21.9876235 C96.1519364,26.8263491 96.6464747,31.5013887 97.6173784,36.0094625 C97.6173784,36.0515021 97.6355511,36.0929454 97.6355511,36.1346868 C99.3992056,47.4707633 101.16286,72.8641591 102.402185,98.2876683" id="Fill-99" fill="#FFD4D4"></path>
                <path d="M233.987905,44.8885792 C233.987905,48.9374974 232.960397,52.8701359 231.026931,56.5881042 C227.943217,66.5672863 224.862781,88.5441464 222.988898,108.982537 C222.783635,108.848368 222.577776,108.714199 222.366256,108.583012 C222.154737,108.448843 221.940536,108.314376 221.726038,108.183487 C221.538054,108.067207 221.347388,107.950927 221.153744,107.837629 C221.115015,107.813777 221.079265,107.789925 221.040536,107.766073 C220.829017,107.643532 220.617498,107.518606 220.402999,107.396363 C220.218292,107.289028 220.030606,107.181693 219.843217,107.077339 C219.393366,106.823611 218.931301,106.570479 218.457617,106.323012 C218.317597,106.248474 218.174598,106.173935 218.031599,106.099397 C217.882642,106.021877 217.733684,105.944358 217.582046,105.869819 C217.334777,105.744595 217.087507,105.619371 216.83994,105.497128 C216.342721,105.249661 215.833287,105.005175 215.314618,104.766653 C215.055432,104.647392 214.796246,104.528131 214.531102,104.408869 C214.269235,104.28931 214.000814,104.173328 213.732989,104.054067 C213.199722,103.821508 212.654538,103.588949 212.100119,103.359371 C211.823357,103.245774 211.543019,103.132774 211.263277,103.019476 C210.982939,102.906178 210.703198,102.795861 210.420179,102.685545 C210.413923,102.682563 210.410943,102.682563 210.405283,102.679582 C210.122264,102.569265 209.838947,102.46193 209.550268,102.351315 C208.986912,102.136943 208.414916,101.925255 207.833982,101.719529 C207.819086,101.713566 207.804191,101.710584 207.789593,101.704621 C207.193764,101.489951 206.588699,101.278263 205.975293,101.075518 C205.36427,100.866811 204.741629,100.664067 204.113327,100.467286 C203.800218,100.365914 203.481748,100.267524 203.16566,100.169133 C202.84719,100.070743 202.525442,99.9723522 202.203694,99.8769433 C201.881648,99.7815343 201.557219,99.6861253 201.232493,99.5907164 C200.579762,99.3998984 199.92137,99.2150435 199.254042,99.0331702 C198.586713,98.8480172 197.913426,98.6694235 197.231202,98.4964947 C196.891579,98.4100303 196.548977,98.323566 196.203396,98.2371016 L196.203396,98.2341201 C197.389096,73.8481834 199.081251,49.6590277 200.773704,37.8551491 C201.992175,32.8133813 202.638649,27.482405 202.638649,21.9874446 C202.638649,17.801376 202.263277,13.7166794 201.553942,9.77211478 C221.299722,17.9355449 233.987905,30.6279195 233.987905,44.8885792" id="Fill-101" fill="#FFD4D4"></path>
                <path d="M202.6385,21.9875639 C202.6385,27.4825243 201.992026,32.8135005 200.773555,37.8552683 C199.0814,49.659147 197.389245,73.8480045 196.203247,98.2339412 C195.893416,98.1594029 195.580904,98.0821813 195.268093,98.007643 C194.642473,97.855585 194.010894,97.7065084 193.373059,97.5630968 C192.735819,97.4170018 192.092324,97.2771681 191.445849,97.1370361 C191.419037,97.1307749 191.392224,97.12511 191.368391,97.1188488 C190.742771,96.9879596 190.11715,96.8564741 189.482592,96.7285665 C189.154886,96.6629728 188.821221,96.597081 188.490536,96.5317855 C187.555084,96.3466325 186.607418,96.1710203 185.651112,96.0007749 C185.252205,95.9295164 184.85002,95.8609412 184.444856,95.7920678 C183.706028,95.6668435 182.955283,95.5478805 182.207517,95.4283211 C181.647438,95.3391734 181.084081,95.2553923 180.521321,95.1722077 C180.342572,95.1450757 180.163823,95.1212235 179.985074,95.0943897 C179.174747,94.9754266 178.355482,94.86511 177.530258,94.7547934 C177.181698,94.7097723 176.836117,94.662366 176.484578,94.617643 C176.079414,94.566957 175.67425,94.5192525 175.266107,94.4685665 C174.500467,94.3758409 173.728868,94.286395 172.953992,94.2032103 C172.331648,94.1373185 171.706028,94.072023 171.077428,94.0094108 C170.448828,93.9467987 169.81427,93.8868699 169.179414,93.830519 C167.037706,93.6394029 164.865909,93.4784003 162.661341,93.3475111 C160.829166,93.2398778 158.973158,93.1534135 157.099275,93.0908013 C156.163823,93.0580045 155.222413,93.0341522 154.278024,93.0135797 C153.333635,92.9924108 152.386266,92.9804847 151.432939,92.9715401 C150.756673,92.9628937 150.077428,92.959614 149.395204,92.959614 C148.712979,92.959614 148.033734,92.9628937 147.35717,92.9715401 C146.681202,92.9778013 146.004638,92.9867459 145.331648,92.998672 C143.65141,93.0255058 141.980109,93.0732103 140.323704,93.1414873 C139.704042,93.1653396 139.084379,93.1921734 138.467696,93.2222868 C138.268093,93.2309332 138.07147,93.2428594 137.871867,93.2547855 C137.454786,93.2729728 137.037706,93.2968251 136.623605,93.3206773 C136.215462,93.3412499 135.807319,93.3651021 135.402155,93.3919359 C134.103247,93.4757169 132.813277,93.5678462 131.532244,93.6695164 C131.052602,93.7082763 130.572959,93.7470361 130.096296,93.7884794 C129.869881,93.8096483 129.643168,93.8272393 129.419732,93.8484082 C128.916554,93.8931311 128.41576,93.9405375 127.915561,93.9915216 C127.456773,94.0359464 127.000665,94.0839491 126.548133,94.1316536 C126.274052,94.1584873 125.99997,94.1880045 125.728868,94.2181179 C125.454786,94.2476351 125.183684,94.2777485 124.912582,94.3102472 C124.426981,94.3642129 123.944359,94.4178805 123.464717,94.4775111 C123.357468,94.4894372 123.253198,94.5013633 123.145948,94.516271 C122.657368,94.5726219 122.17147,94.635234 121.686167,94.7011259 C121.18567,94.763738 120.685174,94.8293317 120.187656,94.9008884 C120.119136,94.9095348 120.050616,94.9184794 119.982095,94.9277222 C119.490238,94.9959992 119.001956,95.0675559 118.516356,95.1394108 C118.158858,95.1900968 117.80434,95.2434662 117.449821,95.2974319 C117.095005,95.3510995 116.743764,95.4044689 116.392224,95.4614161 C115.689146,95.5717327 114.992026,95.6850309 114.300566,95.8039939 C113.261142,95.9802024 112.233337,96.1647591 111.217448,96.3585586 C110.877825,96.4241522 110.540884,96.4900441 110.20424,96.5556377 C109.867895,96.6209332 109.533932,96.6865269 109.200268,96.7554003 C108.533237,96.8895691 107.871569,97.0267195 107.216455,97.1695348 C106.805333,97.2592789 106.39719,97.3457433 105.992026,97.4381707 C105.673257,97.5097274 105.354489,97.580986 105.038699,97.6525427 C104.952304,97.6737116 104.865909,97.6945823 104.782493,97.7151549 C104.579911,97.760176 104.380308,97.8078805 104.180705,97.855585 C103.981102,97.9000098 103.7815,97.9480124 103.584876,97.9984003 C103.483585,98.0195691 103.385273,98.0434214 103.286961,98.0702551 C102.992026,98.1418119 102.694111,98.2130704 102.402155,98.2876087 C101.16283,72.8643976 99.3991758,47.4707037 97.6355214,36.1346272 C97.6355214,36.0931839 97.6173486,36.0514425 97.6173486,36.0094029 C96.6464449,31.501329 96.1519067,26.8262894 96.1519067,21.9875639 C96.1519067,17.8014953 96.527279,13.7167987 97.2363158,9.77193588 C111.607418,3.83272744 129.717646,0.290669393 149.395204,0.290669393 C169.072463,0.290669393 187.182691,3.83272744 201.553793,9.77193588 C202.263128,13.7167987 202.6385,17.8014953 202.6385,21.9875639" id="Fill-103" fill="#FFFFFF"></path>
                <path d="M222.357319,116.513734 C221.207666,130.786319 220.725045,143.362712 221.389096,149.107823 C200.937557,151.314454 176.133188,152.584288 149.395353,152.584288 C122.50856,152.584288 97.5549355,151.28434 77.0408342,149.048193 C77.8568222,142.608385 77.1001192,126.522731 75.5301092,109.167243 C75.7565243,109.015483 75.9862165,108.866406 76.218292,108.71733 C76.4506653,108.565272 76.6860179,108.419177 76.9243496,108.2701 C77.1629791,108.121024 77.4039921,107.974631 77.6515591,107.828536 C77.8720159,107.694665 78.098431,107.563179 78.3275273,107.431992 C78.8789672,107.110285 79.4509633,106.793945 80.0348759,106.481182 C80.2672493,106.355958 80.5026018,106.233715 80.7409335,106.111174 C80.9643694,105.995193 81.1904866,105.878615 81.4198808,105.765317 C82.4953525,105.219697 83.6187885,104.689282 84.7866137,104.173179 C85.0544389,104.057198 85.32286,103.94062 85.5939623,103.82434 C85.8680437,103.705079 86.1421251,103.588799 86.4188878,103.475799 C86.6810526,103.365185 86.9432175,103.25785 87.2086594,103.150813 C87.7207746,102.941807 88.2394439,102.736082 88.7664548,102.533338 C89.0706256,102.42004 89.3742006,102.304058 89.6840318,102.18748 C89.8273287,102.134111 89.9733069,102.080443 90.1189871,102.026478 C90.3605958,101.937032 90.6016087,101.850567 90.8461966,101.764103 C91.0040914,101.707752 91.1616882,101.648121 91.3225621,101.594454 C91.4089573,101.56434 91.4923734,101.534823 91.5790665,101.501728 C91.647289,101.477876 91.7187885,101.454024 91.7876068,101.430172 C92.0703277,101.331781 92.3533466,101.233391 92.6393446,101.13828 C92.6989275,101.117111 92.7585104,101.09624 92.8210725,101.075668 C93.0445084,101.001129 93.2709235,100.923609 93.5006157,100.849071 C93.813426,100.74442 94.1259384,100.643346 94.4420258,100.544657 C95.0765839,100.342211 95.7138232,100.14543 96.3632771,99.9483509 C96.607567,99.8738127 96.8521549,99.8022559 97.096147,99.7309974 C98.812433,99.2271187 100.581748,98.7438127 102.402304,98.2909182 C102.795253,98.1925277 103.1885,98.0941372 103.584727,97.9984301 C103.980953,97.9030211 104.380159,97.8079103 104.782642,97.7151847 C105.181847,97.6200739 105.586713,97.5273483 105.991877,97.4382005 C106.397339,97.3457731 106.805482,97.2593087 107.216604,97.1695646 C107.871718,97.0267493 108.533386,96.8895989 109.200417,96.7551319 C109.534081,96.6865567 109.867746,96.6209631 110.204389,96.5556675 C110.541033,96.4900739 110.877974,96.4241821 111.217299,96.3585884 C112.233486,96.1680686 113.261291,95.9832137 114.300715,95.8040237 C114.991877,95.6850607 115.688997,95.5717625 116.392373,95.4614459 C116.743615,95.4044987 117.095154,95.3511293 117.449672,95.2974617 C117.804489,95.243496 118.158709,95.1898285 118.516207,95.1394406 C119.561887,94.9873826 120.619484,94.8412876 121.686018,94.7011557 C122.752552,94.5640053 123.828322,94.4325198 124.912433,94.310277 C125.457617,94.2476649 126.000119,94.191314 126.547984,94.1316834 C128.189494,93.961438 129.851857,93.8066966 131.532393,93.6695462 C132.813426,93.567876 134.103396,93.4754485 135.402006,93.3919657 C135.80717,93.3651319 136.215611,93.3412797 136.623754,93.3207071 C137.037557,93.2968549 137.454935,93.2730026 137.871718,93.2548153 C138.270924,93.2342427 138.66715,93.213372 139.066356,93.1951847 C139.483436,93.1746121 139.903496,93.1564248 140.323853,93.1415172 C141.97996,93.0762216 143.651559,93.028219 145.3315,92.9987018 C146.004786,92.9867757 146.681053,92.9778311 147.357319,92.9715699 C148.036564,92.965905 148.716107,92.9629235 149.395353,92.9629235 C150.077577,92.9629235 150.756524,92.965905 151.433088,92.9715699 C152.386415,92.9805145 153.333784,92.9924406 154.277875,93.0136095 C155.222264,93.0341821 156.163972,93.0580343 157.099126,93.0908311 C158.973009,93.1534433 160.829315,93.2399077 162.661192,93.3475409 C164.866058,93.4784301 167.037855,93.6394327 169.179563,93.8305488 C169.814419,93.8868997 170.448977,93.9468285 171.077279,94.0094406 C171.705879,94.0717546 172.3315,94.1373483 172.954141,94.2032401 C173.731698,94.2864248 174.497637,94.3791504 175.266256,94.4685963 C175.674399,94.5189842 176.079265,94.5669868 176.484727,94.6176728 C176.835968,94.6623958 177.181549,94.7098021 177.530109,94.7548232 C178.355631,94.8651398 179.174896,94.9754565 179.985223,95.0944195 C180.163674,95.1212533 180.342721,95.1451055 180.521172,95.1722375 C181.08423,95.2554222 181.647587,95.3418865 182.207368,95.4283509 C182.955134,95.5479103 183.706177,95.6668734 184.444707,95.7920976 C184.850169,95.8606728 185.252056,95.9295462 185.651261,96.0008047 C186.607567,96.1710501 187.555233,96.3496438 188.490387,96.5315172 C188.82137,96.5971108 189.155035,96.6630026 189.482443,96.7285963 C190.117001,96.856504 190.74292,96.9879894 191.368242,97.1188786 C191.392373,97.1251398 191.418888,97.1308047 191.4457,97.137066 C192.092175,97.2768997 192.73567,97.4170317 193.373208,97.5631266 C194.011043,97.7065383 194.642622,97.8556148 195.267944,98.0076728 C195.580755,98.0822111 195.893565,98.1594327 196.203396,98.2369525 C196.548977,98.3234169 196.891877,98.4098813 197.231202,98.4963456 C197.913426,98.6692744 198.586713,98.8481662 199.254042,99.0330211 C199.92137,99.2148945 200.579762,99.4000475 201.232493,99.5905673 C201.557219,99.6862744 201.881946,99.7816834 202.203694,99.8767942 C202.525442,99.9725013 202.84719,100.070892 203.16566,100.169282 C203.481748,100.267673 203.800218,100.366063 204.113327,100.467435 C204.741629,100.667198 205.361291,100.869644 205.975293,101.075668 C206.588699,101.278113 207.193764,101.489802 207.789593,101.704472 C207.804191,101.710734 207.819086,101.713417 207.833982,101.719678 C208.414916,101.925106 208.986912,102.136794 209.550268,102.351464 C209.838947,102.461781 210.122264,102.569116 210.405283,102.679731 C210.410943,102.682414 210.413923,102.682414 210.420179,102.685396 C210.703198,102.795712 210.982939,102.906029 211.263277,103.019327 C211.543019,103.132625 211.823357,103.245923 212.100119,103.35952 C212.654538,103.588799 213.199722,103.821657 213.732989,104.054216 C214.000814,104.173179 214.269235,104.289459 214.531102,104.40872 C214.796246,104.52828 215.055432,104.647243 215.314618,104.766802 C215.833287,105.008008 216.339742,105.24981 216.83994,105.497277 C217.087507,105.61952 217.334777,105.744744 217.582046,105.869968 C217.733684,105.944507 217.882642,106.022026 218.031599,106.099248 C218.174598,106.173786 218.317597,106.248325 218.457617,106.322863 C218.931301,106.57033 219.393366,106.82376 219.843217,107.077488 C220.030606,107.181544 220.218292,107.289177 220.402999,107.396512 C220.617498,107.518456 220.829017,107.643681 221.040536,107.765923 C221.079265,107.789776 221.115015,107.813628 221.153744,107.83748 C221.347388,107.950778 221.538054,108.067356 221.726038,108.183636 C221.940536,108.314525 222.154737,108.448694 222.366256,108.582863 C222.574796,108.71733 222.783635,108.851499 222.988898,108.985369 L222.992175,108.985369 C222.780357,111.525931 222.536365,114.033398 222.357319,116.513734 Z" id="Stroke-105" stroke="#32527D" stroke-width="7.44786495" stroke-linecap="round" stroke-linejoin="round"></path>
                <path id="Stroke-107" stroke="#32527D" stroke-width="7.44786495" stroke-linecap="round" stroke-linejoin="round"></path>
                <path id="Stroke-109" stroke="#32527D" stroke-width="7.44786495" stroke-linecap="round" stroke-linejoin="round"></path>
                <path d="M103.286902,98.0701657 C103.385214,98.0433319 103.483525,98.0194797 103.584816,97.998609 C103.18859,98.0940179 102.795343,98.1924084 102.402095,98.2907989 C100.581837,98.7439916 98.8122244,99.2269995 97.0962363,99.7308781 C98.8122244,99.2240179 100.581837,98.74101 102.402095,98.2875193 C102.694052,98.212981 102.991966,98.1417224 103.286902,98.0701657 Z" id="Stroke-111" stroke="#32527D" stroke-width="7.44786495" stroke-linecap="round" stroke-linejoin="round"></path>
                <path id="Stroke-113" stroke="#32527D" stroke-width="7.44786495" stroke-linecap="round" stroke-linejoin="round"></path>
                <path id="Stroke-115" stroke="#32527D" stroke-width="7.44786495" stroke-linecap="round" stroke-linejoin="round"></path>
                <path d="M111.217418,96.3587077 C112.233307,96.1649082 113.261112,95.9800533 114.300834,95.804143 C113.261112,95.9830348 112.233307,96.1678897 111.217418,96.3587077 Z" id="Stroke-117" stroke="#32527D" stroke-width="7.44786495" stroke-linecap="round" stroke-linejoin="round"></path>
                <path id="Stroke-119" stroke="#32527D" stroke-width="7.44786495" stroke-linecap="round" stroke-linejoin="round"></path>
                <path id="Stroke-121" stroke="#32527D" stroke-width="7.44786495" stroke-linecap="round" stroke-linejoin="round"></path>
                <path id="Stroke-123" stroke="#32527D" stroke-width="7.44786495" stroke-linecap="round" stroke-linejoin="round"></path>
                <path id="Stroke-125" stroke="#32527D" stroke-width="7.44786495" stroke-linecap="round" stroke-linejoin="round"></path>
                <path id="Stroke-127" stroke="#32527D" stroke-width="7.44786495" stroke-linecap="round" stroke-linejoin="round"></path>
                <path id="Stroke-129" stroke="#32527D" stroke-width="7.44786495" stroke-linecap="round" stroke-linejoin="round"></path>
                <path d="M185.651261,96.0008644 C186.607567,96.1708116 187.555233,96.3467219 188.490387,96.5315768 C187.555233,96.3497034 186.607567,96.1708116 185.651261,96.0008644 Z" id="Stroke-131" stroke="#32527D" stroke-width="7.44786495" stroke-linecap="round" stroke-linejoin="round"></path>
                <path id="Stroke-133" stroke="#32527D" stroke-width="7.44786495" stroke-linecap="round" stroke-linejoin="round"></path>
                <path d="M204.113237,100.467346 C204.741539,100.664127 205.364181,100.866871 205.975204,101.075578 C205.361202,100.869853 204.741539,100.667108 204.113237,100.467346 Z" id="Stroke-135" stroke="#32527D" stroke-width="7.44786495" stroke-linecap="round" stroke-linejoin="round"></path>
                <path d="M215.314707,104.766683 C215.833078,105.005205 216.342512,105.249691 216.84003,105.497158 C216.339533,105.249691 215.833078,105.008187 215.314707,104.766683 Z" id="Stroke-137" stroke="#32527D" stroke-width="7.44786495" stroke-linecap="round" stroke-linejoin="round"></path>
                <path id="Stroke-139" stroke="#32527D" stroke-width="7.44786495" stroke-linecap="round" stroke-linejoin="round"></path>
                <path d="M102.402185,98.2876683 C100.581927,98.7411591 98.8123138,99.224167 97.0960278,99.7310272 C96.8520357,99.8022858 96.6077458,99.8738425 96.3631579,99.9483807 C95.714002,100.142478 95.0731877,100.338961 94.4419067,100.544687 C94.1261172,100.643077 93.8133069,100.744449 93.5004965,100.849101 C93.2711023,100.923639 93.0446872,100.998178 92.8212512,101.075697 C92.7586892,101.09627 92.6991063,101.114159 92.6392254,101.135328 L92.6392254,101.138309 C92.4965243,101.182734 92.3535253,101.230439 92.2135055,101.281125 C92.0702085,101.328829 91.9275074,101.379515 91.7874876,101.430201 C91.7189672,101.454054 91.6471698,101.477906 91.5789474,101.501758 C91.4925521,101.534853 91.409136,101.56437 91.3227408,101.594484 C91.1976167,101.638908 91.0724926,101.68065 90.9473684,101.725373 C90.9142999,101.737299 90.8818272,101.749225 90.8460775,101.764133 C90.6017875,101.850597 90.3604767,101.937061 90.1191658,102.026507 C89.9731877,102.080473 89.8272095,102.133842 89.6842105,102.18751 C89.3743793,102.304088 89.0705065,102.420069 88.7663357,102.533368 C88.2393247,102.736112 87.7209533,102.941837 87.2085402,103.150842 C86.9430983,103.254898 86.6782522,103.365215 86.4190665,103.475531 C86.142006,103.588829 85.8649454,103.705109 85.5938431,103.82437 C85.3197617,103.937668 85.0516385,104.057228 84.7864945,104.173209 C83.6186693,104.689312 82.4955313,105.219726 81.4197617,105.765346 C81.1906653,105.878645 80.9642502,105.995222 80.7408143,106.111204 C80.5024826,106.233447 80.2671301,106.355988 80.0347567,106.480914 C79.4508441,106.793974 78.8788481,107.110315 78.3274081,107.432022 C78.0983118,107.563209 77.8718967,107.694695 77.6514399,107.828565 C77.4041708,107.97466 77.16286,108.120755 76.9242304,108.269832 C76.6861966,108.418908 76.4508441,108.565302 76.2181728,108.717061 C75.9860973,108.866138 75.7567031,109.015215 75.530288,109.167273 C73.5670308,87.9715734 70.3644489,64.8739559 67.1618669,55.317853 C67.1618669,55.2880377 67.1317776,55.2585206 67.1317776,55.2284071 C65.5888779,51.9010193 64.8053625,48.4543702 64.8053625,44.8884599 C64.8053625,30.6278003 77.4935452,17.9354256 97.2363456,9.77199551 C96.5273088,13.7168583 96.1519364,17.8015549 96.1519364,21.9876235 C96.1519364,26.8263491 96.6464747,31.5013887 97.6173784,36.0094625 C97.6173784,36.0515021 97.6355511,36.0929454 97.6355511,36.1346868 C99.3992056,47.4707633 101.16286,72.8641591 102.402185,98.2876683 Z" id="Stroke-141" stroke="#32527D" stroke-width="7.44786495" stroke-linecap="round" stroke-linejoin="round"></path>
                <path id="Stroke-143" stroke="#32527D" stroke-width="7.44786495" stroke-linecap="round" stroke-linejoin="round"></path>
                <path id="Stroke-145" stroke="#32527D" stroke-width="7.44786495" stroke-linecap="round" stroke-linejoin="round"></path>
                <path d="M96.3633069,99.9484702 C95.713853,100.14227 95.0733366,100.339051 94.4420556,100.544776 C95.0766137,100.342032 95.713853,100.145251 96.3633069,99.9484702 Z" id="Stroke-147" stroke="#32527D" stroke-width="7.44786495" stroke-linecap="round" stroke-linejoin="round"></path>
                <path d="M105.991996,97.4380515 C105.586832,97.5274974 105.181668,97.6199248 104.782463,97.7153338 C104.380278,97.8077612 103.981072,97.9031702 103.584846,97.9985792 C103.18862,98.0939881 102.795372,98.1923786 102.402125,98.2907691 C100.581867,98.7439617 98.8122542,99.2269697 97.0962661,99.7308483 C98.8122542,99.2239881 100.581867,98.7409802 102.402125,98.2877876 C102.694081,98.2132493 102.991996,98.1416926 103.286931,98.0701359 C103.584846,97.9955976 103.882761,97.9240409 104.180675,97.8554657 C104.466673,97.7868905 104.752671,97.7183153 105.038669,97.6527216 C105.354459,97.5808668 105.673227,97.5096082 105.991996,97.4380515 Z" id="Stroke-149" stroke="#32527D" stroke-width="7.44786495" stroke-linecap="round" stroke-linejoin="round"></path>
                <path d="M114.300715,95.8040237 C113.261291,95.9832137 112.233486,96.1680686 111.217299,96.3585884 C112.233486,96.1647889 113.261291,95.9802322 114.300715,95.8040237 Z" id="Stroke-151" stroke="#32527D" stroke-width="7.44786495" stroke-linecap="round" stroke-linejoin="round"></path>
                <path id="Stroke-153" stroke="#32527D" stroke-width="7.44786495" stroke-linecap="round" stroke-linejoin="round"></path>
                <path id="Stroke-155" stroke="#32527D" stroke-width="7.44786495" stroke-linecap="round" stroke-linejoin="round"></path>
                <path id="Stroke-157" stroke="#32527D" stroke-width="7.44786495" stroke-linecap="round" stroke-linejoin="round"></path>
                <path id="Stroke-159" stroke="#32527D" stroke-width="7.44786495" stroke-linecap="round" stroke-linejoin="round"></path>
                <path id="Stroke-161" stroke="#32527D" stroke-width="7.44786495" stroke-linecap="round" stroke-linejoin="round"></path>
                <path id="Stroke-163" stroke="#32527D" stroke-width="7.44786495" stroke-linecap="round" stroke-linejoin="round"></path>
                <path id="Stroke-165" stroke="#32527D" stroke-width="7.44786495" stroke-linecap="round" stroke-linejoin="round"></path>
                <path id="Stroke-167" stroke="#32527D" stroke-width="7.44786495" stroke-linecap="round" stroke-linejoin="round"></path>
                <path d="M188.490477,96.5316662 C187.555025,96.3497929 186.607656,96.1709011 185.651351,96.0009538 C186.607656,96.1709011 187.555025,96.3468113 188.490477,96.5316662 Z" id="Stroke-169" stroke="#32527D" stroke-width="7.44786495" stroke-linecap="round" stroke-linejoin="round"></path>
                <path d="M233.987905,44.8885792 C233.987905,48.9374974 232.960397,52.8701359 231.026931,56.5881042 C227.943217,66.5672863 224.862781,88.5441464 222.988898,108.982537 C222.783635,108.848368 222.577776,108.714199 222.366256,108.583012 C222.154737,108.448843 221.940536,108.314376 221.726038,108.183487 C221.538054,108.067207 221.347388,107.950927 221.153744,107.837629 C221.115015,107.813777 221.079265,107.789925 221.040536,107.766073 C220.829017,107.643532 220.617498,107.518606 220.402999,107.396363 C220.218292,107.289028 220.030606,107.181693 219.843217,107.077339 C219.393366,106.823611 218.931301,106.570479 218.457617,106.323012 C218.317597,106.248474 218.174598,106.173935 218.031599,106.099397 C217.882642,106.021877 217.733684,105.944358 217.582046,105.869819 C217.334777,105.744595 217.087507,105.619371 216.83994,105.497128 C216.342721,105.249661 215.833287,105.005175 215.314618,104.766653 C215.055432,104.647392 214.796246,104.528131 214.531102,104.408869 C214.269235,104.28931 214.000814,104.173328 213.732989,104.054067 C213.199722,103.821508 212.654538,103.588949 212.100119,103.359371 C211.823357,103.245774 211.543019,103.132774 211.263277,103.019476 C210.982939,102.906178 210.703198,102.795861 210.420179,102.685545 C210.413923,102.682563 210.410943,102.682563 210.405283,102.679582 C210.122264,102.569265 209.838947,102.46193 209.550268,102.351315 C208.986912,102.136943 208.414916,101.925255 207.833982,101.719529 C207.819086,101.713566 207.804191,101.710584 207.789593,101.704621 C207.193764,101.489951 206.588699,101.278263 205.975293,101.075518 C205.36427,100.866811 204.741629,100.664067 204.113327,100.467286 C203.800218,100.365914 203.481748,100.267524 203.16566,100.169133 C202.84719,100.070743 202.525442,99.9723522 202.203694,99.8769433 C201.881648,99.7815343 201.557219,99.6861253 201.232493,99.5907164 C200.579762,99.3998984 199.92137,99.2150435 199.254042,99.0331702 C198.586713,98.8480172 197.913426,98.6694235 197.231202,98.4964947 C196.891579,98.4100303 196.548977,98.323566 196.203396,98.2371016 L196.203396,98.2341201 C197.389096,73.8481834 199.081251,49.6590277 200.773704,37.8551491 C201.992175,32.8133813 202.638649,27.482405 202.638649,21.9874446 C202.638649,17.801376 202.263277,13.7166794 201.553942,9.77211478 C221.299722,17.9355449 233.987905,30.6279195 233.987905,44.8885792 Z" id="Stroke-171" stroke="#32527D" stroke-width="7.44786495" stroke-linecap="round" stroke-linejoin="round"></path>
                <path id="Stroke-173" stroke="#32527D" stroke-width="7.44786495" stroke-linecap="round" stroke-linejoin="round"></path>
                <path d="M205.975204,101.075578 C205.361202,100.869853 204.741539,100.667108 204.113237,100.467346 C204.741539,100.664127 205.364181,100.866871 205.975204,101.075578 Z" id="Stroke-175" stroke="#32527D" stroke-width="7.44786495" stroke-linecap="round" stroke-linejoin="round"></path>
                <path d="M216.840089,105.497217 C216.339593,105.24975 215.833138,105.007948 215.314767,104.766742 C215.833138,105.005265 216.342572,105.24975 216.840089,105.497217 Z" id="Stroke-177" stroke="#32527D" stroke-width="7.44786495" stroke-linecap="round" stroke-linejoin="round"></path>
                <path id="Stroke-179" stroke="#32527D" stroke-width="7.44786495" stroke-linecap="round" stroke-linejoin="round"></path>
                <path id="Stroke-181" stroke="#32527D" stroke-width="7.44786495" stroke-linecap="round" stroke-linejoin="round"></path>
                <path d="M202.6385,21.9875639 C202.6385,27.4825243 201.992026,32.8135005 200.773555,37.8552683 C199.0814,49.659147 197.389245,73.8480045 196.203247,98.2339412 C195.893416,98.1594029 195.580904,98.0821813 195.268093,98.007643 C194.642473,97.855585 194.010894,97.7065084 193.373059,97.5630968 C192.735819,97.4170018 192.092324,97.2771681 191.445849,97.1370361 C191.419037,97.1307749 191.392224,97.12511 191.368391,97.1188488 C190.742771,96.9879596 190.11715,96.8564741 189.482592,96.7285665 C189.154886,96.6629728 188.821221,96.597081 188.490536,96.5317855 C187.555084,96.3466325 186.607418,96.1710203 185.651112,96.0007749 C185.252205,95.9295164 184.85002,95.8609412 184.444856,95.7920678 C183.706028,95.6668435 182.955283,95.5478805 182.207517,95.4283211 C181.647438,95.3391734 181.084081,95.2553923 180.521321,95.1722077 C180.342572,95.1450757 180.163823,95.1212235 179.985074,95.0943897 C179.174747,94.9754266 178.355482,94.86511 177.530258,94.7547934 C177.181698,94.7097723 176.836117,94.662366 176.484578,94.617643 C176.079414,94.566957 175.67425,94.5192525 175.266107,94.4685665 C174.500467,94.3758409 173.728868,94.286395 172.953992,94.2032103 C172.331648,94.1373185 171.706028,94.072023 171.077428,94.0094108 C170.448828,93.9467987 169.81427,93.8868699 169.179414,93.830519 C167.037706,93.6394029 164.865909,93.4784003 162.661341,93.3475111 C160.829166,93.2398778 158.973158,93.1534135 157.099275,93.0908013 C156.163823,93.0580045 155.222413,93.0341522 154.278024,93.0135797 C153.333635,92.9924108 152.386266,92.9804847 151.432939,92.9715401 C150.756673,92.9628937 150.077428,92.959614 149.395204,92.959614 C148.712979,92.959614 148.033734,92.9628937 147.35717,92.9715401 C146.681202,92.9778013 146.004638,92.9867459 145.331648,92.998672 C143.65141,93.0255058 141.980109,93.0732103 140.323704,93.1414873 C139.704042,93.1653396 139.084379,93.1921734 138.467696,93.2222868 C138.268093,93.2309332 138.07147,93.2428594 137.871867,93.2547855 C137.454786,93.2729728 137.037706,93.2968251 136.623605,93.3206773 C136.215462,93.3412499 135.807319,93.3651021 135.402155,93.3919359 C134.103247,93.4757169 132.813277,93.5678462 131.532244,93.6695164 C131.052602,93.7082763 130.572959,93.7470361 130.096296,93.7884794 C129.869881,93.8096483 129.643168,93.8272393 129.419732,93.8484082 C128.916554,93.8931311 128.41576,93.9405375 127.915561,93.9915216 C127.456773,94.0359464 127.000665,94.0839491 126.548133,94.1316536 C126.274052,94.1584873 125.99997,94.1880045 125.728868,94.2181179 C125.454786,94.2476351 125.183684,94.2777485 124.912582,94.3102472 C124.426981,94.3642129 123.944359,94.4178805 123.464717,94.4775111 C123.357468,94.4894372 123.253198,94.5013633 123.145948,94.516271 C122.657368,94.5726219 122.17147,94.635234 121.686167,94.7011259 C121.18567,94.763738 120.685174,94.8293317 120.187656,94.9008884 C120.119136,94.9095348 120.050616,94.9184794 119.982095,94.9277222 C119.490238,94.9959992 119.001956,95.0675559 118.516356,95.1394108 C118.158858,95.1900968 117.80434,95.2434662 117.449821,95.2974319 C117.095005,95.3510995 116.743764,95.4044689 116.392224,95.4614161 C115.689146,95.5717327 114.992026,95.6850309 114.300566,95.8039939 C113.261142,95.9802024 112.233337,96.1647591 111.217448,96.3585586 C110.877825,96.4241522 110.540884,96.4900441 110.20424,96.5556377 C109.867895,96.6209332 109.533932,96.6865269 109.200268,96.7554003 C108.533237,96.8895691 107.871569,97.0267195 107.216455,97.1695348 C106.805333,97.2592789 106.39719,97.3457433 105.992026,97.4381707 C105.673257,97.5097274 105.354489,97.580986 105.038699,97.6525427 C104.952304,97.6737116 104.865909,97.6945823 104.782493,97.7151549 C104.579911,97.760176 104.380308,97.8078805 104.180705,97.855585 C103.981102,97.9000098 103.7815,97.9480124 103.584876,97.9984003 C103.483585,98.0195691 103.385273,98.0434214 103.286961,98.0702551 C102.992026,98.1418119 102.694111,98.2130704 102.402155,98.2876087 C101.16283,72.8643976 99.3991758,47.4707037 97.6355214,36.1346272 C97.6355214,36.0931839 97.6173486,36.0514425 97.6173486,36.0094029 C96.6464449,31.501329 96.1519067,26.8262894 96.1519067,21.9875639 C96.1519067,17.8014953 96.527279,13.7167987 97.2363158,9.77193588 C111.607418,3.83272744 129.717646,0.290669393 149.395204,0.290669393 C169.072463,0.290669393 187.182691,3.83272744 201.553793,9.77193588 C202.263128,13.7167987 202.6385,17.8014953 202.6385,21.9875639 Z" id="Stroke-183" stroke="#32527D" stroke-width="7.44786495" stroke-linecap="round" stroke-linejoin="round"></path>
                <path d="M178.611867,26.2103351 C159.203625,24.5731768 139.588034,24.5734749 120.177706,26.2106332 C118.847815,26.3227388 118.499255,24.419628 119.780884,24.047533 C128.583962,21.4920633 138.67284,20.0409525 149.395084,20.0409525 C160.116733,20.0409525 170.205313,21.4920633 179.008391,24.047533 C180.290318,24.419628 179.942056,26.3227388 178.611867,26.2103351" id="Fill-185" fill="#E8E8E8"></path>
                <path d="M222.990387,168.36994 C222.990387,171.6535 189.96,174.315112 149.214518,174.315112 C108.469633,174.315112 75.4392453,171.6535 75.4392453,168.36994 C75.4392453,165.086381 108.469633,162.424769 149.214518,162.424769 C189.96,162.424769 222.990387,165.086381 222.990387,168.36994" id="Fill-187" fill="#32527D"></path>
                <path d="M252.790874,173.59227 C252.778957,173.595251 252.767041,173.595251 252.752145,173.598531 C223.922949,178.419367 188.411231,181.263747 150.004081,181.263747 C111.293357,181.263747 75.525432,178.374644 46.5743893,173.485233 L47.3352632,173.624768 C3.95681231,165.334623 -0.890258193,143.455557 0.450357498,138.376818 C1.79097319,133.29808 11.1746872,130.933726 28.4873982,138.376818 L26.3963357,137.509789 C26.3996127,137.509789 26.4025919,137.512771 26.405571,137.512771 C26.9534359,137.745628 27.5135154,137.97789 28.0887885,138.207468 C51.6270209,147.667863 97.3983217,154.084117 150.004081,154.084117 C202.314906,154.084117 247.869027,147.73942 271.523744,138.365787 C272.322155,138.052428 273.096435,137.730721 273.844499,137.408716 L271.524638,138.364892 C288.837349,130.9218 298.221063,133.286154 299.561678,138.364892 C300.902294,143.443631 296.055223,165.322697 252.676475,173.612842" id="Fill-189" fill="#F2F2F4"></path>
                <path d="M252.790874,173.59227 C252.778957,173.595251 252.767041,173.595251 252.752145,173.598531 C223.922949,178.419367 188.411231,181.263747 150.004081,181.263747 C111.293357,181.263747 75.525432,178.374644 46.5743893,173.485233 L47.3352632,173.624768 C3.95681231,165.334623 -0.890258193,143.455557 0.450357498,138.376818 C1.79097319,133.29808 11.1746872,130.933726 28.4873982,138.376818 L26.3963357,137.509789 C26.3996127,137.509789 26.4025919,137.512771 26.405571,137.512771 C26.9534359,137.745628 27.5135154,137.97789 28.0887885,138.207468 C51.6270209,147.667863 97.3983217,154.084117 150.004081,154.084117 C202.314906,154.084117 247.869027,147.73942 271.523744,138.365787 C272.322155,138.052428 273.096435,137.730721 273.844499,137.408716 L271.524638,138.364892 C288.837349,130.9218 298.221063,133.286154 299.561678,138.364892 C300.902294,143.443631 296.055223,165.322697 252.676475,173.612842" id="Stroke-191" stroke="#32527D" stroke-width="7.44786495" stroke-linecap="round" stroke-linejoin="round"></path>
                <path d="M241.099186,196.499099 C240.447051,201.087674 237.524211,211.290173 230.353704,221.496249 C230.341787,221.511157 230.329871,221.528748 230.317954,221.543954 L230.386177,219.993558 C230.386177,206.815194 227.23424,194.37297 221.645362,183.377086 C219.765819,179.680286 217.60862,176.143893 215.20147,172.801896 C214.403357,171.692766 213.580814,170.60421 212.725799,169.539803 C196.480516,168.538307 176.705243,167.950946 155.371281,167.950946 C128.323615,167.950946 103.775452,168.896091 85.757577,170.428598 C85.2004767,171.147146 84.6523138,171.877621 84.1190467,172.614059 C81.8787289,175.708888 79.8499305,178.970682 78.0594638,182.37231 C72.1428798,193.612679 68.7975968,206.412687 68.7975968,219.993558 C68.7975968,220.479547 68.8032572,220.959276 68.8151738,221.442284 C61.6714796,211.254394 58.7605561,201.081413 58.105144,196.499099 C58.105144,196.499099 49.2451639,203.717384 49.2335452,223.183796 L49.2335452,223.219276 C49.2335452,223.320946 49.2335452,223.425299 49.2362264,223.529355 L49.2362264,223.532635 C49.2362264,223.917252 49.2421847,224.307832 49.2511221,224.69245 L49.2511221,224.716302 C49.5758491,239.644825 54.7506256,254.164579 63.5867726,266.842344 C63.7059384,267.015273 63.8251043,267.181941 63.9472493,267.354869 L63.9502284,267.357851 C63.9532075,267.361131 63.9532075,267.364112 63.9564846,267.366796 C66.1965045,270.533479 68.6662165,273.583286 71.350427,276.493558 C77.5887587,283.270278 84.9740616,289.290286 93.2590665,294.260497 C96.5837934,296.251861 100.04854,298.076558 103.644369,299.7164 C105.065422,300.363392 106.510308,300.98355 107.970089,301.570912 C109.596703,302.226848 111.244171,302.844323 112.915472,303.41946 C113.412989,303.595371 113.913486,303.762635 114.417259,303.926619 C115.823118,304.391439 117.244171,304.826743 118.680119,305.235212 C120.321629,305.700629 121.983992,306.12669 123.664528,306.514289 C124.266018,306.657701 124.868103,306.791869 125.475849,306.920075 C126.962145,307.239099 128.460655,307.528307 129.971082,307.784719 C131.606931,308.062001 133.260357,308.306487 134.925402,308.509231 C139.295809,309.04859 143.761847,309.32617 148.310705,309.32617 C153.744667,309.32617 159.089553,308.926347 164.311698,308.166057 C165.982999,307.921869 167.642681,307.641606 169.286872,307.325563 L169.286872,307.322284 C170.782701,307.036057 172.268997,306.720313 173.740695,306.371474 C174.241192,306.254896 174.741688,306.135933 175.239503,306.010708 C176.916763,305.590313 178.575849,305.13384 180.217656,304.642186 C181.64139,304.215529 183.053505,303.762635 184.447746,303.279627 C184.775452,303.16931 185.100179,303.056012 185.424906,302.939732 C187.093525,302.349389 188.740695,301.719988 190.367309,301.055405 C191.836326,300.456117 193.286872,299.827015 194.719841,299.168096 C198.416961,297.465642 201.982999,295.578334 205.406038,293.517798 C213.244171,288.804297 220.313684,283.198722 226.388163,276.934526 L226.391142,276.934526 C241.072373,261.80326 249.971082,242.819856 249.971082,223.219276 C249.971082,203.72603 241.099186,196.499099 241.099186,196.499099 Z" id="Stroke-193" stroke="#32527D" stroke-width="8.82571996" stroke-linecap="round" stroke-linejoin="round"></path>
                <path d="M241.099186,196.499099 C240.447051,201.087674 237.524211,211.290173 230.353704,221.496249 C230.341787,221.511157 230.329871,221.528748 230.317954,221.543954 L230.386177,219.993558 C230.386177,206.815194 227.23424,194.37297 221.645362,183.377086 C219.765819,179.680286 217.60862,176.143893 215.20147,172.801896 C214.403357,171.692766 213.580814,170.60421 212.725799,169.539803 C196.480516,168.538307 176.705243,167.950946 155.371281,167.950946 C128.323615,167.950946 103.775452,168.896091 85.757577,170.428598 C85.2004767,171.147146 84.6523138,171.877621 84.1190467,172.614059 C81.8787289,175.708888 79.8499305,178.970682 78.0594638,182.37231 C72.1428798,193.612679 68.7975968,206.412687 68.7975968,219.993558 C68.7975968,220.479547 68.8032572,220.959276 68.8151738,221.442284 C61.6714796,211.254394 58.7605561,201.081413 58.105144,196.499099 C58.105144,196.499099 49.2451639,203.717384 49.2335452,223.183796 L49.2335452,223.219276 C49.2335452,223.320946 49.2335452,223.425299 49.2362264,223.529355 L49.2362264,223.532635 C49.2362264,223.917252 49.2421847,224.307832 49.2511221,224.69245 L49.2511221,224.716302 C49.5758491,239.644825 54.7506256,254.164579 63.5867726,266.842344 C63.7059384,267.015273 63.8251043,267.181941 63.9472493,267.354869 L63.9502284,267.357851 C63.9532075,267.361131 63.9532075,267.364112 63.9564846,267.366796 C66.1965045,270.533479 68.6662165,273.583286 71.350427,276.493558 C77.5887587,283.270278 84.9740616,289.290286 93.2590665,294.260497 C96.5837934,296.251861 100.04854,298.076558 103.644369,299.7164 C105.065422,300.363392 106.510308,300.98355 107.970089,301.570912 C109.596703,302.226848 111.244171,302.844323 112.915472,303.41946 C113.412989,303.595371 113.913486,303.762635 114.417259,303.926619 C115.823118,304.391439 117.244171,304.826743 118.680119,305.235212 C120.321629,305.700629 121.983992,306.12669 123.664528,306.514289 C124.266018,306.657701 124.868103,306.791869 125.475849,306.920075 C126.962145,307.239099 128.460655,307.528307 129.971082,307.784719 C131.606931,308.062001 133.260357,308.306487 134.925402,308.509231 C139.295809,309.04859 143.761847,309.32617 148.310705,309.32617 C153.744667,309.32617 159.089553,308.926347 164.311698,308.166057 C165.982999,307.921869 167.642681,307.641606 169.286872,307.325563 L169.286872,307.322284 C170.782701,307.036057 172.268997,306.720313 173.740695,306.371474 C174.241192,306.254896 174.741688,306.135933 175.239503,306.010708 C176.916763,305.590313 178.575849,305.13384 180.217656,304.642186 C181.64139,304.215529 183.053505,303.762635 184.447746,303.279627 C184.775452,303.16931 185.100179,303.056012 185.424906,302.939732 C187.093525,302.349389 188.740695,301.719988 190.367309,301.055405 C191.836326,300.456117 193.286872,299.827015 194.719841,299.168096 C198.416961,297.465642 201.982999,295.578334 205.406038,293.517798 C213.244171,288.804297 220.313684,283.198722 226.388163,276.934526 L226.391142,276.934526 C241.072373,261.80326 249.971082,242.819856 249.971082,223.219276 C249.971082,203.72603 241.099186,196.499099 241.099186,196.499099 Z" id="Stroke-195" stroke="#32527D" stroke-width="8.82571996" stroke-linecap="round" stroke-linejoin="round"></path>
                <path d="M68.8157994,221.442641 C68.8283118,221.460232 68.8405263,221.479911 68.8530387,221.497502 C72.5784608,226.801048 77.4520457,232.104594 83.7550248,236.623103 L68.8157994,221.442641 Z" id="Stroke-197" stroke="#32527D" stroke-width="8.82571996" stroke-linecap="round" stroke-linejoin="round"></path>
                <path d="M215.450586,236.623103 C221.733605,232.117116 226.597061,226.833248 230.317418,221.544908 L215.450586,236.623103 Z" id="Stroke-199" stroke="#32527D" stroke-width="8.82571996" stroke-linecap="round" stroke-linejoin="round"></path>
                <path d="M217.67708,185.425516 C201.367448,187.325049 177.559603,189.301506 154.214419,189.301506 C126.407368,189.301506 98.8365641,187.118131 81.8280238,184.531057 C83.1921748,180.874807 89.9304071,172.445722 90.4469911,171.435282 C107.145998,169.280231 129.897438,167.951065 154.965462,167.951065 C174.737458,167.951065 193.06576,168.776651 208.122066,170.185722 C208.914518,171.68245 216.233088,181.45054 217.67708,185.425516" id="Fill-201" fill="#DDB39B"></path>
                <path d="M151.136812,105.156548 L155.688649,114.386769 C155.971668,114.960416 156.517746,115.357854 157.150516,115.449387 L167.328471,116.929717 C168.920526,117.161382 169.556276,119.119651 168.40424,120.243986 L161.039196,127.428281 C160.581897,127.874616 160.373059,128.518031 160.480904,129.148326 L162.219533,139.292983 C162.491529,140.880052 160.82708,142.090553 159.402751,141.341294 L150.299374,136.551466 C149.733932,136.253909 149.057964,136.253909 148.492522,136.551466 L139.389146,141.341294 C137.964816,142.090553 136.300367,140.880052 136.572363,139.292983 L138.310993,129.148326 C138.419136,128.518031 138.21,127.874616 137.752701,127.428281 L130.387954,120.243986 C129.235621,119.119651 129.87137,117.161382 131.463724,116.929717 L141.641678,115.449387 C142.274151,115.357854 142.820824,114.960416 143.103247,114.386769 L147.655084,105.156548 C148.3671,103.712593 150.424796,103.712593 151.136812,105.156548" id="Fill-203" fill="#FFFFFF"></path>
                <path d="M151.136812,105.156548 L155.688649,114.386769 C155.971668,114.960416 156.517746,115.357854 157.150516,115.449387 L167.328471,116.929717 C168.920526,117.161382 169.556276,119.119651 168.40424,120.243986 L161.039196,127.428281 C160.581897,127.874616 160.373059,128.518031 160.480904,129.148326 L162.219533,139.292983 C162.491529,140.880052 160.82708,142.090553 159.402751,141.341294 L150.299374,136.551466 C149.733932,136.253909 149.057964,136.253909 148.492522,136.551466 L139.389146,141.341294 C137.964816,142.090553 136.300367,140.880052 136.572363,139.292983 L138.310993,129.148326 C138.419136,128.518031 138.21,127.874616 137.752701,127.428281 L130.387954,120.243986 C129.235621,119.119651 129.87137,117.161382 131.463724,116.929717 L141.641678,115.449387 C142.274151,115.357854 142.820824,114.960416 143.103247,114.386769 L147.655084,105.156548 C148.3671,103.712593 150.424796,103.712593 151.136812,105.156548 Z" id="Stroke-205" stroke="#32527D" stroke-width="4.76663357" stroke-linecap="round" stroke-linejoin="round"></path>
                <path d="M144.664439,123.656019 C144.664439,124.883217 144.300685,125.878154 143.852026,125.878154 C143.403664,125.878154 143.039911,124.883217 143.039911,123.656019 C143.039911,122.428821 143.403664,121.433587 143.852026,121.433587 C144.300685,121.433587 144.664439,122.428821 144.664439,123.656019" id="Fill-207" fill="#32527D"></path>
                <path d="M155.371907,123.656019 C155.371907,124.883217 155.008153,125.878154 154.559494,125.878154 C154.111132,125.878154 153.747378,124.883217 153.747378,123.656019 C153.747378,122.428821 154.111132,121.433587 154.559494,121.433587 C155.008153,121.433587 155.371907,122.428821 155.371907,123.656019" id="Fill-209" fill="#32527D"></path>
                <path d="M152.32993,126.667812 C152.870645,127.20896 151.061708,128.053627 149.497656,128.053627 C147.933307,128.053627 146.184846,127.263224 146.665382,126.667812 C147.555551,125.56554 151.32864,125.66572 152.32993,126.667812" id="Fill-211" fill="#32527D"></path>
            </g>
        </g>
    </g>
</svg>