<?xml version="1.0" encoding="UTF-8"?>
<svg width="200px" height="140px" viewBox="0 0 200 140" version="1.1" xmlns="http://www.w3.org/2000/svg" xmlns:xlink="http://www.w3.org/1999/xlink">
    <!-- Generator: Sketch 42 (36781) - http://www.bohemiancoding.com/sketch -->
    <title>trouver-une-creche</title>
    <desc>Created with Sketch.</desc>
    <defs></defs>
    <g id="Home" stroke="none" stroke-width="1" fill="none" fill-rule="evenodd">
        <g id="trouver-une-creche">
            <g transform="translate(52.000000, 10.000000)" id="Page-1">
                <g>
                    <g id="Group-3">
                        <path d="M60.0422324,114.284646 C60.0662545,116.868924 54.8668837,119.244957 48.430375,119.589755 C41.9938663,119.93626 36.7563428,118.121804 36.7323207,115.535819 C36.7082986,112.951541 41.9076694,110.577214 48.3441781,110.230709 C54.7813933,109.885911 60.0182103,111.700368 60.0422324,114.284646" id="Fill-2" fill="#ECECEC"></path>
                        <path d="M80.6668362,82.9982728 C66.1877516,97.7480026 51.0673448,100.59082 49.9203645,112.15692 C49.8545878,112.934507 49.1803772,113.504466 48.3951685,113.504466 C47.6264039,113.504466 46.9521933,112.934507 46.8699725,112.15692 C45.7887688,101.059 31.8317864,99.1891851 17.9899131,84.8994938 C6.99699089,76.1546912 0,62.7525078 0,47.7300118 C0,21.3653277 21.5788515,0 48.1978385,0 C74.8209366,0 96.3956771,21.3653277 96.3956771,47.7300118 C96.3956771,61.6980833 90.3360034,74.2738259 80.6668362,82.9982728 Z" id="Fill-1" fill="#B3C6E7"></path>
                    </g>
                    <path d="M48.6171647,8.73258915 C70.594787,8.73258915 88.4161475,26.3768975 88.4161475,48.1452678 C88.4161475,69.913638 70.594787,87.5579464 48.6171647,87.5579464 C26.6354312,87.5579464 8.81818182,69.913638 8.81818182,48.1452678 C8.81818182,26.3768975 26.6354312,8.73258915 48.6171647,8.73258915 Z" id="Fill-4" fill="#FEFEFE"></path>
                    <path d="M46.6042601,49.8391742 C45.9793819,49.8391742 45.4655019,49.3424954 45.4531687,48.7196114 C45.3421706,42.7838935 46.8796998,37.1168706 49.7779833,32.7566827 C50.1274218,32.231506 50.8386318,32.0849451 51.368956,32.4309918 C51.8992802,32.7770384 52.0472777,33.4854163 51.6978392,34.010593 C49.0544402,37.988094 47.6525754,43.1991495 47.7553514,48.6789001 C47.7676845,49.3099263 47.2620266,49.8269607 46.6248153,49.8391742 L46.6042601,49.8391742 Z" id="Fill-14" fill="#FEFEFE"></path>
                </g>
                <g transform="translate(20.349650, 23.510817)">
                    <path d="M1.20035942,24.197787 C1.1349785,26.6128533 4.15974377,30.1346321 5.2825352,30.9762893 L1.20035942,24.197787 Z" id="Fill-1" fill="#F8D3B8"></path>
                    <path d="M5.12127426,36.006193 C6.65116963,37.8862504 11.2569316,38.6206742 12.6619027,38.5388242 L5.12127426,36.006193 Z" id="Fill-3" fill="#F8D3B8"></path>
                    <path d="M54.0101296,16.8332776 C53.829883,18.0852538 53.0259133,20.8678883 51.0520025,23.6512353 C51.0493083,23.6553323 51.0458955,23.6601418 51.042393,23.6641496 L51.0616121,23.2414507 C51.0616121,11.0627155 41.1059313,1.18949765 28.8253664,1.18949765 C16.5448014,1.18949765 6.58903083,11.0627155 6.58903083,23.2414507 C6.58903083,23.3732658 6.59037796,23.5044574 6.5937907,23.6362725 C4.62751366,20.857735 3.82623825,18.0832054 3.6459917,16.8332776 C3.6459917,16.8332776 1.20471515,18.8043586 1.20471515,24.1209602 C1.20471515,24.1488373 1.20471515,24.1767144 1.20534381,24.205215 C1.20534381,24.311914 1.20678076,24.4193255 1.20947502,24.5260244 L1.20947502,24.5294089 C1.2985655,28.6008031 2.72284555,32.5599764 5.15451255,36.0175398 C5.18738262,36.0644767 5.2203425,36.110701 5.25393105,36.1576379 C5.25393105,36.1576379 5.25393105,36.1582613 5.25455971,36.1582613 C7.30795143,39.034057 10.060416,41.5563567 13.3214686,43.4948402 C14.5976537,44.2534005 15.9505356,44.9228965 17.369966,45.4890779 C18.3240064,45.870362 19.3075042,46.2040858 20.317765,46.4882007 C21.3286545,46.7716922 22.3656784,47.0047734 23.4252443,47.1835254 C25.0571626,47.458823 26.7438644,47.6036414 28.4724172,47.6042649 C30.4468669,47.6036414 32.378298,47.4146471 34.2452464,47.0584791 L34.2452464,47.0578557 C35.269248,46.8634284 36.273312,46.6180564 37.2541155,46.32646 C38.2081559,46.043681 39.1409116,45.7161027 40.0476227,45.3483564 C41.4958817,44.7618683 42.879658,44.0719766 44.1859291,43.2930206 C51.5536753,38.9021529 56.4514061,31.6797544 56.4514061,24.1209602 C56.4514061,18.8043586 54.0101296,16.8332776 54.0101296,16.8332776" id="Fill-5" fill="#F8D3B8"></path>
                    <path d="M54.0101296,16.8332776 C53.829883,18.0852538 53.0259133,20.8678883 51.0520025,23.6512353 C51.0493083,23.6553323 51.0458955,23.6601418 51.042393,23.6641496 L51.0616121,23.2414507 C51.0616121,11.0627155 41.1059313,1.18949765 28.8253664,1.18949765 C16.5448014,1.18949765 6.58903083,11.0627155 6.58903083,23.2414507 C6.58903083,23.3732658 6.59037796,23.5044574 6.5937907,23.6362725 C4.62751366,20.857735 3.82623825,18.0832054 3.6459917,16.8332776 C3.6459917,16.8332776 1.20471515,18.8043586 1.20471515,24.1209602 C1.20471515,24.1488373 1.20471515,24.1767144 1.20534381,24.205215 C1.20534381,24.311914 1.20678076,24.4193255 1.20947502,24.5260244 L1.20947502,24.5294089 C1.2985655,28.6008031 2.72284555,32.5599764 5.15451255,36.0175398 C5.18738262,36.0644767 5.2203425,36.110701 5.25393105,36.1576379 C5.25393105,36.1576379 5.25393105,36.1582613 5.25455971,36.1582613 C7.30795143,39.034057 10.060416,41.5563567 13.3214686,43.4948402 C14.5976537,44.2534005 15.9505356,44.9228965 17.369966,45.4890779 C18.3240064,45.870362 19.3075042,46.2040858 20.317765,46.4882007 C21.3286545,46.7716922 22.3656784,47.0047734 23.4252443,47.1835254 C25.0571626,47.458823 26.7438644,47.6036414 28.4724172,47.6042649 C30.4468669,47.6036414 32.378298,47.4146471 34.2452464,47.0584791 L34.2452464,47.0578557 C35.269248,46.8634284 36.273312,46.6180564 37.2541155,46.32646 C38.2081559,46.043681 39.1409116,45.7161027 40.0476227,45.3483564 C41.4958817,44.7618683 42.879658,44.0719766 44.1859291,43.2930206 C51.5536753,38.9021529 56.4514061,31.6797544 56.4514061,24.1209602 C56.4514061,18.8043586 54.0101296,16.8332776 54.0101296,16.8332776" id="Fill-7" fill="#F8D3B8"></path>
                    <path d="M6.59381764,23.6363171 C6.59723038,23.6410375 6.60064312,23.6464704 6.60405586,23.6512799 C7.62940459,25.0976834 8.97070118,26.5439978 10.705361,27.7762908 L6.59381764,23.6363171 Z" id="Fill-9" fill="#F8D3B8"></path>
                    <path d="M46.9507603,27.7763175 C48.6799417,26.5474089 50.0185441,25.1065274 51.0424558,23.6642209 L46.9507603,27.7763175 Z" id="Fill-11" fill="#F8D3B8"></path>
                    <path d="M52.3038045,31.0630913 C53.4265959,30.2214341 56.4513612,26.6996554 56.3859803,24.2845891 L52.3038045,31.0630913 Z" id="Fill-13" fill="#F8D3B8"></path>
                    <path d="M44.7631491,38.5388687 C46.1682101,38.6206297 50.7738822,37.8862949 52.3037776,36.0062376 L44.7631491,38.5388687 Z" id="Fill-15" fill="#F8D3B8"></path>
                    <path d="M44.185938,43.2930028 C42.8796669,44.0719588 41.4958009,44.7618505 40.0476317,45.3484276 C39.1409206,45.7160849 38.2080751,46.0437523 37.2540346,46.3264422 C36.273321,46.6180386 35.2692569,46.8634106 34.2452554,47.0578379 L34.2452554,47.0584613 C32.378307,47.4146293 30.4468758,47.6036236 28.4723364,47.6042471 C26.7438734,47.6036236 25.0571716,47.4588052 23.4252533,47.1835966 C22.3656874,47.0048446 21.3286635,46.7716744 20.317774,46.488272 C19.3075132,46.204157 18.3240154,45.8704332 17.369975,45.4890601 C15.9505446,44.9228786 14.5975729,44.2533826 13.3214776,43.4949115 C15.8114306,39.8762308 21.8146197,37.3253415 28.8253753,37.3253415 C35.7043813,37.3253415 41.6144385,39.7817336 44.185938,43.2930028" id="Fill-17" fill="#F7B480"></path>
                    <g id="Group-21" transform="translate(0.000000, 22.990512)" fill="#324A7A">
                        <path d="M5.28162813,9.17527477 C5.02962423,9.17527477 4.77564453,9.09689822 4.55929478,8.93471222 C3.27224279,7.96987915 -0.0784391325,4.1227487 0.00140101954,1.17534534 C0.0191831906,0.518585526 0.571508202,0.00397226573 1.23259185,0.0182225464 C1.8947532,0.0358572687 2.41717183,0.582444596 2.39938966,1.23920441 C2.34990493,3.06324033 4.9419707,6.23944976 6.00575765,7.03684203 C6.53419348,7.43299983 6.6387311,8.17891296 6.23935072,8.70296703 C6.00351243,9.01246531 5.64472569,9.17527477 5.28162813,9.17527477" id="Fill-19"></path>
                    </g>
                    <path d="M12.4474838,39.7338082 C10.5927495,39.7338082 5.95618311,38.9260844 4.1879348,36.7530948 C3.77184996,36.241955 3.8525882,35.4931028 4.36809154,35.0805571 C4.88350508,34.6681006 5.63870849,34.7479912 6.05461372,35.25922 C6.54523998,35.8620069 7.71078047,36.4455559 9.25244082,36.8602391 C10.6979158,37.2490936 12.0757646,37.381354 12.5915374,37.3514284 C13.2519924,37.3126855 13.8203932,37.8133157 13.8592805,38.4690958 C13.8980779,39.1248759 13.3935313,39.6876729 12.732268,39.7262377 C12.6467699,39.7312253 12.5514826,39.7338082 12.4474838,39.7338082" id="Fill-22" fill="#324A7A"></path>
                    <path d="M26.2089444,1.34050609 L26.210792,1.34050609 L26.2089444,1.34050609 Z M3.17788952,19.685694 C2.763062,20.6940794 2.40409565,22.139236 2.40409565,24.1209157 C2.40409565,24.2469416 2.40535297,24.37368 2.40849629,24.4997059 C2.49165937,28.2904587 3.81409608,32.0827256 6.23274078,35.4701954 C8.99643144,39.3413732 13.1105792,42.5075184 17.8175558,44.3856163 C18.7319007,44.7509579 19.6829774,45.0732814 20.6450108,45.3438587 C21.6193481,45.6171078 22.6226038,45.8415497 23.6263086,46.0109499 C26.9495988,46.5716094 30.3787737,46.5491652 33.821869,45.944597 C33.8852742,45.920995 33.9513735,45.9024697 34.0198978,45.8894663 C34.9867809,45.7059939 35.9589627,45.4697064 36.9095904,45.1871056 C37.8140563,44.9190222 38.716726,44.6030222 39.5938001,44.2473886 C48.959526,40.4524498 55.2519897,32.3642577 55.2519897,24.1209157 C55.2519897,22.1395032 54.8932928,20.6945248 54.4783754,19.6860502 C53.957753,21.1074266 53.1598903,22.7450511 52.0382664,24.3282573 C52.0127607,24.3649517 51.9856384,24.4002212 51.9572587,24.4333531 C51.6255943,24.821406 51.0818011,24.957229 50.6041074,24.7713519 C50.1265034,24.5853858 49.821153,24.1188672 49.8442339,23.6105775 L49.8621957,23.2150431 C49.8552804,17.6524461 47.6677141,12.4236619 43.7006734,8.48951564 C39.7271664,4.54904584 34.4444247,2.37899529 28.8253484,2.37899529 C27.9974895,2.37899529 27.1642422,2.42700092 26.3485973,2.52194342 C15.7675768,3.75192077 7.78850113,12.6594149 7.78850113,23.2414062 C7.78850113,23.363157 7.78966865,23.4841063 7.79281196,23.605679 C7.80646292,24.1300893 7.47210422,24.6014173 6.96980279,24.7658299 C6.46750136,24.9304207 5.91589482,24.7489968 5.61207116,24.319618 C4.49359056,22.7391728 3.6977935,21.1046656 3.17788952,19.685694 L3.17788952,19.685694 Z M28.4846133,48.794386 C26.7129522,48.794386 24.9561096,48.6483206 23.2241441,48.3561899 C22.1362884,48.1726284 21.048702,47.9293049 19.9914711,47.632899 C18.9466339,47.338987 17.9141004,46.9889645 16.9216218,46.5922723 C11.793082,44.5460211 7.30155703,41.0842716 4.27499559,36.8449022 C1.57857183,33.0683997 0.103908949,28.8186988 0.0104178376,24.555193 C0.00682547982,24.4134027 0.00529872775,24.2668029 0.00529872775,24.1209157 C0.00529872775,21.7221481 0.461887404,19.6399149 1.36258131,17.9321969 C2.06686306,16.5965894 2.80670915,15.9770584 2.88879452,15.9108837 C3.22396151,15.6402174 3.68010114,15.5695004 4.08280445,15.7254519 C4.48541795,15.8815815 4.77217791,16.2405105 4.8333378,16.6649016 C4.92081171,17.271162 5.18161689,18.3026151 5.68804953,19.5269815 C7.32643411,9.42549188 15.5420666,1.38298974 26.0692915,0.159068758 C26.9772599,0.053616681 27.9045373,0 28.8253484,0 C35.0851217,0 40.9703018,2.41764918 45.3968051,6.80735907 C48.9288113,10.309989 51.1946012,14.7339886 51.9661498,19.5325034 C52.4739296,18.3059105 52.7352736,17.2727652 52.8228373,16.6650798 C52.8839972,16.2405995 53.1706674,15.8816706 53.5732809,15.725541 C53.976074,15.5693223 54.4322136,15.6402174 54.7674704,15.9108837 C54.88521,16.0059152 57.6508764,18.3058215 57.6508764,24.1209157 C57.6508764,33.3200062 50.758938,42.2931408 40.5014093,46.4495914 C39.5525778,46.8341708 38.5754565,47.1762666 37.5975269,47.4661708 C36.6392655,47.7509982 35.6594499,47.9926296 34.6827776,48.1850974 C34.6122776,48.2124401 34.5384546,48.2334593 34.4618476,48.2473533 C32.4620718,48.6119824 30.464182,48.7942969 28.4846133,48.794386 L28.4846133,48.794386 Z" id="Fill-24" fill="#324A7A"></path>
                    <path d="M5.61543002,24.3243028 L5.6174624,24.3243028 L5.61543002,24.3243028 Z M10.7043641,28.9658864 C10.4625984,28.9658864 10.2185875,28.8936553 10.0069078,28.7433148 C8.32379837,27.5476272 6.84877626,26.0646183 5.62297397,24.3353468 C5.6183039,24.3289341 5.61147842,24.319048 5.60447332,24.3086275 C5.23481971,23.7740638 5.36495287,23.0423119 5.90012437,22.6660155 C6.4405946,22.2860674 7.18906235,22.4124495 7.57227712,22.9483491 C7.57856374,22.9570774 7.58502999,22.9663401 7.59131661,22.9756028 C8.66273733,24.4841731 9.94449059,25.7726657 11.4038859,26.8092846 C11.9423804,27.1919046 12.0662269,27.9349677 11.6804975,28.4689969 C11.4462758,28.7931908 11.0780591,28.9658864 10.7043641,28.9658864 L10.7043641,28.9658864 Z" id="Fill-26" fill="#324A7A"></path>
                    <path d="M46.951838,28.9659042 C46.578143,28.9659042 46.2101059,28.7933868 45.9758842,28.4691929 C45.5899752,27.9352527 45.7137319,27.1921896 46.2521365,26.8094805 C47.7126096,25.7716147 48.994273,24.4829441 50.0617422,22.9793613 C50.4430709,22.4423039 51.1911794,22.3134279 51.732907,22.6915947 C52.2745448,23.0697615 52.4044983,23.8117558 52.0231695,24.3489024 C50.8005105,26.0710488 49.3290808,27.5495154 47.6494739,28.7431545 C47.437884,28.893584 47.1936037,28.9659042 46.951838,28.9659042" id="Fill-28" fill="#324A7A"></path>
                    <path d="M52.3046757,32.252589 C51.9415781,32.252589 51.5827914,32.0897795 51.3469531,31.7802812 C50.9475727,31.2562271 51.0522001,30.510314 51.5805461,30.1141562 C52.6444229,29.3167639 55.2364887,26.1406436 55.1870039,24.3165186 C55.1692218,23.6597588 55.6916404,23.1131715 56.3538017,23.0955367 C56.3647584,23.0952695 56.3757151,23.0950914 56.386582,23.0950914 C57.0341045,23.0950914 57.5674798,23.6068546 57.5849926,24.2526595 C57.6648327,27.200241 54.314061,31.0472824 53.027009,32.0120264 C52.8105694,32.1742124 52.5565897,32.252589 52.3046757,32.252589" id="Fill-30" fill="#324A7A"></path>
                    <path d="M44.9776129,39.7338082 C44.8735243,39.7338082 44.7784166,39.7312253 44.6928287,39.7262377 C44.0315655,39.6876729 43.5270188,39.1248759 43.5658163,38.4690958 C43.6046137,37.8132266 44.1746311,37.3117058 44.8335593,37.3514284 C45.3493321,37.3807306 46.7272707,37.2490045 48.1726559,36.8602391 C49.7143163,36.4455559 50.8798567,35.8620069 51.370483,35.25922 C51.7863882,34.7478131 52.5417713,34.6680115 53.0570052,35.0805571 C53.5725085,35.4931028 53.6532468,36.241955 53.2371619,36.7530948 C51.4690932,38.9259954 46.8326166,39.7338082 44.9776129,39.7338082" id="Fill-32" fill="#324A7A"></path>
                    <path id="Fill-34" fill="#324A7A"></path>
                    <path d="M51.0424379,24.8999162 C50.3548606,24.8999162 49.7974165,24.3481631 49.7974165,23.6661981 L49.7974165,23.6641496 C49.7974165,22.9822737 50.3548606,22.4294519 51.0424379,22.4294519 C51.7300152,22.4294519 52.2874593,22.9822737 52.2874593,23.6641496 C52.2874593,24.3460256 51.7300152,24.8999162 51.0424379,24.8999162" id="Fill-36" fill="#324A7A"></path>
                    <path d="M12.8794289,54.310251 C12.1223395,54.310251 11.508675,53.701675 11.508675,52.9508633 C11.508675,49.6679549 13.3326049,46.7315065 16.6444893,44.6825833 C17.2865335,44.2849114 18.1322643,44.4794277 18.532902,45.1164153 C18.9336295,45.7534028 18.7377562,46.5919428 18.0954427,46.9892584 C14.9172837,48.9555299 14.2501829,51.3165343 14.2501829,52.9508633 C14.2501829,53.701675 13.6365184,54.310251 12.8794289,54.310251" id="Fill-38" fill="#324A7A"></path>
                    <path d="M18.6365865,55.6770934 C17.8794971,55.6770934 17.2658325,55.0685174 17.2658325,54.3177057 C17.2658325,50.7805189 18.2522042,47.9790027 19.0797038,46.2516906 C19.4043631,45.5737335 20.2216245,45.2846309 20.9060585,45.6072217 C21.589774,45.9293671 21.880755,46.740208 21.555916,47.4183433 C20.8494789,48.8930692 20.0073404,51.2872054 20.0073404,54.3177057 C20.0073404,55.0685174 19.3936759,55.6770934 18.6365865,55.6770934" id="Fill-40" fill="#324A7A"></path>
                    <path d="M23.7987507,54.310251 C23.0416613,54.310251 22.4279968,53.701675 22.4279968,52.9508633 C22.4279968,50.991806 22.3078324,49.2390215 22.0710062,47.7409607 C21.9537158,46.9993227 22.4649083,46.3037308 23.212927,46.1874129 C23.9605864,46.0718966 24.6620841,46.5781378 24.7794644,47.3198649 C25.0382938,48.9566878 25.1695047,50.8511735 25.1695047,52.9508633 C25.1695047,53.701675 24.5558401,54.310251 23.7987507,54.310251" id="Fill-42" fill="#324A7A"></path>
                    <path d="M44.7712499,54.310251 C44.0141605,54.310251 43.400496,53.701675 43.400496,52.9508633 C43.400496,49.8988985 41.1956864,47.9556946 39.3461609,46.8630544 C38.6957646,46.4788312 38.4826479,45.6444772 38.8700837,44.9994739 C39.2576093,44.3546487 40.0988497,44.1431211 40.7492461,44.5273443 C44.2268281,46.5818785 46.1420038,49.5732796 46.1420038,52.9508633 C46.1420038,53.701675 45.5283393,54.310251 44.7712499,54.310251" id="Fill-44" fill="#324A7A"></path>
                    <path d="M39.0140924,55.6770934 C38.257003,55.6770934 37.6433384,55.0685174 37.6433384,54.3177057 C37.6433384,51.2106101 36.7619535,48.7702496 36.0225564,47.2702294 C35.6900837,46.5957458 35.9719042,45.7816985 36.6520273,45.4519827 C37.3324199,45.1220887 38.153094,45.4018395 38.4854769,46.076234 C39.3520434,47.8340061 40.3848463,50.6907421 40.3848463,54.3177057 C40.3848463,55.0685174 39.7711818,55.6770934 39.0140924,55.6770934" id="Fill-46" fill="#324A7A"></path>
                    <path d="M33.8518293,54.310251 C33.0947399,54.310251 32.4810754,53.701675 32.4810754,52.9508633 C32.4810754,50.7961318 32.6193812,48.8571139 32.8921309,47.1878717 C33.0132832,46.446768 33.7176548,45.943555 34.4645059,46.0634355 C35.211896,46.1835832 35.7194961,46.8817578 35.5983439,47.6227724 C35.3490342,49.1487103 35.2225832,50.9413065 35.2225832,52.9508633 C35.2225832,53.701675 34.6089187,54.310251 33.8518293,54.310251" id="Fill-48" fill="#324A7A"></path>
                    <path d="M25.5136166,27.9938213 C25.5136166,27.7695575 25.4334172,27.5642644 25.2997815,27.4038597 C25.3689344,27.6226906 25.4423083,27.8401855 25.5170293,28.0550085 C25.5149637,28.0346128 25.5136166,28.014217 25.5136166,27.9938213 M25.6594808,28.2487232 C25.6114427,28.1847751 25.5648827,28.1202035 25.5170293,28.0550085 C25.5353208,28.1304459 25.5876084,28.2045474 25.6722293,28.2766003 C25.6677951,28.2676939 25.6637303,28.2582531 25.6594808,28.2487232 M32.0123715,28.3099104 C32.1185881,28.2228946 32.1814931,28.1324944 32.1971334,28.0400457 C32.1368065,28.1304459 32.0752765,28.2208461 32.0123715,28.3099104 M32.0069617,28.3709472 C31.9971693,28.4116977 31.9886703,28.4524482 31.9786931,28.4931988 C32.0027122,28.431984 32.0252531,28.3709472 32.0479788,28.3099104 C32.0352303,28.3301967 32.0224817,28.3506609 32.0069617,28.3709472" id="Fill-50" fill="#FEFEFE"></path>
                    <path d="M31.2090574,30.8621267 C31.006179,31.3440534 30.7827344,31.7756588 30.5428547,32.150174 C30.2152316,32.6606012 29.5531601,33.5163306 28.7993038,33.5163306 C28.0453577,33.5163306 27.3832862,32.6606012 27.0557529,32.150174 C26.8144363,31.7736103 26.590363,31.3392439 26.3860476,30.8539328 C26.0708182,30.1063275 25.8028284,29.2383072 25.592406,28.2765914 C25.5512735,28.2045384 25.5629487,28.1848552 25.5862092,28.2487143 C25.592406,28.2650131 25.5978843,28.2806884 25.6033627,28.2962746 C25.9694239,29.3002069 26.3950285,30.2360941 26.8589815,30.9742586 C27.4580072,31.9258211 28.1207972,32.5484693 28.7999325,32.5606711 L28.8205885,32.5606711 C29.4997238,32.5484693 30.1625138,31.9265336 30.760821,30.9749711 C31.2090574,30.2639712 31.6202926,29.3688754 31.9773729,28.406358 C31.9492627,28.5096726 31.5003078,30.1715225 31.2090574,30.8621267 M26.9295714,23.3440349 C27.5251843,22.3619234 28.2420393,21.751566 28.7993038,21.751566 C29.3743505,21.751566 30.1378163,22.3788456 30.7450146,23.3501803 C31.3187141,24.2670968 31.7278837,25.4028442 31.9362404,26.6371857 C31.2084288,27.9808981 30.5613553,28.3030435 30.0480074,28.76119 C29.2872358,29.4409284 28.8205885,29.4028089 28.8205885,29.4028089 C28.8205885,29.4028089 28.3497202,29.4409284 27.5848174,28.762526 C27.0735351,28.3091889 26.4306827,27.9986219 25.7088882,26.6793131 C25.9564017,25.4103256 26.3758094,24.2568544 26.9295714,23.3440349 M33.9512837,27.951685 C33.9477812,27.8768711 33.9437398,27.8021461 33.9388901,27.7280447 C33.6729658,23.4615997 31.3502371,19.8993858 28.7993038,19.8993858 C27.5355123,19.8993858 26.303154,20.7836157 25.3292658,22.389088 C25.0173593,22.9043247 24.7411968,23.478611 24.5067955,24.0964497 C24.5033827,24.1046436 24.49997,24.1127485 24.4971859,24.1216549 C24.0667316,25.2600742 23.7754812,26.5467855 23.6528022,27.8857775 C23.6514551,27.8938823 23.6507366,27.9020762 23.6500181,27.9101811 C23.648671,27.9190875 23.6480423,27.9285283 23.6480423,27.9374347 C23.6466054,27.9625509 23.6459767,27.987667 23.6466054,28.0128722 C23.6466054,28.0257865 23.6466054,28.0393243 23.6480423,28.0522386 C23.6507366,28.091694 23.656215,28.130437 23.6631302,28.1691799 C23.7110882,28.414552 23.7617405,28.6552036 23.8166137,28.8910457 C24.1901291,30.5059588 24.7219777,31.9014175 25.3723741,32.9711683 L25.3730926,32.9718808 C25.4080282,33.0303069 25.4436824,33.0873971 25.480055,33.1438638 C26.6595159,34.9824172 27.935701,35.3685108 28.7993038,35.3685108 C29.6628168,35.3685108 30.9390019,34.9824172 32.1185526,33.1438638 C32.1754017,33.0547996 32.2316221,32.9637759 32.2864953,32.8699022 C32.287124,32.8699022 32.287124,32.8692788 32.287124,32.8692788 C32.8917178,31.8436148 33.3899778,30.5331234 33.7497525,29.0256218 C33.7497525,29.0249093 33.7497525,29.0249093 33.7504709,29.0241968 C33.8169296,28.7456038 33.8786283,28.4607763 33.9354774,28.1691799 C33.9450869,28.1175227 33.9512837,28.0658654 33.9519124,28.0128722 C33.9526309,27.9924765 33.9519124,27.9720807 33.9512837,27.951685" id="Fill-52" fill="#324A7A"></path>
                    <path d="M31.977364,28.4063937 C31.9492538,28.5097082 31.5003887,30.1715581 31.2090484,30.8621623 C31.00617,31.344 30.7828152,31.7756053 30.5429355,32.1501205 C30.2152226,32.6605478 29.5531511,33.5162771 28.7992948,33.5162771 C28.0453487,33.5162771 27.3832772,32.6605478 27.055744,32.1501205 C26.8144273,31.7735569 26.590354,31.3392796 26.3860387,30.8539684 C26.0708093,30.106274 25.8028194,29.2383429 25.592397,28.276538 C25.5512645,28.204485 25.5629397,28.1848018 25.5862002,28.2486609 C25.592397,28.2650487 25.5978754,28.2806349 25.6033537,28.2963103 C25.969415,29.3001535 26.3950196,30.2361297 26.8589726,30.9742942 C27.4579982,31.9258567 28.1207882,32.5484159 28.8000133,32.5607067 L28.8205795,32.5607067 C29.4997148,32.5484159 30.1625048,31.9264802 30.760812,30.9749177 C31.2090484,30.2640068 31.6202836,29.368822 31.977364,28.4063937" id="Fill-54" fill="#FEFEFE"></path>
                    <path d="M31.9362674,26.6371501 C31.2083659,27.9808625 30.5613822,28.3030969 30.0480343,28.7611544 C29.2872627,29.4408928 28.8205257,29.4027733 28.8205257,29.4027733 C28.8205257,29.4027733 28.3496574,29.4408928 27.5848444,28.7625794 C27.0735621,28.3091533 26.4306198,27.9985863 25.7089151,26.6792775 C25.9563388,25.41029 26.3758364,24.2569079 26.9295983,23.3440883 C27.5252112,22.3618878 28.2420662,21.7515304 28.7992409,21.7515304 C29.3742876,21.7515304 30.1378433,22.378899 30.7450415,23.3501447 C31.3187411,24.2670612 31.7279106,25.4028086 31.9362674,26.6371501" id="Fill-56" fill="#FEFEFE"></path>
                    <path id="Fill-58" fill="#FEFEFE"></path>
                    <path d="M13.5352767,22.5670205 C13.3949952,22.5670205 13.2524684,22.5354918 13.1182938,22.4690499 C12.6571249,22.2403329 12.4701426,21.6841266 12.700772,21.2266035 C13.1359862,20.3634818 14.0937986,19.8412981 15.3284919,19.7943612 C16.5042706,19.7476916 18.04638,20.1591684 18.6545662,21.1643476 C18.9198618,21.6029891 18.7764369,22.1718424 18.3343075,22.4349383 C17.8919985,22.6982122 17.3185683,22.5557984 17.0530931,22.1172461 C16.9543931,21.9586226 16.2654687,21.607086 15.3830958,21.6457399 C14.874867,21.6681841 14.4871617,21.8250262 14.3712184,22.0549901 C14.2075865,22.3794512 13.8777182,22.5670205 13.5352767,22.5670205" id="Fill-60" fill="#324A7A"></path>
                    <path d="M44.1155727,22.5670205 C43.7731312,22.5670205 43.4433528,22.3795403 43.2796311,22.0549901 C43.1636877,21.8250262 42.7758927,21.6681841 42.2674843,21.6457399 C41.3834948,21.607086 40.6962768,21.9586226 40.5975767,22.1173351 C40.3321913,22.5559766 39.7585816,22.6978559 39.3163623,22.4349383 C38.8742329,22.1717534 38.7308978,21.6029 38.9961935,21.1643476 C39.6044694,20.1591684 41.1437948,19.7479588 42.3223575,19.7943612 C43.5569611,19.8412981 44.5147735,20.3633928 44.9500775,21.2266035 C45.1807068,21.6840375 44.9937246,22.2403329 44.5325557,22.4690499 C44.3983811,22.5354918 44.2559441,22.5670205 44.1155727,22.5670205" id="Fill-62" fill="#324A7A"></path>
                </g>
            </g>
        </g>
    </g>
</svg>